<svg xmlns="http://www.w3.org/2000/svg" width="219" height="82" viewBox="0 0 219 82">
  <g id="コンポーネント_8_1" data-name="コンポーネント 8 – 1" transform="translate(0)">
    <rect id="長方形_17" data-name="長方形 17" width="219" height="82" rx="7" transform="translate(0 0)" fill="#fa7b99"/>
    <g id="グループ_630" data-name="グループ 630" transform="translate(68.629 30.534)">
      <path id="パス_502" data-name="パス 502" d="M506.062,488.6c-.237,5.747.388,11.48.4,17.225a1.083,1.083,0,0,0,2.164,0c-.012-5.745-.637-11.478-.4-17.225.056-1.393-2.108-1.391-2.166,0Z" transform="translate(-506.008 -487.18)" fill="#fff"/>
      <path id="パス_503" data-name="パス 503" d="M507.638,495.144c1.562,0,3.125-.095,4.688-.059,1.2.026,2.389.191,3.587.228,1.559.049,3.117,0,4.676-.034a1.083,1.083,0,0,0,0-2.164c-1.559.032-3.117.081-4.676.034-1.158-.035-2.306-.2-3.465-.226-1.6-.041-3.207.053-4.811.058a1.083,1.083,0,0,0,0,2.164Z" transform="translate(-505.7 -484.359)" fill="#fff"/>
      <path id="パス_504" data-name="パス 504" d="M515.627,489.227c.287.359-.424-.681-.254-.391-.121-.2-.021-.272-.012-.067s.032.4.044.6c.037.611.061,1.222.084,1.833.069,1.8.116,3.606.156,5.409.072,3.311.222,6.657.046,9.968-.075,1.391,2.091,1.387,2.164,0,.185-3.476.023-6.991-.057-10.467-.043-1.825-.09-3.651-.167-5.476-.038-.886.112-2.208-.475-2.941-.869-1.089-2.391.452-1.53,1.53Z" transform="translate(-501.102 -487.304)" fill="#fff"/>
      <path id="パス_505" data-name="パス 505" d="M528.774,487.316a8.321,8.321,0,0,0-7.906,6.907c-.837,4.1-1.2,9.178,2.65,11.9a9.41,9.41,0,0,0,5.7,1.506,8.814,8.814,0,0,0,5.424-1.652c2.717-2.236,3.989-6.565,3.377-9.969-.788-4.369-4.38-8.9-9.175-8.619-1.384.083-1.393,2.248,0,2.166,3.433-.206,5.806,2.764,6.765,5.773a9.189,9.189,0,0,1-1.5,8.1c-1.79,2.33-5.646,2.544-8.221,1.527-3.534-1.4-3.68-5.339-3.208-8.581a9.517,9.517,0,0,1,1.5-4.482,5.7,5.7,0,0,1,4.6-2.408,1.083,1.083,0,0,0,0-2.166Z" transform="translate(-498.462 -487.308)" fill="#fff"/>
      <path id="パス_506" data-name="パス 506" d="M537.38,487.572h0a1.121,1.121,0,0,0-1.332.756,7.189,7.189,0,0,0-.183,1.967q-.151,2.075-.29,4.151-.321,4.7-.622,9.392c-.049.756-.122,1.513-.143,2.271-.043,1.393,2.121,1.391,2.164,0,.153-5.058.646-10.134,1.011-15.18.038-.531.077-1.064.119-1.6.014-.167.032-.333.043-.5.018-.284,0,.037-.012.07l-1.33.756h0c1.355.318,1.933-1.768.574-2.088Z" transform="translate(-490.825 -487.191)" fill="#fff"/>
      <path id="パス_507" data-name="パス 507" d="M535.925,489.068a57.4,57.4,0,0,1,3.264,6.9c1.2,2.744,2.366,5.505,3.546,8.259a8.652,8.652,0,0,0,.971,2.017c.867,1.089,2.39-.452,1.53-1.532.33.414.017-.087-.061-.261-.163-.365-.321-.735-.479-1.1q-.758-1.768-1.509-3.538c-1.245-2.914-2.488-5.831-3.819-8.708a30.871,30.871,0,0,0-1.573-3.129c-.724-1.188-2.6-.1-1.869,1.092Z" transform="translate(-490.324 -487.231)" fill="#fff"/>
      <path id="パス_508" data-name="パス 508" d="M548.6,487.761a7.619,7.619,0,0,0-1.179,2.161q-1.088,2.24-2.114,4.511c-1.634,3.589-3.253,7.21-4.566,10.932l2.126.287a1.727,1.727,0,0,1-.031-.434,1.083,1.083,0,0,0-2.164,0,1.721,1.721,0,0,0,.029.434,1.088,1.088,0,0,0,2.126.287c1.252-3.545,2.792-6.993,4.349-10.414.667-1.468,1.347-2.929,2.049-4.381.228-.469.457-.938.695-1.4.078-.15.171-.3.24-.454s.232-.249-.031,0c1.006-.967-.525-2.5-1.53-1.53Z" transform="translate(-487.738 -487.236)" fill="#fff"/>
      <path id="パス_509" data-name="パス 509" d="M546.056,488.792a11.91,11.91,0,0,1,.551,3.508c.176,1.993.284,3.992.38,5.99.09,1.874.162,3.748.237,5.623a19.671,19.671,0,0,0,.173,2.924c.263,1.367,2.349.788,2.088-.576.078.406.014.13.006-.05-.008-.208-.023-.414-.032-.62-.032-.657-.056-1.313-.081-1.97-.075-1.907-.151-3.816-.244-5.722-.1-1.976-.208-3.954-.391-5.925a13.5,13.5,0,0,0-.6-3.757c-.518-1.274-2.613-.716-2.086.576Z" transform="translate(-484.941 -487.213)" fill="#fff"/>
      <path id="パス_510" data-name="パス 510" d="M553.117,489.551c1.929-.17,3.9,0,5.832,0h3.389v-2.165h-.008a1.083,1.083,0,0,0,0,2.165h.008a1.083,1.083,0,0,0,0-2.165h-3.389c-1.936,0-3.9-.168-5.832,0a1.113,1.113,0,0,0-1.083,1.083,1.092,1.092,0,0,0,1.083,1.083Z" transform="translate(-481.745 -487.311)" fill="#fff"/>
      <path id="パス_511" data-name="パス 511" d="M552.273,488.147a20.687,20.687,0,0,0-.339,4.155c-.043,1.924-.024,3.851,0,5.777.024,1.816.066,3.63.092,5.446.008.632.017,1.264.011,1.9,0,.217-.014.434-.015.651a.857.857,0,0,0-.015.214c-.055-.159.162-.452.275-.589-.881,1.064.643,2.605,1.532,1.53.612-.742.394-2.089.386-2.984-.018-1.79-.061-3.58-.089-5.37-.032-2.014-.056-4.029-.024-6.043.014-.857.035-1.715.09-2.57a8.134,8.134,0,0,1,.182-1.538c.312-1.355-1.775-1.933-2.088-.576Z" transform="translate(-481.811 -487.278)" fill="#fff"/>
      <path id="パス_512" data-name="パス 512" d="M553.4,495.324a1.822,1.822,0,0,1,.217-.058c.055-.012.24-.012.031-.008-.228,0,.012,0,.061,0,.287-.026.574-.043.863-.055.812-.032,1.626-.032,2.44-.028,1.416.006,2.831.057,4.245.058a1.083,1.083,0,0,0,0-2.164c-1.446,0-2.894-.053-4.342-.06-.806,0-1.614,0-2.42.032a5.56,5.56,0,0,0-1.669.2,1.112,1.112,0,0,0-.756,1.332,1.09,1.09,0,0,0,1.33.756Z" transform="translate(-481.745 -484.31)" fill="#fff"/>
      <path id="パス_513" data-name="パス 513" d="M553.191,501.5h9.348a1.083,1.083,0,0,0,0-2.164h-9.348a1.083,1.083,0,0,0,0,2.164Z" transform="translate(-481.686 -480.971)" fill="#fff"/>
    </g>
  </g>
</svg>
