<svg xmlns="http://www.w3.org/2000/svg" width="219" height="82" viewBox="0 0 219 82">
  <g id="コンポーネント_7_1" data-name="コンポーネント 7 – 1" transform="translate(0)">
    <rect id="長方形_17" data-name="長方形 17" width="219" height="82" rx="7" transform="translate(0 0)" fill="#fa7b99"/>
    <g id="グループ_132" data-name="グループ 132" transform="translate(25.584 28.198)">
      <path id="パス_514" data-name="パス 514" d="M582.652,490.191c4.536-.008,9.065-.331,13.6-.318a1.083,1.083,0,0,0,0-2.164c-4.536-.015-9.065.31-13.6.316a1.083,1.083,0,0,0,0,2.165Z" transform="translate(-581.607 -482.518)" fill="#fff"/>
      <path id="パス_515" data-name="パス 515" d="M588.338,485.775c.151,3.578,0,7.182-.066,10.76q-.105,5.546-.263,11.09l1.37-1.044c-1.626-.254-6.225-1.182-5.447-3.622.764-2.4,4.333-3.283,6.448-3.871a30.7,30.7,0,0,1,6.6-1.278c1.827-.095,4.844-.157,5.933,1.672a4.3,4.3,0,0,1-.591,4.4,6.649,6.649,0,0,1-5.629,2c-1.381-.168-1.368,2,0,2.164,4.429.541,8.9-2.712,8.725-7.347-.13-3.41-3.207-4.782-6.2-5.032a25.855,25.855,0,0,0-8.764,1.158c-2.995.8-7.046,1.906-8.405,5.033-1.842,4.239,3.5,6.3,6.758,6.81a1.1,1.1,0,0,0,1.37-1.043q.16-5.546.264-11.09c.069-3.578.217-7.182.064-10.76-.06-1.388-2.224-1.4-2.164,0Z" transform="translate(-581.574 -484.088)" fill="#fff"/>
      <path id="パス_516" data-name="パス 516" d="M593.455,488.183c-.243-.1.023.014.058.031.076.037.151.076.226.118.134.075.266.156.394.241a4.316,4.316,0,0,1,.376.269c-.194-.165,0,0,.047.04l.2.163a16.274,16.274,0,0,1,1.293,1.132c.38.391.735.8,1.1,1.2a4.667,4.667,0,0,0,1.107.965,1.082,1.082,0,0,0,1.092-1.869c-.11-.06-.27-.24-.026,0-.076-.076-.163-.142-.241-.217-.18-.173-.35-.354-.518-.539-.374-.406-.733-.828-1.127-1.216-.42-.414-.893-.783-1.352-1.155a7.973,7.973,0,0,0-2.056-1.254,1.084,1.084,0,0,0-1.332.756,1.115,1.115,0,0,0,.756,1.33Z" transform="translate(-575.777 -483.397)" fill="#fff"/>
      <path id="パス_517" data-name="パス 517" d="M601.395,486.771c2.68-.024,5.362,0,8.042.024l-1.083-1.083c.084,2.573.18,5.15.182,7.724a1.083,1.083,0,0,0,2.165,0c0-2.575-.1-5.151-.183-7.724a1.1,1.1,0,0,0-1.081-1.083c-2.68-.024-5.362-.047-8.042-.023a1.083,1.083,0,0,0,0,2.164Z" transform="translate(-571.727 -484.159)" fill="#fff"/>
      <path id="パス_518" data-name="パス 518" d="M601.326,489.547a2.394,2.394,0,0,0,1.355.2c.631,0,1.261-.018,1.892-.037,1.341-.041,2.68-.1,4.02-.15a1.083,1.083,0,0,0,0-2.166c-1.286.044-2.573.1-3.861.145-.628.02-1.255.038-1.883.041-.209,0-.418,0-.628-.008-.07,0-.148-.018-.218-.015a.6.6,0,0,1,.415.117,1.086,1.086,0,0,0-1.481.388,1.116,1.116,0,0,0,.389,1.48Z" transform="translate(-571.491 -482.682)" fill="#fff"/>
      <path id="パス_519" data-name="パス 519" d="M602.237,492.207c1.952.118,3.9-.153,5.85-.159a1.082,1.082,0,1,0,0-2.164c-1.952,0-3.9.276-5.85.157a1.09,1.09,0,0,0-1.083,1.083,1.108,1.108,0,0,0,1.083,1.083Z" transform="translate(-571.303 -481.371)" fill="#fff"/>
      <path id="パス_520" data-name="パス 520" d="M600.43,485.982c.38,7.428.163,14.864.159,22.3a1.083,1.083,0,0,0,2.164,0c0-7.434.223-14.87-.157-22.3-.072-1.387-2.236-1.394-2.165,0Z" transform="translate(-571.686 -483.978)" fill="#fff"/>
      <path id="パス_521" data-name="パス 521" d="M608.817,485.551c.014,2.3.092,4.6.139,6.894l.02.977a1.1,1.1,0,0,0,1.081,1.083c2.527.107,5.063.24,7.592.221a1.083,1.083,0,0,0,0-2.166c-2.529.018-5.064-.115-7.592-.22l1.083,1.081q-.071-3.411-.139-6.823c-.006-.35-.017-.7-.02-1.048a1.083,1.083,0,0,0-2.164,0Z" transform="translate(-567.263 -484.206)" fill="#fff"/>
      <path id="パス_522" data-name="パス 522" d="M610.753,486.731a8.106,8.106,0,0,1,1.332-.157c.806-.044,1.614-.052,2.422-.05q1.606,0,3.212.066l-1.083-1.083c.226,7.526.053,15.058.318,22.588l1.37-1.045c-.872-.192-1.747-.377-2.61-.6a1.083,1.083,0,0,0-.576,2.086c.863.229,1.739.412,2.61.606a1.094,1.094,0,0,0,1.37-1.043c-.264-7.53-.092-15.062-.316-22.588a1.107,1.107,0,0,0-1.083-1.083q-1.842-.071-3.685-.064c-1.321.008-3.176-.18-4.372.5a1.083,1.083,0,0,0,1.092,1.869Z" transform="translate(-567.096 -484.293)" fill="#fff"/>
      <path id="パス_523" data-name="パス 523" d="M610.728,489.524a41.919,41.919,0,0,1,5.693-.157,1.093,1.093,0,0,0,1.083-1.083,1.106,1.106,0,0,0-1.083-1.083,42.148,42.148,0,0,0-5.693.159,1.109,1.109,0,0,0-1.083,1.083,1.093,1.093,0,0,0,1.083,1.081Z" transform="translate(-566.827 -482.801)" fill="#fff"/>
      <path id="パス_524" data-name="パス 524" d="M604.572,493.762c.046.629.035,1.268.052,1.9.029,1.121.06,2.24.084,3.361.009.4.02.8.023,1.2a1.082,1.082,0,0,0,2.164,0c-.014-1.918-.086-3.838-.139-5.756-.006-.234,0-.469-.018-.7a1.083,1.083,0,0,0-2.166,0Z" transform="translate(-569.502 -479.898)" fill="#fff"/>
      <path id="パス_525" data-name="パス 525" d="M605.86,494.985c2.5,0,5.009-.058,7.512-.107L612.29,493.8q-.053,1.613-.1,3.225c-.02.693-.04,1.388-.055,2.081s-.09,1.541.791,1.785a1.083,1.083,0,0,0,.576-2.088h0l.756.756c.1.336.027.341.035.182,0-.067,0-.134,0-.2,0-.235.009-.47.015-.706q.023-1.035.056-2.071.043-1.482.092-2.964a1.1,1.1,0,0,0-1.083-1.083c-2.5.047-5.008.1-7.512.105a1.083,1.083,0,0,0,0,2.166Z" transform="translate(-569.392 -479.88)" fill="#fff"/>
      <path id="パス_526" data-name="パス 526" d="M605.777,499.159a4.765,4.765,0,0,0,1.251.029c.7-.021,1.4-.049,2.1-.075,1.3-.049,2.595-.124,3.893-.127a1.082,1.082,0,0,0,0-2.164c-1.272,0-2.546.075-3.816.124-.7.026-1.4.053-2.1.075-.235.006-.47.014-.707.017-.2,0-.53-.084-.052.034a1.083,1.083,0,1,0-.576,2.088Z" transform="translate(-569.28 -477.714)" fill="#fff"/>
      <path id="パス_527" data-name="パス 527" d="M620.086,486.935a13.963,13.963,0,0,0-.438,4.963c.076,1.723.069,3.454.218,5.174a23.931,23.931,0,0,0,1.993,7.591,4.664,4.664,0,0,0,1.915,2.44,2.148,2.148,0,0,0,2.385-.542,20.53,20.53,0,0,0,3.812-4.719c.763-1.17-1.109-2.256-1.869-1.092a23.04,23.04,0,0,1-2.947,3.8,5.792,5.792,0,0,0-.722.593c-.057.194.31-.267.31.031,0,.037-.26-.241-.255-.235a10.214,10.214,0,0,1-1.144-2.378,23.41,23.41,0,0,1-1.4-6.839c-.062-1.382-.093-2.766-.146-4.148a11.505,11.505,0,0,1,.376-4.067c.432-1.329-1.657-1.9-2.088-.576Z" transform="translate(-561.573 -483.322)" fill="#fff"/>
      <path id="パス_528" data-name="パス 528" d="M629.547,488.714c3.91,3.367,5.635,9.08,5.693,14.1a1.083,1.083,0,0,0,2.164,0c-.064-5.551-2-11.907-6.325-15.63-1.051-.9-2.589.62-1.532,1.53Z" transform="translate(-556.523 -482.941)" fill="#fff"/>
      <path id="パス_529" data-name="パス 529" d="M647.884,484.711c-2.772,3.438-5.831,6.7-9.743,8.845-1.223.669-.131,2.538,1.092,1.869,4.07-2.228,7.3-5.606,10.181-9.184a1.114,1.114,0,0,0,0-1.53,1.091,1.091,0,0,0-1.53,0Z" transform="translate(-552.087 -484.264)" fill="#fff"/>
      <path id="パス_530" data-name="パス 530" d="M644.455,486.13a26.967,26.967,0,0,1,2.286,2.509,15.693,15.693,0,0,0,2.636,2.4,33.138,33.138,0,0,0,6.367,3.479,1.117,1.117,0,0,0,1.481-.388,1.092,1.092,0,0,0-.39-1.481,33.681,33.681,0,0,1-6.208-3.364c-1.825-1.312-2.992-3.2-4.643-4.69-1.032-.929-2.569.6-1.53,1.532Z" transform="translate(-548.658 -484.31)" fill="#fff"/>
      <path id="パス_531" data-name="パス 531" d="M641.574,492.048h12.335a1.083,1.083,0,0,0,0-2.164H641.574a1.083,1.083,0,0,0,0,2.164Z" transform="translate(-550.546 -481.371)" fill="#fff"/>
      <path id="パス_532" data-name="パス 532" d="M641.927,503.026c-.008-2.847-.432-5.695-.159-8.54a1.089,1.089,0,0,0-1.081-1.081,1.106,1.106,0,0,0-1.083,1.081c-.273,2.845.15,5.693.159,8.54a1.083,1.083,0,0,0,2.164,0Z" transform="translate(-551.082 -479.515)" fill="#fff"/>
      <path id="パス_533" data-name="パス 533" d="M640.849,495.569c5.105,0,10.215.16,15.319.3l-1.083-1.083q.014,4.279.021,8.558a1.083,1.083,0,0,0,2.164,0c0-2.853-.012-5.705-.021-8.558a1.1,1.1,0,0,0-1.081-1.083c-5.1-.136-10.214-.293-15.319-.3a1.083,1.083,0,0,0,0,2.164Z" transform="translate(-550.929 -479.515)" fill="#fff"/>
      <path id="パス_534" data-name="パス 534" d="M640.091,499.82c-.057,1.208,1.347,1.124,2.146,1.133,1.177.014,2.356.006,3.534,0,2.786-.02,5.571-.055,8.354-.127.785-.02,1.874.121,2.523-.394a1.088,1.088,0,0,0,.168-1.312v0a1.083,1.083,0,0,0-1.869,1.092l0,0,.168-1.312c.163-.13.512-.359.706-.305-.027-.008-.067.009-.095.008-.113,0-.227.014-.341.018-.356.015-.712.026-1.069.035-1.136.031-2.273.05-3.409.069-2.582.043-5.166.078-7.75.072-.451,0-.9,0-1.353-.014-.136,0-.275-.015-.412-.014a.749.749,0,0,0-.13-.009,1.1,1.1,0,0,1,.675.3l.318.765v0c.066-1.391-2.1-1.388-2.164,0Z" transform="translate(-550.778 -476.784)" fill="#fff"/>
      <path id="パス_535" data-name="パス 535" d="M659.355,486.19q0,9.255-.006,18.509c0,1.133,0,2.268-.006,3.4a1.083,1.083,0,0,0,2.164,0c.04-6.312.011-12.627.012-18.938V486.19a1.083,1.083,0,0,0-2.164,0Z" transform="translate(-540.628 -483.87)" fill="#fff"/>
      <path id="パス_536" data-name="パス 536" d="M657.389,491.474c1.671,0,3.341-.029,5.012.011l-.935-1.628a71.568,71.568,0,0,0-5.568,11.9c-.46,1.165,1.368,1.857,1.979.834a47.741,47.741,0,0,1,4.175-5.945c2.271-2.766,4.73-5.394,8.335-6.261,2.869-.69,5.973.105,7.226,2.975a9.949,9.949,0,0,1-.414,7.843,6,6,0,0,1-3.088,3.26,9.115,9.115,0,0,1-4.389.817c-1.376-.182-1.364,1.984,0,2.164a10.5,10.5,0,0,0,4.737-.808,7.772,7.772,0,0,0,3.748-2.839,12.6,12.6,0,0,0,1.917-9.658,7.614,7.614,0,0,0-6.649-6.1c-4.039-.477-7.888,1.623-10.621,4.436a48.511,48.511,0,0,0-6.846,9.021l1.978.834a68.425,68.425,0,0,1,5.35-11.385,1.092,1.092,0,0,0-.935-1.628c-1.671-.04-3.341-.014-5.012-.012a1.083,1.083,0,0,0,0,2.165Z" transform="translate(-542.483 -482.378)" fill="#fff"/>
      <path id="パス_537" data-name="パス 537" d="M675.746,492.539c7.814-.237,15.58-1.4,23.405-1.423a1.083,1.083,0,0,0,0-2.164c-7.825.023-15.591,1.187-23.405,1.423-1.39.041-1.4,2.207,0,2.164Z" transform="translate(-532.532 -481.863)" fill="#fff"/>
      <path id="パス_538" data-name="パス 538" d="M687.832,486.19c0,2.311.006,4.623-.012,6.933-.014,1.584-.031,3.169-.083,4.751-.018.545-.038,1.092-.078,1.637-.009.115-.067.6-.035.412.038-.224,0,0-.011.041-.087.237.081-.118.121-.206.084-.188.168-.128-.067-.078a2.365,2.365,0,0,1-.441.061,8.683,8.683,0,0,1-1.617-.069,11.371,11.371,0,0,1-1.5-.3,3.585,3.585,0,0,1-.979-.36,1.083,1.083,0,0,0-1.092,1.869,7.73,7.73,0,0,0,2.6.818,10.04,10.04,0,0,0,3.288.127,2.026,2.026,0,0,0,1.758-1.242,6.216,6.216,0,0,0,.15-1.313c.2-3.285.157-6.594.16-9.884,0-1.066,0-2.133,0-3.2a1.083,1.083,0,0,0-2.164,0Z" transform="translate(-528.937 -483.87)" fill="#fff"/>
      <path id="パス_539" data-name="パス 539" d="M678.219,487.017c.125,3.9-.26,7.843-.321,11.747a26.717,26.717,0,0,0,.16,5.124c.486,2.7,2.706,3.734,5.188,4a60.243,60.243,0,0,0,12.5-.177c1.373-.137,1.386-2.3,0-2.166a61.7,61.7,0,0,1-10.908.313,10.429,10.429,0,0,1-3.235-.5,2.652,2.652,0,0,1-1.461-2.04,32.288,32.288,0,0,1-.079-4.769c.038-2.149.115-4.3.191-6.445.06-1.689.182-3.395.128-5.087-.044-1.388-2.21-1.394-2.166,0Z" transform="translate(-530.87 -483.433)" fill="#fff"/>
    </g>
  </g>
</svg>
