<svg xmlns="http://www.w3.org/2000/svg" width="158.493" height="24.953" viewBox="0 0 158.493 24.953">
  <g id="グループ_374" data-name="グループ 374" transform="translate(-81.864 -393.093)">
    <g id="グループ_299" data-name="グループ 299">
      <path id="パス_1332" data-name="パス 1332" d="M86.932,395.291c2.179.135,4.372.028,6.553,0,1.907-.027,3.819-.229,5.726-.136.8.039.8-1.211,0-1.25-1.907-.093-3.819.109-5.726.136-2.181.031-4.374.138-6.553,0-.8-.049-.8,1.2,0,1.25Z" fill="#1a1311" stroke="#000" stroke-width="0.5"/>
    </g>
    <g id="グループ_300" data-name="グループ 300">
      <path id="パス_1333" data-name="パス 1333" d="M82.121,398.155c-.051,1.3.136,2.6.14,3.907a.625.625,0,0,0,1.25,0c0-1.3-.191-2.6-.14-3.907a.629.629,0,0,0-.625-.625.638.638,0,0,0-.625.625Z" fill="#1a1311" stroke="#000" stroke-width="0.5"/>
    </g>
    <g id="グループ_301" data-name="グループ 301">
      <path id="パス_1334" data-name="パス 1334" d="M83.3,398.78c6.838,0,13.675.137,20.512.139a.625.625,0,0,0,0-1.25c-6.837,0-13.674-.139-20.512-.139a.625.625,0,0,0,0,1.25Z" fill="#1a1311" stroke="#000" stroke-width="0.5"/>
    </g>
    <g id="グループ_302" data-name="グループ 302">
      <path id="パス_1335" data-name="パス 1335" d="M103.771,398.6c.035.127.065.254.09.383.013.073.023.145.036.217-.026-.145.006.055.012.109a6.011,6.011,0,0,1,.022.91c0,.07-.009.139-.015.208,0,.043-.01.086-.013.129-.008.094.017-.106,0-.014-.023.14-.048.28-.082.417a1.342,1.342,0,0,1-.131.406c.022-.031.045-.1.01-.024l-.039.079c-.033.064-.069.126-.108.187a.631.631,0,0,0,.225.855.639.639,0,0,0,.855-.224,4.137,4.137,0,0,0,.543-1.966,6.209,6.209,0,0,0-.2-2,.625.625,0,1,0-1.206.332Z" fill="#1a1311" stroke="#000" stroke-width="0.5"/>
    </g>
    <g id="グループ_303" data-name="グループ 303">
      <path id="パス_1336" data-name="パス 1336" d="M92.726,395.5c0,2.791.137,5.58.139,8.372a.625.625,0,0,0,1.25,0c0-2.792-.136-5.581-.139-8.372a.625.625,0,0,0-1.25,0Z" fill="#1a1311" stroke="#000" stroke-width="0.5"/>
    </g>
    <g id="グループ_304" data-name="グループ 304">
      <path id="パス_1337" data-name="パス 1337" d="M86.235,401.012a28.132,28.132,0,0,1,3.74.257.642.642,0,0,0,.769-.436.632.632,0,0,0-.436-.769,29.386,29.386,0,0,0-4.073-.3.625.625,0,0,0,0,1.25Z" fill="#1a1311" stroke="#000" stroke-width="0.5"/>
    </g>
    <g id="グループ_305" data-name="グループ 305">
      <path id="パス_1338" data-name="パス 1338" d="M86.208,403.641a11.746,11.746,0,0,0,2.135.172,5.936,5.936,0,0,1,1.912.247.629.629,0,0,0,.768-.437.64.64,0,0,0-.436-.769,7.169,7.169,0,0,0-2.1-.287c-.342-.009-.684-.012-1.025-.028-.161-.008-.323-.018-.484-.034l-.136-.015-.036-.006q-.132-.021-.264-.048a.625.625,0,0,0-.332,1.2Z" fill="#1a1311" stroke="#000" stroke-width="0.5"/>
    </g>
    <g id="グループ_306" data-name="グループ 306">
      <path id="パス_1339" data-name="パス 1339" d="M96.673,401.13a6.583,6.583,0,0,0,1.911.312c.627.03,1.256.014,1.883-.011a.625.625,0,0,0,0-1.25c-.608.024-1.217.04-1.825.014q-.231-.011-.462-.03c-.076-.006-.151-.014-.226-.022l-.112-.014c.06.008.064.01,0,0a4.586,4.586,0,0,1-.839-.2.628.628,0,0,0-.768.437.641.641,0,0,0,.436.769Z" fill="#1a1311" stroke="#000" stroke-width="0.5"/>
    </g>
    <g id="グループ_307" data-name="グループ 307">
      <path id="パス_1340" data-name="パス 1340" d="M96.534,403.5a8.039,8.039,0,0,0,2.082.385c.355.032.711.054,1.066.082q.258.02.516.045l.249.027c.076.01.081.01.015,0l.118.018a.642.642,0,0,0,.769-.437.633.633,0,0,0-.437-.769c-.717-.108-1.44-.145-2.162-.205-.178-.015-.355-.032-.532-.052-.022,0-.261-.032-.159-.018-.085-.012-.17-.025-.255-.04a5.234,5.234,0,0,1-.938-.243.629.629,0,0,0-.769.437.642.642,0,0,0,.437.769Z" fill="#1a1311" stroke="#000" stroke-width="0.5"/>
    </g>
    <g id="グループ_308" data-name="グループ 308">
      <path id="パス_1341" data-name="パス 1341" d="M84.912,406.527c-.02,2.33.444,4.645.279,6.977-.057.8,1.194.8,1.25,0,.165-2.332-.3-4.647-.279-6.977a.625.625,0,0,0-1.25,0Z" fill="#1a1311" stroke="#000" stroke-width="0.5"/>
    </g>
    <g id="グループ_309" data-name="グループ 309">
      <path id="パス_1342" data-name="パス 1342" d="M85.956,407.012q4.314,0,8.617.154c1.354.048,2.73.038,4.084-.018a7.891,7.891,0,0,1,3.039-.018c.756.28,1.082-.928.333-1.206a7.676,7.676,0,0,0-3.174-.037c-1.315.082-2.664.072-3.983.038-2.974-.075-5.94-.162-8.916-.163a.625.625,0,0,0,0,1.25Z" fill="#1a1311" stroke="#000" stroke-width="0.5"/>
    </g>
    <g id="グループ_310" data-name="グループ 310">
      <path id="パス_1343" data-name="パス 1343" d="M101.517,406.806a23.143,23.143,0,0,1-.676,6.252.626.626,0,0,0,1.206.333,24.469,24.469,0,0,0,.72-6.585.625.625,0,0,0-1.25,0Z" fill="#1a1311" stroke="#000" stroke-width="0.5"/>
    </g>
    <g id="グループ_311" data-name="グループ 311">
      <path id="パス_1344" data-name="パス 1344" d="M86.1,410.222c4.887,0,9.77.219,14.651.418.805.033.8-1.217,0-1.25-4.881-.2-9.764-.414-14.651-.418a.625.625,0,0,0,0,1.25Z" fill="#1a1311" stroke="#000" stroke-width="0.5"/>
    </g>
    <g id="グループ_312" data-name="グループ 312">
      <path id="パス_1345" data-name="パス 1345" d="M86.235,413.989h14.93a.625.625,0,0,0,0-1.25H86.235a.625.625,0,0,0,0,1.25Z" fill="#1a1311" stroke="#000" stroke-width="0.5"/>
    </g>
    <g id="グループ_313" data-name="グループ 313">
      <path id="パス_1346" data-name="パス 1346" d="M92.726,407.225v8.511a.625.625,0,0,0,1.25,0v-8.511a.625.625,0,0,0-1.25,0Z" fill="#1a1311" stroke="#000" stroke-width="0.5"/>
    </g>
    <g id="グループ_314" data-name="グループ 314">
      <path id="パス_1347" data-name="パス 1347" d="M92.888,415.71c-.693,2.078,3.329,1.832,4.384,1.8s2.08.011,3.126.045a8.23,8.23,0,0,0,4.152-.579c.709-.381.079-1.46-.631-1.08a6.985,6.985,0,0,1-3.442.412c-.927-.029-1.852-.1-2.78-.063a22.121,22.121,0,0,1-2.4,0,4.036,4.036,0,0,1-1.041-.175.915.915,0,0,1-.222-.1c.061,0,.005.247.061.08.255-.765-.952-1.093-1.205-.332Z" fill="#1a1311" stroke="#000" stroke-width="0.5"/>
    </g>
    <g id="グループ_315" data-name="グループ 315">
      <path id="パス_1348" data-name="パス 1348" d="M104.447,413.643a3.578,3.578,0,0,1,0,.638l-.009.089c-.009.07-.007.059.005-.034a.6.6,0,0,1-.021.132c-.018.1-.039.2-.062.305-.091.408-.214.808-.308,1.216a.625.625,0,0,0,1.2.332,8.535,8.535,0,0,0,.441-2.678.638.638,0,0,0-.625-.625.632.632,0,0,0-.625.625Z" fill="#1a1311" stroke="#000" stroke-width="0.5"/>
    </g>
    <g id="グループ_316" data-name="グループ 316">
      <path id="パス_1349" data-name="パス 1349" d="M111.324,395.269c1.474.306,3.005.116,4.465.419a.641.641,0,0,0,.769-.437.632.632,0,0,0-.436-.769c-1.474-.3-3-.114-4.465-.418a.639.639,0,0,0-.769.436.631.631,0,0,0,.436.769Z" fill="#1a1311" stroke="#000" stroke-width="0.5"/>
    </g>
    <g id="グループ_317" data-name="グループ 317">
      <path id="パス_1350" data-name="パス 1350" d="M109.956,399.617h7.674a.625.625,0,0,0,0-1.25h-7.674a.625.625,0,0,0,0,1.25Z" fill="#1a1311" stroke="#000" stroke-width="0.5"/>
    </g>
    <g id="グループ_318" data-name="グループ 318">
      <path id="パス_1351" data-name="パス 1351" d="M110.627,403.5c1.941.6,4.04.169,6.026.162a.625.625,0,0,0,0-1.25c-.933,0-1.865.1-2.8.129a8.817,8.817,0,0,1-2.9-.247c-.77-.239-1.1.967-.332,1.206Z" fill="#1a1311" stroke="#000" stroke-width="0.5"/>
    </g>
    <g id="グループ_319" data-name="グループ 319">
      <path id="パス_1352" data-name="パス 1352" d="M110.374,407.152c2.282-.014,4.553-.432,6.837-.279.8.053.8-1.2,0-1.25-2.284-.153-4.555.265-6.837.279a.625.625,0,0,0,0,1.25Z" fill="#1a1311" stroke="#000" stroke-width="0.5"/>
    </g>
    <g id="グループ_320" data-name="グループ 320">
      <path id="パス_1353" data-name="パス 1353" d="M110.168,410.434c0,1.954.137,3.906.139,5.86a.625.625,0,0,0,1.25,0c0-1.954-.137-3.906-.139-5.86a.625.625,0,0,0-1.25,0Z" fill="#1a1311" stroke="#000" stroke-width="0.5"/>
    </g>
    <g id="グループ_321" data-name="グループ 321">
      <path id="パス_1354" data-name="パス 1354" d="M111.1,411.176a6.025,6.025,0,0,1,2.508-.25c.923.032,1.844.13,2.768.133a.625.625,0,0,0,0-1.25c-.951,0-1.9-.106-2.85-.136a6.925,6.925,0,0,0-2.758.3.644.644,0,0,0-.436.769.629.629,0,0,0,.768.436Z" fill="#1a1311" stroke="#000" stroke-width="0.5"/>
    </g>
    <g id="グループ_322" data-name="グループ 322">
      <path id="パス_1355" data-name="パス 1355" d="M116.168,410.434v6a.625.625,0,0,0,1.25,0v-6a.625.625,0,0,0-1.25,0Z" fill="#1a1311" stroke="#000" stroke-width="0.5"/>
    </g>
    <g id="グループ_323" data-name="グループ 323">
      <path id="パス_1356" data-name="パス 1356" d="M111.072,417.059h5.163a.625.625,0,0,0,0-1.25h-5.163a.625.625,0,0,0,0,1.25Z" fill="#1a1311" stroke="#000" stroke-width="0.5"/>
    </g>
    <g id="グループ_324" data-name="グループ 324">
      <path id="パス_1357" data-name="パス 1357" d="M120.281,397.524a12.138,12.138,0,0,0,3.556-.472c.792-.193,1.568-.381,2.339-.646.752-.259,1.5-.535,2.255-.779.326-.105.654-.207.987-.285.1-.023.287-.059.341-.068-.053.009.09,0,.1,0,.137,0-.1-.03.019,0,.782.19,1.115-1.015.333-1.205a3.5,3.5,0,0,0-1.746.241c-.775.234-1.535.515-2.3.782a21.9,21.9,0,0,1-2.142.632,12.861,12.861,0,0,1-3.747.555c-.8-.047-.8,1.2,0,1.25Z" fill="#1a1311" stroke="#000" stroke-width="0.5"/>
    </g>
    <g id="グループ_325" data-name="グループ 325">
      <path id="パス_1358" data-name="パス 1358" d="M119.444,402.966h12a.625.625,0,0,0,0-1.25h-12a.625.625,0,0,0,0,1.25Z" fill="#1a1311" stroke="#000" stroke-width="0.5"/>
    </g>
    <g id="グループ_326" data-name="グループ 326">
      <path id="パス_1359" data-name="パス 1359" d="M124.819,396.62v10.744a.625.625,0,0,0,1.25,0V396.62a.625.625,0,0,0-1.25,0Z" fill="#1a1311" stroke="#000" stroke-width="0.5"/>
    </g>
    <g id="グループ_327" data-name="グループ 327">
      <path id="パス_1360" data-name="パス 1360" d="M119.935,408.759c.006,2.559.137,5.116.14,7.675a.625.625,0,0,0,1.25,0c0-2.559-.134-5.116-.14-7.675a.625.625,0,0,0-1.25,0Z" fill="#1a1311" stroke="#000" stroke-width="0.5"/>
    </g>
    <g id="グループ_328" data-name="グループ 328">
      <path id="パス_1361" data-name="パス 1361" d="M120.56,409.105h9.768a.625.625,0,0,0,0-1.25H120.56a.625.625,0,0,0,0,1.25Z" fill="#1a1311" stroke="#000" stroke-width="0.5"/>
    </g>
    <g id="グループ_329" data-name="グループ 329">
      <path id="パス_1362" data-name="パス 1362" d="M129.985,408.55c-.014,2.462.344,5-.121,7.439-.149.786,1.055,1.123,1.206.332.488-2.561.15-5.186.165-7.771a.625.625,0,0,0-1.25,0Z" fill="#1a1311" stroke="#000" stroke-width="0.5"/>
    </g>
    <g id="グループ_330" data-name="グループ 330">
      <path id="パス_1363" data-name="パス 1363" d="M120.813,416.478a17.458,17.458,0,0,0,4.512.158c1.668.011,3.334.019,5,0a.625.625,0,0,0,0-1.25c-1.625.014-3.247.022-4.872,0a17.4,17.4,0,0,1-4.311-.114.625.625,0,0,0-.332,1.2Z" fill="#1a1311" stroke="#000" stroke-width="0.5"/>
    </g>
    <g id="グループ_331" data-name="グループ 331">
      <path id="パス_1364" data-name="パス 1364" d="M138.839,396.687c3.156.228,6.33-.739,9.452-1.075,2.99-.322,5.96-.874,8.967-1.018.8-.039.805-1.289,0-1.25-3.007.144-5.977.7-8.967,1.018-3.12.336-6.3,1.3-9.452,1.075-.8-.058-.8,1.192,0,1.25Z" fill="#1a1311" stroke="#000" stroke-width="0.5"/>
    </g>
    <g id="グループ_332" data-name="グループ 332">
      <path id="パス_1365" data-name="パス 1365" d="M140.951,397.773a4.009,4.009,0,0,1,.2.358c.029.059.055.12.082.18.038.083-.037-.1,0-.01l.037.094c.108.277.2.559.289.842a11.937,11.937,0,0,0,.655,1.745.628.628,0,0,0,.855.224.64.64,0,0,0,.224-.855c-.03-.06-.06-.121-.088-.183l-.041-.093c.055.122,0,.008-.007-.018-.052-.13-.1-.261-.146-.393-.1-.285-.187-.574-.279-.861a7.364,7.364,0,0,0-.7-1.661.625.625,0,1,0-1.079.631Z" fill="#1a1311" stroke="#000" stroke-width="0.5"/>
    </g>
    <g id="グループ_333" data-name="グループ 333">
      <path id="パス_1366" data-name="パス 1366" d="M146.672,396.935c.03.062.06.125.089.188l.046.105c.038.086.047.066,0,0a2.339,2.339,0,0,1,.2.5q.213.575.389,1.16c.1.351.2.7.275,1.063.014.073.026.147.04.22.024.139-.008-.1,0-.034,0,.03.007.06.009.09,0,.052,0,.1.007.155.007.152.041-.162,0-.024a.625.625,0,1,0,1.2.332,2.24,2.24,0,0,0-.038-.977,10.581,10.581,0,0,0-.279-1.109,14.488,14.488,0,0,0-.862-2.3.629.629,0,0,0-.855-.225.64.64,0,0,0-.224.855Z" fill="#1a1311" stroke="#000" stroke-width="0.5"/>
    </g>
    <g id="グループ_334" data-name="グループ 334">
      <path id="パス_1367" data-name="パス 1367" d="M154.981,396.872a3.94,3.94,0,0,1-.191.44q-.126.258-.269.507c-.193.336-.4.66-.618.982a20.85,20.85,0,0,0-1.231,1.969.625.625,0,1,0,1.079.631c.747-1.444,1.857-2.661,2.435-4.2a.628.628,0,0,0-.436-.769.642.642,0,0,0-.769.436Z" fill="#1a1311" stroke="#000" stroke-width="0.5"/>
    </g>
    <g id="グループ_335" data-name="グループ 335">
      <path id="パス_1368" data-name="パス 1368" d="M136.679,401.643v3.628a.625.625,0,0,0,1.25,0v-3.628a.625.625,0,1,0-1.25,0Z" fill="#1a1311" stroke="#000" stroke-width="0.5"/>
    </g>
    <g id="グループ_336" data-name="グループ 336">
      <path id="パス_1369" data-name="パス 1369" d="M137.889,402.385a12.373,12.373,0,0,1,4.407-.265c1.758.042,3.521.007,5.28.008,3.739,0,7.477-.133,11.217-.139a.625.625,0,0,0,0-1.25c-3.877.006-7.751.141-11.628.139-1.772,0-3.549.036-5.321-.023a11.752,11.752,0,0,0-4.287.325c-.754.265-.43,1.473.332,1.205Z" fill="#1a1311" stroke="#000" stroke-width="0.5"/>
    </g>
    <g id="グループ_337" data-name="グループ 337">
      <path id="パス_1370" data-name="パス 1370" d="M158.447,401.364c-.105,1.111-.139,2.233-.14,3.349a.625.625,0,0,0,1.25,0c0-1.116.035-2.238.14-3.349a.628.628,0,0,0-.625-.625.641.641,0,0,0-.625.625Z" fill="#1a1311" stroke="#000" stroke-width="0.5"/>
    </g>
    <g id="グループ_338" data-name="グループ 338">
      <path id="パス_1371" data-name="パス 1371" d="M141.211,406.873c4.28-.095,8.558.135,12.837.139a.625.625,0,0,0,0-1.25c-4.279,0-8.557-.234-12.837-.139a.625.625,0,0,0,0,1.25Z" fill="#1a1311" stroke="#000" stroke-width="0.5"/>
    </g>
    <g id="グループ_339" data-name="グループ 339">
      <path id="パス_1372" data-name="パス 1372" d="M153.648,406.211a14.975,14.975,0,0,1-7.092,6.544c-2.756,1.366-5.926,3.295-9.112,3.054-.8-.061-.8,1.19,0,1.25,3.411.258,6.795-1.764,9.743-3.225a16.072,16.072,0,0,0,7.541-6.992c.359-.717-.719-1.351-1.08-.631Z" fill="#1a1311" stroke="#000" stroke-width="0.5"/>
    </g>
    <g id="グループ_340" data-name="グループ 340">
      <path id="パス_1373" data-name="パス 1373" d="M142.207,407.4a17.145,17.145,0,0,0,7.774,7.206,34.632,34.632,0,0,0,4.365,1.617,12.674,12.674,0,0,0,5.005.7c.788-.1.8-1.348,0-1.25a11.568,11.568,0,0,1-4.565-.619,32.232,32.232,0,0,1-4.174-1.522,16.018,16.018,0,0,1-7.326-6.758.625.625,0,0,0-1.079.631Z" fill="#1a1311" stroke="#000" stroke-width="0.5"/>
    </g>
    <g id="グループ_341" data-name="グループ 341">
      <path id="パス_1374" data-name="パス 1374" d="M169.749,394.108c-.236,1.975-1.733,3.68-2.664,5.368-1.089,1.974-2.5,3.757-3.53,5.759-.368.713.71,1.346,1.08.631a31.747,31.747,0,0,1,1.907-3.077c.647-.965,1.2-1.964,1.784-2.969,1.048-1.813,2.417-3.572,2.673-5.712.1-.8-1.156-.79-1.25,0Z" fill="#1a1311" stroke="#000" stroke-width="0.5"/>
    </g>
    <g id="グループ_342" data-name="グループ 342">
      <path id="パス_1375" data-name="パス 1375" d="M167.237,400.108c0,5.536-.27,11.07-.279,16.605a.625.625,0,0,0,1.25,0c.009-5.535.275-11.069.279-16.605a.625.625,0,0,0-1.25,0Z" fill="#1a1311" stroke="#000" stroke-width="0.5"/>
    </g>
    <g id="グループ_343" data-name="グループ 343">
      <path id="パス_1376" data-name="パス 1376" d="M170.793,401.291c5.113.117,10.233.139,15.348.14a.625.625,0,0,0,0-1.25c-5.115,0-10.235-.023-15.348-.14a.625.625,0,0,0,0,1.25Z" fill="#1a1311" stroke="#000" stroke-width="0.5"/>
    </g>
    <g id="グループ_344" data-name="グループ 344">
      <path id="パス_1377" data-name="パス 1377" d="M177.048,416.318c1.3,1.034,4.6,2.234,5.946.707.671-.76.416-2.247.41-3.178q-.051-7.131-.1-14.263c-.011-1.778-.027-3.557-.028-5.336a.625.625,0,0,0-1.25,0c0,7.074.176,14.15.137,21.224,0,.589-.113.894-.81.956a5.469,5.469,0,0,1-3.423-.994c-.624-.495-1.514.384-.884.884Z" fill="#1a1311" stroke="#000" stroke-width="0.5"/>
    </g>
    <g id="グループ_345" data-name="グループ 345">
      <path id="パス_1378" data-name="パス 1378" d="M172.625,404.889a14.686,14.686,0,0,0,1.982,2.794c.341.418.662.808.967,1.243a7.2,7.2,0,0,1,.4.627c.05.089.1.18.14.273.079.17-.037-.109.026.062.018.051.036.1.052.154.24.765,1.448.438,1.205-.332a8.756,8.756,0,0,0-1.751-2.724,14.38,14.38,0,0,1-1.94-2.728.63.63,0,0,0-.855-.224.638.638,0,0,0-.224.855Z" fill="#1a1311" stroke="#000" stroke-width="0.5"/>
    </g>
    <g id="グループ_346" data-name="グループ 346">
      <path id="パス_1379" data-name="パス 1379" d="M191.377,396.62c.037,5.5.37,10.994.142,16.492-.033.8,1.217.8,1.25,0,.228-5.5-.1-10.994-.142-16.492a.625.625,0,0,0-1.25,0Z" fill="#1a1311" stroke="#000" stroke-width="0.5"/>
    </g>
    <g id="グループ_347" data-name="グループ 347">
      <path id="パス_1380" data-name="パス 1380" d="M192.141,396.826a14.31,14.31,0,0,1,2.577-.028,14.689,14.689,0,0,0,2.307.028.643.643,0,0,0,.625-.625.63.63,0,0,0-.625-.625,14.689,14.689,0,0,1-2.307-.028,14.31,14.31,0,0,0-2.577.028.646.646,0,0,0-.625.625c0,.3.288.67.625.625Z" fill="#1a1311" stroke="#000" stroke-width="0.5"/>
    </g>
    <g id="グループ_348" data-name="グループ 348">
      <path id="パス_1381" data-name="パス 1381" d="M196.679,396.341c-.011,3.228.045,6.459-.008,9.686-.037,2.3-.131,4.6-.131,6.9a.625.625,0,0,0,1.25,0v-.122a.625.625,0,0,0-1.25,0v.122a.625.625,0,0,0,1.25,0c0-2.3.094-4.6.131-6.9.053-3.227,0-6.458.008-9.686a.625.625,0,0,0-1.25,0Z" fill="#1a1311" stroke="#000" stroke-width="0.5"/>
    </g>
    <g id="グループ_349" data-name="グループ 349">
      <path id="パス_1382" data-name="パス 1382" d="M192.56,404.78c1.415-.091,2.843.053,4.256-.07a.641.641,0,0,0,.625-.625.63.63,0,0,0-.625-.625c-1.413.123-2.841-.021-4.256.07a.639.639,0,0,0-.625.625.63.63,0,0,0,.625.625Z" fill="#1a1311" stroke="#000" stroke-width="0.5"/>
    </g>
    <g id="グループ_350" data-name="グループ 350">
      <path id="パス_1383" data-name="パス 1383" d="M192.254,413.618a8.24,8.24,0,0,0,2.473.18,21.271,21.271,0,0,0,2.534-.18.629.629,0,0,0,.437-.769.642.642,0,0,0-.769-.436c-.126.017.163-.018.027,0l-.117.013-.217.023q-.279.025-.558.045-.667.045-1.337.058c-.432.008-.865.007-1.3-.017-.1-.006-.19-.012-.285-.02L193,412.5c-.021,0-.155-.019-.052-.006s-.023,0-.045-.007l-.117-.021c-.067-.014-.134-.03-.2-.05a.625.625,0,0,0-.333,1.205Z" fill="#1a1311" stroke="#000" stroke-width="0.5"/>
    </g>
    <g id="グループ_351" data-name="グループ 351">
      <path id="パス_1384" data-name="パス 1384" d="M201.072,398.082c3.766-.006,7.542-.344,11.3,0,.8.074.8-1.177,0-1.25-3.76-.344-7.536-.006-11.3,0a.625.625,0,0,0,0,1.25Z" fill="#1a1311" stroke="#000" stroke-width="0.5"/>
    </g>
    <g id="グループ_352" data-name="グループ 352">
      <path id="パス_1385" data-name="パス 1385" d="M205.47,394.527c.111,2.6.074,5.209.139,7.814a.625.625,0,0,0,1.25,0c-.065-2.605-.028-5.21-.139-7.814-.034-.8-1.285-.806-1.25,0Z" fill="#1a1311" stroke="#000" stroke-width="0.5"/>
    </g>
    <g id="グループ_353" data-name="グループ 353">
      <path id="パス_1386" data-name="パス 1386" d="M199.537,403.384c4.744,0,9.488-.136,14.232-.139a.625.625,0,0,0,0-1.25c-4.744,0-9.488.137-14.232.139a.625.625,0,0,0,0,1.25Z" fill="#1a1311" stroke="#000" stroke-width="0.5"/>
    </g>
    <g id="グループ_354" data-name="グループ 354">
      <path id="パス_1387" data-name="パス 1387" d="M199.816,407.85c2.29-.149,4.615-.024,6.907.017s4.6.119,6.907.122a.625.625,0,0,0,0-1.25c-2.3,0-4.605-.081-6.907-.122s-4.617-.166-6.907-.017c-.8.051-.8,1.3,0,1.25Z" fill="#1a1311" stroke="#000" stroke-width="0.5"/>
    </g>
    <g id="グループ_355" data-name="グループ 355">
      <path id="パス_1388" data-name="パス 1388" d="M209.237,403.318q0,3.535-.017,7.072c-.013,2.048.07,4.141-.122,6.183-.076.8,1.175.8,1.25,0,.192-2.042.109-4.135.122-6.183q.021-3.536.017-7.072a.625.625,0,0,0-1.25,0Z" fill="#1a1311" stroke="#000" stroke-width="0.5"/>
    </g>
    <g id="グループ_356" data-name="グループ 356">
      <path id="パス_1389" data-name="パス 1389" d="M205.513,416.876a4.544,4.544,0,0,0,1.783.751,3.4,3.4,0,0,0,2.345-.066,1.39,1.39,0,0,0,.707-1.2.63.63,0,0,0-.625-.625.638.638,0,0,0-.625.625c-.007.12-.018-.01.01-.042-.015.016-.017.074-.022.1s-.045.126,0,.015-.007-.009-.017.018c-.029.072.111-.112.028-.036-.018.017-.037.035-.053.053-.069.073.07-.043.045-.035a.506.506,0,0,0-.09.053c-.092.056.083-.027.05-.019s-.054.02-.08.028c-.067.02-.135.03-.2.046-.036.009.163-.015.042-.006l-.1.007c-.079.005-.157.005-.236,0s-.153-.007-.229-.014l-.108-.011c-.1-.009.143.023,0,0-.166-.027-.33-.058-.493-.1a7.077,7.077,0,0,1-.868-.268l-.114-.045c-.091-.035.144.065.031.013-.059-.027-.117-.052-.174-.081s-.089-.045-.132-.071c-.061-.036-.2-.147.008.018a.64.64,0,0,0-.884,0,.633.633,0,0,0,0,.884Z" fill="#1a1311" stroke="#000" stroke-width="0.5"/>
    </g>
    <g id="グループ_357" data-name="グループ 357">
      <path id="パス_1390" data-name="パス 1390" d="M201.593,410.694a3.925,3.925,0,0,1,.447.284c.1.075-.091-.078.014.012.034.029.07.057.1.087.063.054.124.11.185.167a9.548,9.548,0,0,1,.742.8,15.609,15.609,0,0,0,1.452,1.621.625.625,0,0,0,.884-.884c-1.121-1-1.838-2.437-3.2-3.168a.625.625,0,0,0-.631,1.079Z" fill="#1a1311" stroke="#000" stroke-width="0.5"/>
    </g>
    <g id="グループ_358" data-name="グループ 358">
      <path id="パス_1391" data-name="パス 1391" d="M219.49,395.571c1.312-.063,2.63-.035,3.942-.035,1.168,0,2.357.056,3.523-.035.8-.062.8-1.313,0-1.25-1.166.091-2.355.035-3.523.035-1.312,0-2.63-.028-3.942.035-.8.038-.805,1.288,0,1.25Z" fill="#1a1311" stroke="#000" stroke-width="0.5"/>
    </g>
    <g id="グループ_359" data-name="グループ 359">
      <path id="パス_1392" data-name="パス 1392" d="M226.4,394.806v7.441a.625.625,0,0,0,1.25,0v-.325a.625.625,0,0,0-1.25,0v.325a.625.625,0,0,0,1.25,0v-7.441a.625.625,0,0,0-1.25,0Z" fill="#1a1311" stroke="#000" stroke-width="0.5"/>
    </g>
    <g id="グループ_360" data-name="グループ 360">
      <path id="パス_1393" data-name="パス 1393" d="M219.769,399.059a46.249,46.249,0,0,0,6.864-.162.63.63,0,0,0,.437-.769.641.641,0,0,0-.769-.436,44.349,44.349,0,0,1-6.532.117.625.625,0,0,0,0,1.25Z" fill="#1a1311" stroke="#000" stroke-width="0.5"/>
    </g>
    <g id="グループ_361" data-name="グループ 361">
      <path id="パス_1394" data-name="パス 1394" d="M220.048,402.826c2.256,0,4.516.135,6.768-.069a.643.643,0,0,0,.625-.625.629.629,0,0,0-.625-.625c-2.252.2-4.512.072-6.768.069a.625.625,0,0,0,0,1.25Z" fill="#1a1311" stroke="#000" stroke-width="0.5"/>
    </g>
    <g id="グループ_362" data-name="グループ 362">
      <path id="パス_1395" data-name="パス 1395" d="M218.865,395.364c0,7.075-.239,14.154-.132,21.229a.625.625,0,0,0,1.25,0c-.107-7.075.129-14.154.132-21.229a.625.625,0,0,0-1.25,0Z" fill="#1a1311" stroke="#000" stroke-width="0.5"/>
    </g>
    <g id="グループ_363" data-name="グループ 363">
      <path id="パス_1396" data-name="パス 1396" d="M230.447,395.225v6.7a.625.625,0,0,0,1.25,0v-6.7a.625.625,0,0,0-1.25,0Z" fill="#1a1311" stroke="#000" stroke-width="0.5"/>
    </g>
    <g id="グループ_364" data-name="グループ 364">
      <path id="パス_1397" data-name="パス 1397" d="M231.656,395.827a18.7,18.7,0,0,1,3.876-.19c1.258.022,2.521.076,3.772.213a.63.63,0,0,0,.625-.625.638.638,0,0,0-.625-.625c-1.288-.141-2.588-.2-3.883-.215a19.708,19.708,0,0,0-4.1.237c-.789.155-.455,1.36.332,1.2Z" fill="#1a1311" stroke="#000" stroke-width="0.5"/>
    </g>
    <g id="グループ_365" data-name="グループ 365">
      <path id="パス_1398" data-name="パス 1398" d="M238.819,395.643c.156,6.785-.141,13.586-.14,20.372a.625.625,0,0,0,1.25,0c0-6.786.3-13.587.14-20.372a.625.625,0,0,0-1.25,0Z" fill="#1a1311" stroke="#000" stroke-width="0.5"/>
    </g>
    <g id="グループ_366" data-name="グループ 366">
      <path id="パス_1399" data-name="パス 1399" d="M235.234,416.6a4.4,4.4,0,0,0,2.835.882,4.968,4.968,0,0,0,.779-.08,1.3,1.3,0,0,0,.807-.354,1.365,1.365,0,0,0,.179-.735c.008-.1.016-.2.025-.293.006-.072.042-.344,0-.068a.641.641,0,0,0-.436-.769.633.633,0,0,0-.769.437c-.028.188-.044.376-.06.565-.007.083-.015.167-.023.25a.473.473,0,0,1-.012.109c.008,0,.032-.174,0-.041l.436-.436a2.894,2.894,0,0,1-.39.111c-.062.013-.125.022-.187.034.16-.03-.055,0-.1.008a4.316,4.316,0,0,1-.455.011c-.077,0-.155-.007-.232-.013l-.1-.009c-.017,0-.162-.019-.071-.007s-.03-.005-.045-.008l-.1-.018c-.076-.014-.151-.03-.226-.048a4.083,4.083,0,0,1-.434-.129l-.092-.035c-.111-.042.059.033-.007,0s-.114-.054-.169-.084-.121-.067-.178-.1c-.039-.024-.219-.163-.088-.057a.64.64,0,0,0-.884,0,.633.633,0,0,0,0,.884Z" fill="#1a1311" stroke="#000" stroke-width="0.5"/>
    </g>
    <g id="グループ_367" data-name="グループ 367">
      <path id="パス_1400" data-name="パス 1400" d="M231.63,399.152c2.465,0,4.934.043,7.395.186.8.047.8-1.2,0-1.25-2.461-.143-4.93-.185-7.395-.186a.625.625,0,0,0,0,1.25Z" fill="#1a1311" stroke="#000" stroke-width="0.5"/>
    </g>
    <g id="グループ_368" data-name="グループ 368">
      <path id="パス_1401" data-name="パス 1401" d="M231.211,402.733c2.745-.007,5.488.091,8.233.093a.625.625,0,0,0,0-1.25c-2.745,0-5.488-.1-8.233-.093a.625.625,0,0,0,0,1.25Z" fill="#1a1311" stroke="#000" stroke-width="0.5"/>
    </g>
    <g id="グループ_369" data-name="グループ 369">
      <path id="パス_1402" data-name="パス 1402" d="M224.447,405.829a52.58,52.58,0,0,0,.093,8.372.644.644,0,0,0,.625.625.628.628,0,0,0,.625-.625,52.58,52.58,0,0,1-.093-8.372c.029-.8-1.221-.8-1.25,0Z" fill="#1a1311" stroke="#000" stroke-width="0.5"/>
    </g>
    <g id="グループ_370" data-name="グループ 370">
      <path id="パス_1403" data-name="パス 1403" d="M225.211,406.315c2.838,0,5.674.137,8.512.139a.625.625,0,0,0,0-1.25c-2.838,0-5.674-.137-8.512-.139a.625.625,0,0,0,0,1.25Z" fill="#1a1311" stroke="#000" stroke-width="0.5"/>
    </g>
    <g id="グループ_371" data-name="グループ 371">
      <path id="パス_1404" data-name="パス 1404" d="M233.237,405.969c-.011,2.651-.137,5.3-.139,7.953a.625.625,0,0,0,1.25,0c0-2.651.128-5.3.139-7.953a.625.625,0,0,0-1.25,0Z" fill="#1a1311" stroke="#000" stroke-width="0.5"/>
    </g>
    <g id="グループ_372" data-name="グループ 372">
      <path id="パス_1405" data-name="パス 1405" d="M225.49,410.64c2.6-.08,5.21,0,7.814,0a.625.625,0,0,0,0-1.25c-2.6,0-5.21-.08-7.814,0-.8.025-.806,1.275,0,1.25Z" fill="#1a1311" stroke="#000" stroke-width="0.5"/>
    </g>
    <g id="グループ_373" data-name="グループ 373">
      <path id="パス_1406" data-name="パス 1406" d="M225.324,414.8a46.255,46.255,0,0,0,8.213.022c.8-.029.806-1.279,0-1.25a44.614,44.614,0,0,1-7.881.023.644.644,0,0,0-.768.436.629.629,0,0,0,.436.769Z" fill="#1a1311" stroke="#000" stroke-width="0.5"/>
    </g>
  </g>
</svg>
