<svg xmlns="http://www.w3.org/2000/svg" width="103.927" height="25.204" viewBox="0 0 103.927 25.204">
  <g id="グループ_298" data-name="グループ 298" transform="translate(-108.345 -354.86)">
    <g id="グループ_254" data-name="グループ 254">
      <path id="パス_1288" data-name="パス 1288" d="M109.816,362.5h7.814a.625.625,0,0,0,0-1.25h-7.814a.625.625,0,0,0,0,1.25Z" fill="#1a1311" stroke="#000" stroke-width="0.5"/>
    </g>
    <g id="グループ_255" data-name="グループ 255">
      <path id="パス_1289" data-name="パス 1289" d="M113.377,356.294v22.6a.625.625,0,0,0,1.25,0v-22.6a.625.625,0,0,0-1.25,0Z" fill="#1a1311" stroke="#000" stroke-width="0.5"/>
    </g>
    <g id="グループ_256" data-name="グループ 256">
      <path id="パス_1290" data-name="パス 1290" d="M113.4,361.989a24.574,24.574,0,0,1-4.681,9.9c-.483.643.6,1.267,1.08.631a25.392,25.392,0,0,0,4.807-10.2c.148-.786-1.057-1.123-1.206-.332Z" fill="#1a1311" stroke="#000" stroke-width="0.5"/>
    </g>
    <g id="グループ_257" data-name="グループ 257">
      <path id="パス_1291" data-name="パス 1291" d="M114.118,363.713c1.147,1.408,2.52,2.655,3.251,4.339a.63.63,0,0,0,.855.224.641.641,0,0,0,.225-.855c-.769-1.768-2.249-3.121-3.447-4.592a.63.63,0,0,0-.884,0,.639.639,0,0,0,0,.884Z" fill="#1a1311" stroke="#000" stroke-width="0.5"/>
    </g>
    <g id="グループ_258" data-name="グループ 258">
      <path id="パス_1292" data-name="パス 1292" d="M120.075,357.69c.341,6.617-.078,13.241.014,19.862a.625.625,0,0,0,1.25,0c-.092-6.621.327-13.245-.014-19.862-.042-.8-1.292-.8-1.25,0Z" fill="#1a1311" stroke="#000" stroke-width="0.5"/>
    </g>
    <g id="グループ_259" data-name="グループ 259">
      <path id="パス_1293" data-name="パス 1293" d="M120.979,358.036c1.688-.007,3.372-.174,5.06-.225a13.141,13.141,0,0,1,4.82.481c.759.272,1.086-.935.332-1.2a13.817,13.817,0,0,0-4.995-.531c-1.74.047-3.476.223-5.217.23a.625.625,0,0,0,0,1.25Z" fill="#1a1311" stroke="#000" stroke-width="0.5"/>
    </g>
    <g id="グループ_260" data-name="グループ 260">
      <path id="パス_1294" data-name="パス 1294" d="M130.4,357.69v20.372a.625.625,0,0,0,1.25,0V357.69a.625.625,0,0,0-1.25,0Z" fill="#1a1311" stroke="#000" stroke-width="0.5"/>
    </g>
    <g id="グループ_261" data-name="グループ 261">
      <path id="パス_1295" data-name="パス 1295" d="M121.258,365.012h9.209a.625.625,0,0,0,0-1.25h-9.209a.625.625,0,0,0,0,1.25Z" fill="#1a1311" stroke="#000" stroke-width="0.5"/>
    </g>
    <g id="グループ_262" data-name="グループ 262">
      <path id="パス_1296" data-name="パス 1296" d="M121.537,371.431h9.209a.625.625,0,0,0,0-1.25h-9.209a.625.625,0,0,0,0,1.25Z" fill="#1a1311" stroke="#000" stroke-width="0.5"/>
    </g>
    <g id="グループ_263" data-name="グループ 263">
      <path id="パス_1297" data-name="パス 1297" d="M120.7,378.687h9.488a.625.625,0,0,0,0-1.25H120.7a.625.625,0,0,0,0,1.25Z" fill="#1a1311" stroke="#000" stroke-width="0.5"/>
    </g>
    <g id="グループ_264" data-name="グループ 264">
      <path id="パス_1298" data-name="パス 1298" d="M138.447,357.734a6.865,6.865,0,0,1,2.549.032,18.522,18.522,0,0,0,2.866.27.625.625,0,0,0,0-1.25,19.421,19.421,0,0,1-2.955-.282,7.206,7.206,0,0,0-2.792.025.625.625,0,0,0,.332,1.205Z" fill="#1a1311" stroke="#000" stroke-width="0.5"/>
    </g>
    <g id="グループ_265" data-name="グループ 265">
      <path id="パス_1299" data-name="パス 1299" d="M136.328,361.664H144.7a.625.625,0,0,0,0-1.25h-8.372a.625.625,0,0,0,0,1.25Z" fill="#1a1311" stroke="#000" stroke-width="0.5"/>
    </g>
    <g id="グループ_266" data-name="グループ 266">
      <path id="パス_1300" data-name="パス 1300" d="M137.444,365.292h6.139a.625.625,0,0,0,0-1.25h-6.139a.625.625,0,0,0,0,1.25Z" fill="#1a1311" stroke="#000" stroke-width="0.5"/>
    </g>
    <g id="グループ_267" data-name="グループ 267">
      <path id="パス_1301" data-name="パス 1301" d="M137.61,369.455a29.366,29.366,0,0,1,5.973-.256.625.625,0,0,0,0-1.25,30.907,30.907,0,0,0-6.3.3.625.625,0,1,0,.332,1.2Z" fill="#1a1311" stroke="#000" stroke-width="0.5"/>
    </g>
    <g id="グループ_268" data-name="グループ 268">
      <path id="パス_1302" data-name="パス 1302" d="M137.656,371.922c0,2.047.034,4.094,0,6.14a.625.625,0,0,0,1.25,0c.034-2.046,0-4.093,0-6.14a.625.625,0,0,0-1.25,0Z" fill="#1a1311" stroke="#000" stroke-width="0.5"/>
    </g>
    <g id="グループ_269" data-name="グループ 269">
      <path id="パス_1303" data-name="パス 1303" d="M138.839,372.547c1.578.076,3.166.033,4.744,0l-.625-.625c.123,1.735.246,3.472.3,5.21.007.2.012.409.009.613,0,.063-.005.125-.006.187,0,.046-.03.112,0-.008.047-.169-.1.111.06-.178-.386.707.693,1.338,1.079.631a1.938,1.938,0,0,0,.112-.945c-.008-.483-.032-.966-.056-1.449-.054-1.1-.124-2.191-.2-3.286-.017-.258-.034-.517-.053-.775a.636.636,0,0,0-.625-.625c-1.578.033-3.166.076-4.744,0-.8-.038-.8,1.212,0,1.25Z" fill="#1a1311" stroke="#000" stroke-width="0.5"/>
    </g>
    <g id="グループ_270" data-name="グループ 270">
      <path id="パス_1304" data-name="パス 1304" d="M138.673,378.944c1.6.463,3.286.038,4.91.022a.625.625,0,0,0,0-1.25c-.806.008-1.608.105-2.412.157a6.244,6.244,0,0,1-2.166-.135.626.626,0,0,0-.332,1.206Z" fill="#1a1311" stroke="#000" stroke-width="0.5"/>
    </g>
    <g id="グループ_271" data-name="グループ 271">
      <path id="パス_1305" data-name="パス 1305" d="M147.144,358.248c0,.585,0,1.171-.008,1.756,0,.267,0,.534,0,.8,0,.353.028.77.466.87a.646.646,0,0,0,.706-.287.741.741,0,0,0,.089-.348.626.626,0,0,0-.625-.625.642.642,0,0,0-.625.625v.019a.66.66,0,0,1,.082-.3l.706-.288h0l.373.288a1.105,1.105,0,0,1,.083.3c0-.009,0-.019,0-.029,0-.026,0-.052,0-.079,0-.084,0-.168,0-.253,0-.27,0-.54,0-.81,0-.544.009-1.089.007-1.633a.625.625,0,0,0-1.25,0Z" fill="#1a1311" stroke="#000" stroke-width="0.5"/>
    </g>
    <g id="グループ_272" data-name="グループ 272">
      <path id="パス_1306" data-name="パス 1306" d="M157.492,357.524c-.083.29-.17.579-.267.865-.05.145-.1.289-.157.432-.026.068-.053.135-.081.2-.035.089.04-.087,0,0-.019.041-.037.083-.055.124a6.348,6.348,0,0,1-.425.787c-.044.069-.089.136-.136.2-.021.029-.042.059-.064.088-.032.045-.04.049,0,0-.1.127-.212.251-.327.369a.625.625,0,1,0,.884.884,8.29,8.29,0,0,0,1.835-3.625.625.625,0,0,0-1.206-.332Z" fill="#1a1311" stroke="#000" stroke-width="0.5"/>
    </g>
    <g id="グループ_273" data-name="グループ 273">
      <path id="パス_1307" data-name="パス 1307" d="M151.632,356.74c.749,1.858-.052,4.117-.936,5.785-.872,1.646-2.27,3.622-4.209,4.05-.785.174-.453,1.379.332,1.206,2.254-.5,3.935-2.7,4.956-4.625s1.933-4.588,1.062-6.749c-.3-.736-1.506-.414-1.205.333Z" fill="#1a1311" stroke="#000" stroke-width="0.5"/>
    </g>
    <g id="グループ_274" data-name="グループ 274">
      <path id="パス_1308" data-name="パス 1308" d="M151.974,361.354a13.145,13.145,0,0,0,7.071,6.985.63.63,0,0,0,.769-.437.638.638,0,0,0-.437-.768,11.972,11.972,0,0,1-6.324-6.411.63.63,0,0,0-.855-.224.64.64,0,0,0-.224.855Z" fill="#1a1311" stroke="#000" stroke-width="0.5"/>
    </g>
    <g id="グループ_275" data-name="グループ 275">
      <path id="パス_1309" data-name="パス 1309" d="M147.144,369.69c0,.585,0,1.171-.008,1.756,0,.267,0,.533,0,.8,0,.353.028.77.466.87a.646.646,0,0,0,.706-.288.738.738,0,0,0,.089-.348.627.627,0,0,0-.625-.625.643.643,0,0,0-.625.625v.02a.667.667,0,0,1,.082-.3l.706-.287h0l.373.287a1.122,1.122,0,0,1,.083.3c0-.009,0-.019,0-.029,0-.026,0-.053,0-.079,0-.084,0-.168,0-.253,0-.27,0-.54,0-.81,0-.545.009-1.089.007-1.633a.625.625,0,0,0-1.25,0Z" fill="#1a1311" stroke="#000" stroke-width="0.5"/>
    </g>
    <g id="グループ_276" data-name="グループ 276">
      <path id="パス_1310" data-name="パス 1310" d="M157.492,368.966c-.083.29-.17.579-.267.865-.05.145-.1.289-.157.432-.026.068-.053.134-.081.2-.035.089.04-.086,0,0-.019.041-.037.083-.055.124a6.424,6.424,0,0,1-.425.787c-.044.068-.089.136-.136.2l-.064.088c-.032.044-.04.049,0,0-.1.127-.212.251-.327.369a.625.625,0,0,0,.884.883A8.281,8.281,0,0,0,158.7,369.3a.625.625,0,1,0-1.206-.332Z" fill="#1a1311" stroke="#000" stroke-width="0.5"/>
    </g>
    <g id="グループ_277" data-name="グループ 277">
      <path id="パス_1311" data-name="パス 1311" d="M151.632,368.182c.749,1.858-.052,4.117-.936,5.785-.872,1.645-2.27,3.622-4.209,4.05-.785.174-.453,1.379.332,1.206,2.254-.5,3.935-2.7,4.956-4.625s1.933-4.588,1.062-6.749c-.3-.736-1.506-.415-1.205.333Z" fill="#1a1311" stroke="#000" stroke-width="0.5"/>
    </g>
    <g id="グループ_278" data-name="グループ 278">
      <path id="パス_1312" data-name="パス 1312" d="M151.974,372.8a13.148,13.148,0,0,0,7.071,6.985.63.63,0,0,0,.769-.437.639.639,0,0,0-.437-.769,11.967,11.967,0,0,1-6.324-6.41.63.63,0,0,0-.855-.224.64.64,0,0,0-.224.855Z" fill="#1a1311" stroke="#000" stroke-width="0.5"/>
    </g>
    <g id="グループ_279" data-name="グループ 279">
      <path id="パス_1313" data-name="パス 1313" d="M174.493,355.736v1.814a.625.625,0,0,0,1.25,0v-1.814a.625.625,0,0,0-1.25,0Z" fill="#1a1311" stroke="#000" stroke-width="0.5"/>
    </g>
    <g id="グループ_280" data-name="グループ 280">
      <path id="パス_1314" data-name="パス 1314" d="M164.1,358.361a16.854,16.854,0,0,0-.208,3.329.625.625,0,0,0,1.25,0c0-.522-.006-1.045.013-1.567.008-.258.023-.515.049-.772.006-.059.013-.118.019-.177.022-.194-.02.123.01-.07q.032-.205.072-.411a.625.625,0,1,0-1.205-.332Z" fill="#1a1311" stroke="#000" stroke-width="0.5"/>
    </g>
    <g id="グループ_281" data-name="グループ 281">
      <path id="パス_1315" data-name="パス 1315" d="M165.425,358.842c.173-.232.863-.275,1.116-.313a15.812,15.812,0,0,1,2.12-.132c1.555-.021,3.11.057,4.662.133,4.075.2,8.136-.293,12.214.064l-.625-.625c-.01,1.393-.04,2.8.046,4.186.05.8,1.3.8,1.25,0-.086-1.391-.056-2.793-.046-4.186a.64.64,0,0,0-.625-.625c-4.356-.382-8.712.1-13.073-.1a44.136,44.136,0,0,0-5.079-.044c-1.017.07-2.374.121-3.039,1.017-.48.646.605,1.27,1.079.63Z" fill="#1a1311" stroke="#000" stroke-width="0.5"/>
    </g>
    <g id="グループ_282" data-name="グループ 282">
      <path id="パス_1316" data-name="パス 1316" d="M171.725,359.477a7.067,7.067,0,0,1-2.412,2.87,6.574,6.574,0,0,1-3.5,1.508.625.625,0,0,0,0,1.25,7.539,7.539,0,0,0,4.2-1.734,8.22,8.22,0,0,0,2.912-3.562.63.63,0,0,0-.436-.768.637.637,0,0,0-.769.436Z" fill="#1a1311" stroke="#000" stroke-width="0.5"/>
    </g>
    <g id="グループ_283" data-name="グループ 283">
      <path id="パス_1317" data-name="パス 1317" d="M176.354,359.643c0,.508-.042,1.013-.057,1.52a6.871,6.871,0,0,0,.126,1.6.627.627,0,0,0,.768.436.64.64,0,0,0,.437-.768c-.015-.073-.028-.146-.041-.218-.032-.178.012.128-.007-.048-.014-.121-.024-.242-.031-.364-.011-.23-.009-.459,0-.689.017-.489.056-.978.056-1.469a.625.625,0,1,0-1.25,0Z" fill="#1a1311" stroke="#000" stroke-width="0.5"/>
    </g>
    <g id="グループ_284" data-name="グループ 284">
      <path id="パス_1318" data-name="パス 1318" d="M177.045,363.385a13.029,13.029,0,0,0,5.887.232.644.644,0,0,0,.625-.625.628.628,0,0,0-.625-.625,12.3,12.3,0,0,1-5.555-.187.63.63,0,0,0-.768.437.636.636,0,0,0,.436.768Z" fill="#1a1311" stroke="#000" stroke-width="0.5"/>
    </g>
    <g id="グループ_285" data-name="グループ 285">
      <path id="パス_1319" data-name="パス 1319" d="M182.679,361.132c-.014.373-.019.747-.067,1.118l.023-.166a3.5,3.5,0,0,1-.119.556.63.63,0,0,0,.436.769.639.639,0,0,0,.769-.437,7.023,7.023,0,0,0,.208-1.84.629.629,0,0,0-.625-.625.638.638,0,0,0-.625.625Z" fill="#1a1311" stroke="#000" stroke-width="0.5"/>
    </g>
    <g id="グループ_286" data-name="グループ 286">
      <path id="パス_1320" data-name="パス 1320" d="M173,363.666c-1.846,1.822-3.924,3.387-5.768,5.21-.572.566.311,1.45.884.884,1.844-1.823,3.922-3.388,5.768-5.21.573-.566-.311-1.449-.884-.884Z" fill="#1a1311" stroke="#000" stroke-width="0.5"/>
    </g>
    <g id="グループ_287" data-name="グループ 287">
      <path id="パス_1321" data-name="パス 1321" d="M167.676,369.943h14.14a.625.625,0,0,0,0-1.25h-14.14a.625.625,0,0,0,0,1.25Z" fill="#1a1311" stroke="#000" stroke-width="0.5"/>
    </g>
    <g id="グループ_288" data-name="グループ 288">
      <path id="パス_1322" data-name="パス 1322" d="M179.6,366.842a12.717,12.717,0,0,0,1.855,2.221,8.411,8.411,0,0,0,2.276,1.725.641.641,0,0,0,.855-.225.632.632,0,0,0-.224-.855,5.364,5.364,0,0,1-1.032-.646c.11.085-.031-.025-.042-.034l-.127-.1q-.151-.125-.3-.255c-.18-.159-.354-.322-.525-.49-.344-.337-.673-.69-.983-1.059-.068-.081-.136-.162-.2-.245-.011-.013-.128-.162-.077-.1s-.06-.08-.07-.093c-.115-.155-.225-.312-.328-.474a.625.625,0,1,0-1.079.63Z" fill="#1a1311" stroke="#000" stroke-width="0.5"/>
    </g>
    <g id="グループ_289" data-name="グループ 289">
      <path id="パス_1323" data-name="パス 1323" d="M166.516,372.314a4.147,4.147,0,0,1-.163.579c-.018.047-.035.1-.054.142,0,0-.075.178-.032.08-.043.1-.088.193-.134.289-.2.417-.436.819-.674,1.216a12.651,12.651,0,0,0-1.176,2.159.625.625,0,0,0,1.205.333c.014-.039.03-.078.044-.117-.026.071-.036.081,0,.006s.07-.147.107-.219c.088-.171.183-.338.281-.5.224-.383.46-.759.687-1.141a8.176,8.176,0,0,0,1.115-2.49.641.641,0,0,0-.437-.769.63.63,0,0,0-.768.436Z" fill="#1a1311" stroke="#000" stroke-width="0.5"/>
    </g>
    <g id="グループ_290" data-name="グループ 290">
      <path id="パス_1324" data-name="パス 1324" d="M170.586,372.108c-.005,1.106-.135,2.207-.117,3.314a5.125,5.125,0,0,0,.835,3.205,3.482,3.482,0,0,0,2.473.965,21.393,21.393,0,0,0,3.4.071,8.979,8.979,0,0,0,3.1-.5.629.629,0,0,0,.224-.855.641.641,0,0,0-.855-.225c.124-.054,0,0-.057.014s-.131.039-.2.056c-.185.047-.373.081-.561.112-.427.068-.861.1-1.293.131a23.841,23.841,0,0,1-3.14,0,9.226,9.226,0,0,1-1.229-.149,4.522,4.522,0,0,1-.458-.117c-.036-.011-.073-.024-.108-.038.021.008.106.052.006,0a1.327,1.327,0,0,1-.2-.121c-.652-.521-.664-1.692-.682-2.442-.027-1.144.11-2.281.115-3.423a.625.625,0,0,0-1.25,0Z" fill="#1a1311" stroke="#000" stroke-width="0.5"/>
    </g>
    <g id="グループ_291" data-name="グループ 291">
      <path id="パス_1325" data-name="パス 1325" d="M180.841,375.105a10.042,10.042,0,0,1-.4,1.623c-.045.127-.094.253-.144.377.058-.144-.027.062-.039.087-.029.063-.058.127-.089.19-.129.268-.275.528-.429.783a.625.625,0,0,0,1.08.631,9.524,9.524,0,0,0,1.225-3.359.64.64,0,0,0-.436-.769.633.633,0,0,0-.769.437Z" fill="#1a1311" stroke="#000" stroke-width="0.5"/>
    </g>
    <g id="グループ_292" data-name="グループ 292">
      <path id="パス_1326" data-name="パス 1326" d="M174.392,372.052a9.486,9.486,0,0,0,1.4,1.457c.234.211.467.423.684.652.059.062.116.125.172.189a.7.7,0,0,1,.136.164c-.054-.071-.06-.079-.02-.026l.026.034.073.1c.048.071.094.143.137.216a.625.625,0,1,0,1.079-.63,6.734,6.734,0,0,0-1.339-1.529c-.233-.211-.47-.419-.7-.637-.112-.108-.221-.218-.325-.332q-.084-.093-.165-.189c-.031-.038-.122-.1,0,0a.55.55,0,0,1-.074-.1.625.625,0,0,0-1.08.631Z" fill="#1a1311" stroke="#000" stroke-width="0.5"/>
    </g>
    <g id="グループ_293" data-name="グループ 293">
      <path id="パス_1327" data-name="パス 1327" d="M182.952,373.269c.032.008.063.017.094.027.091.031.072.071-.028-.015a1.475,1.475,0,0,0,.2.108,1.4,1.4,0,0,0,.206.142c-.007,0-.125-.1-.049-.037l.053.043.106.091a8.151,8.151,0,0,1,.86.912c.065.077.129.156.192.235l.1.126.049.063c.07.089-.059-.078-.013-.016.123.162.246.324.366.489.192.261.379.527.573.787.231.309.511.722.972.58a.625.625,0,1,0-.332-1.2.768.768,0,0,1,.453.053c.006,0,.139.136.1.074a.945.945,0,0,0-.073-.082l-.037-.047c-.07-.084.1.128.044.057-.039-.053-.08-.1-.119-.159-.2-.274-.4-.55-.6-.823a12.186,12.186,0,0,0-1.665-1.94,2.784,2.784,0,0,0-1.12-.668.625.625,0,0,0-.332,1.205Z" fill="#1a1311" stroke="#000" stroke-width="0.5"/>
    </g>
    <g id="グループ_294" data-name="グループ 294">
      <path id="パス_1328" data-name="パス 1328" d="M192.726,359.085c-.007,5.83-.186,11.657-.186,17.488a.625.625,0,0,0,1.25,0c0-5.831.179-11.658.186-17.488a.625.625,0,0,0-1.25,0Z" fill="#1a1311" stroke="#000" stroke-width="0.5"/>
    </g>
    <g id="グループ_295" data-name="グループ 295">
      <path id="パス_1329" data-name="パス 1329" d="M193.7,359.688c-.189.04.1-.008.213-.012.187-.007.375-.014.562-.018.617-.013,1.234-.014,1.851-.015,1.753,0,3.506.014,5.259.029,3.143.028,6.295.124,9.437.038a.625.625,0,0,0,0-1.25c-3.207.088-6.425-.012-9.633-.039-1.76-.015-3.521-.031-5.282-.027a13.547,13.547,0,0,0-2.739.088c-.787.168-.454,1.374.332,1.206Z" fill="#1a1311" stroke="#000" stroke-width="0.5"/>
    </g>
    <g id="グループ_296" data-name="グループ 296">
      <path id="パス_1330" data-name="パス 1330" d="M210.772,359.085v16.744a.625.625,0,0,0,1.25,0V359.085a.625.625,0,0,0-1.25,0Z" fill="#1a1311" stroke="#000" stroke-width="0.5"/>
    </g>
    <g id="グループ_297" data-name="グループ 297">
      <path id="パス_1331" data-name="パス 1331" d="M193.118,376.943a66.648,66.648,0,0,1,9.4.011c1.832.042,3.664.088,5.5.1a22.032,22.032,0,0,0,3.484-.131c.792-.123.456-1.327-.333-1.205a22.774,22.774,0,0,1-3.326.085c-1.845-.012-3.691-.059-5.536-.1a65.272,65.272,0,0,0-9.181-.006c-.789.1-.8,1.346,0,1.25Z" fill="#1a1311" stroke="#000" stroke-width="0.5"/>
    </g>
  </g>
</svg>
