<svg xmlns="http://www.w3.org/2000/svg" width="21.04" height="26.43" viewBox="0 0 21.04 26.43">
  <g id="グループ_188" data-name="グループ 188" transform="translate(0)">
    <g id="グループ_186" data-name="グループ 186" transform="translate(0)">
      <path id="パス_456" data-name="パス 456" d="M231.711,456.769a188.872,188.872,0,0,1-8.727,23.34c-.758,1.612,1.64,3.026,2.4,1.4a194.649,194.649,0,0,0,9.008-24c.544-1.711-2.143-2.443-2.685-.74Z" transform="translate(-222.838 -455.801)" fill="#1a1311"/>
      <path id="パス_457" data-name="パス 457" d="M227.662,457.587c2.474,6.846,5.3,13.566,7.9,20.363.238.617.473,1.233.7,1.854.088.24.336,1.3.259.554.183,1.766,2.967,1.783,2.785,0a9.871,9.871,0,0,0-.77-2.39c-.611-1.612-1.237-3.217-1.864-4.823-1.54-3.947-3.1-7.891-4.629-11.84-.575-1.483-1.157-2.962-1.7-4.458-.6-1.671-3.293-.951-2.683.74Z" transform="translate(-218.274 -455.708)" fill="#1a1311"/>
      <path id="パス_458" data-name="パス 458" d="M226.386,466.777a74.22,74.22,0,0,1,10.416-.634,1.393,1.393,0,0,0,0-2.785,78.183,78.183,0,0,0-11.155.734,1.4,1.4,0,0,0-.972,1.712,1.426,1.426,0,0,0,1.711.972Z" transform="translate(-221.108 -448.518)" fill="#1a1311"/>
    </g>
  </g>
</svg>
