<svg id="グループ_187" data-name="グループ 187" xmlns="http://www.w3.org/2000/svg" width="23.575" height="29.805" viewBox="0 0 23.575 29.805">
  <path id="パス_1248" data-name="パス 1248" d="M203.372,479.639a9.593,9.593,0,0,1-5.546-1.4,7.989,7.989,0,0,1-2.92-4.735,19.582,19.582,0,0,1-.324-6.773,9.949,9.949,0,0,1,2-5.495,9.221,9.221,0,0,1,5.452-2.8,9.728,9.728,0,0,1,5.781.432c1.618.825,2.512,2.761,3.2,4.344a16.357,16.357,0,0,1,1.357,7.977,9.111,9.111,0,0,1-9,8.454,1.392,1.392,0,0,0,0,2.783,11.741,11.741,0,0,0,11.4-8.971,17.183,17.183,0,0,0-.4-9.132c-.719-2.4-1.911-5.241-3.843-6.94-3.653-3.213-10.487-2.253-14.193.383-4.525,3.217-5.135,9.438-4.456,14.544a10.461,10.461,0,0,0,11.5,10.116,1.392,1.392,0,0,0,0-2.783Z" transform="translate(-191.642 -455.348)" fill="#1a1311"/>
  <path id="パス_1249" data-name="パス 1249" d="M197.388,465.9a15.122,15.122,0,0,0,2.849,5.285,38.81,38.81,0,0,1,3.454,4.805,1.392,1.392,0,1,0,2.4-1.4,40.316,40.316,0,0,0-3.36-4.684,25.01,25.01,0,0,1-1.646-2.378,7.785,7.785,0,0,1-1.017-2.364,1.392,1.392,0,1,0-2.685.74Z" transform="translate(-186.146 -446.87)" fill="#1a1311"/>
</svg>
