<svg xmlns="http://www.w3.org/2000/svg" width="251.908" height="39.411" viewBox="0 0 251.908 39.411">
  <g id="グループ_374" data-name="グループ 374" transform="translate(0.247 0.25)">
    <g id="グループ_299" data-name="グループ 299" transform="translate(6.713 0.851)">
      <path id="パス_1332" data-name="パス 1332" d="M87.287,396.127c3.467.215,6.957.045,10.428,0,3.035-.043,6.077-.364,9.112-.216,1.279.062,1.276-1.927,0-1.989-3.035-.148-6.077.173-9.112.216-3.471.049-6.96.22-10.428,0-1.278-.078-1.273,1.911,0,1.989Z" transform="translate(-86.331 -393.878)" fill="#1a1311" stroke="#000" stroke-width="0.5"/>
    </g>
    <g id="グループ_300" data-name="グループ 300" transform="translate(0 6.662)">
      <path id="パス_1333" data-name="パス 1333" d="M82.126,398.525c-.081,2.077.216,4.142.223,6.217a.995.995,0,1,0,1.989,0c-.006-2.075-.3-4.141-.223-6.217a1,1,0,0,0-.995-.994,1.016,1.016,0,0,0-.995.994Z" transform="translate(-82.112 -397.529)" fill="#1a1311" stroke="#000" stroke-width="0.5"/>
    </g>
    <g id="グループ_301" data-name="グループ 301" transform="translate(0.936 6.663)">
      <path id="パス_1334" data-name="パス 1334" d="M83.661,399.519c10.881,0,21.761.218,32.64.221a1,1,0,0,0,0-1.989c-10.88,0-21.759-.221-32.64-.221a1,1,0,0,0,0,1.989Z" transform="translate(-82.701 -397.53)" fill="#1a1311" stroke="#000" stroke-width="0.5"/>
    </g>
    <g id="グループ_302" data-name="グループ 302" transform="translate(33.987 7.101)">
      <path id="パス_1335" data-name="パス 1335" d="M103.948,399.07c.056.2.1.4.143.609.021.116.037.231.057.345-.041-.231.01.087.019.173a9.564,9.564,0,0,1,.035,1.448c-.006.111-.014.221-.024.331-.006.068-.016.137-.021.205-.013.15.027-.169,0-.022-.037.223-.076.446-.13.664a2.135,2.135,0,0,1-.208.646c.035-.049.072-.153.016-.038l-.062.126c-.053.1-.11.2-.172.3a1,1,0,0,0,.358,1.361,1.016,1.016,0,0,0,1.361-.356,6.583,6.583,0,0,0,.864-3.128,9.881,9.881,0,0,0-.32-3.189,1,1,0,0,0-1.919.528Z" transform="translate(-103.471 -397.805)" fill="#1a1311" stroke="#000" stroke-width="0.5"/>
    </g>
    <g id="グループ_303" data-name="グループ 303" transform="translate(16.889 2.477)">
      <path id="パス_1336" data-name="パス 1336" d="M92.726,395.861c0,4.441.218,8.879.221,13.322a1,1,0,0,0,1.989,0c0-4.443-.216-8.881-.221-13.322a1,1,0,0,0-1.989,0Z" transform="translate(-92.726 -394.9)" fill="#1a1311" stroke="#000" stroke-width="0.5"/>
    </g>
    <g id="グループ_304" data-name="グループ 304" transform="translate(5.565 10.214)">
      <path id="パス_1337" data-name="パス 1337" d="M86.6,401.751a44.768,44.768,0,0,1,5.951.409,1.021,1.021,0,0,0,1.224-.694,1.006,1.006,0,0,0-.694-1.224,46.751,46.751,0,0,0-6.481-.481.995.995,0,1,0,0,1.989Z" transform="translate(-85.609 -399.762)" fill="#1a1311" stroke="#000" stroke-width="0.5"/>
    </g>
    <g id="グループ_305" data-name="グループ 305" transform="translate(5.797 14.446)">
      <path id="パス_1338" data-name="パス 1338" d="M86.476,404.362a18.682,18.682,0,0,0,3.4.274,9.446,9.446,0,0,1,3.042.393,1,1,0,0,0,1.222-.7,1.018,1.018,0,0,0-.694-1.224,11.412,11.412,0,0,0-3.345-.457c-.544-.014-1.088-.019-1.631-.044-.256-.013-.514-.029-.77-.054l-.216-.024c.084.013.067.01-.057-.009q-.21-.034-.42-.076a.994.994,0,0,0-.528,1.917Z" transform="translate(-85.755 -402.421)" fill="#1a1311" stroke="#000" stroke-width="0.5"/>
    </g>
    <g id="グループ_306" data-name="グループ 306" transform="translate(22.447 10.428)">
      <path id="パス_1339" data-name="パス 1339" d="M96.942,401.859a10.475,10.475,0,0,0,3.041.5c1,.048,2,.022,3-.017a.995.995,0,0,0,0-1.989c-.968.038-1.937.064-2.9.022q-.368-.017-.735-.048c-.121-.01-.24-.022-.36-.035l-.178-.022c.1.013.1.016,0,0a7.3,7.3,0,0,1-1.335-.326,1,1,0,0,0-1.222.7,1.02,1.02,0,0,0,.694,1.224Z" transform="translate(-96.218 -399.896)" fill="#1a1311" stroke="#000" stroke-width="0.5"/>
    </g>
    <g id="グループ_307" data-name="グループ 307" transform="translate(22.224 14.201)">
      <path id="パス_1340" data-name="パス 1340" d="M96.8,404.232a12.8,12.8,0,0,0,3.313.613c.565.051,1.131.086,1.7.13q.411.031.821.072c.132.013.264.029.4.043s.129.016.024,0l.188.029a1.021,1.021,0,0,0,1.224-.7,1.007,1.007,0,0,0-.7-1.224c-1.141-.172-2.291-.231-3.44-.326-.283-.024-.565-.051-.847-.083-.035,0-.415-.051-.253-.029-.135-.019-.271-.04-.406-.064a8.326,8.326,0,0,1-1.493-.387,1,1,0,0,0-1.224.7,1.021,1.021,0,0,0,.7,1.224Z" transform="translate(-96.078 -402.268)" fill="#1a1311" stroke="#000" stroke-width="0.5"/>
    </g>
    <g id="グループ_308" data-name="グループ 308" transform="translate(4.454 20.019)">
      <path id="パス_1341" data-name="パス 1341" d="M84.912,406.884c-.032,3.708.707,7.391.444,11.1-.091,1.276,1.9,1.271,1.989,0,.263-3.711-.476-7.395-.444-11.1a1,1,0,0,0-1.989,0Z" transform="translate(-84.911 -405.923)" fill="#1a1311" stroke="#000" stroke-width="0.5"/>
    </g>
    <g id="グループ_309" data-name="グループ 309" transform="translate(5.155 19.71)">
      <path id="パス_1342" data-name="パス 1342" d="M86.313,407.77q6.865,0,13.712.245c2.155.076,4.344.061,6.5-.029,1.561-.065,3.324-.59,4.836-.029,1.2.446,1.722-1.477.53-1.919-1.614-.6-3.391-.164-5.051-.059-2.093.13-4.239.115-6.338.06-4.732-.119-9.452-.258-14.188-.259a1,1,0,0,0,0,1.989Z" transform="translate(-85.352 -405.729)" fill="#1a1311" stroke="#000" stroke-width="0.5"/>
    </g>
    <g id="グループ_310" data-name="グループ 310" transform="translate(29.76 20.462)">
      <path id="パス_1343" data-name="パス 1343" d="M101.932,407.163a36.825,36.825,0,0,1-1.076,9.949,1,1,0,0,0,1.919.53,38.937,38.937,0,0,0,1.146-10.478,1,1,0,0,0-1.989,0Z" transform="translate(-100.814 -406.202)" fill="#1a1311" stroke="#000" stroke-width="0.5"/>
    </g>
    <g id="グループ_311" data-name="グループ 311" transform="translate(5.378 24.87)">
      <path id="パス_1344" data-name="パス 1344" d="M86.452,410.961c7.777.006,15.547.349,23.314.665,1.281.052,1.278-1.937,0-1.989-7.767-.317-15.537-.659-23.314-.665a1,1,0,0,0,0,1.989Z" transform="translate(-85.492 -408.972)" fill="#1a1311" stroke="#000" stroke-width="0.5"/>
    </g>
    <g id="グループ_312" data-name="グループ 312" transform="translate(5.599 30.864)">
      <path id="パス_1345" data-name="パス 1345" d="M86.592,414.728H110.35a1,1,0,0,0,0-1.989H86.592a1,1,0,0,0,0,1.989Z" transform="translate(-85.631 -412.739)" fill="#1a1311" stroke="#000" stroke-width="0.5"/>
    </g>
    <g id="グループ_313" data-name="グループ 313" transform="translate(16.889 21.129)">
      <path id="パス_1346" data-name="パス 1346" d="M92.726,407.582v13.543a1,1,0,0,0,1.989,0V407.582a1,1,0,0,0-1.989,0Z" transform="translate(-92.726 -406.621)" fill="#1a1311" stroke="#000" stroke-width="0.5"/>
    </g>
    <g id="グループ_314" data-name="グループ 314" transform="translate(17.02 34.904)">
      <path id="パス_1347" data-name="パス 1347" d="M92.935,415.966c-1.1,3.307,5.3,2.915,6.976,2.861s3.31.018,4.974.072c2.185.073,4.624.14,6.607-.921,1.128-.606.126-2.323-1-1.719-1.6.859-3.717.711-5.477.656-1.475-.046-2.947-.154-4.424-.1a35.2,35.2,0,0,1-3.822,0,6.423,6.423,0,0,1-1.656-.279,1.457,1.457,0,0,1-.353-.167c.1,0,.008.393.1.127.406-1.217-1.515-1.739-1.917-.528Z" transform="translate(-92.808 -415.278)" fill="#1a1311" stroke="#000" stroke-width="0.5"/>
    </g>
    <g id="グループ_315" data-name="グループ 315" transform="translate(34.884 31.307)">
      <path id="パス_1348" data-name="パス 1348" d="M104.691,414.013a5.693,5.693,0,0,1,0,1.015c0,.046-.01.094-.014.142-.014.111-.011.094.008-.054a.946.946,0,0,1-.033.21c-.029.162-.062.325-.1.485-.145.649-.341,1.286-.49,1.935a.994.994,0,0,0,1.917.528,13.581,13.581,0,0,0,.7-4.261,1.016,1.016,0,0,0-.995-.995,1,1,0,0,0-.995.995Z" transform="translate(-104.034 -413.017)" fill="#1a1311" stroke="#000" stroke-width="0.5"/>
    </g>
    <g id="グループ_316" data-name="グループ 316" transform="translate(45.758 1.123)">
      <path id="パス_1349" data-name="パス 1349" d="M111.594,395.991c2.346.487,4.782.185,7.1.667a1.02,1.02,0,0,0,1.224-.7,1,1,0,0,0-.694-1.224c-2.346-.485-4.774-.181-7.105-.665a1.017,1.017,0,0,0-1.224.694,1,1,0,0,0,.694,1.224Z" transform="translate(-110.868 -394.048)" fill="#1a1311" stroke="#000" stroke-width="0.5"/>
    </g>
    <g id="グループ_317" data-name="グループ 317" transform="translate(43.346 7.995)">
      <path id="パス_1350" data-name="パス 1350" d="M110.313,400.356h12.211a1,1,0,0,0,0-1.989H110.313a1,1,0,0,0,0,1.989Z" transform="translate(-109.352 -398.367)" fill="#1a1311" stroke="#000" stroke-width="0.5"/>
    </g>
    <g id="グループ_318" data-name="グループ 318" transform="translate(44.68 14.197)">
      <path id="パス_1351" data-name="パス 1351" d="M110.885,404.233c3.089.961,6.429.269,9.589.258a1,1,0,0,0,0-1.989c-1.485,0-2.968.159-4.452.205a14.029,14.029,0,0,1-4.608-.393c-1.225-.38-1.749,1.539-.528,1.919Z" transform="translate(-110.191 -402.265)" fill="#1a1311" stroke="#000" stroke-width="0.5"/>
    </g>
    <g id="グループ_319" data-name="グループ 319" transform="translate(44.011 19.487)">
      <path id="パス_1352" data-name="パス 1352" d="M110.731,408.076c3.631-.022,7.245-.687,10.879-.444,1.278.084,1.273-1.9,0-1.989-3.634-.243-7.248.422-10.879.444a1,1,0,0,0,0,1.989Z" transform="translate(-109.77 -405.589)" fill="#1a1311" stroke="#000" stroke-width="0.5"/>
    </g>
    <g id="グループ_320" data-name="グループ 320" transform="translate(44.644 26.236)">
      <path id="パス_1353" data-name="パス 1353" d="M110.168,410.791c0,3.109.218,6.216.221,9.325a1,1,0,0,0,1.989,0c0-3.109-.218-6.215-.221-9.325a1,1,0,0,0-1.989,0Z" transform="translate(-110.168 -409.83)" fill="#1a1311" stroke="#000" stroke-width="0.5"/>
    </g>
    <g id="グループ_321" data-name="グループ 321" transform="translate(44.865 25.964)">
      <path id="パス_1354" data-name="パス 1354" d="M111.566,412.072a9.587,9.587,0,0,1,3.991-.4c1.469.051,2.934.207,4.4.212a1,1,0,0,0,0-1.989c-1.513,0-3.022-.169-4.535-.216a11.018,11.018,0,0,0-4.389.474,1.024,1.024,0,0,0-.694,1.224,1,1,0,0,0,1.222.694Z" transform="translate(-110.307 -409.66)" fill="#1a1311" stroke="#000" stroke-width="0.5"/>
    </g>
    <g id="グループ_322" data-name="グループ 322" transform="translate(54.192 26.236)">
      <path id="パス_1355" data-name="パス 1355" d="M116.168,410.791v9.548a1,1,0,0,0,1.989,0v-9.548a1,1,0,0,0-1.989,0Z" transform="translate(-116.168 -409.83)" fill="#1a1311" stroke="#000" stroke-width="0.5"/>
    </g>
    <g id="グループ_323" data-name="グループ 323" transform="translate(45.122 35.749)">
      <path id="パス_1356" data-name="パス 1356" d="M111.429,417.8h8.216a1,1,0,0,0,0-1.989h-8.216a1,1,0,0,0,0,1.989Z" transform="translate(-110.468 -415.809)" fill="#1a1311" stroke="#000" stroke-width="0.5"/>
    </g>
    <g id="グループ_324" data-name="グループ 324" transform="translate(59.779 1.077)">
      <path id="パス_1357" data-name="パス 1357" d="M120.637,399.6a19.313,19.313,0,0,0,5.659-.751c1.26-.307,2.5-.606,3.722-1.028,1.2-.412,2.384-.851,3.588-1.24.519-.167,1.041-.329,1.571-.453.162-.037.457-.094.543-.108-.084.014.143,0,.165,0,.218,0-.156-.048.03,0,1.244.3,1.774-1.615.53-1.918a5.567,5.567,0,0,0-2.778.383c-1.233.372-2.443.82-3.658,1.244a34.855,34.855,0,0,1-3.408,1.006,20.464,20.464,0,0,1-5.962.883c-1.279-.075-1.275,1.914,0,1.989Z" transform="translate(-119.679 -394.02)" fill="#1a1311" stroke="#000" stroke-width="0.5"/>
    </g>
    <g id="グループ_325" data-name="グループ 325" transform="translate(58.444 13.324)">
      <path id="パス_1358" data-name="パス 1358" d="M119.8,403.705h19.1a1,1,0,0,0,0-1.989H119.8a1,1,0,0,0,0,1.989Z" transform="translate(-118.84 -401.716)" fill="#1a1311" stroke="#000" stroke-width="0.5"/>
    </g>
    <g id="グループ_326" data-name="グループ 326" transform="translate(67.958 4.254)">
      <path id="パス_1359" data-name="パス 1359" d="M124.819,396.977v17.1a1,1,0,0,0,1.989,0v-17.1a1,1,0,0,0-1.989,0Z" transform="translate(-124.819 -396.016)" fill="#1a1311" stroke="#000" stroke-width="0.5"/>
    </g>
    <g id="グループ_327" data-name="グループ 327" transform="translate(60.186 23.571)">
      <path id="パス_1360" data-name="パス 1360" d="M119.935,409.116c.01,4.072.218,8.141.223,12.213a1,1,0,0,0,1.989,0c0-4.072-.213-8.141-.223-12.213a1,1,0,0,0-1.989,0Z" transform="translate(-119.935 -408.156)" fill="#1a1311" stroke="#000" stroke-width="0.5"/>
    </g>
    <g id="グループ_328" data-name="グループ 328" transform="translate(60.221 23.092)">
      <path id="パス_1361" data-name="パス 1361" d="M120.917,409.844H136.46a1,1,0,0,0,0-1.989H120.917a1,1,0,0,0,0,1.989Z" transform="translate(-119.957 -407.855)" fill="#1a1311" stroke="#000" stroke-width="0.5"/>
    </g>
    <g id="グループ_329" data-name="グループ 329" transform="translate(75.966 23.238)">
      <path id="パス_1362" data-name="パス 1362" d="M130.064,408.907c-.022,3.918.547,7.958-.193,11.838-.237,1.251,1.679,1.787,1.919.528.777-4.075.239-8.252.263-12.366a1,1,0,0,0-1.989,0Z" transform="translate(-129.851 -407.947)" fill="#1a1311" stroke="#000" stroke-width="0.5"/>
    </g>
    <g id="グループ_330" data-name="グループ 330" transform="translate(60.879 34.857)">
      <path id="パス_1363" data-name="パス 1363" d="M121.075,417.205c2.326.637,4.806.236,7.18.251,2.654.018,5.305.03,7.961.006a1,1,0,0,0,0-1.989c-2.586.022-5.167.035-7.753,0-2.25-.033-4.659.42-6.86-.181a1,1,0,0,0-.528,1.917Z" transform="translate(-120.37 -415.248)" fill="#1a1311" stroke="#000" stroke-width="0.5"/>
    </g>
    <g id="グループ_331" data-name="グループ 331" transform="translate(89.312 0)">
      <path id="パス_1364" data-name="パス 1364" d="M139.194,398.664c5.022.363,10.073-1.176,15.041-1.711,4.758-.512,9.484-1.391,14.269-1.62,1.275-.062,1.281-2.051,0-1.989-4.785.229-9.511,1.108-14.269,1.62-4.965.535-10.031,2.072-15.041,1.711-1.276-.092-1.271,1.9,0,1.989Z" transform="translate(-138.239 -393.343)" fill="#1a1311" stroke="#000" stroke-width="0.5"/>
    </g>
    <g id="グループ_332" data-name="グループ 332" transform="translate(93.491 5.55)">
      <path id="パス_1365" data-name="パス 1365" d="M141,398.33a6.374,6.374,0,0,1,.313.57c.046.094.088.191.13.286.06.132-.059-.154-.006-.016l.059.15c.172.441.317.89.46,1.34A19,19,0,0,0,143,403.436a1,1,0,0,0,1.361.356,1.019,1.019,0,0,0,.356-1.361c-.048-.1-.1-.193-.14-.291-.022-.049-.043-.1-.065-.148.088.194.006.013-.011-.029-.083-.207-.159-.415-.232-.625-.158-.453-.3-.913-.444-1.37a11.719,11.719,0,0,0-1.106-2.643.995.995,0,1,0-1.717,1Z" transform="translate(-140.865 -396.831)" fill="#1a1311" stroke="#000" stroke-width="0.5"/>
    </g>
    <g id="グループ_333" data-name="グループ 333" transform="translate(102.608 4.221)">
      <path id="パス_1366" data-name="パス 1366" d="M146.718,397.49c.048.1.1.2.142.3.024.056.049.111.073.167.06.137.075.105,0,0a3.721,3.721,0,0,1,.314.8q.339.914.619,1.846c.167.559.321,1.12.438,1.692.022.116.041.234.064.35.038.221-.013-.153-.006-.054,0,.048.011.1.014.143.008.083.006.164.011.247.011.242.065-.258.006-.038a.994.994,0,1,0,1.917.528,3.565,3.565,0,0,0-.06-1.555,16.829,16.829,0,0,0-.444-1.765,23.055,23.055,0,0,0-1.372-3.663,1,1,0,0,0-1.361-.358,1.018,1.018,0,0,0-.356,1.361Z" transform="translate(-146.594 -395.996)" fill="#1a1311" stroke="#000" stroke-width="0.5"/>
    </g>
    <g id="グループ_334" data-name="グループ 334" transform="translate(112.156 4.892)">
      <path id="パス_1367" data-name="パス 1367" d="M156.392,397.141a6.268,6.268,0,0,1-.3.7q-.2.411-.428.807c-.307.535-.641,1.05-.983,1.563a33.172,33.172,0,0,0-1.959,3.133.995.995,0,1,0,1.717,1c1.189-2.3,2.955-4.234,3.875-6.677a1,1,0,0,0-.694-1.224,1.021,1.021,0,0,0-1.224.694Z" transform="translate(-152.594 -396.417)" fill="#1a1311" stroke="#000" stroke-width="0.5"/>
    </g>
    <g id="グループ_335" data-name="グループ 335" transform="translate(86.83 12.212)">
      <path id="パス_1368" data-name="パス 1368" d="M136.679,402.013v5.773a.995.995,0,1,0,1.989,0v-5.773a.995.995,0,1,0-1.989,0Z" transform="translate(-136.679 -401.017)" fill="#1a1311" stroke="#000" stroke-width="0.5"/>
    </g>
    <g id="グループ_336" data-name="グループ 336" transform="translate(87.546 11.769)">
      <path id="パス_1369" data-name="パス 1369" d="M138.339,403.358c2.228-.783,4.7-.477,7.013-.422,2.8.067,5.6.011,8.4.013,5.95,0,11.9-.212,17.849-.221a1,1,0,0,0,0-1.989c-6.169.009-12.334.224-18.5.221-2.82,0-5.647.057-8.467-.037-2.256-.075-4.654-.245-6.822.517-1.2.422-.684,2.344.528,1.917Z" transform="translate(-137.129 -400.739)" fill="#1a1311" stroke="#000" stroke-width="0.5"/>
    </g>
    <g id="グループ_337" data-name="グループ 337" transform="translate(121.246 11.768)">
      <path id="パス_1370" data-name="パス 1370" d="M158.53,401.734c-.167,1.768-.221,3.553-.223,5.329a.995.995,0,0,0,1.989,0c0-1.776.056-3.561.223-5.329a1,1,0,0,0-.995-.994,1.02,1.02,0,0,0-.995.994Z" transform="translate(-158.307 -400.739)" fill="#1a1311" stroke="#000" stroke-width="0.5"/>
    </g>
    <g id="グループ_338" data-name="グループ 338" transform="translate(93.082 19.504)">
      <path id="パス_1371" data-name="パス 1371" d="M141.568,407.626c6.811-.151,13.618.215,20.427.221a1,1,0,0,0,0-1.989c-6.809-.006-13.616-.372-20.427-.221a1,1,0,0,0,0,1.989Z" transform="translate(-140.608 -405.6)" fill="#1a1311" stroke="#000" stroke-width="0.5"/>
    </g>
    <g id="グループ_339" data-name="グループ 339" transform="translate(87.092 19.972)">
      <path id="パス_1372" data-name="パス 1372" d="M163.584,406.4c-2.409,4.807-6.542,8.063-11.285,10.413-4.386,2.174-9.43,5.243-14.5,4.86-1.276-.1-1.271,1.894,0,1.989,5.428.41,10.813-2.807,15.5-5.132,5.022-2.489,9.451-6.042,12-11.126.571-1.141-1.144-2.15-1.719-1Z" transform="translate(-136.844 -405.894)" fill="#1a1311" stroke="#000" stroke-width="0.5"/>
    </g>
    <g id="グループ_340" data-name="グループ 340" transform="translate(95.48 20.888)">
      <path id="パス_1373" data-name="パス 1373" d="M142.261,407.952a27.283,27.283,0,0,0,12.371,11.467,55.1,55.1,0,0,0,6.946,2.573,20.168,20.168,0,0,0,7.964,1.106c1.254-.154,1.27-2.145,0-1.989a18.405,18.405,0,0,1-7.264-.985,51.293,51.293,0,0,1-6.642-2.422,25.49,25.49,0,0,1-11.658-10.754,1,1,0,0,0-1.717,1Z" transform="translate(-142.115 -406.47)" fill="#1a1311" stroke="#000" stroke-width="0.5"/>
    </g>
    <g id="グループ_341" data-name="グループ 341" transform="translate(129.477 0.27)">
      <path id="パス_1374" data-name="パス 1374" d="M173.456,394.46c-.376,3.143-2.758,5.856-4.239,8.542-1.733,3.141-3.972,5.978-5.617,9.164-.586,1.135,1.13,2.142,1.719,1a50.525,50.525,0,0,1,3.035-4.9c1.03-1.536,1.916-3.125,2.839-4.724,1.668-2.885,3.846-5.684,4.253-9.089.151-1.268-1.839-1.257-1.989,0Z" transform="translate(-163.48 -393.513)" fill="#1a1311" stroke="#000" stroke-width="0.5"/>
    </g>
    <g id="グループ_342" data-name="グループ 342" transform="translate(135.012 9.805)">
      <path id="パス_1375" data-name="パス 1375" d="M167.4,400.465c-.006,8.809-.43,17.615-.444,26.423a1,1,0,0,0,1.989,0c.014-8.808.438-17.614.444-26.423a1,1,0,0,0-1.989,0Z" transform="translate(-166.958 -399.505)" fill="#1a1311" stroke="#000" stroke-width="0.5"/>
    </g>
    <g id="グループ_343" data-name="グループ 343" transform="translate(140.154 10.658)">
      <path id="パス_1376" data-name="パス 1376" d="M171.15,402.03c8.136.186,16.283.221,24.423.223a1,1,0,0,0,0-1.989c-8.139,0-16.287-.037-24.423-.223a1,1,0,0,0,0,1.989Z" transform="translate(-170.189 -400.041)" fill="#1a1311" stroke="#000" stroke-width="0.5"/>
    </g>
    <g id="グループ_344" data-name="グループ 344" transform="translate(150.725 0.479)">
      <path id="パス_1377" data-name="パス 1377" d="M177.176,429.724c2.077,1.645,7.315,3.555,9.462,1.125,1.068-1.209.662-3.576.652-5.057q-.081-11.347-.156-22.7c-.017-2.829-.043-5.66-.045-8.491a1,1,0,0,0-1.989,0c0,11.257.28,22.516.218,33.773,0,.937-.18,1.423-1.289,1.521a8.7,8.7,0,0,1-5.447-1.582c-.993-.788-2.409.611-1.407,1.407Z" transform="translate(-176.832 -393.644)" fill="#1a1311" stroke="#000" stroke-width="0.5"/>
    </g>
    <g id="グループ_345" data-name="グループ 345" transform="translate(143.908 16.883)">
      <path id="パス_1378" data-name="パス 1378" d="M172.67,405.442a23.372,23.372,0,0,0,3.154,4.446c.543.665,1.053,1.286,1.539,1.978a11.469,11.469,0,0,1,.633,1c.08.142.153.286.223.434.126.271-.059-.173.041.1.029.081.057.162.083.245.382,1.217,2.3.7,1.917-.528a13.933,13.933,0,0,0-2.786-4.335,22.88,22.88,0,0,1-3.087-4.341,1,1,0,0,0-1.361-.356,1.015,1.015,0,0,0-.356,1.361Z" transform="translate(-172.549 -403.953)" fill="#1a1311" stroke="#000" stroke-width="0.5"/>
    </g>
    <g id="グループ_346" data-name="グループ 346" transform="translate(173.869 4.254)">
      <path id="パス_1379" data-name="パス 1379" d="M191.377,396.977c.059,8.749.589,17.494.226,26.243-.053,1.281,1.937,1.278,1.989,0,.363-8.749-.167-17.494-.226-26.243a1,1,0,0,0-1.989,0Z" transform="translate(-191.377 -396.016)" fill="#1a1311" stroke="#000" stroke-width="0.5"/>
    </g>
    <g id="グループ_347" data-name="グループ 347" transform="translate(174.091 3.438)">
      <path id="パス_1380" data-name="パス 1380" d="M192.511,397.608a22.772,22.772,0,0,1,4.1-.045,23.379,23.379,0,0,0,3.671.045,1.023,1.023,0,0,0,.995-.995,1,1,0,0,0-.995-.995,23.368,23.368,0,0,1-3.671-.044,22.774,22.774,0,0,0-4.1.044,1.028,1.028,0,0,0-.995.995c0,.484.458,1.066.995.995Z" transform="translate(-191.516 -395.504)" fill="#1a1311" stroke="#000" stroke-width="0.5"/>
    </g>
    <g id="グループ_348" data-name="グループ 348" transform="translate(182.085 3.809)">
      <path id="パス_1381" data-name="パス 1381" d="M196.761,396.7c-.018,5.137.072,10.278-.013,15.413-.059,3.665-.208,7.315-.208,10.981a1,1,0,0,0,1.989,0V422.9a1,1,0,0,0-1.989,0v.194a1,1,0,0,0,1.989,0c0-3.666.15-7.317.208-10.981.084-5.135,0-10.276.013-15.413a1,1,0,0,0-1.989,0Z" transform="translate(-196.54 -395.737)" fill="#1a1311" stroke="#000" stroke-width="0.5"/>
    </g>
    <g id="グループ_349" data-name="グループ 349" transform="translate(174.757 16.096)">
      <path id="パス_1382" data-name="パス 1382" d="M192.93,405.561c2.252-.145,4.524.084,6.772-.111a1.02,1.02,0,0,0,.995-.995,1,1,0,0,0-.995-.995c-2.248.2-4.521-.033-6.772.111a1.017,1.017,0,0,0-.995.995,1,1,0,0,0,.995.995Z" transform="translate(-191.935 -403.458)" fill="#1a1311" stroke="#000" stroke-width="0.5"/>
    </g>
    <g id="グループ_350" data-name="グループ 350" transform="translate(174.536 30.307)">
      <path id="パス_1383" data-name="パス 1383" d="M192.525,414.345a13.113,13.113,0,0,0,3.935.286,33.864,33.864,0,0,0,4.032-.286,1,1,0,0,0,.7-1.224,1.021,1.021,0,0,0-1.224-.694c-.2.027.259-.029.043-.006l-.186.021-.345.037q-.444.041-.888.072-1.062.072-2.128.092c-.687.013-1.376.011-2.062-.027-.151-.01-.3-.019-.454-.032-.076-.008-.153-.016-.231-.022-.033,0-.247-.03-.083-.01s-.037,0-.072-.011c-.062-.011-.124-.021-.186-.033-.107-.022-.213-.048-.318-.08a.995.995,0,0,0-.53,1.918Z" transform="translate(-191.796 -412.389)" fill="#1a1311" stroke="#000" stroke-width="0.5"/>
    </g>
    <g id="グループ_351" data-name="グループ 351" transform="translate(188.336 5.306)">
      <path id="パス_1384" data-name="パス 1384" d="M201.429,398.912c5.993-.01,12-.547,17.984,0,1.275.118,1.267-1.873,0-1.989-5.983-.547-11.992-.01-17.984,0a1,1,0,0,0,0,1.989Z" transform="translate(-200.468 -396.678)" fill="#1a1311" stroke="#000" stroke-width="0.5"/>
    </g>
    <g id="グループ_352" data-name="グループ 352" transform="translate(196.294 0.925)">
      <path id="パス_1385" data-name="パス 1385" d="M205.47,394.883c.177,4.144.118,8.289.221,12.434a1,1,0,0,0,1.989,0c-.1-4.145-.045-8.29-.221-12.434-.054-1.275-2.045-1.283-1.989,0Z" transform="translate(-205.469 -393.924)" fill="#1a1311" stroke="#000" stroke-width="0.5"/>
    </g>
    <g id="グループ_353" data-name="グループ 353" transform="translate(185.893 13.768)">
      <path id="パス_1386" data-name="パス 1386" d="M199.894,404.205c7.549,0,15.1-.216,22.647-.221a1,1,0,0,0,0-1.989c-7.549,0-15.1.218-22.647.221a1,1,0,0,0,0,1.989Z" transform="translate(-198.933 -401.995)" fill="#1a1311" stroke="#000" stroke-width="0.5"/>
    </g>
    <g id="グループ_354" data-name="グループ 354" transform="translate(186.341 20.982)">
      <path id="パス_1387" data-name="パス 1387" d="M200.172,408.631c3.644-.237,7.344-.038,10.991.027,3.663.065,7.328.189,10.991.194a1,1,0,0,0,0-1.989c-3.663,0-7.328-.129-10.991-.194-3.647-.065-7.347-.264-10.991-.027-1.271.081-1.281,2.072,0,1.989Z" transform="translate(-199.214 -406.529)" fill="#1a1311" stroke="#000" stroke-width="0.5"/>
    </g>
    <g id="グループ_355" data-name="グループ 355" transform="translate(202.063 14.912)">
      <path id="パス_1388" data-name="パス 1388" d="M209.321,403.675q0,5.626-.027,11.253c-.021,3.259.111,6.589-.194,9.839-.121,1.275,1.87,1.267,1.989,0,.306-3.249.173-6.58.194-9.839q.033-5.626.027-11.253a1,1,0,0,0-1.989,0Z" transform="translate(-209.095 -402.714)" fill="#1a1311" stroke="#000" stroke-width="0.5"/>
    </g>
    <g id="グループ_356" data-name="グループ 356" transform="translate(196.076 35.637)">
      <path id="パス_1389" data-name="パス 1389" d="M205.62,417.549a7.23,7.23,0,0,0,2.837,1.2,5.409,5.409,0,0,0,3.732-.1,2.213,2.213,0,0,0,1.125-1.9,1,1,0,0,0-.995-.995,1.016,1.016,0,0,0-.995.995c-.011.191-.029-.016.016-.067-.024.026-.027.118-.035.156s-.072.2,0,.024-.011-.014-.027.029c-.046.115.177-.178.045-.057-.029.027-.059.056-.084.084-.11.116.111-.068.072-.056a.8.8,0,0,0-.143.084c-.146.089.132-.043.08-.03s-.086.032-.127.045c-.107.032-.215.048-.323.073-.057.014.259-.024.067-.01l-.154.011c-.126.008-.25.008-.376,0s-.243-.011-.364-.022c-.057,0-.115-.013-.172-.017-.165-.014.228.037,0,0-.264-.043-.525-.092-.784-.154a11.261,11.261,0,0,1-1.381-.426l-.181-.072c-.145-.056.229.1.049.021-.094-.043-.186-.083-.277-.129-.072-.035-.142-.072-.21-.113-.1-.057-.31-.234.013.029a1.019,1.019,0,0,0-1.407,0,1.007,1.007,0,0,0,0,1.407Z" transform="translate(-205.332 -415.739)" fill="#1a1311" stroke="#000" stroke-width="0.5"/>
    </g>
    <g id="グループ_357" data-name="グループ 357" transform="translate(189.645 25.768)">
      <path id="パス_1390" data-name="パス 1390" d="M201.772,411.378a6.244,6.244,0,0,1,.711.452c.164.119-.145-.124.022.019.054.046.111.091.166.138.1.086.2.175.294.266a15.19,15.19,0,0,1,1.181,1.276,24.841,24.841,0,0,0,2.311,2.579.995.995,0,1,0,1.407-1.407c-1.784-1.591-2.925-3.878-5.087-5.041a.995.995,0,0,0-1,1.717Z" transform="translate(-201.291 -409.536)" fill="#1a1311" stroke="#000" stroke-width="0.5"/>
    </g>
    <g id="グループ_358" data-name="グループ 358" transform="translate(217.646 1.441)">
      <path id="パス_1391" data-name="パス 1391" d="M219.846,396.353c2.088-.1,4.185-.056,6.273-.056,1.859,0,3.751.089,5.606-.056,1.268-.1,1.279-2.089,0-1.989-1.855.145-3.747.056-5.606.056-2.088,0-4.185-.045-6.273.056-1.275.06-1.281,2.049,0,1.989Z" transform="translate(-218.888 -394.249)" fill="#1a1311" stroke="#000" stroke-width="0.5"/>
    </g>
    <g id="グループ_359" data-name="グループ 359" transform="translate(229.6 1.367)">
      <path id="パス_1392" data-name="パス 1392" d="M226.4,395.163V407a1,1,0,0,0,1.989,0v-.517a1,1,0,0,0-1.989,0V407a1,1,0,0,0,1.989,0V395.163a1,1,0,0,0-1.989,0Z" transform="translate(-226.4 -394.202)" fill="#1a1311" stroke="#000" stroke-width="0.5"/>
    </g>
    <g id="グループ_360" data-name="グループ 360" transform="translate(218.089 6.904)">
      <path id="パス_1393" data-name="パス 1393" d="M220.126,399.873c3.649.006,7.3.277,10.922-.258a1,1,0,0,0,.7-1.224,1.02,1.02,0,0,0-1.224-.694c-3.434.506-6.939.191-10.394.186a1,1,0,0,0,0,1.989Z" transform="translate(-219.166 -397.682)" fill="#1a1311" stroke="#000" stroke-width="0.5"/>
    </g>
    <g id="グループ_361" data-name="グループ 361" transform="translate(218.533 12.988)">
      <path id="パス_1394" data-name="パス 1394" d="M220.4,403.607c3.59,0,7.186.215,10.77-.11a1.023,1.023,0,0,0,.995-.995,1,1,0,0,0-.995-.995c-3.584.325-7.18.115-10.77.11a1,1,0,0,0,0,1.989Z" transform="translate(-219.445 -401.505)" fill="#1a1311" stroke="#000" stroke-width="0.5"/>
    </g>
    <g id="グループ_362" data-name="グループ 362" transform="translate(217.356 2.256)">
      <path id="パス_1395" data-name="パス 1395" d="M218.96,395.721c0,11.258-.38,22.523-.21,33.781a1,1,0,0,0,1.989,0c-.17-11.258.205-22.523.21-33.781a1,1,0,0,0-1.989,0Z" transform="translate(-218.705 -394.761)" fill="#1a1311" stroke="#000" stroke-width="0.5"/>
    </g>
    <g id="グループ_363" data-name="グループ 363" transform="translate(236.04 2.033)">
      <path id="パス_1396" data-name="パス 1396" d="M230.447,395.582v10.657a1,1,0,0,0,1.989,0V395.582a1,1,0,0,0-1.989,0Z" transform="translate(-230.447 -394.621)" fill="#1a1311" stroke="#000" stroke-width="0.5"/>
    </g>
    <g id="グループ_364" data-name="グループ 364" transform="translate(236.719 1.644)">
      <path id="パス_1397" data-name="パス 1397" d="M232.119,396.685a29.744,29.744,0,0,1,6.168-.3c2,.035,4.012.121,6,.339a1,1,0,0,0,.995-.995,1.016,1.016,0,0,0-.995-.995c-2.049-.224-4.118-.31-6.179-.342a31.367,31.367,0,0,0-6.519.377c-1.256.247-.724,2.164.528,1.917Z" transform="translate(-230.873 -394.376)" fill="#1a1311" stroke="#000" stroke-width="0.5"/>
    </g>
    <g id="グループ_365" data-name="グループ 365" transform="translate(249.14 2.7)">
      <path id="パス_1398" data-name="パス 1398" d="M238.9,396c.248,10.8-.224,21.619-.223,32.417a1,1,0,0,0,1.989,0c0-10.8.471-21.621.223-32.417a1,1,0,0,0-1.989,0Z" transform="translate(-238.679 -395.04)" fill="#1a1311" stroke="#000" stroke-width="0.5"/>
    </g>
    <g id="グループ_366" data-name="グループ 366" transform="translate(243.37 34.724)">
      <path id="パス_1399" data-name="パス 1399" d="M235.341,417.444a7,7,0,0,0,4.511,1.4,7.912,7.912,0,0,0,1.24-.127,2.07,2.07,0,0,0,1.284-.563,2.172,2.172,0,0,0,.285-1.17c.013-.156.025-.31.04-.466.01-.115.067-.547,0-.108a1.02,1.02,0,0,0-.694-1.224,1.007,1.007,0,0,0-1.224.7c-.045.3-.07.6-.1.9-.011.132-.024.266-.037.4a.753.753,0,0,1-.019.173c.013,0,.051-.277,0-.065l.694-.694a4.6,4.6,0,0,1-.621.177c-.1.021-.2.035-.3.054.255-.048-.088.006-.161.013a6.874,6.874,0,0,1-.724.017c-.123,0-.247-.011-.369-.021-.054,0-.108-.008-.164-.014-.027,0-.258-.03-.113-.011s-.048-.008-.072-.013q-.081-.012-.162-.029c-.121-.022-.24-.048-.36-.076a6.5,6.5,0,0,1-.691-.205c-.049-.019-.1-.038-.146-.056-.177-.067.094.052-.011,0-.086-.049-.181-.086-.269-.134s-.193-.107-.283-.166c-.062-.038-.348-.259-.14-.091a1.019,1.019,0,0,0-1.407,0,1.007,1.007,0,0,0,0,1.407Z" transform="translate(-235.053 -415.165)" fill="#1a1311" stroke="#000" stroke-width="0.5"/>
    </g>
    <g id="グループ_367" data-name="グループ 367" transform="translate(236.961 7.255)">
      <path id="パス_1400" data-name="パス 1400" d="M231.987,399.891c3.922,0,7.851.068,11.767.3,1.279.075,1.275-1.916,0-1.989-3.916-.228-7.845-.294-11.767-.3a1,1,0,0,0,0,1.989Z" transform="translate(-231.026 -397.902)" fill="#1a1311" stroke="#000" stroke-width="0.5"/>
    </g>
    <g id="グループ_368" data-name="グループ 368" transform="translate(236.295 12.952)">
      <path id="パス_1401" data-name="パス 1401" d="M231.568,403.472c4.368-.011,8.733.145,13.1.148a1,1,0,0,0,0-1.989c-4.368,0-8.733-.159-13.1-.148a1,1,0,0,0,0,1.989Z" transform="translate(-230.607 -401.483)" fill="#1a1311" stroke="#000" stroke-width="0.5"/>
    </g>
    <g id="グループ_369" data-name="グループ 369" transform="translate(226.3 18.91)">
      <path id="パス_1402" data-name="パス 1402" d="M224.519,406.185a83.669,83.669,0,0,0,.148,13.322,1.025,1.025,0,0,0,.995.995,1,1,0,0,0,.995-.995,83.669,83.669,0,0,1-.148-13.322c.046-1.279-1.943-1.278-1.989,0Z" transform="translate(-224.326 -405.226)" fill="#1a1311" stroke="#000" stroke-width="0.5"/>
    </g>
    <g id="グループ_370" data-name="グループ 370" transform="translate(226.748 18.653)">
      <path id="パス_1403" data-name="パス 1403" d="M225.568,407.054c4.516,0,9.029.218,13.545.221a1,1,0,0,0,0-1.989c-4.516,0-9.029-.218-13.545-.221a1,1,0,0,0,0,1.989Z" transform="translate(-224.608 -405.065)" fill="#1a1311" stroke="#000" stroke-width="0.5"/>
    </g>
    <g id="グループ_371" data-name="グループ 371" transform="translate(240.259 19.13)">
      <path id="パス_1404" data-name="パス 1404" d="M233.319,406.326c-.018,4.218-.218,8.437-.221,12.655a1,1,0,0,0,1.989,0c0-4.219.2-8.437.221-12.655a1,1,0,0,0-1.989,0Z" transform="translate(-233.098 -405.365)" fill="#1a1311" stroke="#000" stroke-width="0.5"/>
    </g>
    <g id="グループ_372" data-name="グループ 372" transform="translate(227.193 25.478)">
      <path id="パス_1405" data-name="パス 1405" d="M225.847,411.4c4.144-.127,8.29,0,12.434,0a1,1,0,0,0,0-1.989c-4.144,0-8.29-.127-12.434,0-1.276.04-1.283,2.029,0,1.989Z" transform="translate(-224.887 -409.354)" fill="#1a1311" stroke="#000" stroke-width="0.5"/>
    </g>
    <g id="グループ_373" data-name="グループ 373" transform="translate(227.164 32.195)">
      <path id="パス_1406" data-name="パス 1406" d="M225.593,415.53c4.347.616,8.7.194,13.069.035,1.276-.046,1.283-2.035,0-1.989-4.164.153-8.389.624-12.541.037a1.025,1.025,0,0,0-1.222.694,1,1,0,0,0,.694,1.224Z" transform="translate(-224.869 -413.575)" fill="#1a1311" stroke="#000" stroke-width="0.5"/>
    </g>
  </g>
</svg>
