<svg xmlns="http://www.w3.org/2000/svg" width="165.079" height="39.811" viewBox="0 0 165.079 39.811">
  <g id="グループ_298" data-name="グループ 298" transform="translate(0.252 0.25)">
    <g id="グループ_254" data-name="グループ 254" transform="translate(0.979 9.771)">
      <path id="パス_1288" data-name="パス 1288" d="M110.173,363.24h12.434a1,1,0,0,0,0-1.989H110.173a1,1,0,0,0,0,1.989Z" transform="translate(-109.212 -361.251)" fill="#1a1311" stroke="#000" stroke-width="0.5"/>
    </g>
    <g id="グループ_255" data-name="グループ 255" transform="translate(7.606 0.923)">
      <path id="パス_1289" data-name="パス 1289" d="M113.377,356.651v35.971a1,1,0,0,0,1.989,0V356.651a1,1,0,0,0-1.989,0Z" transform="translate(-113.377 -355.691)" fill="#1a1311" stroke="#000" stroke-width="0.5"/>
    </g>
    <g id="グループ_256" data-name="グループ 256" transform="translate(0 10.228)">
      <path id="パス_1290" data-name="パス 1290" d="M116.238,362.256A39.1,39.1,0,0,1,108.79,378c-.769,1.023.958,2.016,1.719,1a40.4,40.4,0,0,0,7.649-16.224c.236-1.251-1.682-1.787-1.919-.528Z" transform="translate(-108.597 -361.538)" fill="#1a1311" stroke="#000" stroke-width="0.5"/>
    </g>
    <g id="グループ_257" data-name="グループ 257" transform="translate(8.503 11.994)">
      <path id="パス_1291" data-name="パス 1291" d="M114.223,364.343c1.825,2.24,4.01,4.225,5.173,6.9a1,1,0,0,0,1.361.356,1.02,1.02,0,0,0,.358-1.361c-1.224-2.813-3.579-4.966-5.485-7.307a1,1,0,0,0-1.407,0,1.017,1.017,0,0,0,0,1.407Z" transform="translate(-113.94 -362.648)" fill="#1a1311" stroke="#000" stroke-width="0.5"/>
    </g>
    <g id="グループ_258" data-name="グループ 258" transform="translate(18.263 3.147)">
      <path id="パス_1292" data-name="パス 1292" d="M120.076,358.046c.543,10.529-.124,21.07.022,31.606a1,1,0,0,0,1.989,0c-.146-10.536.52-21.076-.022-31.606-.067-1.275-2.056-1.281-1.989,0Z" transform="translate(-120.074 -357.088)" fill="#1a1311" stroke="#000" stroke-width="0.5"/>
    </g>
    <g id="グループ_259" data-name="グループ 259" transform="translate(18.743 2.275)">
      <path id="パス_1293" data-name="パス 1293" d="M121.336,358.921c2.686-.011,5.366-.277,8.052-.358a20.911,20.911,0,0,1,7.67.765c1.208.433,1.728-1.488.528-1.917a21.986,21.986,0,0,0-7.948-.845c-2.769.075-5.531.355-8.3.366a1,1,0,0,0,0,1.989Z" transform="translate(-120.375 -356.54)" fill="#1a1311" stroke="#000" stroke-width="0.5"/>
    </g>
    <g id="グループ_260" data-name="グループ 260" transform="translate(34.695 3.144)">
      <path id="パス_1294" data-name="パス 1294" d="M130.4,358.047v32.417a1,1,0,0,0,1.989,0V358.047a1,1,0,0,0-1.989,0Z" transform="translate(-130.4 -357.086)" fill="#1a1311" stroke="#000" stroke-width="0.5"/>
    </g>
    <g id="グループ_261" data-name="グループ 261" transform="translate(19.187 13.767)">
      <path id="パス_1295" data-name="パス 1295" d="M121.615,365.751h14.654a1,1,0,0,0,0-1.989H121.615a1,1,0,0,0,0,1.989Z" transform="translate(-120.654 -363.762)" fill="#1a1311" stroke="#000" stroke-width="0.5"/>
    </g>
    <g id="グループ_262" data-name="グループ 262" transform="translate(19.63 23.981)">
      <path id="パス_1296" data-name="パス 1296" d="M121.894,372.17h14.654a1,1,0,0,0,0-1.989H121.894a1,1,0,0,0,0,1.989Z" transform="translate(-120.933 -370.181)" fill="#1a1311" stroke="#000" stroke-width="0.5"/>
    </g>
    <g id="グループ_263" data-name="グループ 263" transform="translate(18.298 35.528)">
      <path id="パス_1297" data-name="パス 1297" d="M121.057,379.426h15.1a1,1,0,0,0,0-1.989h-15.1a1,1,0,0,0,0,1.989Z" transform="translate(-120.096 -377.437)" fill="#1a1311" stroke="#000" stroke-width="0.5"/>
    </g>
    <g id="グループ_264" data-name="グループ 264" transform="translate(46.267 2.018)">
      <path id="パス_1298" data-name="パス 1298" d="M138.905,358.535a10.925,10.925,0,0,1,4.056.051,29.475,29.475,0,0,0,4.561.43,1,1,0,0,0,0-1.989,30.91,30.91,0,0,1-4.7-.449,11.466,11.466,0,0,0-4.443.04,1,1,0,0,0,.528,1.917Z" transform="translate(-137.672 -356.379)" fill="#1a1311" stroke="#000" stroke-width="0.5"/>
    </g>
    <g id="グループ_265" data-name="グループ 265" transform="translate(43.166 8.439)">
      <path id="パス_1299" data-name="パス 1299" d="M136.685,362.4h13.322a1,1,0,0,0,0-1.989H136.685a1,1,0,0,0,0,1.989Z" transform="translate(-135.724 -360.414)" fill="#1a1311" stroke="#000" stroke-width="0.5"/>
    </g>
    <g id="グループ_266" data-name="グループ 266" transform="translate(44.943 14.213)">
      <path id="パス_1300" data-name="パス 1300" d="M137.8,366.031h9.769a1,1,0,0,0,0-1.989H137.8a1,1,0,0,0,0,1.989Z" transform="translate(-136.84 -364.042)" fill="#1a1311" stroke="#000" stroke-width="0.5"/>
    </g>
    <g id="グループ_267" data-name="グループ 267" transform="translate(44.912 20.4)">
      <path id="パス_1301" data-name="パス 1301" d="M138.077,370.356c3.12-.641,6.341-.412,9.5-.407a1,1,0,0,0,0-1.989c-3.351,0-6.726-.2-10.033.479a.994.994,0,1,0,.528,1.917Z" transform="translate(-136.821 -367.93)" fill="#1a1311" stroke="#000" stroke-width="0.5"/>
    </g>
    <g id="グループ_268" data-name="グループ 268" transform="translate(46.241 25.792)">
      <path id="パス_1302" data-name="パス 1302" d="M137.656,372.279c0,3.257.054,6.515,0,9.77a1,1,0,0,0,1.989,0c.054-3.256,0-6.513,0-9.77a1,1,0,0,0-1.989,0Z" transform="translate(-137.656 -371.319)" fill="#1a1311" stroke="#000" stroke-width="0.5"/>
    </g>
    <g id="グループ_269" data-name="グループ 269" transform="translate(47.165 25.756)">
      <path id="パス_1303" data-name="パス 1303" d="M139.2,373.286c2.511.121,5.038.053,7.549,0l-.995-.994c.2,2.761.391,5.525.474,8.29.011.325.019.651.014.975,0,.1-.008.2-.01.3,0,.073-.048.178.006-.013.075-.269-.156.177.1-.283-.614,1.125,1.1,2.129,1.717,1a3.083,3.083,0,0,0,.178-1.5c-.013-.769-.051-1.537-.089-2.306-.086-1.744-.2-3.486-.313-5.229-.027-.41-.054-.823-.084-1.233a1.013,1.013,0,0,0-.995-.995c-2.511.052-5.038.121-7.549,0-1.279-.06-1.276,1.929,0,1.989Z" transform="translate(-138.237 -371.296)" fill="#1a1311" stroke="#000" stroke-width="0.5"/>
    </g>
    <g id="グループ_270" data-name="グループ 270" transform="translate(47.16 35.963)">
      <path id="パス_1304" data-name="パス 1304" d="M138.933,379.673c2.543.737,5.229.06,7.813.035a1,1,0,0,0,0-1.989c-1.283.013-2.559.167-3.838.25a9.936,9.936,0,0,1-3.447-.215,1,1,0,0,0-.528,1.919Z" transform="translate(-138.233 -377.71)" fill="#1a1311" stroke="#000" stroke-width="0.5"/>
    </g>
    <g id="グループ_271" data-name="グループ 271" transform="translate(61.321 3.997)">
      <path id="パス_1305" data-name="パス 1305" d="M147.151,358.618c0,.931-.008,1.863-.013,2.794,0,.425-.006.85,0,1.273,0,.562.045,1.225.742,1.384a1.029,1.029,0,0,0,1.123-.457,1.179,1.179,0,0,0,.142-.554,1,1,0,0,0-.995-.995,1.022,1.022,0,0,0-.995.995l0,.03a1.05,1.05,0,0,1,.13-.481l1.123-.458h0l.594.458a1.759,1.759,0,0,1,.132.471c0-.014,0-.03,0-.046,0-.041,0-.083,0-.126,0-.134,0-.267,0-.4,0-.43,0-.859.006-1.289,0-.866.014-1.733.011-2.6a.995.995,0,1,0-1.989,0Z" transform="translate(-147.133 -357.622)" fill="#1a1311" stroke="#000" stroke-width="0.5"/>
    </g>
    <g id="グループ_272" data-name="グループ 272" transform="translate(75.111 3.117)">
      <path id="パス_1306" data-name="パス 1306" d="M158.493,357.793c-.132.462-.271.921-.425,1.376-.08.231-.162.46-.25.687-.041.108-.084.215-.129.321-.056.142.064-.138,0,0-.03.065-.059.132-.087.2a10.111,10.111,0,0,1-.676,1.252c-.07.11-.142.216-.216.323-.033.046-.067.094-.1.14-.051.072-.064.078,0,0-.167.2-.337.4-.52.587a.995.995,0,0,0,1.407,1.407,13.191,13.191,0,0,0,2.92-5.768,1,1,0,0,0-1.919-.528Z" transform="translate(-155.799 -357.069)" fill="#1a1311" stroke="#000" stroke-width="0.5"/>
    </g>
    <g id="グループ_273" data-name="グループ 273" transform="translate(59.58 1.401)">
      <path id="パス_1307" data-name="パス 1307" d="M154.939,357.183c1.192,2.957-.083,6.551-1.489,9.206-1.388,2.619-3.612,5.764-6.7,6.445-1.249.277-.721,2.194.528,1.919,3.587-.792,6.262-4.293,7.886-7.36,1.636-3.087,3.076-7.3,1.69-10.739-.473-1.171-2.4-.659-1.917.53Z" transform="translate(-146.039 -355.991)" fill="#1a1311" stroke="#000" stroke-width="0.5"/>
    </g>
    <g id="グループ_274" data-name="グループ 274" transform="translate(68.906 8.447)">
      <path id="パス_1308" data-name="パス 1308" d="M152.018,361.907a20.917,20.917,0,0,0,11.252,11.115,1,1,0,0,0,1.224-.7,1.015,1.015,0,0,0-.7-1.222c-4.621-1.757-8.061-5.789-10.063-10.2a1,1,0,0,0-1.361-.356,1.018,1.018,0,0,0-.356,1.361Z" transform="translate(-151.9 -360.419)" fill="#1a1311" stroke="#000" stroke-width="0.5"/>
    </g>
    <g id="グループ_275" data-name="グループ 275" transform="translate(61.321 22.205)">
      <path id="パス_1309" data-name="パス 1309" d="M147.151,370.06c0,.931-.008,1.863-.013,2.794,0,.425-.006.848,0,1.273,0,.562.045,1.225.742,1.384a1.027,1.027,0,0,0,1.123-.458,1.174,1.174,0,0,0,.142-.554,1,1,0,0,0-.995-.995,1.024,1.024,0,0,0-.995.995l0,.032a1.062,1.062,0,0,1,.13-.482l1.123-.457h0l.594.457a1.785,1.785,0,0,1,.132.473c0-.014,0-.03,0-.046,0-.041,0-.084,0-.126,0-.134,0-.267,0-.4,0-.43,0-.859.006-1.289,0-.867.014-1.733.011-2.6a.995.995,0,1,0-1.989,0Z" transform="translate(-147.133 -369.064)" fill="#1a1311" stroke="#000" stroke-width="0.5"/>
    </g>
    <g id="グループ_276" data-name="グループ 276" transform="translate(75.111 21.325)">
      <path id="パス_1310" data-name="パス 1310" d="M158.493,369.235c-.132.461-.271.921-.425,1.376-.08.231-.162.46-.25.687-.041.108-.084.213-.129.32-.056.142.064-.137,0,0-.03.065-.059.132-.087.2a10.224,10.224,0,0,1-.676,1.252c-.07.108-.142.216-.216.323l-.1.14c-.051.07-.064.078,0,0-.167.2-.337.4-.52.587a.994.994,0,0,0,1.407,1.405,13.177,13.177,0,0,0,2.92-5.767,1,1,0,0,0-1.919-.528Z" transform="translate(-155.799 -368.511)" fill="#1a1311" stroke="#000" stroke-width="0.5"/>
    </g>
    <g id="グループ_277" data-name="グループ 277" transform="translate(59.58 19.608)">
      <path id="パス_1311" data-name="パス 1311" d="M154.939,368.625c1.192,2.957-.083,6.551-1.489,9.205-1.388,2.618-3.612,5.764-6.7,6.445-1.249.277-.721,2.194.528,1.919,3.587-.792,6.262-4.293,7.886-7.36,1.636-3.087,3.076-7.3,1.69-10.739-.473-1.171-2.4-.66-1.917.53Z" transform="translate(-146.039 -367.433)" fill="#1a1311" stroke="#000" stroke-width="0.5"/>
    </g>
    <g id="グループ_278" data-name="グループ 278" transform="translate(68.906 26.654)">
      <path id="パス_1312" data-name="パス 1312" d="M152.018,373.349a20.922,20.922,0,0,0,11.252,11.115,1,1,0,0,0,1.224-.7,1.018,1.018,0,0,0-.7-1.224c-4.621-1.755-8.061-5.787-10.063-10.2a1,1,0,0,0-1.361-.356,1.018,1.018,0,0,0-.356,1.361Z" transform="translate(-151.9 -371.861)" fill="#1a1311" stroke="#000" stroke-width="0.5"/>
    </g>
    <g id="グループ_279" data-name="グループ 279" transform="translate(104.858 0)">
      <path id="パス_1313" data-name="パス 1313" d="M174.493,356.106v2.887a.995.995,0,1,0,1.989,0v-2.887a.995.995,0,0,0-1.989,0Z" transform="translate(-174.493 -355.11)" fill="#1a1311" stroke="#000" stroke-width="0.5"/>
    </g>
    <g id="グループ_280" data-name="グループ 280" transform="translate(87.985 4.451)">
      <path id="パス_1314" data-name="パス 1314" d="M164.22,358.629a26.819,26.819,0,0,0-.331,5.3.995.995,0,0,0,1.989,0c0-.831-.01-1.663.021-2.494.013-.411.037-.819.078-1.228.01-.094.021-.188.03-.282.035-.309-.032.2.016-.111q.05-.327.115-.654a.994.994,0,1,0-1.917-.528Z" transform="translate(-163.889 -357.908)" fill="#1a1311" stroke="#000" stroke-width="0.5"/>
    </g>
    <g id="グループ_281" data-name="グループ 281" transform="translate(88.521 3.225)">
      <path id="パス_1315" data-name="パス 1315" d="M166.134,359.85c.275-.369,1.373-.438,1.776-.5a25.166,25.166,0,0,1,3.373-.21c2.474-.033,4.949.091,7.419.212,6.484.318,12.947-.466,19.436.1l-.995-.995c-.016,2.217-.064,4.448.073,6.661.08,1.271,2.069,1.281,1.989,0-.137-2.213-.089-4.444-.073-6.661a1.018,1.018,0,0,0-.995-.995c-6.932-.608-13.863.154-20.8-.167a70.234,70.234,0,0,0-8.082-.07c-1.618.111-3.778.193-4.836,1.618-.764,1.028.963,2.021,1.717,1Z" transform="translate(-164.226 -357.137)" fill="#1a1311" stroke="#000" stroke-width="0.5"/>
    </g>
    <g id="グループ_282" data-name="グループ 282" transform="translate(90.091 6.218)">
      <path id="パス_1316" data-name="パス 1316" d="M175.576,359.748a11.246,11.246,0,0,1-3.838,4.567,10.462,10.462,0,0,1-5.565,2.4,1,1,0,0,0,0,1.989,12,12,0,0,0,6.687-2.759,13.08,13.08,0,0,0,4.634-5.668,1,1,0,0,0-.694-1.222,1.014,1.014,0,0,0-1.224.694Z" transform="translate(-165.213 -359.018)" fill="#1a1311" stroke="#000" stroke-width="0.5"/>
    </g>
    <g id="グループ_283" data-name="グループ 283" transform="translate(107.722 6.217)">
      <path id="パス_1317" data-name="パス 1317" d="M176.39,360.013c0,.808-.067,1.612-.091,2.419a10.934,10.934,0,0,0,.2,2.546,1,1,0,0,0,1.222.694,1.019,1.019,0,0,0,.7-1.222c-.024-.116-.045-.232-.065-.347-.051-.283.019.2-.011-.076-.022-.193-.038-.385-.049-.579-.018-.366-.014-.73,0-1.1.027-.778.089-1.556.089-2.338a.995.995,0,1,0-1.989,0Z" transform="translate(-176.293 -359.017)" fill="#1a1311" stroke="#000" stroke-width="0.5"/>
    </g>
    <g id="グループ_284" data-name="グループ 284" transform="translate(108.189 11.205)">
      <path id="パス_1318" data-name="パス 1318" d="M177.316,364.114c2.982,1.061,6.29.737,9.368.369a1.025,1.025,0,0,0,.995-.995,1,1,0,0,0-.995-.995c-2.9.347-6.025.7-8.84-.3a1,1,0,0,0-1.222.7,1.013,1.013,0,0,0,.694,1.222Z" transform="translate(-176.586 -362.152)" fill="#1a1311" stroke="#000" stroke-width="0.5"/>
    </g>
    <g id="グループ_285" data-name="グループ 285" transform="translate(117.587 8.587)">
      <path id="パス_1319" data-name="パス 1319" d="M182.79,361.5c-.022.594-.03,1.189-.107,1.779l.037-.264a5.576,5.576,0,0,1-.189.885,1,1,0,0,0,.694,1.224,1.017,1.017,0,0,0,1.224-.7,11.175,11.175,0,0,0,.331-2.928,1,1,0,0,0-.995-.994,1.015,1.015,0,0,0-.995.994Z" transform="translate(-182.492 -360.506)" fill="#1a1311" stroke="#000" stroke-width="0.5"/>
    </g>
    <g id="グループ_286" data-name="グループ 286" transform="translate(93.013 13.325)">
      <path id="パス_1320" data-name="パス 1320" d="M176.522,363.773c-2.937,2.9-6.244,5.39-9.178,8.291-.91.9.495,2.307,1.407,1.407,2.934-2.9,6.241-5.391,9.178-8.291.912-.9-.495-2.306-1.407-1.407Z" transform="translate(-167.049 -363.484)" fill="#1a1311" stroke="#000" stroke-width="0.5"/>
    </g>
    <g id="グループ_287" data-name="グループ 287" transform="translate(93.051 21.614)">
      <path id="パス_1321" data-name="パス 1321" d="M168.033,370.682h22.5a1,1,0,0,0,0-1.989h-22.5a1,1,0,0,0,0,1.989Z" transform="translate(-167.073 -368.693)" fill="#1a1311" stroke="#000" stroke-width="0.5"/>
    </g>
    <g id="グループ_288" data-name="グループ 288" transform="translate(112.85 17.17)">
      <path id="パス_1322" data-name="パス 1322" d="M179.653,367.4a20.232,20.232,0,0,0,2.952,3.534,13.384,13.384,0,0,0,3.622,2.745,1.019,1.019,0,0,0,1.361-.358,1.006,1.006,0,0,0-.356-1.36,8.537,8.537,0,0,1-1.642-1.028c.175.135-.049-.04-.067-.054l-.2-.166q-.241-.2-.473-.406c-.286-.253-.563-.512-.835-.78-.547-.536-1.071-1.1-1.564-1.685-.108-.129-.216-.258-.321-.39-.018-.021-.2-.258-.123-.153s-.1-.127-.111-.148c-.183-.247-.358-.5-.522-.754a.994.994,0,1,0-1.717,1Z" transform="translate(-179.515 -365.901)" fill="#1a1311" stroke="#000" stroke-width="0.5"/>
    </g>
    <g id="グループ_289" data-name="グループ 289" transform="translate(88.566 26.649)">
      <path id="パス_1323" data-name="パス 1323" d="M167.853,372.584a6.6,6.6,0,0,1-.259.921c-.029.075-.056.151-.086.226,0,0-.119.283-.051.127-.068.154-.14.307-.213.46-.323.664-.694,1.3-1.072,1.935a20.13,20.13,0,0,0-1.871,3.436.995.995,0,0,0,1.917.53c.022-.062.048-.124.07-.186-.041.113-.057.129,0,.009s.111-.234.17-.348c.14-.272.291-.538.447-.8.356-.609.732-1.208,1.093-1.816a13.01,13.01,0,0,0,1.774-3.962,1.02,1.02,0,0,0-.7-1.224,1,1,0,0,0-1.222.694Z" transform="translate(-164.254 -371.858)" fill="#1a1311" stroke="#000" stroke-width="0.5"/>
    </g>
    <g id="グループ_290" data-name="グループ 290" transform="translate(98.452 26.088)">
      <path id="パス_1324" data-name="パス 1324" d="M170.656,372.465c-.008,1.76-.215,3.512-.186,5.273.027,1.723.185,3.716,1.329,5.1.972,1.178,2.508,1.378,3.935,1.536a34.044,34.044,0,0,0,5.4.113,14.286,14.286,0,0,0,4.93-.8,1,1,0,0,0,.356-1.361,1.019,1.019,0,0,0-1.361-.358c.2-.086,0,0-.091.022-.105.03-.208.062-.315.089-.294.075-.594.129-.893.178-.679.108-1.37.164-2.057.208a37.947,37.947,0,0,1-5,0,14.684,14.684,0,0,1-1.956-.237,7.163,7.163,0,0,1-.729-.186c-.057-.018-.116-.038-.172-.06.033.013.169.083.01,0a2.111,2.111,0,0,1-.317-.193c-1.038-.829-1.057-2.692-1.085-3.886-.043-1.82.175-3.63.183-5.447a1,1,0,0,0-1.989,0Z" transform="translate(-170.467 -371.505)" fill="#1a1311" stroke="#000" stroke-width="0.5"/>
    </g>
    <g id="グループ_291" data-name="グループ 291" transform="translate(113.078 31.096)">
      <path id="パス_1325" data-name="パス 1325" d="M181.54,375.373a15.978,15.978,0,0,1-.635,2.583c-.072.2-.15.4-.229.6.092-.229-.043.1-.062.138-.046.1-.092.2-.142.3-.205.426-.438.84-.683,1.246a1,1,0,0,0,1.719,1,15.156,15.156,0,0,0,1.949-5.345,1.018,1.018,0,0,0-.694-1.224,1.007,1.007,0,0,0-1.224.7Z" transform="translate(-179.658 -374.652)" fill="#1a1311" stroke="#000" stroke-width="0.5"/>
    </g>
    <g id="グループ_292" data-name="グループ 292" transform="translate(104.553 25.458)">
      <path id="パス_1326" data-name="パス 1326" d="M174.446,372.609a15.1,15.1,0,0,0,2.223,2.318c.372.336.743.673,1.088,1.037.094.1.185.2.274.3a1.119,1.119,0,0,1,.216.261c-.086-.113-.1-.126-.032-.041l.041.054c.04.056.078.11.116.166.076.113.15.228.218.344a.994.994,0,1,0,1.717-1,10.716,10.716,0,0,0-2.131-2.433c-.371-.336-.748-.667-1.108-1.014-.178-.172-.352-.347-.517-.528q-.134-.148-.263-.3c-.049-.06-.194-.162-.008-.006a.876.876,0,0,1-.118-.159,1,1,0,0,0-1.719,1Z" transform="translate(-174.301 -371.109)" fill="#1a1311" stroke="#000" stroke-width="0.5"/>
    </g>
    <g id="グループ_293" data-name="グループ 293" transform="translate(117.598 26.949)">
      <path id="パス_1327" data-name="パス 1327" d="M183.22,373.992c.051.013.1.027.15.043.145.049.115.113-.045-.024a2.356,2.356,0,0,0,.318.172,2.227,2.227,0,0,0,.328.226c-.011,0-.2-.161-.078-.059l.084.068c.057.048.113.1.169.145a12.975,12.975,0,0,1,1.368,1.451c.1.123.205.248.306.374l.159.2.078.1c.111.142-.094-.124-.021-.025.2.258.391.516.582.778.306.415.6.839.912,1.252.368.492.813,1.149,1.547.923a.994.994,0,1,0-.528-1.917,1.221,1.221,0,0,1,.721.084c.01.006.221.216.158.118a1.506,1.506,0,0,0-.116-.13c-.021-.025-.04-.049-.059-.075-.111-.134.153.2.07.091-.062-.084-.127-.167-.189-.253-.32-.436-.632-.875-.953-1.31a19.388,19.388,0,0,0-2.649-3.087,4.43,4.43,0,0,0-1.782-1.063.994.994,0,0,0-.528,1.917Z" transform="translate(-182.499 -372.046)" fill="#1a1311" stroke="#000" stroke-width="0.5"/>
    </g>
    <g id="グループ_294" data-name="グループ 294" transform="translate(133.576 5.365)">
      <path id="パス_1328" data-name="パス 1328" d="M192.836,359.442c-.011,9.277-.3,18.549-.3,27.828a1,1,0,0,0,1.989,0c0-9.279.285-18.551.3-27.828a1,1,0,0,0-1.989,0Z" transform="translate(-192.54 -358.482)" fill="#1a1311" stroke="#000" stroke-width="0.5"/>
    </g>
    <g id="グループ_295" data-name="グループ 295" transform="translate(134.183 5.185)">
      <path id="パス_1329" data-name="パス 1329" d="M194.165,360.468c-.3.064.153-.013.339-.019.3-.011.6-.022.894-.029.982-.021,1.964-.022,2.945-.024,2.789,0,5.579.022,8.368.046,5,.045,10.017.2,15.017.06a1,1,0,0,0,0-1.989c-5.1.14-10.224-.019-15.329-.062-2.8-.024-5.6-.049-8.405-.043a21.557,21.557,0,0,0-4.358.14c-1.252.267-.722,2.186.528,1.919Z" transform="translate(-192.922 -358.369)" fill="#1a1311" stroke="#000" stroke-width="0.5"/>
    </g>
    <g id="グループ_296" data-name="グループ 296" transform="translate(162.588 5.365)">
      <path id="パス_1330" data-name="パス 1330" d="M210.772,359.442v26.644a1,1,0,0,0,1.989,0V359.442a1,1,0,0,0-1.989,0Z" transform="translate(-210.772 -358.482)" fill="#1a1311" stroke="#000" stroke-width="0.5"/>
    </g>
    <g id="グループ_297" data-name="グループ 297" transform="translate(133.549 32.473)">
      <path id="パス_1331" data-name="パス 1331" d="M193.47,377.786c4.893-.59,10.041-.1,14.95.018,2.915.067,5.83.14,8.747.154a35.061,35.061,0,0,0,5.544-.208c1.26-.2.726-2.112-.53-1.917a36.242,36.242,0,0,1-5.293.135c-2.936-.019-5.873-.094-8.809-.161-4.8-.11-9.826-.586-14.609-.009-1.256.151-1.27,2.142,0,1.989Z" transform="translate(-192.523 -375.517)" fill="#1a1311" stroke="#000" stroke-width="0.5"/>
    </g>
  </g>
</svg>
