<svg xmlns="http://www.w3.org/2000/svg" width="453.04" height="98.191" viewBox="0 0 453.04 98.191">
  <g id="グループ_11" data-name="グループ 11" transform="translate(-249.636 -477.131)">
    <path id="パス_5" data-name="パス 5" d="M264.565,496.632a27.988,27.988,0,0,1,5.3.54,34.552,34.552,0,0,1,7.071,2.214c-.078.3-.155.6-.236.89a32.907,32.907,0,0,1-2.141,5.892,7.72,7.72,0,0,1-2.681,3.441c-1.457.824-.165,3.187,1.291,2.364,3.318-1.876,4.824-6.872,5.845-10.428.1-.349.2-.7.294-1.061q1.483.751,2.921,1.61c1.44.859,2.731-1.5,1.291-2.363-1.127-.673-2.317-1.319-3.545-1.927a37.513,37.513,0,0,0,1.045-9.345,1.279,1.279,0,1,0-2.558,0,34.16,34.16,0,0,1-.881,8.241,33.168,33.168,0,0,0-12.109-2.887c1.305-4.1,2.681-8.541,2.968-12.859a1.311,1.311,0,0,0-1.619-1.32,22.14,22.14,0,0,1-7.67,1.231c-1.643-.116-1.636,2.621,0,2.737a19.889,19.889,0,0,0,6.46-.808c-.1.532-.209,1.078-.313,1.563-.419,1.966-.911,3.916-1.448,5.848q-.52,1.866-1.107,3.724a19.342,19.342,0,0,0-3.436.653c-4.354,1.268-11.6,5.841-9.2,11.744.781,1.921,2.55,3.924,4.638,4.006a5.514,5.514,0,0,0,4.173-2.289C261.6,504.91,263.229,500.681,264.565,496.632Zm-8.22,10.275c-.831.706-1.5.937-2.329.363-5.21-3.619,1.891-8.556,5.019-9.73a13.734,13.734,0,0,1,2.738-.7,48.858,48.858,0,0,1-2.588,6.014A13.312,13.312,0,0,1,256.345,506.907Z" transform="translate(0 0.5)" fill="#1a1311"/>
    <path id="パス_6" data-name="パス 6" d="M290.052,502.149c.794-1.973,1.479-3.992,2.205-5.992,1.225-3.373,2.481-6.687,3.528-10.089a30.917,30.917,0,0,1,8.374-.648c1.642.125,1.635-2.612,0-2.737a31.019,31.019,0,0,0-7.549.478c.265-1.008.514-2.022.725-3.056.35-1.717-2.115-2.451-2.467-.728-.3,1.474-.664,2.918-1.067,4.346a33.878,33.878,0,0,0-7.3,2.5,1.436,1.436,0,0,0-.458,1.873,1.261,1.261,0,0,0,1.749.491,28.027,28.027,0,0,1,5.087-1.835c-.885,2.736-1.886,5.427-2.9,8.143-.668,1.8-1.272,3.62-1.961,5.407-.552,1.432-1.131,3.264-2.228,4.336-1.219,1.189.594,3.121,1.808,1.934A12.764,12.764,0,0,0,290.052,502.149Z" transform="translate(7.259 0.256)" fill="#1a1311"/>
    <path id="パス_7" data-name="パス 7" d="M301.545,490.381a39.723,39.723,0,0,1,9.955-.908c1.646,0,1.649-2.742,0-2.737a42.427,42.427,0,0,0-10.634,1.007C299.266,488.158,299.942,490.8,301.545,490.381Z" transform="translate(10.214 1.95)" fill="#1a1311"/>
    <path id="パス_8" data-name="パス 8" d="M300.3,499.454c-3.509-.253-7.848,1.961-7.49,6.336a6.276,6.276,0,0,0,7.586,5.489c3.157-.659,4.61-4.113,5.191-7.154.022-.116.036-.232.057-.349a37.109,37.109,0,0,1,5.767,3.69c1.349,1.015,2.627-1.356,1.291-2.363a35.632,35.632,0,0,0-6.7-4.1c.226-2.7.161-5.421.174-8.131a1.279,1.279,0,1,0-2.558,0c-.012,2.4.037,4.794-.112,7.186A15.067,15.067,0,0,0,300.3,499.454Zm2.345,5.863a6.375,6.375,0,0,1-1.533,2.667,3.235,3.235,0,0,1-3.04.571,3.574,3.574,0,0,1-2.544-2.141,2.826,2.826,0,0,1,.354-2.678,4.681,4.681,0,0,1,3.876-1.569,11.781,11.781,0,0,1,3.466.62A17.334,17.334,0,0,1,302.647,505.318Z" transform="translate(8.761 2.928)" fill="#1a1311"/>
    <path id="パス_9" data-name="パス 9" d="M318.315,490.453c3.732-.426,7.569-.7,11.337-1.3,1.079,2.259,2.158,4.517,3.2,6.8-1.021-.652-2.079-1.246-3.143-1.824a1.35,1.35,0,0,0-1.291,2.363,23.733,23.733,0,0,1,6.868,4.921c1.074,1.222,2.542-.331,2.008-1.659-1.515-3.771-3.253-7.426-5-11.078a31.64,31.64,0,0,0,10.844-4.158c1.411-.9.126-3.27-1.291-2.364a30.128,30.128,0,0,1-10.752,4c-.93-1.956-1.848-3.917-2.718-5.9-.7-1.594-2.9-.206-2.209,1.381.731,1.67,1.5,3.323,2.271,4.968-3.374.487-6.8.736-10.12,1.115C316.7,487.9,316.678,490.64,318.315,490.453Z" transform="translate(13.694 0.49)" fill="#1a1311"/>
    <path id="パス_10" data-name="パス 10" d="M321.532,500.215c.01-.057.024-.148.028-.17.042-.189.085-.375.143-.559a3.967,3.967,0,0,1,.433-.962,7.447,7.447,0,0,1,.734-1.092,1.477,1.477,0,0,0,0-1.934,1.23,1.23,0,0,0-1.808,0,8.353,8.353,0,0,0-2.1,5.1,6.408,6.408,0,0,0,1.7,4.2c2.155,2.438,5.523,3.656,8.534,4.236a15.441,15.441,0,0,0,4.857.295,1.367,1.367,0,0,0,1.279-1.368c0-.671-.588-1.458-1.279-1.369a10.819,10.819,0,0,1-1.708.076c-.312-.008-.623-.028-.934-.055-.153-.013-.306-.029-.457-.047l-.232-.028-.075-.01-.054-.008a20,20,0,0,1-4.153-1.108,10.8,10.8,0,0,1-1.767-.839c-.275-.156-.546-.324-.81-.5-.128-.087-.255-.177-.379-.269l-.183-.138a.569.569,0,0,0-.054-.04c-.011-.01-.008-.01-.036-.034a8.1,8.1,0,0,1-.669-.648c-.1-.1-.184-.215-.277-.322l-.047-.058c-.032-.049-.106-.152-.118-.172a5.466,5.466,0,0,1-.369-.694c-.022-.058-.06-.158-.076-.211-.048-.16-.072-.327-.117-.488l0-.021c0-.057-.011-.114-.012-.173,0-.176,0-.348,0-.525C321.528,500.266,321.53,500.242,321.532,500.215Zm0,.742c-.011-.065-.013-.124,0,0Z" transform="translate(14.072 3.648)" fill="#1a1311"/>
    <path id="パス_11" data-name="パス 11" d="M354.562,497.853c1.252,1.007,1.636,3.442,1.93,4.941A59.442,59.442,0,0,0,357.5,508.9c1.211,3.936,5.251,4.692,8.512,3.106,4.043-1.967,6.456-6.583,8.718-10.432a1.3,1.3,0,0,0-2.209-1.381c-1.984,3.377-4.17,7.892-7.832,9.46-1.661.711-3.93.7-4.675-1.322-.689-1.865-.65-4.055-1.014-6.008-.516-2.767-1.648-7.317-4.943-7.5-1.874-.1-3.465,1.192-4.751,2.684,1.786-5.092,3.573-10.182,4.961-15.42a1.286,1.286,0,1,0-2.466-.727c-2.626,9.907-6.683,19.29-9.452,29.148a1.286,1.286,0,1,0,2.466.728,43.925,43.925,0,0,1,4.741-9.731C350.355,500.312,352.824,496.458,354.562,497.853Z" transform="translate(18.809 0.663)" fill="#1a1311"/>
    <path id="パス_12" data-name="パス 12" d="M374.742,496.471c2.491-3.727,6.592-12.926,11.988-9.564a22,22,0,0,1,5.9,6.213,71.148,71.148,0,0,1,4.582,7.608c.745,1.406,1.326,3.035,2.182,4.365a1.3,1.3,0,0,0,2.209-1.381c-.832-1.293-1.4-2.878-2.12-4.245a71.041,71.041,0,0,0-5.134-8.416c-1.838-2.548-3.96-5.172-6.657-6.707-2.923-1.665-5.76-.953-8.235,1.253-2.9,2.585-4.752,6.252-6.92,9.493C371.574,496.525,373.791,497.893,374.742,496.471Z" transform="translate(24.9 1.278)" fill="#1a1311"/>
    <path id="パス_13" data-name="パス 13" d="M431.936,492.242a12.264,12.264,0,0,1-2.838,11.1,20.735,20.735,0,0,1-2.694,2.388,16.468,16.468,0,0,1-1.436,1c-.137.083-.4.18-.555.295a1.317,1.317,0,0,0-1.824,1.568c.847,3.182,4.908-.315,6.088-1.29a16.062,16.062,0,0,0,5.849-9.061c1.552-7.368-2.627-14.524-9.471-16.178a15.909,15.909,0,0,0-3.36-.435,1.269,1.269,0,0,0-2.17.094,18.887,18.887,0,0,0-11.86,6.291c-2.648,2.945-4.964,7.074-3.955,11.307.924,3.883,4.271,6.708,8.006,5.279,3.874-1.481,6.328-5.5,7.88-9.365a31.681,31.681,0,0,0,2.4-10.85C426.585,484.611,430.716,487.27,431.936,492.242Zm-17.668,7.183c-1.824,2.171-5.069,4.322-7.146,1.305-2.116-3.072-.753-6.763,1.244-9.439a16.593,16.593,0,0,1,11.078-6.793C419.3,489.758,417.456,495.63,414.267,499.425Z" transform="translate(31.228 0.8)" fill="#1a1311"/>
    <path id="パス_14" data-name="パス 14" d="M459.2,481.76a22.122,22.122,0,0,1-1.56,3.989c-.771,1.507-2.01,3.691-3.811,3.822-1.634.119-1.646,2.856,0,2.737,4.882-.356,7.343-7.146,8.26-11.492a1.374,1.374,0,0,0-1.233-1.732c-8.475-.535-16.911.881-25.38.908-1.646.006-1.648,2.743,0,2.737C443.4,482.7,451.287,481.483,459.2,481.76Z" transform="translate(37.476 0.372)" fill="#1a1311"/>
    <path id="パス_15" data-name="パス 15" d="M447.024,487.151a22.913,22.913,0,0,1-2.661,10.6,22.568,22.568,0,0,1-6.554,8.331c-1.356.982-.077,3.354,1.291,2.364a25.291,25.291,0,0,0,7.471-9.312,25.906,25.906,0,0,0,3.011-11.985A1.279,1.279,0,1,0,447.024,487.151Z" transform="translate(38.082 1.766)" fill="#1a1311"/>
    <path id="パス_16" data-name="パス 16" d="M465.657,484.1a8,8,0,0,1,1.136.318c.1.037.207.078.309.12.014,0,.106.044.148.061s.2.1.219.1c.081.04.161.082.242.124a17.653,17.653,0,0,1,2.164,1.382c1.344.982,2.608,2.086,3.982,3.021a1.249,1.249,0,0,0,1.749-.491,1.446,1.446,0,0,0-.458-1.872c-2.843-1.933-5.381-4.713-8.811-5.407a1.3,1.3,0,0,0-1.572.956A1.4,1.4,0,0,0,465.657,484.1Z" transform="translate(43.664 0.872)" fill="#1a1311"/>
    <path id="パス_17" data-name="パス 17" d="M481.683,500.743a54.626,54.626,0,0,0,10.76-16.82c.627-1.626-1.847-2.336-2.466-.728a51.068,51.068,0,0,1-9.857,15.343c-3.793,4.206-9.028,9-14.873,8.558-1.642-.123-1.635,2.614,0,2.737C471.652,510.315,477.468,505.351,481.683,500.743Z" transform="translate(43.519 1.047)" fill="#1a1311"/>
    <path id="パス_18" data-name="パス 18" d="M510.505,489.215a39.278,39.278,0,0,1-3.887,10.586c-1.753,3.165-4.172,6.381-7.462,7.771-1.513.639-.854,3.287.68,2.638,3.781-1.6,6.585-4.866,8.693-8.5a41.582,41.582,0,0,0,4.634-12.573c1.847-.059,3.693-.126,5.536-.23.8-.044,2.6.152,3.189-.6a1.445,1.445,0,0,0,.328-1.331v0a1.317,1.317,0,0,0-1.75-.837c.054-.037.1-.07.123-.089.076-.008.333-.038.126-.02l-.117.011c.008-.008,0-.007-.016,0-.128.012-.256.025-.384.035-.545.043-1.09.073-1.635.1-1.677.093-3.355.165-5.033.236q-5.513.233-11.027.422c-.285.01-.573.016-.859.023a29.611,29.611,0,0,0,1.816-7.663,1.335,1.335,0,0,0-1.279-1.369A1.356,1.356,0,0,0,500.9,479.2a25.814,25.814,0,0,1-2.85,9.234,20.042,20.042,0,0,1-5.916,7.306c-1.368.966-.088,3.337,1.291,2.363a22.946,22.946,0,0,0,6.994-8.461C503.776,489.412,507.141,489.311,510.505,489.215Z" transform="translate(49.109 0.141)" fill="#1a1311"/>
    <path id="パス_19" data-name="パス 19" d="M549.558,490.17c-9.251.036-18.5.286-27.753.479-1.643.034-1.648,2.771,0,2.737,9.25-.194,18.5-.443,27.753-.479C551.2,492.9,551.208,490.164,549.558,490.17Z" transform="translate(55 2.647)" fill="#1a1311"/>
    <path id="パス_20" data-name="パス 20" d="M557.815,506.3q-.027,1.24-.058,2.479c-.007.265-.153,1.5.011.74-.367,1.715,2.1,2.447,2.466.728a19.779,19.779,0,0,0,.13-3.573q.092-4.132.164-8.267.058-3.143.1-6.286c3.622,1.809,7.308,3.482,10.908,5.341.467.241.934.482,1.393.74.151.084.3.177.451.262a.966.966,0,0,0,.119.078,1.57,1.57,0,0,1-.479-.717l.016-.13c.231,1.1,1.738,1.719,2.319.462.633-1.371-.556-2.008-1.477-2.506-1.128-.609-2.275-1.18-3.42-1.753-2.841-1.419-5.7-2.805-8.552-4.191-.409-.2-.818-.4-1.229-.6.047-3.441.081-6.881.082-10.322a1.279,1.279,0,1,0-2.558,0q0,5.08-.079,10.159a1.319,1.319,0,0,0-.029,1.824q-.054,3.625-.117,7.249Q557.9,502.162,557.815,506.3Z" transform="translate(62.535 0.069)" fill="#1a1311"/>
    <path id="パス_21" data-name="パス 21" d="M570.84,494.993l-.007,0c.018.01.036.033.052.037C570.869,495.021,570.858,495,570.84,494.993Z" transform="translate(65.203 3.625)" fill="#1a1311"/>
    <path id="パス_22" data-name="パス 22" d="M579.387,508.708c4.429-2.7,6.962-8.372,8.746-13.238a61.007,61.007,0,0,0,1.873-6,25.72,25.72,0,0,1,4.118-.052c2.351.177,5.06.841,5.452,3.649a13.182,13.182,0,0,1-.929,5.816,34.926,34.926,0,0,1-2.317,5.251,12.243,12.243,0,0,1-1.619,2.576,1.88,1.88,0,0,1-.591.484c.108-.055-.186-.013-.119,0-1.426-.375-2.881-2.02-4.06-3.034-1.27-1.093-3.092.831-1.808,1.936,2.366,2.036,5.665,5.756,8.511,2.4a23.259,23.259,0,0,0,3.172-5.594,26.661,26.661,0,0,0,2.177-6.8c.313-2.064.313-4.38-.846-6.17a6.706,6.706,0,0,0-3.5-2.594,17.1,17.1,0,0,0-7.032-.667,32.7,32.7,0,0,0,.6-7.887c-.1-1.749-2.66-1.762-2.558,0a31.307,31.307,0,0,1-.721,8.178c-.064.008-.13.016-.195.025-1.743.239-3.474.553-5.2.92-.605.129-1.208.266-1.812.395-.2.043-.4.079-.6.124l-.023.006a.141.141,0,0,0-.023,0c-1.642.049-1.649,2.786,0,2.736a37.384,37.384,0,0,0,5.386-1.071c.587-.107,1.179-.2,1.772-.3-.4,1.44-.841,2.853-1.32,4.219-1.543,4.407-3.822,9.878-7.827,12.32C576.666,507.217,577.953,509.582,579.387,508.708Z" transform="translate(66.551 0.069)" fill="#1a1311"/>
    <path id="パス_23" data-name="パス 23" d="M597.155,485.382l-.013-.021C597.123,485.346,597.125,485.353,597.155,485.382Z" transform="translate(70.541 1.669)" fill="#1a1311"/>
    <path id="パス_24" data-name="パス 24" d="M604.183,494.052l.013.02C604.215,494.088,604.212,494.081,604.183,494.052Z" transform="translate(71.973 3.435)" fill="#1a1311"/>
    <path id="パス_25" data-name="パス 25" d="M605.688,496.238l-.006,0,0,0a.234.234,0,0,1-.028-.025c-.015-.014-.007,0-.012-.006a1.451,1.451,0,0,0-.191-.154,1.461,1.461,0,0,1,.227.173c-.035-.053-.067-.107-.1-.159-.194-.325-.374-.658-.553-.991-.533-.987-1.047-1.985-1.562-2.982-1.124-2.181-2.221-4.378-3.385-6.533a5.253,5.253,0,0,0-1.343-1.96c-1.317-.854-2.524,1.149-1.536,2.161l0,.008.006,0,0,0c.008.008.013.01.027.024s.007,0,.012.007a1.464,1.464,0,0,0,.191.153,1.387,1.387,0,0,1-.227-.173c.035.053.067.107.1.159.194.325.373.659.553.992.533.986,1.047,1.984,1.562,2.981,1.123,2.181,2.221,4.379,3.385,6.535a5.262,5.262,0,0,0,1.343,1.96c1.317.853,2.524-1.15,1.536-2.162Z" transform="translate(70.481 1.27)" fill="#1a1311"/>
    <path id="パス_26" data-name="パス 26" d="M602.808,484a4.968,4.968,0,0,0,.4.413,1.345,1.345,0,0,0,.9.4,1.259,1.259,0,0,0,.9-.4,1.431,1.431,0,0,0,.375-.967,1.377,1.377,0,0,0-.375-.968,11.263,11.263,0,0,1-.931-1c-.494-.544-.988-1.089-1.49-1.624-.233-.248-.468-.5-.711-.731a1.309,1.309,0,0,0-.9-.4,1.261,1.261,0,0,0-.9.4,1.439,1.439,0,0,0,0,1.936C601.03,481.986,601.9,483.016,602.808,484Z" transform="translate(71.062 0.323)" fill="#1a1311"/>
    <path id="パス_27" data-name="パス 27" d="M609.975,482.119a25.739,25.739,0,0,0-2.886-4.587,1.237,1.237,0,0,0-.9-.4,1.259,1.259,0,0,0-.9.4,1.431,1.431,0,0,0-.375.967,1.661,1.661,0,0,0,.375.967c.047.065.094.129.139.194a22.249,22.249,0,0,1,2.346,3.84,1.309,1.309,0,0,0,.764.629,1.235,1.235,0,0,0,.985-.137A1.463,1.463,0,0,0,609.975,482.119Z" transform="translate(72.119 0)" fill="#1a1311"/>
    <path id="パス_28" data-name="パス 28" d="M303.034,535.982c.152.035.156.011,0,0Z" transform="translate(10.84 11.947)" fill="#1a1311"/>
    <path id="パス_29" data-name="パス 29" d="M281.234,542.132c-.089-.038-.076-.022,0,0Z" transform="translate(6.402 13.191)" fill="#1a1311"/>
    <path id="パス_30" data-name="パス 30" d="M310.649,543.951c-4.17.041-8.354.2-12.529.378q.134-3.443.229-6.888c2.2.016,4.4.016,6.6.052.7.012,1.408.024,2.111.046.2,0,.395.02.591.02a.8.8,0,0,1,.085,0c-.035-.008-.065-.013-.114-.029l-.164-.135a1.194,1.194,0,0,0,1.146,0l0,0a1.432,1.432,0,0,0,.458-1.872c-.588-.95-2-.728-2.933-.748-1.817-.039-3.634-.059-5.451-.077-.755-.007-1.51-.01-2.265-.016q.056-2.586.076-5.172a1.279,1.279,0,1,0-2.558,0q-.018,2.577-.075,5.154c-2.712-.016-5.423-.018-8.133.028a9.512,9.512,0,0,0-3.692.343c-1.506.7-.206,3.057,1.291,2.363-.128.059-.617.148-.3.129.19-.012.38-.028.57-.037.6-.031,1.205-.043,1.808-.054,1.829-.035,3.657-.04,5.486-.04.965,0,1.93.019,2.893.023q-.1,3.508-.233,7.013c-.7.03-1.412.06-2.117.088-2.5.1-5,.242-7.5.356-1.044.047-2.09.1-3.135.114-.324,0-.646,0-.97,0a1.122,1.122,0,0,1-.328-.039,1.781,1.781,0,0,1,.248.14c-1.411-.916-2.7,1.45-1.291,2.363,1.085.7,3.189.253,4.361.2,2.642-.108,5.284-.261,7.925-.375l.917-.04a48.485,48.485,0,0,1-4.044,4.594c-2.092,2.057-4.7,4.212-7.617,4.562a1.365,1.365,0,0,0-1.279,1.368c0,.676.587,1.451,1.279,1.369,3.439-.411,6.37-2.472,8.915-4.872a45.843,45.843,0,0,0,4.441-4.943c-.011.251-.02.5-.031.752q-.193,4.513-.427,9.025c-.053.982-.106,1.963-.171,2.944-.022.32-.067.65-.07.972,0,.125,0,.195,0,.227-.206,1.386,1.673,2.41,2.325.965.538-1.188.362-3.038.433-4.312.166-3.009.306-6.019.437-9.029.022-.5.041-1,.063-1.494,3.526,3.643,6.832,7.494,11.2,10.056,1.444.848,2.736-1.513,1.291-2.363-4.342-2.55-7.575-6.448-11.1-10.06,3.785-.154,7.574-.285,11.35-.322C312.293,546.672,312.3,543.936,310.649,543.951Zm-3.786-7.045.018-.072a1.738,1.738,0,0,0,.144.206Zm-12.155,26.112a1.1,1.1,0,0,1,.065-.189A1.524,1.524,0,0,0,294.708,563.019Z" transform="translate(6.134 10.365)" fill="#1a1311"/>
    <path id="パス_31" data-name="パス 31" d="M319.415,542.342a1.443,1.443,0,0,0,.46-1.872c-1.029-1.677-1.8-3.508-2.686-5.269a1.244,1.244,0,0,0-1.749-.491,1.454,1.454,0,0,0-.46,1.872c.888,1.761,1.658,3.592,2.686,5.269A1.254,1.254,0,0,0,319.415,542.342Z" transform="translate(13.231 11.651)" fill="#1a1311"/>
    <path id="パス_32" data-name="パス 32" d="M329.9,535.513l-.007.014-.02.052-.04.1c-.053.128-.106.254-.161.38-.111.253-.227.5-.348.752-.229.469-.473.93-.728,1.382-.532.944-1.113,1.856-1.708,2.756a1.429,1.429,0,0,0,.46,1.872,1.265,1.265,0,0,0,1.749-.491,31.2,31.2,0,0,0,3.263-6.074,1.461,1.461,0,0,0-.129-1.055,1.32,1.32,0,0,0-.765-.629,1.22,1.22,0,0,0-.985.138,1.589,1.589,0,0,0-.58.8l.01-.024Z" transform="translate(15.646 11.651)" fill="#1a1311"/>
    <path id="パス_33" data-name="パス 33" d="M322,557.041c-.044.179-.016.166,0,0Z" transform="translate(14.685 16.222)" fill="#1a1311"/>
    <path id="パス_34" data-name="パス 34" d="M341.519,558.788a15.955,15.955,0,0,1-8.22-4.119,65.324,65.324,0,0,1-5.534-6.084,72.108,72.108,0,0,0,12.971-.509c1.622-.255.932-2.893-.681-2.639a69.925,69.925,0,0,1-12.836.4q.029-4.784.061-9.569c0-.186,0-.373.006-.559,2.619,0,5.238.012,7.857,0,.865,0,2.417.283,3.214-.227a1.437,1.437,0,0,0,.259-2.149l0,0a1.212,1.212,0,0,0-.98-.348c.006-.007-.035-.017-.159-.034a4.1,4.1,0,0,0-.57.012c-.587.007-1.174.008-1.761.011-1.863.006-3.727,0-5.59,0l-2.239,0c.011-1.154.013-2.307.036-3.46a1.279,1.279,0,1,0-2.558,0c-.023,1.151-.031,2.3-.047,3.455-2.432,0-4.865,0-7.3.014-.917.006-2.423-.251-3.27.255a1.365,1.365,0,0,0-.633,1.181v0a1.365,1.365,0,0,0,1.606,1.273c-.2.041-.361.057-.072.065.194,0,.391-.014.585-.019.594-.014,1.19-.018,1.784-.023,1.871-.013,3.742-.013,5.614-.013h1.646q-.05,5.025-.065,10.051c-4.447-.143-8.894-.362-13.344-.369-1.646,0-1.648,2.733,0,2.736,4.368.008,8.733.218,13.1.362a27.354,27.354,0,0,1-5.64,6.307,22.722,22.722,0,0,1-8.135,4.713c-1.587.458-.913,3.1.68,2.638a25.556,25.556,0,0,0,9.078-5.26,32.933,32.933,0,0,0,4.232-4.232q-.018,3.306-.053,6.612c-.011.887-.02,1.773-.041,2.66-.007.283-.024.567-.025.849a1.109,1.109,0,0,1-.008.123c.008-.031.011-.052.024-.1l.013-.018a1.363,1.363,0,0,0,.108,1.067l0,.007a1.249,1.249,0,0,0,1.75.491c.926-.6.692-2.328.709-3.317.038-2.3.054-4.6.072-6.9q.007-1.088.013-2.174a45.89,45.89,0,0,0,4.62,4.92,18.136,18.136,0,0,0,9.041,4.549,1.311,1.311,0,0,0,1.572-.955A1.393,1.393,0,0,0,341.519,558.788ZM337.565,533a1.35,1.35,0,0,0-.509.206l.011-.085A1.429,1.429,0,0,1,337.565,533ZM325.1,561.988l.048.013c-.043.026-.082.059-.123.089Z" transform="translate(12.197 10.365)" fill="#1a1311"/>
    <path id="パス_35" data-name="パス 35" d="M362.337,533.133a12.378,12.378,0,0,0-7.218-1.323,1.127,1.127,0,0,0-.948.131,18.456,18.456,0,0,0-11.029,6.916,15.928,15.928,0,0,0-3.5,10.724c.158,2.662,1.417,5.43,4.3,5.05,3.033-.4,5.552-3.37,7.186-5.9,2.762-4.283,3.971-9.267,4.852-14.306a9.774,9.774,0,0,1,4.321.722c4.251,1.777,6.626,6.364,6.46,11.135-.2,5.632-3.871,10.032-9.054,10.894-1.622.269-.932,2.906.68,2.638,5.814-.967,10.065-5.909,10.813-12.1C369.9,541.886,367.369,535.794,362.337,533.133Zm-11.819,11.342c-1.234,2.586-2.9,5.232-5.276,6.763-1.469.947-2.6,1.106-2.957-.9a12.432,12.432,0,0,1,2.2-8.9,16.685,16.685,0,0,1,8.829-6.554A37.709,37.709,0,0,1,350.517,544.475Z" transform="translate(18.266 11.083)" fill="#1a1311"/>
    <path id="パス_36" data-name="パス 36" d="M374.127,543h.008C373.772,542.836,373.778,543.06,374.127,543Z" transform="translate(25.218 13.359)" fill="#1a1311"/>
    <path id="パス_37" data-name="パス 37" d="M396.979,547.044c1.647.057,1.644-2.68,0-2.737-3.42-.119-6.852-.012-10.277.136a30.37,30.37,0,0,0,.366-5.832,1.35,1.35,0,0,0-.038-.18l.626-.012c1.244-.023,2.487-.047,3.73-.052.387,0,.776,0,1.165,0l.266.01c1.275.472,2.3-1.637,1-2.508a3.993,3.993,0,0,0-2.082-.244c-1.243,0-2.484.024-3.726.047-2.6.046-5.2.1-7.8.118a9.93,9.93,0,0,0,.138-1.493,1.282,1.282,0,1,0-2.558,0c0,.208-.011.415-.028.622,0,.03-.018.171-.018.189-.01.064-.019.126-.03.19a8.627,8.627,0,0,1-.289,1.169c-.026.084-.054.168-.084.253-.006.018-.06.162-.079.217l-.058.136q-.067.153-.137.3c-.171.362-.36.713-.563,1.055-.194.325-.4.64-.617.948a.269.269,0,0,0-.024.035l-.049.066-.16.212q-.182.236-.371.468c-.506.622-1.044,1.214-1.6,1.791a1.452,1.452,0,0,0,0,1.934,1.24,1.24,0,0,0,1.808,0,20.075,20.075,0,0,0,3.853-5.349c1.726,0,3.451-.03,5.177-.062,0,.048-.023.083-.022.133a26.716,26.716,0,0,1-.411,5.949l-.852.039c-2.072.094-4.143.2-6.215.3-.675.035-1.349.07-2.023.1a5.331,5.331,0,0,0-.65.025,1.927,1.927,0,0,1,.32.186v.036a1.121,1.121,0,0,0-1.286-.039l0,0a1.435,1.435,0,0,0,0,2.363c.722.515,2.315.129,3.1.089,2.073-.1,4.146-.212,6.22-.307l.528-.024c-.052.119-.094.243-.15.361-1.616,3.4-4.577,5.515-7.786,6.975a1.431,1.431,0,0,0-.458,1.872,1.264,1.264,0,0,0,1.749.491,17.107,17.107,0,0,0,8.7-7.957c.048-.1.085-.209.132-.313,2.911,2.726,5.3,6.139,8.674,8.269a1.253,1.253,0,0,0,1.75-.491,1.443,1.443,0,0,0-.46-1.872,22.142,22.142,0,0,1-4.206-3.714c-1.205-1.278-2.38-2.595-3.64-3.812C390.686,547.017,393.838,546.934,396.979,547.044Z" transform="translate(24.996 11.327)" fill="#1a1311"/>
    <path id="パス_38" data-name="パス 38" d="M398.586,558.963c-3.012.3-6.117.166-9.139.226-4.864.1-9.731.192-14.6.156-.858-.006-1.718-.013-2.576-.049-.262-.011-.528-.041-.792-.047q-.018-7.252-.064-14.507-.022-3.973-.041-7.949c0-.856-.006-1.713-.006-2.57,0-.237.078-1.6-.034-.83a1.578,1.578,0,0,0-.018-.455c9-.091,17.988-.449,26.984-.456,1.646,0,1.649-2.738,0-2.737-9.551.008-19.1.42-28.648.479-1.311.008-1.561,1.73-.781,2.431l0,.011a25.015,25.015,0,0,0-.053,3.654q.014,4.037.041,8.073c.034,5.951.077,11.9.078,17.854a1.279,1.279,0,1,0,2.558,0c0-.072,0-.143,0-.214.583.054,1.192.016,1.642.026,2.125.049,4.251.031,6.376.013,5.11-.042,10.221-.142,15.33-.266,1.238-.03,2.507.016,3.743-.108C400.211,561.536,400.227,558.8,398.586,558.963Z" transform="translate(24.116 10.681)" fill="#1a1311"/>
    <path id="パス_39" data-name="パス 39" d="M400.271,538.04q-.567-1.086-1.116-2.182c-.075-.148-.149-.3-.219-.45a1.454,1.454,0,0,0-.533-.647,1.232,1.232,0,0,0-.985-.138,1.306,1.306,0,0,0-.764.629,1.667,1.667,0,0,0-.13,1.054,3.084,3.084,0,0,0,.324.735c.162.328.328.656.494.982.391.767.784,1.533,1.191,2.289a7.6,7.6,0,0,0,.558.908,1.236,1.236,0,0,0,.9.4,1.259,1.259,0,0,0,.9-.4,1.423,1.423,0,0,0,.374-.967,1.674,1.674,0,0,0-.374-.967l.195.271A13.641,13.641,0,0,1,400.271,538.04Z" transform="translate(29.812 11.661)" fill="#1a1311"/>
    <path id="パス_40" data-name="パス 40" d="M429.477,547.2a6.727,6.727,0,0,1-2.738-1.2,11.5,11.5,0,0,1-1.2-.955,11.182,11.182,0,0,0,2.016-2.543,1.44,1.44,0,0,0-.458-1.873,1.259,1.259,0,0,0-1.75.491c-.128.228-.273.443-.42.656a10.58,10.58,0,0,1-1.209,1.339,29.225,29.225,0,0,1-2.435-3.378c1.5-.027,3.01-.054,4.515-.094.766-.021,2.236.195,2.922-.3a1.485,1.485,0,0,0,.588-1.546v0a1.127,1.127,0,0,0-1.939-.652l.061-.161c.122-.088.76-.152.421-.155-.154,0-.313.019-.467.026-.505.024-1.011.037-1.516.051-1.588.043-3.176.072-4.765.1q-1.868.032-3.735.061c.111-.265.235-.523.34-.789a1.473,1.473,0,0,0-.458-1.872,1.107,1.107,0,0,0-.262-.091c2.929-.023,5.859-.047,8.787-.114,1.031-.024,2.6.219,3.561-.306a1.371,1.371,0,0,0-.8-2.516c-.028,0-.065,0-.12,0-.194,0-.39.021-.583.028-.629.026-1.261.04-1.891.055-1.965.046-3.929.077-5.895.107-.98.016-1.962.024-2.943.037v-3.621a1.282,1.282,0,1,0-2.558,0v3.653c-2.494.031-4.988.067-7.483.1-1,.011-2,0-2.992.032a1.316,1.316,0,0,0-1.2,1.636,1.14,1.14,0,0,0-.527,1.109,60.79,60.79,0,0,1-.706,13.17,1.1,1.1,0,0,0-.15.111q-.628.729-1.32,1.389-.341.327-.7.635c-.116.1-.233.2-.35.3l-.19.155a36.317,36.317,0,0,1-3.062,2.158,1.441,1.441,0,0,0-.458,1.872,1.254,1.254,0,0,0,1.749.491,35.473,35.473,0,0,0,3.627-2.637A30.55,30.55,0,0,1,399.3,557c-.754,1.821-1.761,3.73-3.489,4.646-1.476.781-.182,3.142,1.291,2.363,4.29-2.271,5.75-8.769,6.609-13.32.01-.047.017-.095.025-.142a1.11,1.11,0,0,0,.777.3,7.9,7.9,0,0,0,4.641-1.758c0,.517-.006,1.035-.02,1.551-.033,1.043-.135,2.106-.081,3.149a1.348,1.348,0,0,0,1.279,1.368,1.286,1.286,0,0,0,.208-.051,1.083,1.083,0,0,0,.239.051c1.725,0,3.457-.019,5.189-.054.024.729.037,1.458.051,2.187.029,1.746.042,3.491.082,5.237v.026c-.106-.011-.18-.016-.054.011a3.667,3.667,0,0,1-.419-.117.238.238,0,0,0-.047-.016c-.053-.028-.106-.054-.158-.084s-.327-.218-.295-.19l-.076-.069c-.067-.062-.134-.129-.2-.2a5.4,5.4,0,0,1-.375-.45,1.229,1.229,0,0,0-1.808,0,1.473,1.473,0,0,0,0,1.936,4.646,4.646,0,0,0,5.1,1.715,1.38,1.38,0,0,0,.915-1.4s.006-.011.006-.052c0-.079-.011-.16-.014-.239-.012-.259-.018-.517-.024-.776-.019-.811-.03-1.622-.042-2.432-.024-1.724-.037-3.448-.094-5.171,1.273-.047,2.544-.106,3.812-.2a5.978,5.978,0,0,0,1.184-.137,1.442,1.442,0,0,0,.848-.651,1.28,1.28,0,0,0,.5-.519,3.851,3.851,0,0,0,.236-1.677c.021-.77.029-1.54.035-2.311,0-.461,0-.922.006-1.381a9.469,9.469,0,0,0,3.65,1.687,1.305,1.305,0,0,0,1.574-.955A1.394,1.394,0,0,0,429.477,547.2Zm-7.261,5.433.031-.034a1.213,1.213,0,0,0-.055.129Zm-.767-4.268.043-.012-.059.01c-.272.022-.544.032-.816.043-.838.032-1.676.046-2.514.059-1.841.028-3.681.034-5.521.067-.278,0-.57,0-.863.006,0-.349-.018-.7-.037-1.045,3.637,0,7.275-.026,10.911-.053q0,.563,0,1.126A1.291,1.291,0,0,0,421.448,548.36Zm-.208.109a.931.931,0,0,0-.28.215A.989.989,0,0,1,421.24,548.47Zm-10.312-5.109h-.014Zm.064-.054-.017.023h-.051l-.029-.008c-.044-.026-.089-.054-.131-.084a4.531,4.531,0,0,1-.5-.57,18.69,18.69,0,0,0-1.708-2.3,1.3,1.3,0,0,0-.9-.392c1.826-.113,3.667-.112,5.5-.118A33.817,33.817,0,0,1,410.992,543.306Zm7.29-3.52a37.885,37.885,0,0,0,3.336,4.917q-4.241.031-8.484.041a38.494,38.494,0,0,0,2.956-4.924Zm-11.952,7.9a4.288,4.288,0,0,1-1.812.42,1.212,1.212,0,0,0-.374.087,62.636,62.636,0,0,0,.758-13.685c0-.011-.006-.017-.007-.026,3.755-.1,7.512-.135,11.267-.162a1.03,1.03,0,0,0-.663.576c-.295.743-.611,1.484-.947,2.217q-2.183.034-4.368.072c-1.047.019-2.1,0-3.148.085-1.632.129-1.645,2.867,0,2.737.2-.016.4-.019.6-.032a1.138,1.138,0,0,0-.887.391,1.463,1.463,0,0,0,0,1.936,7.743,7.743,0,0,1,.624.757,17.588,17.588,0,0,0,1.434,1.979,3.516,3.516,0,0,0,.443.39,12.7,12.7,0,0,1-1.291,1.217A9.616,9.616,0,0,1,406.33,547.684Zm12.6,4.556c-2.167.069-4.334.114-6.5.15l-.8.012c.014-.373.023-.743.041-1.115.282-.011.562-.017.843-.022.878-.017,1.758-.025,2.636-.034,1.86-.019,3.722-.022,5.581-.1a3.376,3.376,0,0,0,1.842-.36c0,.255,0,.51-.01.765,0,.176-.01.353-.016.528-.223.018-.444.037-.665.051C420.895,552.174,419.913,552.207,418.931,552.24Zm3.151.918a1.558,1.558,0,0,0-.012.26l-.028-.106Z" transform="translate(29.542 10.044)" fill="#1a1311"/>
    <path id="パス_41" data-name="パス 41" d="M417.049,544.686c.153-.024.244-.067,0,0Z" transform="translate(33.985 13.706)" fill="#1a1311"/>
    <path id="パス_42" data-name="パス 42" d="M408.861,551.293a1.222,1.222,0,0,0-.986.138,1.582,1.582,0,0,0-.574.79c.04-.1.109-.269.06-.158-.017.037-.031.076-.048.113-.039.089-.078.177-.12.265-.094.2-.194.4-.3.594-.226.434-.468.86-.713,1.282-.461.787-.94,1.564-1.45,2.316l-.1.152c-.02.025-.041.05-.06.076a1.138,1.138,0,0,0-.414.656,1.608,1.608,0,0,0,.129,1.077,1.271,1.271,0,0,0,1.451.632,1.309,1.309,0,0,0,.671-.463c.277-.343.523-.722.766-1.092.623-.95,1.216-1.927,1.762-2.93a14.489,14.489,0,0,0,.82-1.764,1.452,1.452,0,0,0-.129-1.054A1.321,1.321,0,0,0,408.861,551.293Zm-2.556,5.668c-.007-.01-.014-.02-.023-.03l.01.006Zm-1.107-.41a1.393,1.393,0,0,0-.361.122A.98.98,0,0,1,405.2,556.552Zm.1-.008a1.4,1.4,0,0,1,.223.01A1.517,1.517,0,0,0,405.3,556.543Zm1.317,1.7a1.664,1.664,0,0,0-.072-.837l.072.131A1.432,1.432,0,0,1,406.62,558.246Z" transform="translate(31.359 15.046)" fill="#1a1311"/>
    <path id="パス_43" data-name="パス 43" d="M419.054,551.83a1.3,1.3,0,0,0-.985-.138,1.318,1.318,0,0,0-.764.629,1.439,1.439,0,0,0,.458,1.872,11.578,11.578,0,0,1,1.252.718q.3.2.6.419c.093.07.184.139.274.212l.065.052.034.029a12.33,12.33,0,0,1,1.023.984q.245.265.474.546c.081.1.158.2.235.3l.09.12c.075.1.043.053,0,0a1.39,1.39,0,0,0,.737.6,1.231,1.231,0,0,0,.985-.138,1.371,1.371,0,0,0,.588-.817,1.407,1.407,0,0,0-.13-1.055A13.364,13.364,0,0,0,419.054,551.83Z" transform="translate(34.005 15.127)" fill="#1a1311"/>
    <path id="パス_44" data-name="パス 44" d="M436.4,551.742a26.308,26.308,0,0,1-2.027,4.437c-.254-8.112-.563-16.234.464-24.3.22-1.723-2.245-2.467-2.466-.728-1.261,9.9-.645,19.794-.423,29.734a1.276,1.276,0,0,0,2.383.69c1.593-3,3.453-5.825,4.535-9.1A1.286,1.286,0,1,0,436.4,551.742Z" transform="translate(36.939 10.764)" fill="#1a1311"/>
    <path id="パス_45" data-name="パス 45" d="M441.563,538.1c1.707-1.159,4.01-1.233,6.032-1.174a36.055,36.055,0,0,1,6.411.832,1.3,1.3,0,0,0,1.574-.955,1.4,1.4,0,0,0-.893-1.683,39.386,39.386,0,0,0-7.283-.935c-2.388-.054-5.06.147-7.131,1.551C438.885,536.679,440.166,539.047,441.563,538.1Z" transform="translate(38.578 11.581)" fill="#1a1311"/>
    <path id="パス_46" data-name="パス 46" d="M456.725,552.947c-5.054-.02-11.943.071-14.562-5.549-.735-1.576-2.943-.191-2.209,1.381,3.074,6.595,10.77,6.88,16.771,6.9C458.371,555.689,458.373,552.953,456.725,552.947Z" transform="translate(38.605 14.123)" fill="#1a1311"/>
    <path id="パス_47" data-name="パス 47" d="M481.257,534.483c-3.5-1.138-7.422-.423-10.874.551a58.716,58.716,0,0,0-11.127,4.592c-1.478.773-.183,3.135,1.291,2.364,5.385-2.815,11.762-5.745,17.878-5.287a6.448,6.448,0,0,1,6.118,4.652c1.137,3.877-.807,7.219-3.492,9.7A27.726,27.726,0,0,1,470.123,557c-1.584.468-.912,3.109.68,2.639,6.876-2.029,17.572-7.734,16.6-16.966A9.262,9.262,0,0,0,481.257,534.483Z" transform="translate(42.421 11.524)" fill="#1a1311"/>
    <path id="パス_48" data-name="パス 48" d="M502.948,538.212a59.231,59.231,0,0,1,6.531-.214c1.648.023,1.647-2.7,0-2.737l-.5-.01c-.025,0-.042.012-.067.013a56.586,56.586,0,0,0-5.967.212c-1.205.116-2.412.165-3.62.215.543-1.8,1.043-3.6,1.487-5.415a1.286,1.286,0,1,0-2.466-.727c-.516,2.106-1.107,4.2-1.755,6.289-.1.007-.206.011-.308.019a47.46,47.46,0,0,1-7,.35c-1.643-.108-1.637,2.63,0,2.737a41.272,41.272,0,0,0,6.389-.3,105.708,105.708,0,0,1-5.7,13.564c-.786,1.548,1.422,2.932,2.207,1.381a109.824,109.824,0,0,0,6.269-15.125C499.949,538.4,501.45,538.357,502.948,538.212Z" transform="translate(48.399 10.444)" fill="#1a1311"/>
    <path id="パス_49" data-name="パス 49" d="M514.7,539.229l-.267-.036-.118-.018c-.22-.032-.439-.067-.659-.1q-.7-.114-1.4-.241-1.407-.254-2.808-.545a23.669,23.669,0,0,1-3.805-.925,1.282,1.282,0,0,0-1.574.956,1.413,1.413,0,0,0,.893,1.683,24.517,24.517,0,0,0,3.931.95c1.927.4,3.863.753,5.809,1.014.687.093,1.279-.694,1.279-1.368A1.36,1.36,0,0,0,514.7,539.229Z" transform="translate(51.639 12.214)" fill="#1a1311"/>
    <path id="パス_50" data-name="パス 50" d="M510.247,552.853a9.425,9.425,0,0,0-1.8-.855,47.715,47.715,0,0,0,.052-8.938,1.362,1.362,0,0,0-1.279-1.369,1.336,1.336,0,0,0-1.279,1.369,49.206,49.206,0,0,1,.017,8.2c0,.042-.007.087-.011.129-.189-.026-.375-.062-.565-.082-3.035-.316-7.232,1.185-8.421,4.505a3.923,3.923,0,0,0,1.245,4.159,5.93,5.93,0,0,0,5.378,1.7c2.973-.635,3.994-4.077,4.491-6.91a6.979,6.979,0,0,1,.724.36,15.611,15.611,0,0,1,3.5,3.218c1.133,1.284,2.939-.654,1.809-1.934A18.557,18.557,0,0,0,510.247,552.853Zm-6,5.323a2.293,2.293,0,0,1-.62.638,3.116,3.116,0,0,1-2.257.057,3.593,3.593,0,0,1-1.568-1.063,5.909,5.909,0,0,1-.4-.5c-.106-.177-.154-.114-.1-.417-.03.172.1-.242.1-.238a2.334,2.334,0,0,1,.31-.49,5.269,5.269,0,0,1,1.435-1.2,6.263,6.263,0,0,1,3.5-.98c.331.014.664.047,1,.09A10.666,10.666,0,0,1,504.245,558.176Z" transform="translate(50.165 13.105)" fill="#1a1311"/>
    <path id="パス_51" data-name="パス 51" d="M535.154,540.436a8.015,8.015,0,0,0-4.559-1.785,15.934,15.934,0,0,0-2.656-.032q.733-2.324,1.462-4.648c.283-.906.567-1.812.84-2.721a3.946,3.946,0,0,0,.316-1.329c-.089-.873-.746-1.568-1.618-1.318h0a1.232,1.232,0,0,0-.883,1.362l-.053-.043a.748.748,0,0,1,0-.149.4.4,0,0,1-.023.063,5.334,5.334,0,0,0-.2.688c-.235.782-.478,1.559-.721,2.337q-.946,3.037-1.907,6.069a43.614,43.614,0,0,1-5.719.641c-1.646.019-1.649,2.756,0,2.737a35.74,35.74,0,0,0,4.81-.491c-1.575,4.988-3.158,9.972-4.664,14.983-.309,1.029-1.436,3.378-.8,4.467a1.3,1.3,0,0,0,2.4-.7,5.441,5.441,0,0,0,.186-.71c.215-.778.449-1.552.681-2.324.739-2.459,1.5-4.908,2.269-7.357q1.361-4.356,2.737-8.706c.427-.042.852-.1,1.28-.118,2.451-.119,5.172.156,6.333,2.784a8.042,8.042,0,0,1,.629,3.605,21.7,21.7,0,0,1-.331,3.808c-.42,2.4-1.163,5.3-2.677,6.918q-.085.09-.173.177c-.043.042-.088.083-.132.123-.016.011-.022.014-.06.044-.091.064-.184.124-.28.18a.236.236,0,0,0-.044.03c-.019.006-.057.019-.136.05a1.2,1.2,0,0,1-.212.054,1.076,1.076,0,0,1-.162.012c-.026,0-.126-.016-.179-.02a2.623,2.623,0,0,1-.284-.082c-.044-.023-.189-.085-.2-.094a4.33,4.33,0,0,1-.46-.308,7.27,7.27,0,0,1-.574-.561,12.755,12.755,0,0,1-1.684-2.493c-.836-1.517-3.047-.141-2.209,1.381,1.4,2.547,3.928,6.031,7.1,4.562,2.5-1.159,3.691-4.515,4.375-7.111a21.773,21.773,0,0,0,.648-9.359A8.06,8.06,0,0,0,535.154,540.436Z" transform="translate(54.517 10.438)" fill="#1a1311"/>
    <path id="パス_52" data-name="パス 52" d="M526.345,529.583c.058-.154.013-.153,0,0Z" transform="translate(56.172 10.624)" fill="#1a1311"/>
    <path id="パス_53" data-name="パス 53" d="M541.215,541.955c-1.294-2-2.636-3.961-3.93-5.958a1.266,1.266,0,0,0-1.75-.491,1.437,1.437,0,0,0-.458,1.873c1.3,2,2.636,3.959,3.93,5.957a46.366,46.366,0,0,1,3.231,5.537,1.248,1.248,0,0,0,1.75.491,1.452,1.452,0,0,0,.458-1.872A46.357,46.357,0,0,0,541.215,541.955Z" transform="translate(57.907 11.813)" fill="#1a1311"/>
    <path id="パス_54" data-name="パス 54" d="M539.222,536.245a1.231,1.231,0,0,0,.985.137,1.308,1.308,0,0,0,.764-.628,1.417,1.417,0,0,0,.13-1.055,7,7,0,0,0-1.5-2.306,10.523,10.523,0,0,0-2.218-1.863,1.256,1.256,0,0,0-.985-.138,1.325,1.325,0,0,0-.764.629,1.448,1.448,0,0,0,.458,1.872,7.417,7.417,0,0,1,.782.562,9.952,9.952,0,0,1,1.511,1.6,3.5,3.5,0,0,1,.361.65l-.1-.26A1.474,1.474,0,0,0,539.222,536.245Z" transform="translate(58.024 10.803)" fill="#1a1311"/>
    <path id="パス_55" data-name="パス 55" d="M540.8,527.955a1.24,1.24,0,0,0-1.808,0,1.46,1.46,0,0,0,0,1.936,23.5,23.5,0,0,1,2.17,2.457c.073.1.148.195.22.294l.1.131c.156.226.314.45.466.678q.462.7.876,1.432a1.248,1.248,0,0,0,1.749.491,1.446,1.446,0,0,0,.458-1.872A25.194,25.194,0,0,0,540.8,527.955Z" transform="translate(58.665 10.238)" fill="#1a1311"/>
    <path id="パス_56" data-name="パス 56" d="M554.02,544.751c-.071.212-.164.411-.245.617q-.04-2.562-.03-5.124c.01-3.241.018-6.509.326-9.738.167-1.75-2.391-1.737-2.557,0-.308,3.229-.316,6.5-.326,9.738-.01,3.316.025,6.635.159,9.946a1.277,1.277,0,0,0,2.383.691,24.08,24.08,0,0,0,2.757-5.4A1.286,1.286,0,1,0,554.02,544.751Z" transform="translate(61.214 10.57)" fill="#1a1311"/>
    <path id="パス_57" data-name="パス 57" d="M565.132,530.708c.01,5.586.338,11.193-.5,16.736-.8,5.321-2.827,11.757-8.739,12.071-1.638.087-1.648,2.823,0,2.737,11.017-.585,11.868-15.491,11.888-24.394.006-2.383-.087-4.766-.09-7.149A1.279,1.279,0,1,0,565.132,530.708Z" transform="translate(61.92 10.608)" fill="#1a1311"/>
    <path id="パス_58" data-name="パス 58" d="M598.381,533.492c-3.481-.044-6.992-.091-10.47.128-.063-1.1-.112-2.205-.117-3.31a1.279,1.279,0,1,0-2.558,0c.006,1.144.063,2.288.14,3.432-1.8.081-3.6.136-5.406.15-1.125.008-2.25.011-3.374-.017q-.523-.013-1.047-.039a1.889,1.889,0,0,0-.357-.026c-.129-.014-.122-.012.008,0l.013.014a1.227,1.227,0,0,0-1.57.906l0,.013a1.415,1.415,0,0,0,.33,1.332,2.709,2.709,0,0,0,1.881.508c.986.046,1.974.046,2.962.046q3.389,0,6.78-.161c.178,1.967.383,3.934.507,5.9.016.245.03.5.046.742-3.01.1-6.019.195-9.03.2-1.646,0-1.649,2.739,0,2.737,3.059,0,6.116-.1,9.174-.2a46.354,46.354,0,0,1-.052,5.237c-.8-.25-1.589-.474-2.369-.638-2.351-.5-5.1-.667-7.223.752a5.294,5.294,0,0,0-2.022,5.827c1.215,4.858,6.9,7.887,10.71,4.253a11.634,11.634,0,0,0,3.044-6.489,24.2,24.2,0,0,1,8.016,5.67c1.14,1.274,2.947-.663,1.808-1.934A26.921,26.921,0,0,0,588.724,552c.112-1.494.129-2.967.126-4.3,0-.646-.019-1.292-.042-1.937,2.816-.1,5.632-.183,8.45-.2,1.646-.008,1.648-2.745,0-2.737-2.867.014-5.732.1-8.6.2-.156-2.227-.378-4.45-.559-6.673,3.419-.178,6.854-.174,10.275-.131h0A1.376,1.376,0,0,0,598.381,533.492Zm-22.6.653v0l-.011-.01Zm9.632,21.784a6.419,6.419,0,0,1-2.445,3.825c-1.664,1.008-3.526.16-4.717-1.257-.97-1.155-1.926-3.265-.712-4.6,1.308-1.438,3.829-1.174,5.482-.849a23.47,23.47,0,0,1,2.869.781A20.824,20.824,0,0,1,585.41,555.929Z" transform="translate(65.763 10.527)" fill="#1a1311"/>
    <path id="パス_59" data-name="パス 59" d="M630.014,535.037a34.648,34.648,0,0,1-5.6.458c-1.38.054-2.761.088-4.142.111,0-.135,0-.271,0-.407a20.243,20.243,0,0,0-.67-6.054,1.286,1.286,0,1,0-2.466.727,17.136,17.136,0,0,1,.652,5.759c-.711.006-1.422.017-2.133.018-4.9.011-9.849.058-14.743-.324-1.642-.129-1.635,2.609,0,2.736,5.012.391,10.078.339,15.1.324q.83,0,1.672,0c-.006.142-.013.289-.019.428-.066,1.608-.172,3.241-.354,4.865a5.942,5.942,0,0,0-1.907-1.142c-2.91-1.066-5.635,1.106-6.464,4.066a8.314,8.314,0,0,0,2.483,8.167c1.233,1.146,2.849,1.7,4.332.728l.011-.008-.016.034c-.964,1.975-2.662,4.633-4.99,4.7-1.642.049-1.649,2.786,0,2.737,5.619-.17,9.079-8.208,9-13.411a9.314,9.314,0,0,0-.385-2.489c.183-1.066.331-2.139.455-3.208.212-1.808.342-3.628.4-5.451a50.052,50.052,0,0,0,10.46-.733C632.308,537.34,631.625,534.7,630.014,535.037Zm-15.548,18.1a.434.434,0,0,1-.494.14,3.231,3.231,0,0,1-1.258-.976c-1.541-1.746-2.227-4.823-.362-6.644,1.563-1.527,3.6-.119,4.405,1.618a28.909,28.909,0,0,1-.777,3.018A7.319,7.319,0,0,1,614.466,553.14Z" transform="translate(71.06 10.37)" fill="#1a1311"/>
  </g>
</svg>
