<svg xmlns="http://www.w3.org/2000/svg" xmlns:xlink="http://www.w3.org/1999/xlink" viewBox="0 0 364.94 55.42"><defs><style>.cls-1{fill:none;}.cls-2{fill:#0f1e6e;}.cls-3{fill:url(#新規パターンスウォッチ_3);}</style><pattern id="新規パターンスウォッチ_3" data-name="新規パターンスウォッチ 3" width="50" height="50" patternTransform="translate(23.83 19.03) rotate(45) scale(0.09)" patternUnits="userSpaceOnUse" viewBox="0 0 50 50"><rect class="cls-1" width="50" height="50"/><rect class="cls-2" width="25" height="50"/><rect class="cls-1" x="25" width="25" height="50"/></pattern></defs><g id="レイヤー_2" data-name="レイヤー 2"><g id="design"><path d="M25,33.19H18.06L10.17,16.38C8.28,12.31,7,9.28,5.5,5.63H4.92c.2,3.86.29,7.73.29,11.76v15.8H0V.59H8.53L15.29,15a99.12,99.12,0,0,1,4.33,11.17h.59c-.26-4-.42-7.56-.42-11.93V.59H25Z"/><path d="M58.09,5.08H42.25v8.61h12v4.5h-12v10.5H58.43v4.5H36.58V.59H58.09Z"/><path d="M94.59,33.19h-7L84.8,18C84,13.65,83.58,10,83,5.8h-.58c-.59,4.28-1,7.89-1.81,12.05L78,33.19H71L64.64.59h5.75l2.35,14.87c.59,4,1.14,7.94,1.64,12.1H75c.59-4.08,1-8.07,1.72-12l2.65-15h7.27l2.73,15.5c.63,3.7,1.13,7.14,1.59,11.47h.59c.63-4.37,1-7.69,1.64-11.72L95.68.59h5.42Z"/><path d="M125,9.66c-.84-3.53-2.78-5.33-5.8-5.33-3.45,0-5.42,1.64-5.42,4.24,0,2.86,1.26,4.16,6,5.46l1.72.5c7.43,2,9.53,4.84,9.53,9.62,0,5.72-3.95,9.67-11.76,9.67-6.34,0-10.75-2.78-12.31-8.45l5.42-1.72c.84,3.78,3.32,5.88,6.77,5.88,4.28,0,6.21-1.85,6.21-4.66s-1-4.12-6.34-5.63l-1.68-.5c-6.93-2.06-9.16-4.79-9.16-9.79S112.06,0,119.07,0c5.71,0,9.75,2.69,11.47,8.11Z"/><path d="M173.44,17.9c-.38,3.94-1.68,7.72-3.61,9.83,1.64,1.89,3,2.26,5.88,2.22l-1.05,3.78h-1.43c-3.53,0-5-.8-6.85-2.73-2.22,1.89-4.91,2.77-8.61,2.77-6.47,0-10.92-3.9-10.92-9.78,0-4.5,2.19-7.31,6.93-9.5-1.68-2.48-2.39-4.24-2.39-6.55,0-4.24,3.32-7.35,8.23-7.35,4.75,0,8,2.6,8,7,0,4-2.27,6.55-7.73,8.15a104,104,0,0,0,7.18,9.45c1.34-2.27,1.72-4.95,1.89-8.23Zm-21.67,5.41c0,4,3.11,6.73,7,6.73a7.5,7.5,0,0,0,5.09-1.69,92,92,0,0,1-8.36-11.08C153,18.65,151.77,20.42,151.77,23.31ZM162.94,7.52a3.22,3.22,0,0,0-3.32-3.4,3.48,3.48,0,0,0-3.48,3.65c0,1.56.54,3,2,5.21C161.76,11.76,162.94,10.12,162.94,7.52Z"/><path d="M214.62,5.17h-9.7v28h-5.71v-28h-9.62V.59h25Z"/><path d="M249.31,16.89c0,10.75-5.62,16.93-14,16.93s-14-6.09-14-16.85S227.05,0,235.37,0,249.31,6.09,249.31,16.89Zm-21.92,0c0,8.32,3.19,12.52,8,12.52s7.94-4.2,7.94-12.52-3.15-12.52-7.94-12.52S227.39,8.57,227.39,16.93Z"/><path d="M270.61.59c8,0,11.63,3.32,11.63,9.32s-4.16,9.58-12,9.58h-5.5v13.7H259.1V.59Zm-5.84,14.66h5.33c4.33,0,6.43-2,6.43-5.29s-1.89-5.13-6.22-5.13h-5.54Z"/><path d="M297.69,33.19H292V.59h5.71Z"/><path d="M328.52,11.26c-.79-4.54-3.15-6.89-6.84-6.89-4.83,0-8.19,4.2-8.19,12.52s3.44,12.52,8.19,12.52c3.9,0,6.26-2.23,7.18-7l5.34,1.64c-1.73,6.72-5.93,9.7-12.56,9.7-8.45,0-14.16-6.09-14.16-16.84S313.23,0,321.64,0c6.67,0,11,3.74,12.39,9.91Z"/><path d="M358.93,9.66c-.84-3.53-2.77-5.33-5.8-5.33-3.44,0-5.41,1.64-5.41,4.24,0,2.86,1.26,4.16,6,5.46l1.72.5c7.44,2,9.54,4.84,9.54,9.62,0,5.72-3.95,9.67-11.76,9.67-6.35,0-10.76-2.78-12.31-8.45l5.42-1.72c.84,3.78,3.32,5.88,6.76,5.88,4.28,0,6.22-1.85,6.22-4.66s-1-4.12-6.35-5.63l-1.68-.5c-6.93-2.06-9.15-4.79-9.15-9.79S346,0,353,0c5.71,0,9.74,2.69,11.46,8.11Z"/><rect class="cls-3" x="83.43" y="50.42" width="200" height="5"/></g></g></svg>