<svg xmlns="http://www.w3.org/2000/svg" width="48.529" height="15.372" viewBox="0 0 48.529 15.372">
  <g id="グループ_526" data-name="グループ 526" transform="translate(-126.807 -271.441)">
    <g id="グループ_375" data-name="グループ 375" transform="translate(127.085 275.511)">
      <path id="パス_1407" data-name="パス 1407" d="M132.677,277.936a3.449,3.449,0,0,0-4.013-.244,2.63,2.63,0,0,0-1.123,1.781,2.092,2.092,0,0,0,.619,1.6c.909,1.01,2.342,1.443,3.048,2.651a2.337,2.337,0,0,1-.443,2.9,1.926,1.926,0,0,1-2.958-.117c-.354-.436-.968.185-.617.617,1.6,1.976,4.587.772,5.134-1.5a3.53,3.53,0,0,0-1.389-3.52c-.489-.4-1.038-.717-1.541-1.1-.406-.308-.937-.735-.989-1.284-.076-.8.76-1.444,1.451-1.607a2.553,2.553,0,0,1,2.2.434c.415.377,1.034-.238.617-.617Z" transform="translate(-127.085 -277.163)" fill="#1a1311" stroke="#000" stroke-width="0.5"/>
    </g>
    <g id="グループ_376" data-name="グループ 376" transform="translate(136.515 275.358)">
      <path id="パス_1408" data-name="パス 1408" d="M147.382,277.607a4.257,4.257,0,0,0-3.893-.329,4.993,4.993,0,0,0-2.355,2.755c-.911,2.266-.8,5.52,1.3,7.111a5.281,5.281,0,0,0,4.842.418c.533-.171.305-1.014-.232-.841a4.688,4.688,0,0,1-3.817-.091,3.742,3.742,0,0,1-1.627-2.5c-.427-1.956.121-4.674,1.881-5.845a3.251,3.251,0,0,1,3.459.078c.492.27.933-.483.44-.754Z" transform="translate(-140.591 -276.943)" fill="#1a1311" stroke="#000" stroke-width="0.5"/>
    </g>
    <g id="グループ_377" data-name="グループ 377" transform="translate(146.74 275.783)">
      <path id="パス_1409" data-name="パス 1409" d="M155.627,277.973c-.1,3.314-.385,6.62-.39,9.937a.437.437,0,0,0,.873,0c.006-3.317.289-6.624.39-9.937.017-.562-.856-.561-.873,0Z" transform="translate(-155.237 -277.552)" fill="#1a1311" stroke="#000" stroke-width="0.5"/>
    </g>
    <g id="グループ_378" data-name="グループ 378" transform="translate(147.137 275.57)">
      <path id="パス_1410" data-name="パス 1410" d="M156.655,281.7a4.529,4.529,0,0,1,1.513-2.472,3.765,3.765,0,0,1,2.548-1.1c.562.023.561-.85,0-.873a4.613,4.613,0,0,0-3.116,1.317,5.318,5.318,0,0,0-1.786,2.9.448.448,0,0,0,.3.537.44.44,0,0,0,.537-.3Z" transform="translate(-155.805 -277.247)" fill="#1a1311" stroke="#000" stroke-width="0.5"/>
    </g>
    <g id="グループ_379" data-name="グループ 379" transform="translate(154.216 275.653)">
      <path id="パス_1411" data-name="パス 1411" d="M171.4,277.735a3.311,3.311,0,0,0-2.9-.064,4.289,4.289,0,0,0-1.875,2.1,6.838,6.838,0,0,0,.055,6.073,3.7,3.7,0,0,0,4.933,1.493c1.618-.982,2.31-3.091,2.344-4.891.043-2.227-1.038-4.487-3.346-5.044-.545-.132-.778.709-.232.841,3.336.806,3.42,5.826,1.318,7.924a2.674,2.674,0,0,1-3.887-.242c-1.171-1.288-1.169-3.406-.7-4.98.513-1.725,1.926-3.323,3.847-2.453.508.23.952-.522.441-.754Z" transform="translate(-165.944 -277.366)" fill="#1a1311" stroke="#000" stroke-width="0.5"/>
    </g>
    <g id="グループ_380" data-name="グループ 380" transform="translate(166.42 271.691)">
      <path id="パス_1412" data-name="パス 1412" d="M183.423,272.113c.008,4.484.37,8.959.39,13.444a.437.437,0,0,0,.873,0c-.02-4.484-.383-8.959-.39-13.444a.437.437,0,0,0-.873,0Z" transform="translate(-183.423 -271.691)" fill="#1a1311" stroke="#000" stroke-width="0.5"/>
    </g>
    <g id="グループ_381" data-name="グループ 381" transform="translate(166.809 285.065)">
      <path id="パス_1413" data-name="パス 1413" d="M184.534,291.759l.133-.02-.116.015a5.175,5.175,0,0,1,1.366.012l-.116-.015.059.008a.482.482,0,0,0,.337-.044.436.436,0,0,0,.156-.6.418.418,0,0,0-.261-.2,5.707,5.707,0,0,0-1.791,0,.436.436,0,0,0-.26.2.443.443,0,0,0-.044.337.448.448,0,0,0,.537.3Z" transform="translate(-183.981 -290.847)" fill="#1a1311" stroke="#000" stroke-width="0.5"/>
    </g>
    <g id="グループ_382" data-name="グループ 382" transform="translate(172.266 271.691)">
      <path id="パス_1414" data-name="パス 1414" d="M191.8,272.113c.007,4.484.369,8.959.39,13.444a.437.437,0,0,0,.873,0c-.02-4.484-.383-8.959-.39-13.444a.437.437,0,0,0-.873,0Z" transform="translate(-191.796 -271.691)" fill="#1a1311" stroke="#000" stroke-width="0.5"/>
    </g>
    <g id="グループ_383" data-name="グループ 383" transform="translate(172.655 285.065)">
      <path id="パス_1415" data-name="パス 1415" d="M192.906,291.759l.133-.02-.116.015a5.175,5.175,0,0,1,1.366.012l-.116-.015.059.008a.482.482,0,0,0,.337-.044.436.436,0,0,0,.156-.6.418.418,0,0,0-.261-.2,5.707,5.707,0,0,0-1.791,0,.438.438,0,0,0-.26.2.436.436,0,0,0,.493.641Z" transform="translate(-192.353 -290.847)" fill="#1a1311" stroke="#000" stroke-width="0.5"/>
    </g>
  </g>
</svg>
