<svg id="コンポーネント_14_4" data-name="コンポーネント 14 – 4" xmlns="http://www.w3.org/2000/svg" width="257" height="71" viewBox="0 0 257 71">
  <rect id="長方形_37" data-name="長方形 37" width="257" height="71" rx="35.5" fill="#fa7b99"/>
  <g id="グループ_181" data-name="グループ 181" transform="translate(35.296 20.141)">
    <g id="レイヤー_1" data-name="レイヤー 1" transform="translate(0 0.857)">
      <g id="グループ_179" data-name="グループ 179">
        <path id="パス_1165" data-name="パス 1165" d="M216.056,92.281c1.071.1,2.164.066,3.238.075q.918.008,1.835.01a6.948,6.948,0,0,0,.909-.01,1.068,1.068,0,0,0,1.041-1.041c-.022-.5-.462-1.116-1.041-1.04a7.2,7.2,0,0,1-.909.01q-.916,0-1.835-.01c-1.074-.011-2.167.019-3.238-.077a1.043,1.043,0,0,0-1.04,1.041,1.068,1.068,0,0,0,1.04,1.041Z" transform="translate(-214.608 -84.557)" fill="#fff"/>
        <path id="パス_1166" data-name="パス 1166" d="M217.8,87.073c-.023,7.775-.395,15.543-.406,23.318a1.042,1.042,0,0,0,2.082,0c.011-7.775.383-15.543.4-23.318a1.041,1.041,0,0,0-2.081,0Z" transform="translate(-213.738 -86.069)" fill="#fff"/>
        <path id="パス_1167" data-name="パス 1167" d="M218.811,91.408a37.6,37.6,0,0,1-3.95,7.659,1.041,1.041,0,0,0,1.8,1.051,39.73,39.73,0,0,0,4.16-8.156,1.048,1.048,0,0,0-.727-1.28,1.062,1.062,0,0,0-1.28.727Z" transform="translate(-214.717 -84.394)" fill="#fff"/>
        <path id="パス_1168" data-name="パス 1168" d="M217.728,92.705a23,23,0,0,0,1.3,2.7c.221.406.441.813.646,1.227q.158.32.3.648c-.1-.225.048.123.063.163.042.111.082.223.12.335a1.041,1.041,0,1,0,2.007-.553,17.855,17.855,0,0,0-1.253-2.712c-.221-.407-.445-.813-.657-1.225-.108-.212-.214-.425-.314-.642-.051-.108-.1-.216-.146-.325.1.224-.048-.126-.063-.164a1.064,1.064,0,0,0-1.28-.727,1.053,1.053,0,0,0-.727,1.28Z" transform="translate(-213.634 -84.124)" fill="#fff"/>
        <path id="パス_1169" data-name="パス 1169" d="M222.131,89.015c1.674.012,3.333.335,5.008.217l-1.041-1.04c.037,2.034-.082,4.077-.2,6.107-.055.93-.116,1.862-.19,2.791-.026.32-.052.639-.085.959-.014.122-.1.443,0,.037-.04.165-.09.2.074-.1l.373-.373h0c-1.115.734-.074,2.537,1.051,1.8.616-.406.572-1.172.63-1.828.083-.948.146-1.9.2-2.848.134-2.176.268-4.366.228-6.547a1.05,1.05,0,0,0-1.041-1.041c-1.675.116-3.335-.206-5.008-.219a1.042,1.042,0,0,0,0,2.082Z" transform="translate(-212.37 -85.752)" fill="#fff"/>
        <path id="パス_1170" data-name="パス 1170" d="M222.865,93.345a3.773,3.773,0,0,1,.456-.113c.082-.016.171-.02.251-.041-.019.005-.265.033-.12.016l.16-.016c.358-.034.717-.045,1.075-.048.585,0,1.168.036,1.753.037a1.04,1.04,0,1,0,0-2.081c-.6,0-1.2-.041-1.807-.037a7.948,7.948,0,0,0-2.321.276,1.041,1.041,0,0,0,.553,2.007Z" transform="translate(-212.219 -84.24)" fill="#fff"/>
        <path id="パス_1171" data-name="パス 1171" d="M222.438,96.732h3.853a1.041,1.041,0,0,0,0-2.082h-3.853a1.041,1.041,0,0,0,0,2.082Z" transform="translate(-212.271 -82.926)" fill="#fff"/>
        <path id="パス_1172" data-name="パス 1172" d="M221.1,88.557c0,5.678.2,11.354.2,17.032a1.041,1.041,0,0,0,2.081,0c0-5.678-.2-11.354-.2-17.032a1.042,1.042,0,0,0-2.082,0Z" transform="translate(-212.38 -85.525)" fill="#fff"/>
        <path id="パス_1173" data-name="パス 1173" d="M222.271,104.215a8.214,8.214,0,0,0,3.152-1.993,13.826,13.826,0,0,0,2.336-2.742,1.05,1.05,0,0,0-.373-1.425,1.064,1.064,0,0,0-1.424.374c-.126.2-.26.392-.4.579l-.049.068c.1-.145-.036.041-.057.07-.083.1-.168.2-.254.3a14.583,14.583,0,0,1-1.2,1.25c-.209.194-.425.383-.648.563-.053.044-.112.085-.164.131.212-.184.036-.03-.01,0q-.164.121-.332.234a6.681,6.681,0,0,1-.653.388c-.061.031-.124.06-.187.092-.206.1.135-.046.04-.015-.112.034-.219.079-.332.111a1.041,1.041,0,1,0,.553,2.007Z" transform="translate(-212.436 -81.728)" fill="#fff"/>
        <path id="パス_1174" data-name="パス 1174" d="M224.668,98.208c.036.041.152.189.02.019s-.011-.01.018.034c.061.093.117.19.171.287.116.216.216.439.311.664l-.105-.249c.25.6.46,1.209.723,1.8a1.7,1.7,0,0,0,1.422,1.2,1.048,1.048,0,0,0,1.041-1.041,1.065,1.065,0,0,0-1.041-1.041H227.2l.276.037a.234.234,0,0,1-.041-.012l.249.105c-.051-.023-.133-.092.037.041s.085.064.045.025c-.127-.126.137.2.087.117-.019-.031-.041-.061-.06-.094a3.9,3.9,0,0,1-.239-.493l.1.249a10.627,10.627,0,0,0-1.519-3.115,1.048,1.048,0,0,0-1.471,0,1.066,1.066,0,0,0,0,1.473Z" transform="translate(-211.182 -82.273)" fill="#fff"/>
        <path id="パス_1175" data-name="パス 1175" d="M227.929,89.311c2.391,0,4.783,0,7.172.026a1.041,1.041,0,0,0,0-2.082c-2.389-.023-4.782-.025-7.172-.025a1.04,1.04,0,0,0,0,2.081Z" transform="translate(-210.26 -85.643)" fill="#fff"/>
        <path id="パス_1176" data-name="パス 1176" d="M229.772,89.6l0,0-1.012.268h0l-.622-.478c-.053-.072-.117-.638-.124-.373,0,.087,0,.176,0,.264,0,.3-.011.59-.019.887-.026.868-.062,1.735-.094,2.6-.072,1.883-.163,3.767-.165,5.65a1.041,1.041,0,0,0,2.081,0c0-2.126.113-4.253.194-6.376.033-.859.07-1.719.083-2.578,0-.189.008-.378-.007-.568a1.062,1.062,0,0,0-1.792-.768c-.988.91.488,2.379,1.471,1.471Z" transform="translate(-209.948 -85.426)" fill="#fff"/>
        <path id="パス_1177" data-name="パス 1177" d="M227.19,94.8a2.176,2.176,0,0,0-.3.038,1.059,1.059,0,0,0-.727,1.28h0a1.021,1.021,0,0,0,.728.727,6.026,6.026,0,0,0,1.018.04l1.868-.008c1.421-.007,2.842-.016,4.262-.015.24,0,.482,0,.724,0,.074,0,.149.005.224.005.161,0,.141.077-.169-.03l-.622-.478h0l.373-1.424h0a1.065,1.065,0,0,0-.373,1.424,1.05,1.05,0,0,0,1.424.373h0A1.058,1.058,0,0,0,236,95.318c-.37-.563-.939-.526-1.518-.53-.611,0-1.22,0-1.831,0-1.46,0-2.921.014-4.381.019l-.757,0c-.165,0-.609-.06-.063.034l.727.727h0l-.727,1.28c-.37.078-.355.042-.257.036a1.063,1.063,0,0,0,1.041-1.04A1.051,1.051,0,0,0,227.19,94.8Z" transform="translate(-210.535 -82.877)" fill="#fff"/>
        <path id="パス_1178" data-name="パス 1178" d="M233.327,88.557a28.4,28.4,0,0,1-.626,6.4,42.293,42.293,0,0,1-1.564,4.917c-1.153,3.138-2.671,7.4-5.81,9.078-1.182.631-.133,2.428,1.051,1.8,3.511-1.873,5.253-6.3,6.578-9.817a44.47,44.47,0,0,0,1.723-5.293,30.794,30.794,0,0,0,.731-7.078,1.042,1.042,0,0,0-2.082,0Z" transform="translate(-211.022 -85.525)" fill="#fff"/>
        <path id="パス_1179" data-name="パス 1179" d="M229.563,97.462c-.033,1.542.021,3.083.081,4.624a10.665,10.665,0,0,0,.462,3.993c.885,1.925,3.251,1.225,4.883,1.066a1.079,1.079,0,0,0,1.041-1.041c.183-1.873.575-3.72.684-5.6a1.041,1.041,0,0,0-2.082,0c-.109,1.881-.5,3.728-.684,5.6l1.041-1.04c-.825.081-1.653.258-2.484.268-.1,0-.194-.011-.29-.007-.2.01.2.067.012,0a1.18,1.18,0,0,0-.182-.046c-.2-.026.194.094.03.012-.247-.124.108.1-.027-.011-.075-.061-.112-.2,0,.02-.029-.056-.07-.123-.1-.176-.09-.141.033.172-.021-.075a6.1,6.1,0,0,1-.139-1.3c-.025-.691-.053-1.381-.079-2.071-.053-1.407-.1-2.814-.066-4.221a1.041,1.041,0,0,0-2.081,0Z" transform="translate(-209.285 -82.264)" fill="#fff"/>
        <path id="パス_1180" data-name="パス 1180" d="M236,88.6c.38.88,2.339.582,3.052.577,1.954-.014,3.909-.063,5.861-.127,4.455-.145,8.9-.187,13.358-.187a1.041,1.041,0,0,0,0-2.081h-.184a1.041,1.041,0,0,0,0,2.081h.184a1.041,1.041,0,0,0,0-2.081c-4.2,0-8.394.01-12.592.161q-2.73.1-5.459.139c-.715.011-1.429.019-2.144.015-.257,0-.515-.01-.772-.014-.22,0-.377-.1-.126,0l.623.478,0-.01c-.529-1.227-2.321-.168-1.8,1.051Z" transform="translate(-206.96 -85.806)" fill="#fff"/>
        <path id="パス_1181" data-name="パス 1181" d="M237.3,91.09c-.06,1.766.026,3.534-.1,5.3a1.045,1.045,0,0,0,1.041,1.04,1.066,1.066,0,0,0,1.041-1.04c.127-1.764.04-3.532.1-5.3a1.048,1.048,0,0,0-1.041-1.04,1.062,1.062,0,0,0-1.041,1.04Z" transform="translate(-206.484 -84.611)" fill="#fff"/>
        <path id="パス_1182" data-name="パス 1182" d="M238.4,92.18c5.782-.4,11.638-.214,17.43-.169l-1.04-1.041q-.045,1.344-.082,2.69a11.369,11.369,0,0,0,0,2.85c.317,1.3,2.325.75,2.007-.553.108.441.022.123.027-.046.008-.21.005-.422.01-.633.011-.6.027-1.194.044-1.791q.035-1.258.077-2.516a1.054,1.054,0,0,0-1.041-1.041c-5.791-.044-11.648-.23-17.43.169-1.329.092-1.339,2.174,0,2.082Z" transform="translate(-206.412 -84.685)" fill="#fff"/>
        <path id="パス_1183" data-name="パス 1183" d="M241.583,88.716a64.353,64.353,0,0,1,.609,8.313,1.041,1.041,0,0,0,2.081,0,64.357,64.357,0,0,0-.608-8.313,1.076,1.076,0,0,0-1.041-1.041,1.047,1.047,0,0,0-1.041,1.041Z" transform="translate(-204.882 -85.48)" fill="#fff"/>
        <path id="パス_1184" data-name="パス 1184" d="M245.693,88.112a48.908,48.908,0,0,1-.367,9.253,1.067,1.067,0,0,0,.727,1.28,1.049,1.049,0,0,0,1.28-.727,51.582,51.582,0,0,0,.443-9.806,1.042,1.042,0,0,0-2.082,0Z" transform="translate(-203.518 -85.688)" fill="#fff"/>
        <path id="パス_1185" data-name="パス 1185" d="M237.725,94.522a1.065,1.065,0,0,0,.555,1.773,5.723,5.723,0,0,0,1.145.092c1.317.052,2.638.063,3.956.078,3.383.04,6.767.049,10.149.048a15.385,15.385,0,0,0,2.644-.048c1.317-.236.76-2.242-.553-2.007.551-.1-.046-.031-.239-.03l-1.216,0q-1.988,0-3.978,0c-3.075-.01-6.153-.018-9.228-.081-.552-.011-1.105-.023-1.657-.046-.175-.007-.35-.023-.525-.027a.928.928,0,0,0-.172-.016,1.01,1.01,0,0,1,.855.73L239.193,96l0,0c.846-1.026-.619-2.507-1.471-1.473Z" transform="translate(-206.397 -83.102)" fill="#fff"/>
        <path id="パス_1186" data-name="パス 1186" d="M244.144,95.169c-1.2,2.38-3.171,4.217-4.592,6.452a1.051,1.051,0,0,0,.622,1.529c2.765.884,5.492,1.887,8.246,2.8a42.771,42.771,0,0,0,8.381,2.338c1.328.153,1.317-1.929,0-2.081-.178-.021.134.026-.134-.022-.124-.022-.249-.045-.373-.071-.249-.051-.5-.108-.742-.168-.661-.163-1.317-.347-1.969-.54-1.612-.474-3.211-1-4.8-1.527-2.69-.9-5.354-1.876-8.054-2.739l.622,1.529c1.421-2.236,3.391-4.07,4.592-6.452.6-1.194-1.194-2.249-1.8-1.051Z" transform="translate(-205.678 -82.929)" fill="#fff"/>
        <path id="パス_1187" data-name="パス 1187" d="M251.953,97.538c-2.347,5.426-7.845,7.909-13.5,8.2-1.333.07-1.342,2.15,0,2.081,6.316-.329,12.659-3.142,15.293-9.234a1.075,1.075,0,0,0-.373-1.424,1.046,1.046,0,0,0-1.424.373Z" transform="translate(-206.392 -82.055)" fill="#fff"/>
        <path id="パス_1188" data-name="パス 1188" d="M236.23,98.457q10.006.023,20.012.067c1.1,0,2.2.01,3.306.01a1.042,1.042,0,0,0,0-2.082c-6.836,0-13.673-.042-20.509-.066q-1.4-.006-2.809-.01a1.041,1.041,0,0,0,0,2.081Z" transform="translate(-207.208 -82.294)" fill="#fff"/>
      </g>
      <g id="グループ_180" data-name="グループ 180" transform="translate(56.2 2.075)">
        <path id="パス_1189" data-name="パス 1189" d="M256.946,92.389a26.677,26.677,0,0,1,4.678-.178c.485-.015.969-.008,1.454-.01-.486.835-.982,1.663-1.518,2.469-1.3,1.965-2.877,3.742-4.057,5.79a.591.591,0,0,0,1.021.6,10.4,10.4,0,0,1,3.377-3.078c1.266-.754,3.067-1.53,4.506-.783a4.517,4.517,0,0,1,1.94,2.756c-.593.316-1.186.633-1.745,1-2.031,1.318-4.346,3.5-4.287,6.141.085,3.78,5.605,3.8,8.241,3.664a24.238,24.238,0,0,0,5.51-.828.591.591,0,0,0-.314-1.138,21.69,21.69,0,0,1-4.1.708,18.754,18.754,0,0,1-5.13-.108c-1.1-.208-2.626-.619-2.963-1.854a3.168,3.168,0,0,1,.335-2.074A8.078,8.078,0,0,1,266.7,102.3a20.556,20.556,0,0,1,1.958-1.206,14.2,14.2,0,0,1,.332,4.3c-.06.758,1.122.754,1.182,0a15.013,15.013,0,0,0-.439-4.855,33.445,33.445,0,0,1,6.861-2.354c.739-.174.426-1.313-.314-1.138a34.452,34.452,0,0,0-6.873,2.363,5.4,5.4,0,0,0-2.725-3.391c-1.675-.7-3.581-.067-5.084.766-.059.033-.115.075-.175.109.4-.537.79-1.078,1.16-1.634.66-.995,1.266-2.022,1.862-3.057.717.019,1.436.045,2.154.093,2.967.2,5.943.239,8.914.24a.591.591,0,0,0,0-1.182c-3.077,0-6.152-.057-9.223-.262-.395-.026-.791-.029-1.186-.044.426-.747.853-1.495,1.3-2.232a.592.592,0,0,0-1.021-.6c-.549.918-1.077,1.851-1.607,2.782q-1.252-.012-2.506.037a26.7,26.7,0,0,0-4.631.206C255.89,91.412,256.2,92.55,256.946,92.389Z" transform="translate(-255.725 -87.457)" fill="#fff"/>
        <path id="パス_1190" data-name="パス 1190" d="M269.312,111.4c-2.971,0-5.068-.551-6.243-1.642a3.433,3.433,0,0,1-1.109-2.532c-.07-3.116,2.794-5.446,4.507-6.558.449-.292.9-.546,1.415-.822a3.642,3.642,0,0,0-1.568-2.094c-.975-.507-2.332-.247-4.038.769a10.048,10.048,0,0,0-3.219,2.929,1.074,1.074,0,0,1-1.485.324,1.028,1.028,0,0,1-.359-1.428,35.751,35.751,0,0,1,2.41-3.5c.56-.75,1.141-1.525,1.664-2.312.385-.579.747-1.168,1.074-1.717-.2,0-.395,0-.592.01-.486.018-.993.007-1.507,0a13.831,13.831,0,0,0-3.082.169h0a1.047,1.047,0,0,1-1.025-.32,1.148,1.148,0,0,1-.251-1.1.985.985,0,0,1,.757-.667,14.683,14.683,0,0,1,3.279-.21c.485.005.967.011,1.437-.007.747-.029,1.489-.049,2.243-.04l.1-.168c.454-.8.906-1.59,1.376-2.376a1.049,1.049,0,0,1,1.474-.354,1.035,1.035,0,0,1,.377,1.448c-.3.505-.6,1.014-.891,1.525q.2.008.4.02c2.656.176,5.578.26,9.192.261a1.075,1.075,0,0,1,0,2.15c-2.671,0-5.823-.033-8.947-.242-.616-.042-1.231-.067-1.847-.085-.505.876-1.1,1.872-1.734,2.833l-.086.13a4.871,4.871,0,0,1,6.773,3.093,35.435,35.435,0,0,1,6.5-2.176,1.065,1.065,0,0,1,1.3.824,1.018,1.018,0,0,1-.765,1.257,33.48,33.48,0,0,0-6.409,2.152,15.433,15.433,0,0,1,.358,4.626,1.064,1.064,0,0,1-.616.9,1.143,1.143,0,0,1-1.119-.072.972.972,0,0,1-.411-.9,13.475,13.475,0,0,0-.189-3.517c-.49.286-.933.567-1.342.855a7.6,7.6,0,0,0-2.644,2.959,2.645,2.645,0,0,0-.307,1.746c.262.96,1.6,1.32,2.586,1.507a18.561,18.561,0,0,0,5,.1,20.933,20.933,0,0,0,4.007-.691,1,1,0,0,1,1,.234,1.149,1.149,0,0,1,.313,1.085,1.028,1.028,0,0,1-.732.751,24.33,24.33,0,0,1-5.62.846C270.223,111.39,269.759,111.4,269.312,111.4ZM265.23,96.535a3.275,3.275,0,0,1,1.529.359,4.856,4.856,0,0,1,2.176,3.036l.126.387-.358.19c-.65.346-1.189.638-1.709.975-1.544,1-4.126,3.078-4.067,5.724a2.472,2.472,0,0,0,.8,1.844c1.152,1.071,3.485,1.522,6.932,1.347a23.31,23.31,0,0,0,5.4-.809c.077-.1.056-.175.022-.206a23.908,23.908,0,0,1-4.256.723,19.367,19.367,0,0,1-5.264-.113c-.79-.15-2.888-.548-3.34-2.2a3.535,3.535,0,0,1,.362-2.4,8.536,8.536,0,0,1,2.966-3.35,21.024,21.024,0,0,1,2.006-1.235l.559-.306.145.623a14.58,14.58,0,0,1,.343,4.45c.014.042.082.056.146.027a.11.11,0,0,0,.071-.105,14.555,14.555,0,0,0-.425-4.7l-.1-.384.357-.172a33.815,33.815,0,0,1,6.961-2.388c.052-.03.056-.1.015-.158a30.671,30.671,0,0,0-6.885,2.291l-.484.23-.18-.505a4.865,4.865,0,0,0-2.454-3.107c-1.567-.653-3.4.044-4.663.745l-.169.107L259.8,98.58l1.362-1.839c.392-.53.779-1.064,1.145-1.615.684-1.03,1.317-2.109,1.846-3.029l.142-.25.288.007c.725.019,1.451.045,2.176.094,3.1.208,6.227.238,8.881.239.037,0,.086,0,.086-.108s-.049-.105-.086-.105c-3.635,0-6.577-.086-9.256-.264-.249-.016-.5-.023-.749-.03l-1.219-.044.393-.693c.428-.751.857-1.5,1.3-2.242.021-.034.041-.07-.044-.12s-.13-.007-.146.022c-.466.777-.915,1.567-1.365,2.357l-.377.661-.284,0c-.829-.012-1.654.005-2.484.037-.488.018-.985.014-1.484.007a14.1,14.1,0,0,0-3.063.19c-.048.027-.046.1,0,.156l.213.51-.1-.473a14.325,14.325,0,0,1,3.306-.191c.495.01.986.019,1.459,0,.357-.011.71-.008,1.068-.01l1.243,0-.425.73c-.436.746-.956,1.626-1.531,2.493-.538.81-1.128,1.6-1.7,2.357a34.894,34.894,0,0,0-2.344,3.406c-.025.044-.045.077.029.122a.106.106,0,0,0,.167-.033,10.994,10.994,0,0,1,3.533-3.227A6.964,6.964,0,0,1,265.23,96.535Z" transform="translate(-255.854 -87.587)" fill="#fff"/>
      </g>
    </g>
    <g id="レイヤー_2" data-name="レイヤー 2" transform="translate(81.68)">
      <path id="パス_1191" data-name="パス 1191" d="M318.992,92c7.331,0,14.662-.145,21.993-.149a1.041,1.041,0,0,0,0-2.081c-7.331,0-14.662.145-21.993.148a1.042,1.042,0,0,0,0,2.082Z" transform="translate(-258.583 -83.855)" fill="#fff"/>
      <path id="パス_1192" data-name="パス 1192" d="M330.207,87.563c-.078,2.758.458,5.517.54,8.275.068,2.261.175,5.926-2.154,7.211a3,3,0,0,1-4.536-3.329,2.814,2.814,0,0,1,2.786-2.287,3.375,3.375,0,0,1,3.461,2.705,7.255,7.255,0,0,1-.749,5.995c-1.787,2.627-4.764,2.855-7.608,3.482-1.307.288-.754,2.3.553,2.007,3.015-.664,6.01-1.026,8.148-3.511a8.929,8.929,0,0,0,1.94-7.133,6.405,6.405,0,0,0-3.06-5.059,5.524,5.524,0,0,0-5.991.665c-2.679,2.4-2,7.608,1.575,8.768a5.831,5.831,0,0,0,5.17-.943A6.966,6.966,0,0,0,332.589,100c.717-4.168-.418-8.275-.3-12.439a1.041,1.041,0,0,0-2.081,0Z" transform="translate(-257.407 -85.032)" fill="#fff"/>
      <path id="パス_1193" data-name="パス 1193" d="M340.51,90.508c4.064-1.079,8.372-.627,12.528-.712l-.735-1.776c-2.761,2.266-5.165,4.924-7.909,7.209-2.769,2.307-5.293,4.877-7.849,7.413a1.042,1.042,0,0,0,1.473,1.473c2.555-2.537,5.078-5.105,7.847-7.413,2.743-2.287,5.148-4.944,7.909-7.211a1.05,1.05,0,0,0-.736-1.776c-4.35.087-8.825-.344-13.081.786a1.042,1.042,0,0,0,.553,2.007Z" transform="translate(-251.9 -84.613)" fill="#fff"/>
      <path id="パス_1194" data-name="パス 1194" d="M341.37,97.762c2.365-2.246,6.446-2.7,9.5-1.978a6.439,6.439,0,0,1,3.946,2.379,4.768,4.768,0,0,1,.612,3.993c-.779,2.581-3.719,4.064-6.239,4.663a11.254,11.254,0,0,1-3.918.251,7.3,7.3,0,0,1-.921-.194,5.808,5.808,0,0,1-.679-.236,2.6,2.6,0,0,1-1.138-.837c.111.134-.12-.191-.158-.257-.111-.19-.049-.068-.093-.189a1.565,1.565,0,0,1-.145-.8c.094-.873.929-1.176,1.717-1.281a4.41,4.41,0,0,1,4.889,3.937c.142,1.317,2.224,1.332,2.081,0a6.615,6.615,0,0,0-5.278-5.962c-2.238-.331-5.308.417-5.482,3.133-.236,3.679,3.883,4.935,6.832,4.832,3.564-.123,7.548-1.594,9.637-4.627a6.876,6.876,0,0,0-2.812-9.98c-4.156-2.068-10.38-1.589-13.824,1.683-.974.925.5,2.395,1.471,1.471Z" transform="translate(-250.677 -82.541)" fill="#fff"/>
      <path id="パス_1195" data-name="パス 1195" d="M275.955,88.769h7.933a1.042,1.042,0,0,0,0-2.082h-7.933a1.042,1.042,0,0,0,0,2.082Z" transform="translate(-274.342 -84.985)" fill="#fff"/>
      <path id="パス_1196" data-name="パス 1196" d="M279.093,87.937a29.759,29.759,0,0,1-1.668,6.9,15.16,15.16,0,0,1-2.646,5.525c-.884,1,.582,2.478,1.471,1.473a17.17,17.17,0,0,0,3.119-6.25,32.658,32.658,0,0,0,1.806-7.642c.1-1.336-1.982-1.329-2.082,0Z" transform="translate(-274.505 -84.894)" fill="#fff"/>
      <path id="パス_1197" data-name="パス 1197" d="M276.619,94.407c-.008,3.8-.585,7.661-.1,11.449a1.074,1.074,0,0,0,1.04,1.041,1.047,1.047,0,0,0,1.041-1.041c-.484-3.787.092-7.649.1-11.449a1.042,1.042,0,0,0-2.082,0Z" transform="translate(-273.838 -82.527)" fill="#fff"/>
      <path id="パス_1198" data-name="パス 1198" d="M277.938,95.411c1.473,0,2.947-.053,4.42-.1l-1.041-1.041q.025,2.5-.012,5.01c-.018,1.269-.044,2.54-.111,3.808-.026.5-.057,1.01-.111,1.512-.01.1-.022.2-.034.3.04-.318,0-.016-.01.051-.026.13-.049.26-.087.388a1.042,1.042,0,0,0,2.007.553,9.27,9.27,0,0,0,.264-1.951c.067-.918.1-1.839.126-2.76.052-1.88.063-3.76.057-5.641,0-.424,0-.848-.008-1.273a1.053,1.053,0,0,0-1.04-1.041c-1.473.048-2.947.1-4.42.1a1.041,1.041,0,0,0,0,2.081Z" transform="translate(-273.616 -82.59)" fill="#fff"/>
      <path id="パス_1199" data-name="パス 1199" d="M277.6,103.687a5.709,5.709,0,0,0,2.307.063l.594-.083c.275-.04-.179.019.038-.007l.245-.027a4.889,4.889,0,0,1,1.01-.01,1.029,1.029,0,0,0,.735-.3,1.055,1.055,0,0,0,.3-.735,1.069,1.069,0,0,0-1.04-1.041,8.683,8.683,0,0,0-2.126.157c-.276.04.178-.02-.04.005-.07.008-.141.018-.21.025-.163.018-.327.03-.49.034s-.326-.005-.49-.016c-.24-.015.232.053,0,0-.093-.022-.187-.041-.28-.066a1.041,1.041,0,1,0-.553,2.007Z" transform="translate(-273.65 -79.554)" fill="#fff"/>
      <path id="パス_1200" data-name="パス 1200" d="M282.227,88.978c.044.872-.1,1.739-.1,2.611a1.04,1.04,0,0,0,2.081,0c0-.872.145-1.739.1-2.611a1.1,1.1,0,0,0-.3-.736,1.042,1.042,0,0,0-1.473,0,1.044,1.044,0,0,0-.3.736Z" transform="translate(-271.714 -84.528)" fill="#fff"/>
      <path id="パス_1201" data-name="パス 1201" d="M284.063,90.138c.13-.064-.246.067-.081.036.055-.011.107-.036.161-.048.161-.036.321-.068.484-.1.2-.033-.152.016.063-.008.094-.01.189-.02.281-.029.246-.023.492-.041.738-.056,1.142-.068,2.288-.078,3.432-.075,2.268.005,4.536.077,6.8.165a6.747,6.747,0,0,0,1.732.015c1.3-.307.751-2.316-.553-2.007.46-.109.124-.04-.105-.048l-.981-.038c-1.021-.04-2.041-.077-3.062-.105-2.417-.067-4.849-.134-7.264.011a7,7,0,0,0-2.7.486c-1.2.6-.146,2.394,1.049,1.8Z" transform="translate(-271.583 -84.589)" fill="#fff"/>
      <path id="パス_1202" data-name="パス 1202" d="M292.921,89.255c.03.124.053.249.071.374l-.037-.276a6.26,6.26,0,0,1-.036,1.63l.038-.276c-.038.271-.085.538-.137.806a1.106,1.106,0,0,0,.105.8,1.042,1.042,0,0,0,1.424.374,1.037,1.037,0,0,0,.478-.623,7.88,7.88,0,0,0,.1-3.365,1.049,1.049,0,0,0-1.28-.727,1.063,1.063,0,0,0-.727,1.28Z" transform="translate(-267.809 -84.529)" fill="#fff"/>
      <path id="パス_1203" data-name="パス 1203" d="M288.695,86.2a26.615,26.615,0,0,1-2.547,7.618c-.885,1.813-2.018,3.947-3.8,5.017a1.041,1.041,0,0,0,1.051,1.8c2.062-1.234,3.43-3.507,4.474-5.6a28.443,28.443,0,0,0,2.833-8.274,1.074,1.074,0,0,0-.727-1.28,1.047,1.047,0,0,0-1.28.727Z" transform="translate(-271.817 -85.442)" fill="#fff"/>
      <path id="パス_1204" data-name="パス 1204" d="M283.631,95.142c0,2.314-.049,4.63-.078,6.944-.014,1.2-.029,2.394-.037,3.592a13.089,13.089,0,0,0,.052,1.991,1.048,1.048,0,0,0,1.28.727,1.069,1.069,0,0,0,.727-1.28c.083.567.022-.193.02-.348q0-.6,0-1.19c.008-1.21.023-2.421.038-3.63.029-2.268.074-4.537.075-6.8a1.041,1.041,0,0,0-2.081,0Z" transform="translate(-271.21 -82.257)" fill="#fff"/>
      <path id="パス_1205" data-name="パス 1205" d="M289.829,90.585a20.3,20.3,0,0,1-1.607,2.712,1.04,1.04,0,1,0,1.8,1.049,20.358,20.358,0,0,0,1.608-2.71,1.128,1.128,0,0,0,.1-.8,1.055,1.055,0,0,0-.478-.622,1.043,1.043,0,0,0-.8-.105,1.016,1.016,0,0,0-.622.478Z" transform="translate(-269.533 -83.748)" fill="#fff"/>
      <path id="パス_1206" data-name="パス 1206" d="M285.289,94.649c3.709,0,7.418.122,11.126.124a1.041,1.041,0,0,0,0-2.081c-3.708,0-7.417-.123-11.126-.124a1.041,1.041,0,0,0,0,2.081Z" transform="translate(-270.924 -82.832)" fill="#fff"/>
      <path id="パス_1207" data-name="パス 1207" d="M288.309,93.6c.184,4.514-.292,9.041-.3,13.557a1.042,1.042,0,0,0,2.082,0c.01-4.515.486-9.043.3-13.557-.055-1.335-2.137-1.342-2.082,0Z" transform="translate(-269.561 -82.822)" fill="#fff"/>
      <path id="パス_1208" data-name="パス 1208" d="M285.492,97.977a4.128,4.128,0,0,1,.4-.093c.24-.045-.247.025.016,0,.083-.008.165-.018.247-.025.432-.036.865-.048,1.3-.052,1.108-.012,2.216.026,3.324.071,1.788.072,3.618.29,5.407.19,1.332-.074,1.342-2.154,0-2.081-1.833.1-3.708-.123-5.54-.2-1.1-.044-2.2-.081-3.3-.064a8.685,8.685,0,0,0-2.407.245c-1.275.4-.731,2.407.553,2.007Z" transform="translate(-270.95 -81.677)" fill="#fff"/>
      <path id="パス_1209" data-name="パス 1209" d="M284.776,101.513c3.95,0,7.9-.1,11.85-.1a1.041,1.041,0,0,0,0-2.081c-3.951,0-7.9.1-11.85.1a1.042,1.042,0,0,0,0,2.082Z" transform="translate(-271.112 -80.356)" fill="#fff"/>
      <path id="パス_1210" data-name="パス 1210" d="M284.7,105.206c2.451-.01,4.875-.242,7.325-.072,1.175.081,2.346.046,3.522.063.786.011,2.206.41,2.409-.754a1.07,1.07,0,0,0-.727-1.28,1.049,1.049,0,0,0-1.28.727l-.008.048.478-.622-.055.027.526-.142a5.679,5.679,0,0,1-1-.075c-.541-.037-1.087,0-1.628,0-1.03,0-2.048-.075-3.075-.133-2.164-.122-4.327.124-6.491.134a1.041,1.041,0,0,0,0,2.081Z" transform="translate(-271.139 -79.028)" fill="#fff"/>
      <path id="パス_1211" data-name="パス 1211" d="M299.324,88.471a1.569,1.569,0,0,1,.173-.051c.119-.027.355-.014-.022-.005.173,0,.346-.029.518-.031a11.148,11.148,0,0,1,1.281.059c.115.011.228.023.343.037l.141.018c.115.014-.284-.042-.053-.007.2.031.407.063.608.1.183.036.365.077.545.127.074.02.149.044.223.068l.081.03c.178.057-.256-.113-.12-.051a1.064,1.064,0,0,0,1.424-.374,1.053,1.053,0,0,0-.373-1.424,8.629,8.629,0,0,0-2.76-.605,11.358,11.358,0,0,0-1.363-.063,3.767,3.767,0,0,0-1.2.161,1.063,1.063,0,0,0-.727,1.28,1.052,1.052,0,0,0,1.28.727Z" transform="translate(-265.902 -85.127)" fill="#fff"/>
      <path id="パス_1212" data-name="パス 1212" d="M297.134,91.416c1.5.105,3.016.083,4.521.1a40.292,40.292,0,0,1,4.163.119,1.048,1.048,0,0,0,1.041-1.041,1.067,1.067,0,0,0-1.041-1.041,40.669,40.669,0,0,0-4.163-.117c-1.5-.022-3.019,0-4.521-.105a1.041,1.041,0,0,0,0,2.082Z" transform="translate(-266.6 -84.017)" fill="#fff"/>
      <path id="パス_1213" data-name="パス 1213" d="M298.237,94.55c.934,0,1.865-.112,2.8-.154a12.671,12.671,0,0,1,1.4,0c.115.007.229.02.344.03.146.012-.2-.037-.056-.008.059.014.117.02.176.031a3.381,3.381,0,0,1,.579.165,1.045,1.045,0,0,0,1.28-.727,1.067,1.067,0,0,0-.727-1.28,7.367,7.367,0,0,0-2.915-.3c-.962.04-1.921.154-2.884.158a1.04,1.04,0,1,0,0,2.081Z" transform="translate(-266.196 -82.934)" fill="#fff"/>
      <path id="パス_1214" data-name="パス 1214" d="M298.016,97.543c2.176-.008,4.353-.085,6.528-.1a1.041,1.041,0,0,0,0-2.082c-2.175.015-4.351.093-6.528.1a1.04,1.04,0,0,0,0,2.081Z" transform="translate(-266.277 -81.809)" fill="#fff"/>
      <path id="パス_1215" data-name="パス 1215" d="M298.751,100.329c1.081,0,2.167.033,3.246-.019.372-.018.742-.04,1.113-.04.158,0,.314.011.471.016s-.2-.051-.131-.019a.76.76,0,0,1,.143.036c-.287-.019-.56-.428-.624-.638a1.041,1.041,0,1,0,2.007-.553c-.335-1.119-1.781-.94-2.689-.9-1.178.056-2.358.033-3.537.033a1.041,1.041,0,0,0,0,2.082Z" transform="translate(-266.008 -80.778)" fill="#fff"/>
      <path id="パス_1216" data-name="パス 1216" d="M301.754,99.269c0,2.176.1,4.351.1,6.528a1.041,1.041,0,0,0,2.082,0c0-2.176-.1-4.351-.1-6.528a1.04,1.04,0,1,0-2.081,0Z" transform="translate(-264.527 -80.76)" fill="#fff"/>
      <path id="パス_1217" data-name="パス 1217" d="M297.594,99.063a37.127,37.127,0,0,0-.251,6.928,1.068,1.068,0,0,0,1.041,1.041c.825.085,1.656.135,2.485.161.674.021,1.348.025,2.022-.02a6.392,6.392,0,0,0,1.809-.3,1.041,1.041,0,1,0-.553-2.007,4.048,4.048,0,0,1-.706.176c-.173.03-.108-.044.016,0a.645.645,0,0,0-.206.022c-.157.016-.314.027-.471.037-.661.038-1.325.033-1.986.011-.8-.027-1.609-.076-2.409-.158l1.04,1.04c0-1.087-.03-2.175-.022-3.264,0-.583.018-1.167.052-1.75.016-.261.036-.522.063-.783.008-.074.063-.44.02-.19.022-.13.041-.26.064-.388a1.041,1.041,0,0,0-2.007-.553Z" transform="translate(-266.156 -80.73)" fill="#fff"/>
      <path id="パス_1218" data-name="パス 1218" d="M305.137,88.554c4.413-.128,8.842.3,13.256.3a1.042,1.042,0,0,0,0-2.082c-4.414-.005-8.843-.429-13.256-.3-1.336.038-1.343,2.12,0,2.081Z" transform="translate(-263.656 -85.073)" fill="#fff"/>
      <path id="パス_1219" data-name="パス 1219" d="M315.071,88.078a3.584,3.584,0,0,1,.056,1.553c-.063.619-.109,1.242-.193,1.858-.156,1.159-.471,2.272-.713,3.411a10.555,10.555,0,0,1-.336,1.312,2.146,2.146,0,0,1-.215.426c.077-.134-.115.077.033-.014-.225.138.178-.027-.087.044a4.271,4.271,0,0,1-1.18.037,8.62,8.62,0,0,1-1.2-.167,1.068,1.068,0,0,0-1.281.727,1.051,1.051,0,0,0,.728,1.28,7.859,7.859,0,0,0,3.492.13c1.239-.344,1.7-1.62,1.958-2.751.3-1.32.641-2.633.828-3.977.1-.745.168-1.492.245-2.241a5.024,5.024,0,0,0-.12-2.182,1.067,1.067,0,0,0-1.28-.727,1.051,1.051,0,0,0-.728,1.28Z" transform="translate(-261.538 -84.959)" fill="#fff"/>
      <path id="パス_1220" data-name="パス 1220" d="M310.061,87.523a21.8,21.8,0,0,1-1.816,5.8,10.64,10.64,0,0,1-3.631,4.629c-1.137.7-.093,2.5,1.051,1.8a12.326,12.326,0,0,0,4.309-5.234,23.549,23.549,0,0,0,2.094-6.435,1.071,1.071,0,0,0-.727-1.28,1.05,1.05,0,0,0-1.28.727Z" transform="translate(-263.659 -84.957)" fill="#fff"/>
      <path id="パス_1221" data-name="パス 1221" d="M306.176,91.342a13.219,13.219,0,0,1,3.661,1.335c.529.231,1.056.467,1.56.747.122.068.243.139.362.214.055.036.111.071.165.109.01.007.2.154.074.051s.031.029.056.052.074.075.113.112c.161.152-.052-.045-.037-.055a1.475,1.475,0,0,1,.075.133,1.052,1.052,0,0,0,1.425.374A1.064,1.064,0,0,0,314,92.991a3.336,3.336,0,0,0-1.37-1.257,27.975,27.975,0,0,0-6.458-2.473,1.045,1.045,0,0,0-1.041,1.041,1.069,1.069,0,0,0,1.041,1.04Z" transform="translate(-263.289 -84.044)" fill="#fff"/>
      <path id="パス_1222" data-name="パス 1222" d="M305.085,98.917c-.253.736-.451,1.493-.653,2.245-.235.87-.478,1.749-.628,2.639a1.648,1.648,0,0,0,.245,1.551,1.04,1.04,0,1,0,1.471-1.471.9.9,0,0,1,.281.669c0-.022,0-.046,0-.07.007-.067.014-.135.018-.2,0,.029-.051.328-.019.148.01-.049.016-.1.026-.146.02-.113.042-.225.066-.337.113-.541.247-1.078.387-1.612.249-.958.495-1.924.816-2.859a1.047,1.047,0,0,0-.727-1.28,1.066,1.066,0,0,0-1.28.727Z" transform="translate(-263.805 -80.785)" fill="#fff"/>
      <path id="パス_1223" data-name="パス 1223" d="M306.931,98.607a16.453,16.453,0,0,1-.2,2.627,20.973,20.973,0,0,0-.174,3.338,4.2,4.2,0,0,0,1,2.891,4.988,4.988,0,0,0,3.619.872,14.619,14.619,0,0,0,4.105-.79,1.067,1.067,0,0,0,.727-1.28,1.051,1.051,0,0,0-1.28-.727,12.27,12.27,0,0,1-1.333.384c-.28.064-.562.123-.844.172-.149.027-.3.051-.448.072-.124.019-.105.016-.294.036a9.429,9.429,0,0,1-1.8.038c-.07-.005-.141-.012-.21-.022.174.025,0,0-.027-.008-.128-.029-.255-.052-.381-.087-.067-.019-.376-.138-.183-.051-.053-.023-.1-.052-.156-.077-.035-.018-.186-.115-.038-.014s-.027-.044-.067-.074c-.117-.092.033.04.051.071-.019-.036-.048-.067-.067-.1-.041-.077-.081-.152-.119-.23.112.227.007-.008-.025-.112a4.99,4.99,0,0,1-.119-.564c.045.273-.007-.081-.011-.138-.012-.131-.019-.264-.025-.395a21.047,21.047,0,0,1,.165-3.062,17.612,17.612,0,0,0,.217-2.769,1.063,1.063,0,0,0-1.04-1.041,1.05,1.05,0,0,0-1.041,1.041Z" transform="translate(-262.775 -81.002)" fill="#fff"/>
      <path id="パス_1224" data-name="パス 1224" d="M312.648,101.4c-.066.7-.112,1.395-.2,2.089l.037-.277c-.041.3-.087.6-.157.888a3.205,3.205,0,0,1-.1.339c-.079.225.115-.225.034-.075-.023.042-.044.085-.071.126a1.05,1.05,0,0,0,.373,1.425,1.066,1.066,0,0,0,1.425-.374,5.153,5.153,0,0,0,.552-2.148c.085-.663.128-1.328.193-1.992a1.042,1.042,0,0,0-1.041-1.041,1.069,1.069,0,0,0-1.041,1.041Z" transform="translate(-260.759 -79.979)" fill="#fff"/>
      <path id="パス_1225" data-name="パス 1225" d="M308.9,97.075l.075.007-.276-.037a1.867,1.867,0,0,1,.452.133l-.249-.105a5.175,5.175,0,0,1,1.09.674l-.21-.163a7.165,7.165,0,0,1,1.272,1.227l-.163-.212c.042.056.083.112.122.171a1.1,1.1,0,0,0,.623.478,1.041,1.041,0,0,0,1.175-1.529,6.911,6.911,0,0,0-1.541-1.594,4.425,4.425,0,0,0-2.37-1.13,1.045,1.045,0,0,0-1.041,1.04,1.064,1.064,0,0,0,1.041,1.041Z" transform="translate(-262.293 -81.944)" fill="#fff"/>
      <path id="パス_1226" data-name="パス 1226" d="M313.363,98.986a13.105,13.105,0,0,1,.653,1.212c.109.23.213.46.314.693.012.027.1.239.042.1s.016.038.026.061c.051.124.1.249.149.373a22.052,22.052,0,0,1,.82,2.435,1.041,1.041,0,1,0,2.007-.553,22.481,22.481,0,0,0-.848-2.51,18.421,18.421,0,0,0-1.365-2.861,1.041,1.041,0,1,0-1.8,1.051Z" transform="translate(-260.328 -81.056)" fill="#fff"/>
    </g>
  </g>
</svg>
