<svg id="コンポーネント_5_11" data-name="コンポーネント 5 – 11" xmlns="http://www.w3.org/2000/svg" width="144" height="53" viewBox="0 0 144 53">
  <rect id="長方形_17" data-name="長方形 17" width="144" height="53" rx="7" fill="#fa7b99"/>
  <g id="グループ_132" data-name="グループ 132" transform="translate(-564.607 -465.934)">
    <path id="パス_514" data-name="パス 514" d="M582.291,489.334c2.97-.005,5.936-.217,8.906-.208a.709.709,0,0,0,0-1.417c-2.97-.01-5.936.2-8.906.207a.709.709,0,0,0,0,1.418Z" fill="#fff"/>
    <path id="パス_515" data-name="パス 515" d="M586.036,485.415c.1,2.343,0,4.7-.043,7.046q-.069,3.631-.172,7.262l.9-.684c-1.065-.166-4.076-.774-3.567-2.372.5-1.573,2.837-2.15,4.222-2.535a20.106,20.106,0,0,1,4.323-.837c1.2-.062,3.172-.1,3.885,1.1a2.813,2.813,0,0,1-.387,2.88,4.354,4.354,0,0,1-3.686,1.312c-.9-.11-.9,1.308,0,1.417,2.9.354,5.83-1.776,5.713-4.811-.085-2.233-2.1-3.131-4.062-3.295a16.931,16.931,0,0,0-5.739.758c-1.961.521-4.614,1.248-5.5,3.3-1.206,2.776,2.29,4.126,4.425,4.459a.722.722,0,0,0,.9-.683q.105-3.631.173-7.262c.045-2.343.142-4.7.042-7.046-.039-.909-1.456-.914-1.417,0Z" fill="#fff"/>
    <path id="パス_516" data-name="パス 516" d="M593.183,487.444c-.159-.064.015.009.038.02.05.024.1.05.148.077.088.049.174.1.258.158a2.825,2.825,0,0,1,.246.176c-.127-.108,0,0,.031.026l.129.107a10.658,10.658,0,0,1,.847.741c.249.256.481.527.723.788a3.057,3.057,0,0,0,.725.632.709.709,0,0,0,.715-1.224c-.072-.039-.177-.157-.017,0-.05-.05-.107-.093-.158-.142-.118-.113-.229-.232-.339-.353-.245-.266-.48-.542-.738-.8-.275-.271-.585-.513-.885-.756a5.22,5.22,0,0,0-1.346-.821.71.71,0,0,0-.872.495.73.73,0,0,0,.495.871Z" fill="#fff"/>
    <path id="パス_517" data-name="パス 517" d="M601.034,486.02c1.755-.016,3.511,0,5.266.016l-.709-.709c.055,1.685.118,3.372.119,5.058a.709.709,0,0,0,1.418,0c0-1.686-.065-3.373-.12-5.058a.721.721,0,0,0-.708-.709c-1.755-.016-3.511-.031-5.266-.015a.709.709,0,0,0,0,1.417Z" fill="#fff"/>
    <path id="パス_518" data-name="パス 518" d="M601.143,488.8a1.567,1.567,0,0,0,.887.133c.413,0,.826-.012,1.239-.024.878-.027,1.755-.068,2.632-.1a.709.709,0,0,0,0-1.418c-.842.029-1.685.068-2.528.1-.411.013-.822.025-1.233.027-.137,0-.274,0-.411,0-.046,0-.1-.012-.143-.01a.393.393,0,0,1,.272.077.711.711,0,0,0-.97.254.731.731,0,0,0,.255.969Z" fill="#fff"/>
    <path id="パス_519" data-name="パス 519" d="M601.863,491.4c1.278.077,2.553-.1,3.831-.1a.708.708,0,1,0,0-1.417c-1.278,0-2.553.181-3.831.1a.714.714,0,0,0-.709.709.726.726,0,0,0,.709.709Z" fill="#fff"/>
    <path id="パス_520" data-name="パス 520" d="M600.429,485.622c.249,4.864.107,9.733.1,14.6a.709.709,0,0,0,1.417,0c0-4.868.146-9.737-.1-14.6-.047-.908-1.464-.913-1.418,0Z" fill="#fff"/>
    <path id="パス_521" data-name="パス 521" d="M608.817,485.19c.009,1.505.06,3.01.091,4.514l.013.64a.723.723,0,0,0,.708.709c1.655.07,3.315.157,4.971.145a.709.709,0,0,0,0-1.418c-1.656.012-3.316-.075-4.971-.144l.709.708q-.047-2.233-.091-4.468c0-.229-.011-.457-.013-.686a.709.709,0,0,0-1.417,0Z" fill="#fff"/>
    <path id="パス_522" data-name="パス 522" d="M610.194,485.906a5.306,5.306,0,0,1,.872-.1c.528-.029,1.057-.034,1.586-.033q1.052,0,2.1.043l-.709-.709c.148,4.928.035,9.86.208,14.791l.9-.684c-.571-.126-1.144-.247-1.709-.4a.709.709,0,0,0-.377,1.366c.565.15,1.139.27,1.709.4a.717.717,0,0,0,.9-.683c-.173-4.931-.06-9.863-.207-14.791a.725.725,0,0,0-.709-.709q-1.206-.046-2.413-.042a6.256,6.256,0,0,0-2.863.329.709.709,0,0,0,.715,1.224Z" fill="#fff"/>
    <path id="パス_523" data-name="パス 523" d="M610.354,488.712a27.447,27.447,0,0,1,3.728-.1.716.716,0,0,0,.709-.709.724.724,0,0,0-.709-.709,27.611,27.611,0,0,0-3.728.1.726.726,0,0,0-.709.709.716.716,0,0,0,.709.708Z" fill="#fff"/>
    <path id="パス_524" data-name="パス 524" d="M604.571,493.388c.03.412.023.83.034,1.243.019.734.039,1.467.055,2.2.006.261.013.523.015.785a.708.708,0,0,0,1.417,0c-.009-1.256-.056-2.513-.091-3.769,0-.153,0-.307-.012-.46a.709.709,0,0,0-1.418,0Z" fill="#fff"/>
    <path id="パス_525" data-name="パス 525" d="M605.487,494.2c1.64,0,3.28-.038,4.919-.07l-.709-.708q-.035,1.056-.065,2.112c-.013.454-.026.909-.036,1.363s-.059,1.009.518,1.169a.709.709,0,0,0,.377-1.367h0l.495.495c.068.22.018.223.023.119,0-.044,0-.088,0-.132,0-.154.006-.308.01-.462q.015-.678.037-1.356.028-.971.06-1.941a.717.717,0,0,0-.709-.709c-1.639.031-3.279.068-4.919.069a.709.709,0,0,0,0,1.418Z" fill="#fff"/>
    <path id="パス_526" data-name="パス 526" d="M605.506,498.352a3.118,3.118,0,0,0,.819.019c.459-.014.918-.032,1.377-.049.848-.032,1.7-.081,2.549-.083a.709.709,0,0,0,0-1.417c-.833,0-1.667.049-2.5.081-.457.017-.914.035-1.372.049-.154,0-.308.009-.463.011-.134,0-.347-.055-.034.022a.709.709,0,0,0-.377,1.367Z" fill="#fff"/>
    <path id="パス_527" data-name="パス 527" d="M619.922,486.676a9.143,9.143,0,0,0-.287,3.25c.05,1.128.045,2.262.143,3.388a15.672,15.672,0,0,0,1.3,4.971,3.054,3.054,0,0,0,1.254,1.6,1.407,1.407,0,0,0,1.562-.355,13.441,13.441,0,0,0,2.5-3.09c.5-.766-.726-1.477-1.224-.715a15.092,15.092,0,0,1-1.93,2.49,3.8,3.8,0,0,0-.473.388c-.037.127.2-.175.2.02,0,.024-.17-.158-.167-.154a6.692,6.692,0,0,1-.749-1.557,15.333,15.333,0,0,1-.916-4.478c-.041-.9-.061-1.811-.1-2.716a7.534,7.534,0,0,1,.246-2.663c.283-.87-1.085-1.242-1.367-.377Z" fill="#fff"/>
    <path id="パス_528" data-name="パス 528" d="M629.424,488.09c2.56,2.205,3.69,5.946,3.728,9.233a.709.709,0,0,0,1.417,0c-.042-3.635-1.312-7.8-4.142-10.235-.688-.592-1.7.406-1,1Z" fill="#fff"/>
    <path id="パス_529" data-name="パス 529" d="M644.336,484.6a22.1,22.1,0,0,1-6.38,5.792c-.8.438-.086,1.662.715,1.224a23.055,23.055,0,0,0,6.667-6.014.73.73,0,0,0,0-1,.714.714,0,0,0-1,0Z" fill="#fff"/>
    <path id="パス_530" data-name="パス 530" d="M644.336,485.5a17.657,17.657,0,0,1,1.5,1.643,10.273,10.273,0,0,0,1.726,1.574A21.7,21.7,0,0,0,651.728,491a.732.732,0,0,0,.97-.254.715.715,0,0,0-.255-.97,22.055,22.055,0,0,1-4.065-2.2,38.469,38.469,0,0,1-3.04-3.071c-.676-.608-1.682.391-1,1Z" fill="#fff"/>
    <path id="パス_531" data-name="パス 531" d="M641.213,491.3h8.077a.709.709,0,0,0,0-1.417h-8.077a.709.709,0,0,0,0,1.417Z" fill="#fff"/>
    <path id="パス_532" data-name="パス 532" d="M641.093,499.7c-.005-1.864-.283-3.729-.1-5.592a.713.713,0,0,0-.708-.708.724.724,0,0,0-.709.708c-.179,1.863.1,3.728.1,5.592a.709.709,0,0,0,1.417,0Z" fill="#fff"/>
    <path id="パス_533" data-name="パス 533" d="M640.488,494.822c3.343,0,6.689.105,10.031.2l-.709-.709q.009,2.8.014,5.6a.709.709,0,0,0,1.417,0c0-1.868-.008-3.736-.014-5.6a.721.721,0,0,0-.708-.709c-3.342-.089-6.688-.192-10.031-.194a.709.709,0,0,0,0,1.417Z" fill="#fff"/>
    <path id="パス_534" data-name="パス 534" d="M640.09,499.394c-.037.791.882.736,1.4.742.771.009,1.543,0,2.314,0,1.824-.013,3.648-.036,5.47-.083a2.853,2.853,0,0,0,1.652-.258.712.712,0,0,0,.11-.859h0a.709.709,0,0,0-1.224.715v0l.11-.859c.107-.085.335-.235.462-.2-.018-.005-.044.006-.062.005-.074,0-.149.009-.223.012-.233.01-.466.017-.7.023-.744.02-1.488.033-2.232.045-1.691.028-3.383.051-5.075.047-.3,0-.59,0-.886-.009-.089,0-.18-.01-.27-.009a.493.493,0,0,0-.085-.006.718.718,0,0,1,.442.2l.208.5v0c.043-.911-1.374-.909-1.417,0Z" fill="#fff"/>
    <path id="パス_535" data-name="パス 535" d="M659.351,485.829q0,6.06,0,12.12c0,.742,0,1.485,0,2.227a.709.709,0,0,0,1.417,0c.026-4.133.007-8.268.008-12.4v-1.946a.709.709,0,0,0-1.417,0Z" fill="#fff"/>
    <path id="パス_536" data-name="パス 536" d="M656.849,490.266c1.094,0,2.188-.019,3.282.007l-.612-1.066A46.866,46.866,0,0,0,655.873,497c-.3.763.9,1.216,1.3.546a31.266,31.266,0,0,1,2.734-3.893c1.487-1.811,3.1-3.532,5.458-4.1,1.879-.452,3.911.069,4.732,1.948a6.515,6.515,0,0,1-.271,5.136,3.931,3.931,0,0,1-2.022,2.135,5.969,5.969,0,0,1-2.874.535c-.9-.119-.893,1.3,0,1.417a6.873,6.873,0,0,0,3.1-.529,5.089,5.089,0,0,0,2.454-1.859,8.248,8.248,0,0,0,1.255-6.324,4.986,4.986,0,0,0-4.354-3.993,8.607,8.607,0,0,0-6.955,2.9,31.766,31.766,0,0,0-4.483,5.907l1.295.546a44.815,44.815,0,0,1,3.5-7.455.715.715,0,0,0-.612-1.066c-1.094-.026-2.188-.009-3.282-.008a.709.709,0,0,0,0,1.418Z" fill="#fff"/>
    <path id="パス_537" data-name="パス 537" d="M675.385,491.3c5.117-.155,10.2-.917,15.326-.932a.709.709,0,0,0,0-1.417c-5.124.015-10.209.777-15.326.932-.91.027-.914,1.445,0,1.417Z" fill="#fff"/>
    <path id="パス_538" data-name="パス 538" d="M685.653,485.829c0,1.513,0,3.027-.008,4.54-.009,1.037-.02,2.075-.054,3.111-.012.357-.025.715-.051,1.072-.006.075-.044.394-.023.27.025-.147,0,0-.007.027-.057.155.053-.077.079-.135.055-.123.11-.084-.044-.051a1.548,1.548,0,0,1-.289.04,5.683,5.683,0,0,1-1.059-.045,7.437,7.437,0,0,1-.979-.2,2.349,2.349,0,0,1-.641-.236.709.709,0,0,0-.715,1.224,5.061,5.061,0,0,0,1.7.536,6.573,6.573,0,0,0,2.153.083,1.327,1.327,0,0,0,1.151-.813,4.066,4.066,0,0,0,.1-.86c.134-2.151.1-4.318.1-6.472,0-.7,0-1.4,0-2.1a.709.709,0,0,0-1.417,0Z" fill="#fff"/>
    <path id="パス_539" data-name="パス 539" d="M678.093,486.657c.082,2.556-.17,5.136-.21,7.692a17.492,17.492,0,0,0,.1,3.355c.318,1.766,1.772,2.445,3.4,2.619a39.447,39.447,0,0,0,8.187-.116c.9-.09.908-1.509,0-1.418a40.4,40.4,0,0,1-7.143.2,6.826,6.826,0,0,1-2.118-.327,1.737,1.737,0,0,1-.957-1.336,21.142,21.142,0,0,1-.052-3.123c.025-1.407.075-2.813.125-4.22.039-1.106.119-2.223.084-3.331-.029-.909-1.447-.913-1.418,0Z" fill="#fff"/>
  </g>
</svg>
