<svg id="コンポーネント_18_19" data-name="コンポーネント 18 – 19" xmlns="http://www.w3.org/2000/svg" width="257" height="74" viewBox="0 0 257 74">
  <g id="グループ_508" data-name="グループ 508" transform="translate(-889.703 -2053.521)">
    <rect id="長方形_37" data-name="長方形 37" width="257" height="74" rx="37" transform="translate(889.703 2053.521)" fill="#fa7b99"/>
    <g id="グループ_509" data-name="グループ 509" transform="translate(872.5 1621.378)">
      <path id="パス_1043" data-name="パス 1043" d="M58.391,456.5a37.747,37.747,0,0,1-5.041,4.811.653.653,0,0,0,.458,1.106c4.757-.295,9.537-.586,14.3-.564a.649.649,0,0,0,0-1.3c-4.767-.022-9.547.27-14.3.564l.457,1.107a37.62,37.62,0,0,0,5.042-4.81c.525-.64-.387-1.562-.917-.917Z" transform="translate(0.155 0.002)" fill="#fff" stroke="#fff" stroke-width="1"/>
      <path id="パス_1044" data-name="パス 1044" d="M64.853,458.639l.3.223c-.089-.067.072.056.072.057.052.04.1.081.155.122.214.17.423.345.631.523q.633.541,1.229,1.124c.379.37.746.753,1.09,1.157.081.093.16.189.238.285.017.021.123.158.046.056.034.045.068.091.1.137.123.169.241.342.346.522a.649.649,0,0,0,1.12-.655,12.218,12.218,0,0,0-2.026-2.419,25.012,25.012,0,0,0-2.646-2.252.653.653,0,0,0-.887.232.663.663,0,0,0,.232.887Z" transform="translate(0.579 0.044)" fill="#fff" stroke="#fff" stroke-width="1"/>
      <path id="パス_1045" data-name="パス 1045" d="M50.016,466.091c6.614-.179,13.233-.29,19.847-.37,1.109-.012,2.226-.059,3.334-.008.835.038.833-1.258,0-1.3-2.641-.12-5.317.033-7.959.078q-5.9.1-11.809.225c-1.137.024-2.275.046-3.413.076a.649.649,0,0,0,0,1.3Z" transform="translate(0.014 0.303)" fill="#fff" stroke="#fff" stroke-width="1"/>
      <path id="パス_1046" data-name="パス 1046" d="M59.9,462.915c-.088,2.24-2.612,3.89-4.325,4.9a18.832,18.832,0,0,1-6.1,2.479c-.82.144-.473,1.394.344,1.25a18.759,18.759,0,0,0,5.074-1.879,14.953,14.953,0,0,0,5.137-3.852,5.06,5.06,0,0,0,1.169-2.9c.032-.835-1.264-.833-1.3,0Z" transform="translate(0 0.225)" fill="#fff" stroke="#fff" stroke-width="1"/>
      <path id="パス_1047" data-name="パス 1047" d="M63.8,466.8c-.174-.073-.088-.038.008.009s.17.081.254.123c.226.112.451.227.676.342.644.33,1.284.666,1.924,1q2.149,1.13,4.284,2.281c.495.267.99.532,1.479.807a.649.649,0,0,0,.655-1.119c-2.486-1.4-5.026-2.722-7.563-4.028-.452-.232-.9-.472-1.372-.669a.652.652,0,0,0-.8.452.664.664,0,0,0,.452.8Z" transform="translate(0.534 0.345)" fill="#fff" stroke="#fff" stroke-width="1"/>
      <path id="パス_1048" data-name="パス 1048" d="M62.285,467.938c-1.393.785-2.84,1.481-4.273,2.189-1.493.738-2.985,1.482-4.508,2.153a.653.653,0,0,0-.233.887.664.664,0,0,0,.887.232c1.524-.67,3.016-1.416,4.508-2.153,1.434-.707,2.881-1.4,4.274-2.189a.649.649,0,0,0-.655-1.119Z" transform="translate(0.156 0.433)" fill="#fff" stroke="#fff" stroke-width="1"/>
      <path id="パス_1049" data-name="パス 1049" d="M65.371,470.821a58.343,58.343,0,0,1-6.163,2.747c-1.177.486-2.357.965-3.545,1.421-.422.162-.844.322-1.271.47-.147.051-.295.1-.444.146-.075.022-.407.087-.117.049-.815.108-.826,1.407,0,1.3a6.782,6.782,0,0,0,1.42-.426c.851-.313,1.694-.647,2.536-.985,2.038-.818,4.067-1.665,6.072-2.561.729-.327,1.469-.647,2.167-1.036.729-.407.076-1.527-.655-1.12Z" transform="translate(0.157 0.54)" fill="#fff" stroke="#fff" stroke-width="1"/>
      <path id="パス_1050" data-name="パス 1050" d="M69.558,474.106c-5.112,1.985-10.157,4.195-15.342,5.983-.784.27-.447,1.523.344,1.25,5.185-1.788,10.231-4,15.342-5.983.77-.3.435-1.553-.344-1.25Z" transform="translate(0.178 0.664)" fill="#fff" stroke="#fff" stroke-width="1"/>
      <path id="パス_1051" data-name="パス 1051" d="M77.086,463.114c3.569-.147,7.14-.261,10.71-.386l-.648-.648c0,3.241.119,6.51-.04,9.747-.067,1.374-.279,2.726-.42,4.092-.087.84-.044,2.342-.7,2.974-.6.579.315,1.5.917.917a4.722,4.722,0,0,0,.965-2.852c.174-1.376.363-2.762.472-4.146.281-3.554.1-7.17.1-10.732a.655.655,0,0,0-.648-.648c-3.57.124-7.141.239-10.71.386-.832.034-.836,1.331,0,1.3Z" transform="translate(1.023 0.193)" fill="#fff" stroke="#fff" stroke-width="1"/>
      <path id="パス_1052" data-name="パス 1052" d="M81.566,479.365c1.722.266,4.2,1.354,5.364-.587a.649.649,0,0,0-1.12-.655c-.028.048-.057.093-.089.138.062-.089.006-.009-.031.03s-.062.058-.091.088c-.053.054.1-.058-.005.005a2.233,2.233,0,0,1-.257.144c.077-.035.066-.025-.006,0-.04.011-.08.025-.12.035s-.1.024-.148.033-.19.012-.033.007c-.089,0-.177.015-.267.016a5.073,5.073,0,0,1-.641-.036c-.079-.008.1.017-.027,0-.057-.009-.114-.018-.171-.028-.1-.018-.21-.038-.313-.059-.2-.043-.408-.089-.61-.138-.361-.085-.721-.179-1.088-.237a.67.67,0,0,0-.8.453.652.652,0,0,0,.453.8Z" transform="translate(1.196 0.804)" fill="#fff" stroke="#fff" stroke-width="1"/>
      <path id="パス_1053" data-name="パス 1053" d="M81.475,456.868a34.262,34.262,0,0,1-.451,6.221c-.246,1.939-.361,3.889-.715,5.813a24.613,24.613,0,0,1-4.246,10.41c-.507.662.618,1.309,1.119.655a25.512,25.512,0,0,0,4.376-10.72c.35-1.9.473-3.826.709-5.741a37.587,37.587,0,0,0,.5-6.638c-.046-.83-1.342-.835-1.3,0Z" transform="translate(1.004)" fill="#fff" stroke="#fff" stroke-width="1"/>
      <path id="パス_1054" data-name="パス 1054" d="M91.971,461.525c1.335-.016,2.665-.172,4-.2.482-.01.966-.021,1.447-.006.126,0,.251.009.375.018.056,0,.287.024.239.018a2.535,2.535,0,0,1,.25.047c.044.011.086.025.13.038.087.027-.13-.067-.013,0a.649.649,0,0,0,.655-1.119,3.065,3.065,0,0,0-1.34-.284c-.528-.031-1.058-.021-1.586-.009-1.388.029-2.77.189-4.155.2a.649.649,0,0,0,0,1.3Z" transform="translate(1.578 0.14)" fill="#fff" stroke="#fff" stroke-width="1"/>
      <path id="パス_1055" data-name="パス 1055" d="M90.96,460.868q0,5.3-.044,10.6c-.017,1.717-.035,3.434-.08,5.151-.013.555-.029,1.111-.058,1.666a5.323,5.323,0,0,0-.038.574c.01.184-.085.106.128-.115l.458-.19h-.007a.649.649,0,0,0,0,1.3c2.64.029,5.274-.048,7.912-.1a.659.659,0,0,0,.648-.648c-.008-6.015-.17-12.029-.193-18.044a.649.649,0,0,0-1.3,0c.023,6.015.185,12.029.193,18.044l.648-.648c-2.639.049-5.272.125-7.912.1v1.3c.951-.073.761-1.594.785-2.247.061-1.69.079-3.382.1-5.072.044-3.887.055-7.775.055-11.663a.649.649,0,0,0-1.3,0Z" transform="translate(1.554 0.149)" fill="#fff" stroke="#fff" stroke-width="1"/>
      <path id="パス_1056" data-name="パス 1056" d="M106.017,461.621c6.047.045,12.094-.283,18.14-.289a.649.649,0,0,0,0-1.3c-6.046.006-12.093.334-18.14.289a.649.649,0,0,0,0,1.3Z" transform="translate(2.102 0.141)" fill="#fff" stroke="#fff" stroke-width="1"/>
      <path id="パス_1057" data-name="パス 1057" d="M113.8,457.719a18.345,18.345,0,0,1-1.936,3.187c-.726,1.2-1.508,2.371-2.293,3.537a82.9,82.9,0,0,0-4.456,7.043c-.332.618.526,1.375,1.018.785a20.1,20.1,0,0,1,4.155-3.8c1.312-.886,3.111-2.08,4.776-1.726,3.492.743,3.2,5.986,3.249,8.613a.649.649,0,0,0,1.3,0c-.062-3.322.04-8.634-4-9.812-1.871-.545-3.786.438-5.344,1.4a20.807,20.807,0,0,0-5.052,4.414l1.019.786c1.367-2.549,3.027-4.919,4.639-7.315.786-1.168,1.542-2.348,2.279-3.547a17.337,17.337,0,0,0,1.9-3.214c.277-.789-.976-1.129-1.251-.345Z" transform="translate(2.089 0.038)" fill="#fff" stroke="#fff" stroke-width="1"/>
      <path id="パス_1058" data-name="パス 1058" d="M125.984,466.733a26.932,26.932,0,0,0-7.39,1.832,15.834,15.834,0,0,0-5.833,3.576c-1.241,1.347-2.655,3.476-1.752,5.356.78,1.624,2.839,1.937,4.441,2.089a77.784,77.784,0,0,0,8.866.016.649.649,0,0,0,0-1.3,74.608,74.608,0,0,1-7.538.089c-1.323-.109-3.023-.052-4.131-.9-1.514-1.159.053-3.356.966-4.364a13.991,13.991,0,0,1,5.068-3.209,25.6,25.6,0,0,1,7.3-1.892c.823-.083.831-1.381,0-1.3Z" transform="translate(2.301 0.391)" fill="#fff" stroke="#fff" stroke-width="1"/>
      <path id="パス_1059" data-name="パス 1059" d="M132.725,461.24c-.093,4.116-.19,8.235-.193,12.351a.649.649,0,0,0,1.3,0c0-4.116.1-8.235.193-12.351a.649.649,0,0,0-1.3,0Z" transform="translate(3.114 0.163)" fill="#fff" stroke="#fff" stroke-width="1"/>
      <path id="パス_1060" data-name="パス 1060" d="M133.831,461.984c3.172,0,6.345-.043,9.517-.044,1.853,0,3.706,0,5.558.037.649.012,1.3.027,1.948.059a9.289,9.289,0,0,1,1.036.088c.812.188,1.159-1.062.344-1.25a15.768,15.768,0,0,0-3.167-.191c-1.837-.037-3.674-.042-5.511-.04-3.243,0-6.484.044-9.726.044a.649.649,0,0,0,0,1.3Z" transform="translate(3.139 0.164)" fill="#fff" stroke="#fff" stroke-width="1"/>
      <path id="パス_1061" data-name="パス 1061" d="M151.02,461.682c0,4.286.024,8.572.024,12.858a.649.649,0,0,0,1.3,0c0-4.286-.023-8.572-.024-12.858a.649.649,0,0,0-1.3,0Z" transform="translate(3.803 0.179)" fill="#fff" stroke="#fff" stroke-width="1"/>
      <path id="パス_1062" data-name="パス 1062" d="M133.737,467.472h17.754a.649.649,0,0,0,0-1.3H133.737a.649.649,0,0,0,0,1.3Z" transform="translate(3.135 0.37)" fill="#fff" stroke="#fff" stroke-width="1"/>
      <path id="パス_1063" data-name="パス 1063" d="M133.077,474.1a12.256,12.256,0,0,0,2.759.1c1.972.036,3.944.061,5.916.086,3.534.045,7.069.074,10.6.126a.649.649,0,0,0,0-1.3c-3.464-.051-6.93-.08-10.4-.122q-2.911-.037-5.822-.084c-.669-.011-1.339-.023-2.008-.042-.2-.006-.4-.016-.6-.021-.114,0-.364-.065-.107,0a.649.649,0,0,0-.345,1.251Z" transform="translate(3.117 0.618)" fill="#fff" stroke="#fff" stroke-width="1"/>
      <path id="パス_1064" data-name="パス 1064" d="M141.837,457.055c.071,4,.012,8.011,0,12.014-.015,3.807.05,7.629-.093,11.434-.031.834,1.265.833,1.3,0,.143-3.8.079-7.627.093-11.434.016-4,.074-8.011,0-12.014a.649.649,0,0,0-1.3,0Z" transform="translate(3.457 0.007)" fill="#fff" stroke="#fff" stroke-width="1"/>
      <path id="パス_1065" data-name="パス 1065" d="M162.964,458.636a108.655,108.655,0,0,0-.288,13.654c.109,2.8.3,6.232,3.045,7.787a8.141,8.141,0,0,0,7.494.106,15.644,15.644,0,0,0,4.111-3.262,11.728,11.728,0,0,0,2.736-4.025c.277-.788-.975-1.128-1.251-.344a11.525,11.525,0,0,1-3.139,4.19,10.179,10.179,0,0,1-4.609,2.869,6.955,6.955,0,0,1-4.688-.652c-1.68-.95-2.159-2.975-2.3-4.763-.2-2.528-.156-5.082-.118-7.615.038-2.646.075-5.306.307-7.943.074-.831-1.223-.827-1.3,0Z" transform="translate(4.234 0.066)" fill="#fff" stroke="#fff" stroke-width="1"/>
      <path id="パス_1066" data-name="パス 1066" d="M194.76,459.286h5.669l-.625-.476c.608,2.65,1.349,5.281,2.214,7.858a34.042,34.042,0,0,0,2.174,5.308c.53.988,1.194,1.9,1.807,2.84a7.662,7.662,0,0,0,1.338,1.766c.453.364,1.315.047,1.083-.631l-.007-.022c-.27-.785-1.523-.448-1.251.344l.008.023,1.083-.631a8.143,8.143,0,0,1-1.4-1.914c-.541-.829-1.12-1.634-1.584-2.51a34.168,34.168,0,0,1-2.139-5.335c-.8-2.445-1.5-4.934-2.075-7.442a.657.657,0,0,0-.625-.476H194.76a.649.649,0,0,0,0,1.3Z" transform="translate(5.41 0.065)" fill="#fff" stroke="#fff" stroke-width="1"/>
      <path id="パス_1067" data-name="パス 1067" d="M199.668,462.543c-.134,2.813-1.705,5.527-3.212,7.824a31.808,31.808,0,0,1-2.237,3.032c-.268.317-.541.632-.832.928-.106.108-.214.216-.328.314-.137.119.07-.015-.113.078-.745.377-.089,1.5.655,1.119a5.823,5.823,0,0,0,1.535-1.523,34.568,34.568,0,0,0,2.441-3.294c1.641-2.5,3.244-5.423,3.389-8.479.04-.834-1.256-.832-1.3,0Z" transform="translate(5.353 0.212)" fill="#fff" stroke="#fff" stroke-width="1"/>
      <path id="パス_1068" data-name="パス 1068" d="M186.489,458.724c.506.632,1.083,1.2,1.609,1.817.068.08.137.161.2.243l.079.1c.13.16-.071-.1.053.066s.229.314.334.478a4.892,4.892,0,0,1,.288.514c.021.044.042.087.06.131-.036-.085-.009-.021.009.029.035.1.065.194.092.292a.648.648,0,0,0,1.25-.345c-.469-1.726-1.986-2.9-3.061-4.241a.65.65,0,0,0-.917,0,.667.667,0,0,0,0,.917Z" transform="translate(5.118 0.051)" fill="#fff" stroke="#fff" stroke-width="1"/>
      <path id="パス_1069" data-name="パス 1069" d="M185.553,468.4c1.447,0,2.894,0,4.342,0l-.648-.648c-.011,1.981-.025,3.963-.082,5.944a6.133,6.133,0,0,1-.137,1.648,3.033,3.033,0,0,1-1.02,1.266,12.08,12.08,0,0,1-2.783,1.968c-.76.34-.1,1.457.654,1.119a13.309,13.309,0,0,0,3.045-2.17,4.484,4.484,0,0,0,1.213-1.471,5.036,5.036,0,0,0,.309-1.915c.077-2.128.085-4.26.1-6.39a.657.657,0,0,0-.648-.648c-1.448,0-2.9,0-4.342,0a.649.649,0,0,0,0,1.3Z" transform="translate(5.065 0.405)" fill="#fff" stroke="#fff" stroke-width="1"/>
      <path id="パス_1070" data-name="パス 1070" d="M188.994,475.892c2.152,2.8,5.444,3.635,8.8,3.749,3.877.131,7.757-.025,11.634.047a.649.649,0,0,0,0-1.3c-3.351-.062-6.7.045-10.056-.009-3.336-.053-7.032-.243-9.261-3.143-.5-.653-1.627-.008-1.119.653Z" transform="translate(5.213 0.698)" fill="#fff" stroke="#fff" stroke-width="1"/>
      <path id="パス_1071" data-name="パス 1071" d="M213.366,462.459c2.366,0,4.733.037,7.1.016,1.167-.011,2.333-.036,3.5-.087.579-.026,1.157-.057,1.734-.1.48-.033.93.017,1.216-.432a.651.651,0,0,0-.388-.952l-.2-.028c-.246.027-.23.033.049.018a.649.649,0,0,0-.344,1.25c.109.033.744.091.156.01l-.387-.952-.041.064.56-.321c-4.309.334-8.632.217-12.948.215a.649.649,0,0,0,0,1.3Z" transform="translate(6.103 0.172)" fill="#fff" stroke="#fff" stroke-width="1"/>
      <path id="パス_1072" data-name="パス 1072" d="M219.441,458.172c-.02,2.319-.034,4.647-.093,6.966a40.149,40.149,0,0,1-.536,6.047c-.221,1.229-.491,3.812-2.36,3.07-2.023-.8-1.909-4.191-.7-5.545.78-.878,2.5-1.323,2.976.091a6.954,6.954,0,0,1-.175,3.478c-.416,1.912-1.43,4.072-.581,6.007.719,1.638,2.452,1.946,4.051,1.972a34.93,34.93,0,0,0,5.92-.458c1.462-.228,3.7-.453,4.678-1.73,1.531-1.992,1.018-5.435.257-7.624-.273-.783-1.526-.446-1.251.345a11.118,11.118,0,0,1,.619,3.875c-.021.987-.132,2.425-1.1,2.959-1.68.933-4.058,1.044-5.926,1.2a31.393,31.393,0,0,1-3.2.133,3.71,3.71,0,0,1-2.393-.561c-.944-.794-.722-2.263-.466-3.317.276-1.137.634-2.244.82-3.4.328-2.033.325-4.766-2.292-5.088-2.273-.279-4.04,2.127-4.127,4.2-.076,1.8.764,4.206,2.666,4.761,1.818.531,2.87-.581,3.389-2.155a26.8,26.8,0,0,0,.983-7.009c.133-2.729.117-5.486.14-8.216a.649.649,0,0,0-1.3,0Z" transform="translate(6.134 0.048)" fill="#fff" stroke="#fff" stroke-width="1"/>
      <path id="パス_1073" data-name="パス 1073" d="M229.5,461.151c.143.1.281.2.42.31-.144-.11.031.025.058.046l.122.1c.1.082.205.164.307.247q.72.585,1.415,1.2a24.809,24.809,0,0,1,2.757,2.727.653.653,0,0,0,.917,0,.663.663,0,0,0,0-.917,25.2,25.2,0,0,0-2.812-2.776,29.254,29.254,0,0,0-2.53-2.053.653.653,0,0,0-.887.232.662.662,0,0,0,.232.887Z" transform="translate(6.716 0.138)" fill="#fff" stroke="#fff" stroke-width="1"/>
    </g>
  </g>
</svg>
