<svg id="コンポーネント_6_11" data-name="コンポーネント 6 – 11" xmlns="http://www.w3.org/2000/svg" width="96" height="53" viewBox="0 0 96 53">
  <rect id="長方形_16" data-name="長方形 16" width="96" height="53" rx="7" fill="#fa7b99"/>
  <g id="グループ_131" data-name="グループ 131" transform="translate(-484.902 -466.935)">
    <path id="パス_502" data-name="パス 502" d="M506.043,488.244c-.155,3.763.254,7.517.263,11.279a.709.709,0,0,0,1.417,0c-.008-3.762-.417-7.516-.262-11.279.037-.912-1.38-.911-1.418,0Z" fill="#fff"/>
    <path id="パス_503" data-name="パス 503" d="M507.277,494.373c1.023,0,2.046-.062,3.07-.039.786.017,1.564.125,2.349.149,1.021.032,2.041,0,3.062-.022a.709.709,0,0,0,0-1.417c-1.021.021-2.041.053-3.062.022-.758-.023-1.51-.128-2.269-.148-1.05-.027-2.1.035-3.15.038a.709.709,0,0,0,0,1.417Z" fill="#fff"/>
    <path id="パス_504" data-name="パス 504" d="M515.519,488.57c.188.235-.278-.446-.166-.256-.079-.134-.014-.178-.008-.044s.021.263.029.4c.024.4.04.8.055,1.2.045,1.18.076,2.361.1,3.542.047,2.168.145,4.359.03,6.527-.049.911,1.369.908,1.417,0,.121-2.276.015-4.578-.037-6.854-.028-1.195-.059-2.391-.109-3.586-.025-.58.073-1.446-.311-1.926-.569-.713-1.566.3-1,1Z" fill="#fff"/>
    <path id="パス_505" data-name="パス 505" d="M525.857,487.316a5.449,5.449,0,0,0-5.177,4.523c-.548,2.683-.784,6.01,1.735,7.789a6.162,6.162,0,0,0,3.73.986,5.772,5.772,0,0,0,3.552-1.082A7.287,7.287,0,0,0,531.908,493c-.516-2.861-2.868-5.831-6.008-5.644-.906.054-.912,1.472,0,1.418,2.248-.135,3.8,1.81,4.43,3.78a6.017,6.017,0,0,1-.982,5.307c-1.172,1.526-3.7,1.666-5.383,1-2.314-.914-2.41-3.5-2.1-5.619a6.232,6.232,0,0,1,.983-2.935,3.729,3.729,0,0,1,3.01-1.577.709.709,0,0,0,0-1.418Z" fill="#fff"/>
    <path id="パス_506" data-name="パス 506" d="M536.493,487.56h0a.734.734,0,0,0-.872.495,4.708,4.708,0,0,0-.12,1.288q-.1,1.359-.19,2.718-.21,3.075-.407,6.15c-.032.495-.08.991-.094,1.487-.028.912,1.389.911,1.417,0,.1-3.312.423-6.636.662-9.94.025-.348.05-.7.078-1.045.009-.109.021-.218.028-.327.012-.186,0,.024-.008.046l-.871.495h0c.887.208,1.266-1.158.376-1.367Z" fill="#fff"/>
    <path id="パス_507" data-name="パス 507" d="M535.868,488.514a37.591,37.591,0,0,1,2.137,4.519c.787,1.8,1.549,3.605,2.322,5.408a5.666,5.666,0,0,0,.636,1.321c.568.713,1.565-.3,1-1,.216.271.011-.057-.04-.171-.107-.239-.21-.481-.314-.721q-.5-1.158-.988-2.317c-.815-1.908-1.629-3.818-2.5-5.7a20.219,20.219,0,0,0-1.03-2.049c-.474-.778-1.7-.067-1.224.715Z" fill="#fff"/>
    <path id="パス_508" data-name="パス 508" d="M545.859,487.655a4.989,4.989,0,0,0-.772,1.415q-.712,1.467-1.384,2.954c-1.07,2.35-2.13,4.721-2.99,7.158l1.392.188a1.13,1.13,0,0,1-.02-.284.709.709,0,0,0-1.417,0,1.127,1.127,0,0,0,.019.284.712.712,0,0,0,1.392.188c.82-2.321,1.828-4.579,2.848-6.819q.656-1.441,1.342-2.869c.149-.307.3-.614.455-.917.051-.1.112-.2.157-.3s.152-.163-.02,0c.659-.633-.344-1.634-1-1Z" fill="#fff"/>
    <path id="パス_509" data-name="パス 509" d="M546.027,488.345a7.8,7.8,0,0,1,.361,2.3c.115,1.3.186,2.614.249,3.922.059,1.227.106,2.454.155,3.682a12.893,12.893,0,0,0,.113,1.915c.172.895,1.538.516,1.367-.377.051.266.009.085,0-.033-.005-.136-.015-.271-.021-.406-.021-.43-.037-.86-.053-1.29-.049-1.249-.1-2.5-.16-3.747-.065-1.294-.136-2.589-.256-3.88a8.841,8.841,0,0,0-.393-2.46c-.339-.834-1.711-.469-1.366.377Z" fill="#fff"/>
    <path id="パス_510" data-name="パス 510" d="M552.743,488.778c1.263-.111,2.551,0,3.819,0h2.219V487.36h-.005a.709.709,0,0,0,0,1.418h.005a.709.709,0,0,0,0-1.418h-2.219c-1.268,0-2.556-.11-3.819,0a.729.729,0,0,0-.709.709.715.715,0,0,0,.709.709Z" fill="#fff"/>
    <path id="パス_511" data-name="パス 511" d="M552.147,487.88a13.548,13.548,0,0,0-.222,2.721c-.028,1.26-.016,2.522,0,3.783.016,1.189.043,2.377.06,3.566.005.414.011.828.007,1.242,0,.142-.009.284-.01.426a.559.559,0,0,0-.01.14c-.036-.1.106-.3.18-.386-.577.7.421,1.706,1,1,.4-.486.258-1.368.253-1.954-.012-1.172-.04-2.344-.058-3.516-.021-1.319-.037-2.638-.016-3.957.009-.561.023-1.123.059-1.683a5.334,5.334,0,0,1,.119-1.007c.2-.887-1.162-1.266-1.367-.377Z" fill="#fff"/>
    <path id="パス_512" data-name="パス 512" d="M552.931,494.523a1.2,1.2,0,0,1,.142-.038c.036-.008.157-.008.02,0s.008,0,.04,0c.188-.017.376-.028.565-.036.532-.021,1.065-.021,1.6-.018.927,0,1.854.037,2.78.038a.709.709,0,0,0,0-1.417c-.947,0-1.895-.035-2.843-.039-.528,0-1.057,0-1.585.021a3.639,3.639,0,0,0-1.093.13.728.728,0,0,0-.495.872.714.714,0,0,0,.871.495Z" fill="#fff"/>
    <path id="パス_513" data-name="パス 513" d="M552.83,500.756h6.121a.709.709,0,0,0,0-1.417H552.83a.709.709,0,0,0,0,1.417Z" fill="#fff"/>
  </g>
</svg>
