<svg xmlns="http://www.w3.org/2000/svg" width="419.13" height="53.187" viewBox="0 0 419.13 53.187">
  <g id="グループ_15" data-name="グループ 15" transform="translate(-931.965 -1055.121)">
    <path id="パス_60" data-name="パス 60" d="M933.135,1074.639c3.191-5.069,2.462-11.614,2.392-17.354q4.149-.027,8.3-.056a21.59,21.59,0,0,1-1.386,3.005.537.537,0,0,0-.05.294l-1.738.026-1.27.019a.4.4,0,0,0-.106.023.46.46,0,0,0-.526.463c0,2.369-.142,4.734-.145,7.1a.46.46,0,0,0,.488.47.424.424,0,0,0,.082.017h4.608c0,1.911.013,3.822.025,5.733-.853-.149-1.708-.294-2.558-.457l0,.016a.8.8,0,0,0-.127-.034h0c-.541-.069-.666.854-.129.957,1.056.2,2.119.379,3.178.567a.494.494,0,0,0,.616-.469q-.022-3.156-.028-6.313h4.186a.468.468,0,0,0,.454-.587,3.143,3.143,0,0,0,.062-1.073c0-.8,0-1.594-.007-2.391q-.011-1.839-.032-3.679a.494.494,0,0,0-.487-.487l-5.543.082a18.092,18.092,0,0,0,1.458-3.288q3.5-.021,7-.027a.487.487,0,0,0,0-.974c-5.6,0-11.208.054-16.812.091a.5.5,0,0,0-.487.487c.029,5.669.924,12.3-2.253,17.346C931.96,1074.679,932.8,1075.169,933.135,1074.639Zm15.542-7.15.027-.035.028.007C948.714,1067.47,948.7,1067.478,948.677,1067.489Zm-.2-2.4c0,.53.007,1.06.006,1.59,0,.272,0,.544-.005.817,0,.06,0,.121,0,.181h-8.888c.007-.828.026-1.656.051-2.485.244.007.488.006.729.007.813.005,1.627,0,2.44,0,1.718-.011,3.438-.021,5.155-.092C948.094,1065.094,948.285,1065.1,948.48,1065.086Zm-.029-3.674q.014,1.344.024,2.687l-.021,0c-.244.017-.49.026-.734.035-.726.025-1.452.039-2.178.051q-2.466.042-4.934.037c-.3,0-.592,0-.888-.008l-.06,0c.026-.891.047-1.782.054-2.673q4.011-.054,8.023-.118Z" fill="#1a1311" stroke="#000" stroke-width="0.5"/>
    <path id="パス_61" data-name="パス 61" d="M939.347,1070.351a5.568,5.568,0,0,1-1.238,1.955c-.405.465-.831.911-1.244,1.37a.613.613,0,0,0-.222.182c-.034.045-.1.093-.14.141a.906.906,0,0,0-.188.369.5.5,0,0,0,.224.55.491.491,0,0,0,.59-.076c.554-.675,1.184-1.282,1.753-1.944a6.338,6.338,0,0,0,1.4-2.289A.487.487,0,0,0,939.347,1070.351Z" fill="#1a1311" stroke="#000" stroke-width="0.5"/>
    <path id="パス_62" data-name="パス 62" d="M947.832,1070.06a.491.491,0,0,0-.175.666c.856,1.217,1.8,2.375,2.609,3.623a.5.5,0,0,0,.666.175.491.491,0,0,0,.175-.666c-.81-1.248-1.753-2.407-2.609-3.624A.5.5,0,0,0,947.832,1070.06Z" fill="#1a1311" stroke="#000" stroke-width="0.5"/>
    <path id="パス_63" data-name="パス 63" d="M960.621,1062.209a15.014,15.014,0,0,0,3.957-4.8.494.494,0,0,0-.55-.715c.261-.057-.063-.007-.144-.005-.207.007-.413.012-.62.017q-.936.024-1.871.042c-.911.02-1.823.045-2.735.055a.487.487,0,0,0,0,.974c.942-.011,1.884-.037,2.825-.057q.909-.019,1.818-.041a15.273,15.273,0,0,1-3.258,3.746c-.038.033-.081.063-.12.1a.464.464,0,0,0-.121-.062c-.028-.009-.057-.021-.086-.029l-.02-.009a1.655,1.655,0,0,1-.167-.1c-.039-.024-.075-.051-.113-.077l-.006,0-.008-.008c-.057-.049-.114-.1-.17-.147a9.164,9.164,0,0,1-.76-.817,10.56,10.56,0,0,0-1.6-1.662.489.489,0,0,0-.666.174.5.5,0,0,0,.174.667c-.1-.078.029.024.047.039l.088.076q.105.093.2.192c.131.13.257.266.379.4.262.3.512.6.769.9a5.2,5.2,0,0,0,1.213,1.131,16.449,16.449,0,0,1-4.033,2.31c-.579.222-.328,1.164.259.939A18.73,18.73,0,0,0,960.621,1062.209Z" fill="#1a1311" stroke="#000" stroke-width="0.5"/>
    <path id="パス_64" data-name="パス 64" d="M970.382,1062.543a3.612,3.612,0,0,0,1.387-1.223c.22-.284.432-.574.644-.863.094-.128.184-.264.287-.385-.05.059-.025.032.009-.012.021-.026.042-.053.064-.079.046-.058.094-.115.143-.172a.487.487,0,0,0-.689-.688c-.415.48-.767,1.013-1.152,1.517l-.036.046.017-.022-.071.09c-.051.064-.1.127-.155.189-.092.109-.187.216-.287.318-.046.047-.094.093-.143.138a1.2,1.2,0,0,0-.13.109l-.007.006c-.023.016-.047.031-.071.046s-.229.113-.069.046a.5.5,0,0,0-.34.6A.491.491,0,0,0,970.382,1062.543Z" fill="#1a1311" stroke="#000" stroke-width="0.5"/>
    <path id="パス_65" data-name="パス 65" d="M974.166,1064.776a10.165,10.165,0,0,1-5.015-2.4,13.706,13.706,0,0,1-2.037-1.99c.388-.382.736-.806,1.084-1.221a17.942,17.942,0,0,1,1.384-1.531.49.49,0,0,0,0-.688.5.5,0,0,0-.688,0,17.581,17.581,0,0,0-1.384,1.53c-.316.377-.635.757-.979,1.111a7.079,7.079,0,0,1-.881-1.847.487.487,0,0,0-.939.259,10.88,10.88,0,0,0,3.854,5.147,11.2,11.2,0,0,0,5.6,2.6C974.789,1065.813,974.784,1064.839,974.166,1064.776Z" fill="#1a1311" stroke="#000" stroke-width="0.5"/>
    <path id="パス_66" data-name="パス 66" d="M968.514,1063.326c-2.658,0-5.314.139-7.972.145a.487.487,0,0,0,0,.974c.37,0,.739-.016,1.109-.021a10.361,10.361,0,0,1-.409,3.638c-1.828.02-3.655.046-5.483.047a.487.487,0,0,0,0,.974c1.728,0,3.455-.026,5.182-.044-.178.516-.378,1.017-.588,1.492-.736,1.665-2.056,4.074-4.159,4.1a.487.487,0,0,0,0,.974c2.412-.03,3.989-2.4,4.9-4.354a20.119,20.119,0,0,0,.877-2.221c1.365-.016,2.729-.019,4.093-.035q-.016.606-.03,1.213c-.021.951-.09,1.926-.032,2.876a1.989,1.989,0,0,0,.4,1.11c1.063,1.386,3.419,1.414,5,1.4a16.366,16.366,0,0,0,1.64-.085.5.5,0,0,0,.487-.486c.056-.982.111-1.966.115-2.949a.487.487,0,0,0-.973,0c0,.834-.046,1.667-.092,2.5a14.634,14.634,0,0,1-3.118-.055,4.089,4.089,0,0,1-2.1-.725,1.047,1.047,0,0,1-.38-.71,20.671,20.671,0,0,1,.025-2.574q.016-.762.037-1.524c1.894-.021,3.788-.047,5.683-.048a.487.487,0,0,0,0-.974c-1.887,0-3.773.027-5.659.049.03-1.207.057-2.413.058-3.62a.484.484,0,0,0-.013-.068c.47-.007.94-.025,1.411-.025A.487.487,0,0,0,968.514,1063.326Zm-2.371,1.067c0,1.209-.029,2.419-.059,3.628-1.276.015-2.552.017-3.828.033a10.735,10.735,0,0,0,.368-3.648c1.176-.025,2.353-.038,3.529-.064A.415.415,0,0,0,966.143,1064.393Z" fill="#1a1311" stroke="#000" stroke-width="0.5"/>
    <path id="パス_67" data-name="パス 67" d="M980.74,1074.973c.007-6.378.358-12.752.29-19.131a.487.487,0,0,0-.974,0c.069,6.379-.283,12.753-.29,19.131A.487.487,0,0,0,980.74,1074.973Z" fill="#1a1311" stroke="#000" stroke-width="0.5"/>
    <path id="パス_68" data-name="パス 68" d="M976.889,1065.108c-.013.019-.015.028-.014.1A.585.585,0,0,1,976.889,1065.108Z" fill="#1a1311" stroke="#000" stroke-width="0.5"/>
    <path id="パス_69" data-name="パス 69" d="M977.934,1060.283a.5.5,0,0,0-.487.487q-.17,1.363-.349,2.729-.078.6-.157,1.209c-.017.128-.034.257-.05.386l0,.014a.619.619,0,0,0,.045-.087l.014,0a.617.617,0,0,0-.08.238v0c-.042.465.72.688.907.246a1.206,1.206,0,0,0,.063-.247h0v-.014c.025-.14.041-.283.059-.423l.159-1.225q.185-1.417.363-2.835A.489.489,0,0,0,977.934,1060.283Z" fill="#1a1311" stroke="#000" stroke-width="0.5"/>
    <path id="パス_70" data-name="パス 70" d="M982.389,1062.723l-.009-.04C982.386,1062.8,982.4,1062.765,982.389,1062.723Z" fill="#1a1311" stroke="#000" stroke-width="0.5"/>
    <path id="パス_71" data-name="パス 71" d="M982.289,1062.355c.028.092.055.184.079.277l.012.051v-.022a.444.444,0,0,0,.139.337.494.494,0,0,0,.688,0c.294-.309.046-.83-.06-1.174-.141-.459-.288-.916-.417-1.378-.028-.1-.055-.2-.079-.3-.01-.038-.018-.077-.026-.116a.541.541,0,0,0-.01-.055c-.006-.027,0,.009,0,.043a.484.484,0,0,0-.967.03,7.8,7.8,0,0,0,.395,1.513C982.127,1061.824,982.21,1062.088,982.289,1062.355Zm.093.281,0,.016v-.022C982.378,1062.641,982.381,1062.631,982.382,1062.636Z" fill="#1a1311" stroke="#000" stroke-width="0.5"/>
    <path id="パス_72" data-name="パス 72" d="M995.761,1073.617c-1.825.03-3.65.065-5.475.1.005-.146-.006-.3-.005-.44,0-.582.018-1.164.032-1.745.031-1.273.072-2.545.111-3.817,1.393-.012,2.785-.023,4.178-.049a.487.487,0,0,0,0-.974c-1.383.026-2.766.037-4.149.049.006-.209.011-.418.018-.626.049-1.57.112-3.141.164-4.713.928-.007,1.855-.018,2.782-.017.271,0,.543,0,.814,0,.081,0,.164.007.246.006a.116.116,0,0,0,.035-.005.488.488,0,0,0,.434-.815c-.242-.24-.765-.161-1.074-.163-.677,0-1.355,0-2.032,0l-1.176.01c.042-1.382.074-2.763.076-4.144a.487.487,0,0,0-.973,0c0,1.384-.027,2.768-.063,4.152l-2.611.021c-.279,0-.564.012-.847.011.2-.818.382-1.639.564-2.461.135-.61-.8-.871-.939-.259-.269,1.21-.511,2.426-.857,3.617a7.326,7.326,0,0,1-1.482,3.125c-.437.449.25,1.139.689.689a8.045,8.045,0,0,0,1.676-3.364c.037-.124.063-.251.1-.376.935.067,1.906-.016,2.841-.024.279,0,.558,0,.837-.005-.053,1.782-.117,3.563-.182,5.345-1.533.013-3.067.027-4.6.057a.487.487,0,0,0,0,.973c1.521-.029,3.043-.043,4.564-.056-.056,1.592-.107,3.185-.137,4.777,0,.232-.082.766-.066,1.227-1.375.021-2.751.042-4.126.052-.384,0-.769.005-1.153,0-.117,0-.234-.007-.35-.006a.383.383,0,0,1-.055,0c-.457-.172-.832.558-.372.9.293.215,1.033.087,1.359.086.973,0,1.945-.016,2.918-.028q3.342-.045,6.683-.107l1.6-.03A.487.487,0,0,0,995.761,1073.617Zm-12.2.156c-.058-.005-.048-.01,0,0Zm.016,0a.328.328,0,0,1,.114.053A.416.416,0,0,0,983.573,1073.775Z" fill="#1a1311" stroke="#000" stroke-width="0.5"/>
    <path id="パス_73" data-name="パス 73" d="M1000.453,1061.838a52.724,52.724,0,0,0,4.242-3.783.446.446,0,0,0,.052.013c2.233.11,4.486.021,6.724-.082a35.6,35.6,0,0,1-2.575,3.019.448.448,0,0,0-.051.589q-3.055.048-6.112.07a.843.843,0,0,0-.673.533c0,1.6.019,3.2.026,4.8a.442.442,0,0,0,.019.092.48.48,0,0,0,.442.66q1.7,0,3.4.007c-.588,2.69-1.863,6.045-4.811,6.742-.609.145-.351,1.084.259.939,3.394-.8,4.912-4.6,5.546-7.679q1.566,0,3.132.006a.528.528,0,0,0-.019.1c.027,1.209-.216,2.412-.261,3.619a4.24,4.24,0,0,0,.875,3.285c1.031.975,2.8.779,4.085.631.9-.1,2.154-.11,2.835-.806a2.111,2.111,0,0,0,.495-1.29,18.949,18.949,0,0,0,.047-2.105.487.487,0,0,0-.974,0c0,.594.015,1.192-.021,1.786a3,3,0,0,1-.051.466,1.966,1.966,0,0,1-.062.237c-.037.115.006.026-.066.139-.054.087.023-.012-.057.078a.645.645,0,0,1-.076.071l-.014.009a1.038,1.038,0,0,1-.369.162,8.734,8.734,0,0,1-1.4.245,13.789,13.789,0,0,1-2.009.135,2.723,2.723,0,0,1-1.619-.4c-.715-.572-.673-1.789-.646-2.6.042-1.222.29-2.439.263-3.663a.442.442,0,0,0-.023-.1q2.015,0,4.029.007a.442.442,0,0,0,.441-.308.489.489,0,0,0,.112-.266l0-.03v0c.084-1.737.217-3.472.326-5.207a.491.491,0,0,0-.487-.487q-2.871.054-5.742.1a46.754,46.754,0,0,0,3.156-3.783c.237-.3.12-.852-.344-.831-2.346.107-4.716.221-7.067.146a8.182,8.182,0,0,0,.458-.735c.3-.551-.541-1.043-.841-.491-1.215,2.236-3.451,3.595-5.286,5.264C999.3,1061.572,999.99,1062.26,1000.453,1061.838Zm14.187,4.966q-2.78,0-5.557-.011c0-1.41.014-2.82.057-4.229q2.886-.047,5.771-.1C1014.817,1063.908,1014.715,1065.356,1014.64,1066.8Zm-11.581-.023c-.007-1.382-.02-2.765-.023-4.147q2.565-.016,5.13-.059c-.043,1.405-.055,2.811-.057,4.216Q1005.583,1066.784,1003.059,1066.781Z" fill="#1a1311" stroke="#000" stroke-width="0.5"/>
    <path id="パス_74" data-name="パス 74" d="M1022.163,1061.985c.13.25.261.5.386.751s.236.5.319.707a.5.5,0,0,0,.6.34.491.491,0,0,0,.34-.6,16.712,16.712,0,0,0-.754-1.6c-.133-.254-.267-.509-.393-.766s-.246-.52-.341-.762a.5.5,0,0,0-.6-.34.492.492,0,0,0-.34.6A17.42,17.42,0,0,0,1022.163,1061.985Z" fill="#1a1311" stroke="#000" stroke-width="0.5"/>
    <path id="パス_75" data-name="パス 75" d="M1022.829,1067.622a11.2,11.2,0,0,0,1.18-1.679.487.487,0,0,0-.841-.492,8.454,8.454,0,0,1-.5.792c-.092.13-.186.259-.284.385-.019.027-.02.027,0,0l-.031.041-.081.1c-.053.067-.108.134-.163.2a16.4,16.4,0,0,1-1.327,1.424.491.491,0,0,0,0,.688.5.5,0,0,0,.689,0A16.641,16.641,0,0,0,1022.829,1067.622Z" fill="#1a1311" stroke="#000" stroke-width="0.5"/>
    <path id="パス_76" data-name="パス 76" d="M1040.175,1058.175c-2.469-.079-4.943-.069-7.417-.053.014-.663.013-1.327.013-1.99a.487.487,0,0,0-.974,0c0,.665,0,1.331-.013,2-1.456.01-2.912.019-4.366.01-.625,0-1.272.037-1.894-.029a.392.392,0,0,0-.455.372.452.452,0,0,0-.083.259c-.036,5.237-.876,10.613-3.7,15.118-.334.532.508,1.021.841.491,2.848-4.539,3.75-9.954,3.824-15.239,1.439.106,2.931.009,4.363.011,2.515,0,5.029,0,7.544.009.773,0,1.547-.005,2.319.019C1040.8,1059.169,1040.8,1058.195,1040.175,1058.175Z" fill="#1a1311" stroke="#000" stroke-width="0.5"/>
    <path id="パス_77" data-name="パス 77" d="M1040.24,1062.039a.5.5,0,0,0-.6.34c-.116.49-.216.984-.316,1.478-.053.262-.1.526-.163.788-.554.02-1.108.056-1.663.036-.49-.018-1.217-.007-1.385-.563a4.459,4.459,0,0,1,.01-1.872,11.686,11.686,0,0,1,.235-1.184.492.492,0,0,0-.47-.616c-1.683.056-3.369.124-5.054.127a.482.482,0,0,0-.193.039.426.426,0,0,0-.209.2.6.6,0,0,0-.085.246,5.21,5.21,0,0,1-.926,2.364,5.106,5.106,0,0,1-1.876,1.709.492.492,0,0,0-.175.666.5.5,0,0,0,.666.175,6.1,6.1,0,0,0,2.226-2.059,6.254,6.254,0,0,0,.98-2.375c1.342-.01,2.683-.053,4.024-.1a5.569,5.569,0,0,0-.017,3.151,1.992,1.992,0,0,0,1.878,1.041c.814.075,1.627-.022,2.442-.028a.451.451,0,0,0,.459-.419c0-.008.009-.013.011-.021.1-.343.154-.7.224-1.048.1-.494.2-.988.316-1.478A.494.494,0,0,0,1040.24,1062.039Z" fill="#1a1311" stroke="#000" stroke-width="0.5"/>
    <path id="パス_78" data-name="パス 78" d="M1027.486,1075.442a12.666,12.666,0,0,0,5.342-2.548c.342.245.692.481,1.055.7a13.134,13.134,0,0,0,5.213,1.724c.621.074.616-.9,0-.974a12,12,0,0,1-4.832-1.657c-.217-.132-.421-.281-.63-.424a39.011,39.011,0,0,0,3.432-2.962c.271-.266.542-.534.8-.81a.493.493,0,0,0-.344-.832q-4.577,0-9.153.018a.487.487,0,0,0,0,.974q3.981-.018,7.963-.016c-.812.8-1.655,1.568-2.531,2.288-.309.254-.631.51-.959.766a28.006,28.006,0,0,1-2.534-2.275.487.487,0,0,0-.689.689,30.035,30.035,0,0,0,2.419,2.187,11.24,11.24,0,0,1-4.813,2.216C1026.609,1074.593,1026.872,1075.531,1027.486,1075.442Z" fill="#1a1311" stroke="#000" stroke-width="0.5"/>
    <path id="パス_79" data-name="パス 79" d="M1044.459,1058.213h9.366c-2.317,3.806-4.64,7.644-8.6,9.963a.487.487,0,0,0,.491.84,21.058,21.058,0,0,0,6.659-6.707v12.809a.487.487,0,0,0,.974,0v-13.189a.446.446,0,0,0-.415-.458c.695-1.071,1.362-2.166,2.029-3.258h6.885a.487.487,0,0,0,0-.974h-17.392A.487.487,0,0,0,1044.459,1058.213Z" fill="#1a1311" stroke="#000" stroke-width="0.5"/>
    <path id="パス_80" data-name="パス 80" d="M1061.274,1067.072c-.605-.457-1.22-.9-1.834-1.345-1.371-.989-2.751-1.965-4.131-2.942-.4-.279-.794-.554-1.184-.842-.5-.372-.99.473-.491.841,2.264,1.672,4.608,3.236,6.867,4.918a4.779,4.779,0,0,1,1.006.8c.393.488,1.078-.2.688-.688A5.046,5.046,0,0,0,1061.274,1067.072Z" fill="#1a1311" stroke="#000" stroke-width="0.5"/>
    <path id="パス_81" data-name="パス 81" d="M1066.908,1063.993a10.959,10.959,0,0,0,4.959-3.085,16.028,16.028,0,0,0,3.006-3.8,11.775,11.775,0,0,1,1.521,1.05c.915.678,1.818,1.37,2.736,2.043.955.7,1.921,1.387,2.934,2a7.154,7.154,0,0,0,2.412,1.074c.613.1.877-.838.259-.939a6.629,6.629,0,0,1-2.267-1.029c-1.015-.619-1.983-1.311-2.94-2.014-.9-.66-1.784-1.338-2.679-2a10.779,10.779,0,0,0-1.542-1.053c.017-.04.041-.076.057-.116.236-.58-.7-.833-.939-.259a13.4,13.4,0,0,1-3.247,4.362,10,10,0,0,1-4.529,2.835C1066.036,1063.183,1066.3,1064.122,1066.908,1063.993Z" fill="#1a1311" stroke="#000" stroke-width="0.5"/>
    <path id="パス_82" data-name="パス 82" d="M1066.5,1075.009a11.743,11.743,0,0,0,2.458-.008q2.679-.047,5.358-.1c3.309-.065,6.62-.164,9.929-.167a.487.487,0,0,0,0-.974c-2.914,0-5.829.08-8.743.142l-.006-.145c-.006-.242-.007-.484-.009-.726,0-.745,0-1.492,0-2.237,0-.531.012-1.062.016-1.593,2.115-.074,4.229-.139,6.341-.115a.487.487,0,0,0,0-.974c-2.109-.024-4.22.041-6.331.114.009-.8.014-1.607.025-2.411.005-.347.008-.7.019-1.041,1.389-.018,2.778-.037,4.167-.045.359,0,.717,0,1.076,0,.1,0,.212.007.317,0,.126,0,.145.04.018-.01.585.226.838-.715.258-.939a3.905,3.905,0,0,0-1.24-.027c-.94,0-1.88.012-2.82.021-2.121.021-4.242.046-6.362.089a6.2,6.2,0,0,0-1.576.062c-.6.184-.343,1.124.259.939-.224.069.124,0,.233,0,.3-.01.591-.015.887-.022q1.389-.029,2.779-.046c.342-.005.684-.007,1.025-.011-.054,1.155-.077,2.315-.084,3.476-1.995.07-3.99.14-5.984.142a.487.487,0,0,0,0,.974c1.992,0,3.985-.072,5.979-.142,0,1.289.012,2.578.021,3.86,0,.2-.028.531,0,.829h0q-2.673.053-5.345.1c-.587.01-1.175.021-1.762.028a3.7,3.7,0,0,0-.537.005c-.077.013-.353-.038-.106.013l.011.02a.474.474,0,0,0-.61.319h0A.49.49,0,0,0,1066.5,1075.009Zm8.935-1.154v0Z" fill="#1a1311" stroke="#000" stroke-width="0.5"/>
    <path id="パス_83" data-name="パス 83" d="M1089.518,1063.7a.492.492,0,0,0,.34-.6,8.768,8.768,0,0,1-.635-3.349.487.487,0,1,0-.974,0,9.541,9.541,0,0,0,.67,3.608A.5.5,0,0,0,1089.518,1063.7Z" fill="#1a1311" stroke="#000" stroke-width="0.5"/>
    <path id="パス_84" data-name="パス 84" d="M1107.454,1058.059c-2.8,0-5.6.1-8.4.187a.638.638,0,0,0,.029-.119c.062-.641.138-1.286.155-1.93a1,1,0,0,0-.019-.256.494.494,0,0,0-.824-.226.525.525,0,0,0-.142.344.494.494,0,0,0,.012.062v.022c0,.055,0,.11-.006.164-.008.168-.021.336-.034.5-.028.358-.06.717-.093,1.075-.008.081-.016.161-.023.242a.367.367,0,0,0,.024.146c-2.117.064-4.234.123-6.351.125a.49.49,0,0,0-.3.861c0,1.9-.01,3.831-.169,5.733-1.441,1.017-2.515,2.467-4.124,3.256a.491.491,0,0,0-.175.666.5.5,0,0,0,.666.175,10.079,10.079,0,0,0,2.3-1.649c.4-.36.793-.748,1.2-1.1a16.217,16.217,0,0,1-3.649,8.942c-.41.47.276,1.162.689.689,4.068-4.663,4.236-10.734,4.241-16.607,5-.031,10-.324,15-.33A.487.487,0,0,0,1107.454,1058.059Zm-8.971-1.6c.013.007.024.017.039.024l-.027-.007Zm.284.08a.533.533,0,0,0,.1-.016l0,0Zm-.489-.34v0Z" fill="#1a1311" stroke="#000" stroke-width="0.5"/>
    <path id="パス_85" data-name="パス 85" d="M1107.187,1061.726c.163-.072.3-.031.118-.058a1.935,1.935,0,0,0-.313.014c-.323.014-.646.025-.968.037q-1.555.057-3.11.108-3.534.118-7.068.222c-.63.018-1.262.052-1.892.045a.487.487,0,0,0,0,.974c1.645.018,3.3-.086,4.943-.137.43-.014.859-.03,1.288-.043-.282,3.62-.39,7.28-.412,10.908-1.208,0-2.415.013-3.622.018,0-2.513.028-5.025.029-7.537a.487.487,0,0,0-.974,0c0,2.514-.027,5.028-.029,7.541-1.06.006-2.12,0-3.18.016a.487.487,0,0,0,0,.974c5.121-.057,10.244-.033,15.366-.033a.487.487,0,0,0,0-.974q-3.309,0-6.617,0c.011-1.843.044-3.695.111-5.545.126,0,.253-.005.372-.007.413-.008.826-.02,1.239-.033.934-.029,1.868-.061,2.8-.1a2.843,2.843,0,0,0,.771-.057.483.483,0,0,0-.171-.948s0,0-.012,0c-.038,0-.076.006-.114.008-.128.009-.257.015-.386.021q-.6.029-1.2.05c-.918.035-1.835.068-2.753.087-.161,0-.322.007-.483.008h-.025c.063-1.476.146-2.951.26-4.419q2.409-.077,4.818-.16a5.058,5.058,0,0,0,1.7-.128C1108.25,1062.313,1107.755,1061.474,1107.187,1061.726Z" fill="#1a1311" stroke="#000" stroke-width="0.5"/>
    <path id="パス_86" data-name="パス 86" d="M1111.946,1063.908v11.215a.487.487,0,0,0,.974,0v-12.876c.074-.149.148-.3.216-.443a13.821,13.821,0,0,0,1.523-5.527.487.487,0,0,0-.974,0,12.573,12.573,0,0,1-1.341,4.93,12.02,12.02,0,0,1-1.393,2.38,3.627,3.627,0,0,1-1.691,1.351.487.487,0,0,0,.259.939A4.778,4.778,0,0,0,1111.946,1063.908Z" fill="#1a1311" stroke="#000" stroke-width="0.5"/>
    <path id="パス_87" data-name="パス 87" d="M1115.3,1072.471c-.044.625.93.623.974,0,.293-4.083-.092-8.194-.1-12.281a.487.487,0,0,0-.974,0C1115.213,1064.277,1115.6,1068.388,1115.3,1072.471Z" fill="#1a1311" stroke="#000" stroke-width="0.5"/>
    <path id="パス_88" data-name="パス 88" d="M1129.607,1060.79c-.947.006-1.894.024-2.842.042.112-.48.168-.983.239-1.456q.132-.885.242-1.773a.49.49,0,0,0-.486-.487c-2.482-.016-4.964-.033-7.446-.034a.487.487,0,0,0,0,.974c2.3,0,4.6.017,6.9.031-.045.339-.091.675-.144,1.03-.06.4-.122.794-.2,1.188-.031.165-.063.329-.1.492,0,.018-.009.035-.014.053q-1.59.035-3.181.076c-.994.025-1.988.051-2.982.071a13.708,13.708,0,0,1-1.5.01c-.624-.057-.62.917,0,.974a13.007,13.007,0,0,0,1.452-.009c1.012-.02,2.023-.047,3.034-.072,2.345-.058,4.691-.122,7.036-.136A.487.487,0,0,0,1129.607,1060.79Z" fill="#1a1311" stroke="#000" stroke-width="0.5"/>
    <path id="パス_89" data-name="パス 89" d="M1129.173,1073.834a2.341,2.341,0,0,1-.543-.058,5.8,5.8,0,0,1-.721-.2,8.083,8.083,0,0,1-1.569-.746,6.821,6.821,0,0,1-2.617-2.671.4.4,0,0,0-.363-.238c.014-.03.025-.061.039-.091,1.382-.053,2.764-.106,4.146-.168a12.79,12.79,0,0,0,1.54-.092c.616-.1.355-1.044-.259-.939.257-.044-.168,0-.252.008-.28.015-.559.028-.839.041q-1.308.06-2.616.111c-.44.018-.88.033-1.321.051a9.9,9.9,0,0,0,.642-3.512l.164-.007c.63-.026,1.261-.054,1.892-.076.207-.008.413-.015.619-.018.065,0,.131,0,.2,0,.177-.009-.032-.013-.123-.055.564.262,1.059-.577.491-.841a2.2,2.2,0,0,0-.974-.066c-.64.02-1.281.049-1.921.076-1.323.056-2.648.111-3.973.129a5.186,5.186,0,0,0,.352-.894.487.487,0,1,0-.939-.259c-.037.131-.082.259-.13.386l-.01.027,0,.009-.039.088c-.03.066-.062.132-.095.2a7.292,7.292,0,0,1-.473.805c-.086.128-.175.253-.266.377l-.061.081c-.02.026-.021.027,0,0l-.031.039c-.047.059-.093.117-.141.175q-.276.335-.58.643a.487.487,0,0,0,.689.689,10.311,10.311,0,0,0,1.138-1.387c.014,0,.024.008.039.008,1.069,0,2.138-.044,3.206-.088a9.31,9.31,0,0,1-.72,3.512c-1.148.045-2.3.092-3.444.131a10.566,10.566,0,0,1-1.433.036c-.623-.067-.618.908,0,.974a8.6,8.6,0,0,0,1.168-.028c.882-.028,1.764-.061,2.645-.094l.615-.025c-.154.31-.314.614-.486.906-.951,1.621-2.36,3.315-4.289,3.719-.613.129-.354,1.068.259.939,2.129-.446,3.733-2.269,4.8-4.055.124-.206.243-.419.359-.634a7.83,7.83,0,0,0,2.905,2.921,6.848,6.848,0,0,0,3.324,1.134A.487.487,0,0,0,1129.173,1073.834Z" fill="#1a1311" stroke="#000" stroke-width="0.5"/>
    <path id="パス_90" data-name="パス 90" d="M1133.172,1056.444c-.141-.045-.107.011,0,0Z" fill="#1a1311" stroke="#000" stroke-width="0.5"/>
    <path id="パス_91" data-name="パス 91" d="M1134.349,1071.121q-.034.948-.074,1.9c-.009.211-.018.421-.029.631,0,.085-.057.406,0,.14l.037-.047c-.134.371.233.843.646.61.013,0,.022.007.035.007,1.693,0,3.385-.093,5.078-.094a.465.465,0,0,0,.458-.563.5.5,0,0,0,.029-.141c0-1.877.1-3.758.182-5.633a.5.5,0,0,0-.487-.487c-.71-.036-1.421-.055-2.132-.063a15.73,15.73,0,0,0-2.672.1v-.007a.436.436,0,0,0-.2-.38c.14-.417.27-.828.384-1.211.077-.259.151-.519.224-.779.405-.009.81-.012,1.214-.021l2.066-.043.678-.013h.043v.007a.487.487,0,0,0,.973,0c0-1.2.018-2.4.041-3.6l.564,0c.095,0,.527.043.246-.016.612.127.874-.811.259-.939a5.076,5.076,0,0,0-1-.018h-.049c.018-.87.037-1.739.052-2.608q.008-.454.016-.908a.493.493,0,0,0-.487-.487q-3.2,0-6.408-.011l-.661,0a1.938,1.938,0,0,0-.2,0h0a1.27,1.27,0,0,1,.16.064c-.564-.266-1.059.573-.492.841a2.174,2.174,0,0,0,.881.073q.864,0,1.728.005h.69a22.6,22.6,0,0,1-.285,3.046c-.817,0-1.634.005-2.451,0-.3,0-.594,0-.891,0-.094,0-.188-.007-.281,0-.114,0-.123-.025.006.011a.487.487,0,0,0-.259.939,4.125,4.125,0,0,0,1.042.03c.766,0,1.532,0,2.3,0h.38c-.174.907-.394,1.806-.632,2.7-.638.013-1.276.023-1.915.023a.487.487,0,0,0,0,.974c.552,0,1.1-.018,1.655-.028-.016.057-.03.115-.046.173-.538,1.88-1.277,4.563-3.224,5.454-.569.261-.075,1.1.491.841a5.331,5.331,0,0,0,2.393-2.55C1134.4,1069.733,1134.374,1070.427,1134.349,1071.121Zm2.77-13.691,2.36,0h.468q-.027,1.516-.051,3.032l-1.262,0-1.773,0A23.6,23.6,0,0,0,1137.119,1057.43Zm-.422,4.018,3.183-.008c-.012.731-.026,1.463-.037,2.194,0,.139,0,.277,0,.416-.219,0-.439.009-.65.014q-1.035.02-2.071.043l-1.026.023C1136.324,1063.242,1136.531,1062.349,1136.7,1061.448Zm-1.149,6.987.019,0,.033,0,.147-.015c.244-.024.489-.037.734-.047.558-.021,1.117-.022,1.676-.015.52.007,1.041.027,1.561.048-.072,1.632-.147,3.267-.156,4.9-1.442.014-2.884.071-4.326.081,0-.04,0-.083,0-.119q.042-.961.077-1.925c.035-.957.069-1.915.088-2.874C1135.451,1068.453,1135.5,1068.442,1135.548,1068.435Z" fill="#1a1311" stroke="#000" stroke-width="0.5"/>
    <path id="パス_92" data-name="パス 92" d="M1144.682,1059.341a.487.487,0,1,0,.939-.259,9.666,9.666,0,0,0-.561-1.453c-.026-.058-.051-.116-.076-.175.033.078-.037-.089-.043-.1-.041-.1-.08-.207-.116-.312s-.077-.24-.107-.362c-.015-.061-.029-.123-.041-.185l-.015-.091,0-.015a.5.5,0,0,0-.487-.487c-.239.011-.518.216-.487.487a5.668,5.668,0,0,0,.476,1.6A8.3,8.3,0,0,1,1144.682,1059.341Z" fill="#1a1311" stroke="#000" stroke-width="0.5"/>
    <path id="パス_93" data-name="パス 93" d="M1147.416,1060.208a.49.49,0,0,0,.689,0c.448-.578.878-1.17,1.28-1.782a12.588,12.588,0,0,0,.97-1.686.5.5,0,0,0-.175-.666.49.49,0,0,0-.666.174,12.218,12.218,0,0,1-.94,1.64q-.288.443-.595.871-.148.208-.3.414c-.051.07-.1.139-.155.208l-.061.08s-.093.121-.045.058A.5.5,0,0,0,1147.416,1060.208Z" fill="#1a1311" stroke="#000" stroke-width="0.5"/>
    <path id="パス_94" data-name="パス 94" d="M1151.691,1069.818c-1.3-.026-2.609-.015-3.914,0,0-.278-.005-.555-.008-.833-.01-.988-.014-1.976-.024-2.964.553,0,1.106,0,1.66-.005.276,0,.868.074,1.068-.171a.5.5,0,0,0,.076-.59h0a.5.5,0,0,0-.767-.075l0-.023c.048-.059.241-.16.306-.135-.011,0-.037,0-.049,0-.051,0-.1.005-.154.007-.168.005-.337.008-.5.01-.521.008-1.041.01-1.562.012h-.084c-.012-1.215-.028-2.43-.03-3.645.533,0,1.066-.01,1.6-.008a13.872,13.872,0,0,1,1.5.038c.622.069.617-.906,0-.974a13.872,13.872,0,0,0-1.5-.038c-.825,0-1.65.005-2.475.013-.788.008-1.576.019-2.364.026a9.6,9.6,0,0,1-1.163,0c-.622-.071-.617.9,0,.974a9.807,9.807,0,0,0,1.163,0c.755-.007,1.511-.017,2.266-.025,0,1.213.018,2.425.03,3.637-.812,0-1.623,0-2.435-.005-.209,0-.419,0-.628-.007-.076,0-.429-.032-.158.008a.5.5,0,0,0-.6.34.49.49,0,0,0,.34.6,17.559,17.559,0,0,0,2.482.041c.335,0,.671,0,1.006,0,.01.987.014,1.974.024,2.961,0,.281.006.563.009.844l-.828.009c-1.429.015-2.876-.029-4.3.058-.622.038-.627,1.012,0,.974,1.427-.087,2.874-.043,4.3-.058l.837-.009q.012,1.215.024,2.43a14.081,14.081,0,0,1,.014,1.849c-.079.62.9.614.973,0a13.913,13.913,0,0,0-.013-1.849q-.012-1.221-.024-2.441c1.3-.016,2.6-.027,3.9,0A.487.487,0,0,0,1151.691,1069.818Z" fill="#1a1311" stroke="#000" stroke-width="0.5"/>
    <path id="パス_95" data-name="パス 95" d="M1156.239,1066.981c2.309,0,4.619.017,6.928.026-.007.409-.021.818-.023,1.227a.487.487,0,0,0,.974,0c0-.408.016-.816.023-1.224q1.943.008,3.885.005a7.368,7.368,0,0,0,1.929-.046.447.447,0,0,0,.305-.28c.008.015.007.037.016.051a.487.487,0,0,0,.841-.491c.133.225.026.111.044-.061.015-.143.01-.29.017-.433.017-.32.041-.64.065-.959q.052-.684.116-1.366a.492.492,0,0,0-.487-.487q-3.009-.042-6.019-.043l-.6,0c.018-.477.033-.953.051-1.43,1.425.005,2.85,0,4.274-.029a7.284,7.284,0,0,0,1.918-.128.5.5,0,0,0,.248-.763.474.474,0,0,0,.1-.411c0-.094-.005-.266,0-.325.008-.292.021-.583.034-.874q.027-.579.058-1.159a.492.492,0,0,0-.487-.487q-3.016.038-6.034.067c.008-.47.023-.939.024-1.409a.487.487,0,0,0-.974,0c0,.474-.016.947-.024,1.42-1.159.012-2.318.028-3.477.038-.747.007-1.495.015-2.243.012a.431.431,0,0,0-.291-.109.5.5,0,0,0-.487.487c0,.534.01,1.068.016,1.6,0,.222,0,.445,0,.667,0,.071,0,.142,0,.212,0,.025,0,.05-.005.075s0,.011,0,.009a.487.487,0,0,0,.131.376.54.54,0,0,0,.583.681c-.264.036.181.013.27.014.321,0,.641,0,.962,0l2.942.02c.5,0,.992,0,1.487.006-.018.477-.032.954-.051,1.43-2.243-.009-4.5-.009-6.73.166a.516.516,0,0,0-.783.52,11.938,11.938,0,0,1-.018,2.914A.491.491,0,0,0,1156.239,1066.981Zm12.786-8.7.918-.011c-.017.345-.035.689-.049,1.034a3.7,3.7,0,0,0,0,1.108l-.088.007c-.361.023-.723.032-1.084.041-1.026.025-2.052.03-3.078.032-.435,0-.87-.005-1.3-.006q.037-1.07.062-2.139Q1166.715,1058.315,1169.025,1058.283Zm-9.989,2.183c-.367,0-.745-.015-1.12-.007a2.166,2.166,0,0,0,.023-.357c0-.222,0-.444,0-.667,0-.347-.007-.7-.011-1.042,1.834.007,3.669-.007,5.5-.031q-.026,1.062-.062,2.122Q1161.2,1060.477,1159.036,1060.466Zm5.817,3.408q2.746,0,5.492.039c-.034.389-.069.777-.1,1.167-.02.287-.093.7-.088,1.079a.425.425,0,0,0-.464-.129c.186-.056.021,0-.072,0-.125,0-.25.005-.375.007-.443.006-.887.007-1.331.008-1.253,0-2.506,0-3.758-.005q.025-1.082.062-2.164Zm-1.6-.006c-.026.722-.045,1.444-.063,2.165-2.142-.008-4.283-.021-6.425-.024a13.609,13.609,0,0,0,.027-1.989C1158.932,1063.863,1161.095,1063.859,1163.249,1063.868Z" fill="#1a1311" stroke="#000" stroke-width="0.5"/>
    <path id="パス_96" data-name="パス 96" d="M1155.45,1074.089a.5.5,0,0,0,.666-.175,18.143,18.143,0,0,0,1.571-3.594.49.49,0,0,0-.34-.6.5.5,0,0,0-.6.34,16.8,16.8,0,0,1-1.473,3.362A.491.491,0,0,0,1155.45,1074.089Z" fill="#1a1311" stroke="#000" stroke-width="0.5"/>
    <path id="パス_97" data-name="パス 97" d="M1160.209,1070.081a10.611,10.611,0,0,0-.243,3.658,1.605,1.605,0,0,0,1.444,1.2,27.425,27.425,0,0,0,6.993.159.5.5,0,0,0,.487-.487c.033-.719.23-1.418.228-2.14a.487.487,0,0,0-.974,0,13.629,13.629,0,0,1-.185,1.683,32.048,32.048,0,0,1-5.925-.11c-.523-.056-1.038-.06-1.148-.656a11.657,11.657,0,0,1,.3-3.309C1161.251,1069.459,1160.276,1069.464,1160.209,1070.081Z" fill="#1a1311" stroke="#000" stroke-width="0.5"/>
    <path id="パス_98" data-name="パス 98" d="M1163.61,1070.225a1.429,1.429,0,0,1,.248.058l.035.013.107.055a2.573,2.573,0,0,1,.226.146l0,0,.023.018c.037.03.074.062.111.094.276.245.517.525.771.792a.491.491,0,0,0,.689,0,.5.5,0,0,0,0-.688,11.536,11.536,0,0,0-.812-.827,2.306,2.306,0,0,0-1.142-.6.535.535,0,0,0-.375.049.487.487,0,0,0-.175.666A.464.464,0,0,0,1163.61,1070.225Z" fill="#1a1311" stroke="#000" stroke-width="0.5"/>
    <path id="パス_99" data-name="パス 99" d="M1170.668,1069.878a.492.492,0,0,0-.175.667,8.408,8.408,0,0,1,1.473,3.362.487.487,0,0,0,.939-.259,9.222,9.222,0,0,0-1.571-3.595A.5.5,0,0,0,1170.668,1069.878Z" fill="#1a1311" stroke="#000" stroke-width="0.5"/>
    <path id="パス_100" data-name="パス 100" d="M1194.872,1062.919c-2.134-.017-4.268-.047-6.4-.074,1.026-.833,2.035-1.686,2.994-2.594a10.538,10.538,0,0,0,2.588-3.077c.248-.568-.591-1.065-.84-.491a10.272,10.272,0,0,1-2.572,3.007c-1.177,1.1-2.419,2.14-3.688,3.137l-1.315-.014,0-.014c-.006-1.259,0-2.518,0-3.777a31.539,31.539,0,0,1,3.644.133c.622.068.617-.906,0-.974a31.539,31.539,0,0,0-3.644-.133q0-.886,0-1.771a.487.487,0,0,0-.974,0q0,.888,0,1.776c-.335,0-.67.006-1,.006q-1.5,0-3.01.008a10.8,10.8,0,0,1-1.37.005c-.621-.077-.615.9,0,.974a10.826,10.826,0,0,0,1.37-.006q1.506-.008,3.01-.007c.332,0,.667,0,1-.007,0,1.258-.006,2.515,0,3.773l0,.006c-2.628-.03-5.256-.059-7.885-.058a.487.487,0,0,0,0,.973c2.981,0,5.961.03,8.941.067a21.272,21.272,0,0,1-2.581,1.738c-2.033,1.118-4.119,2.524-6.38,3.109a.487.487,0,0,0,.259.939,19.222,19.222,0,0,0,4.6-2.076c-.121,2.245-.287,4.488-.314,6.737a.532.532,0,0,0,.013.638.489.489,0,0,0,.865.146c2.975-.019,5.951-.049,8.924-.114.208-.005.524.02.807-.012a.5.5,0,0,0,.832,0c.2-.324.064-1.017.058-1.372q-.023-1.369-.053-2.74-.044-2.036-.092-4.072a.492.492,0,0,0-.486-.487c-2.762.08-5.524.161-8.287.2-.118,0-.237,0-.355,0l.019-.011a26.538,26.538,0,0,0,3.543-2.461c.062-.047.12-.1.181-.145,2.532.032,5.064.067,7.6.088A.487.487,0,0,0,1194.872,1062.919Zm-4.327,11.022c-1.051.02-2.1.034-3.152.048q-2.555.034-5.109.056.024-1.511.107-3.018a.445.445,0,0,0,.262.085c1.989,0,3.978.035,5.967.05.876.007,1.752.014,2.628,0,.157,0,.347.006.538,0q.023,1.067.043,2.133,0,.3.009.608c-.093,0-.187.007-.281.009C1191.22,1073.929,1190.882,1073.935,1190.545,1073.941Zm-4.851-6.58q2.619-.055,5.238-.13l.767-.022q.035,1.486.067,2.971h-.011c-.286.01-.572.012-.858.013-.875.006-1.75,0-2.625-.008-1.873-.016-3.746-.047-5.619-.048a.488.488,0,0,0-.214.048c.053-.9.109-1.809.158-2.713a.452.452,0,0,0-.012-.078,6.7,6.7,0,0,0,.838,0C1184.18,1067.392,1184.937,1067.377,1185.694,1067.361Z" fill="#1a1311" stroke="#000" stroke-width="0.5"/>
    <path id="パス_101" data-name="パス 101" d="M1204.276,1061.008s.008,0,.028.006l-.006,0Z" fill="#1a1311" stroke="#000" stroke-width="0.5"/>
    <path id="パス_102" data-name="パス 102" d="M1201.088,1065.351q.463-1.1.839-2.228c.068,4.012.135,8.026.025,12.034a.487.487,0,0,0,.974,0c.1-3.681.052-7.366-.01-11.051.141.266.284.532.433.794.1.187.242.509.48.542a.5.5,0,0,0,.6-.34.562.562,0,0,0-.131-.477l.005,0a.229.229,0,0,1,.042.048c-.013-.024-.028-.047-.042-.07q-.077-.132-.15-.264c-.164-.291-.322-.585-.478-.881-.18-.344-.356-.691-.523-1.042-.076-.162-.15-.324-.221-.488l-.018-.044-.033-.083c-.005-.263-.009-.527-.013-.79.279-.007.558-.018.837-.019.166,0,.332,0,.5.007.024,0,.05,0,.075.006,0,0,.007,0,.017,0l.005,0,.029,0,.012,0h-.035a.459.459,0,0,0,.2.042.49.49,0,0,0,.487-.487c-.065-.51-.505-.534-.918-.545s-.81,0-1.215.016c-.02-1.4-.037-2.8-.039-4.2a.487.487,0,0,0-.974,0c0,1.408.02,2.817.04,4.227-.865.031-1.731.068-2.6.069a.487.487,0,0,0,0,.973c.737,0,1.474-.029,2.211-.056v0c-.021.121-.046.242-.074.361-.078.334-.174.664-.277.991-.262.841-.569,1.669-.909,2.481a19.264,19.264,0,0,1-1.149,2.349,6.14,6.14,0,0,1-.549.814,2.586,2.586,0,0,1-.26.274.573.573,0,0,1-.216.138c-.568.262-.074,1.1.492.841a3.515,3.515,0,0,0,1.294-1.443A18.958,18.958,0,0,0,1201.088,1065.351Zm3.252-4.336,0,0c.013,0,.027,0,.041,0Zm-.223-.175c-.01-.013-.028-.014-.038-.029l-.014-.053A.506.506,0,0,0,1204.117,1060.84Z" fill="#1a1311" stroke="#000" stroke-width="0.5"/>
    <path id="パス_103" data-name="パス 103" d="M1204.344,1064.676l.006.009C1204.376,1064.731,1204.376,1064.716,1204.344,1064.676Z" fill="#1a1311" stroke="#000" stroke-width="0.5"/>
    <path id="パス_104" data-name="パス 104" d="M1213.434,1058.469a4.976,4.976,0,0,0,1.429-1.954.487.487,0,0,0-.939-.259c-.011.04-.024.08-.038.12l-.011.028a2.265,2.265,0,0,1-.126.233c-.046.074-.095.146-.147.217-.013.018-.029.036-.042.056.02-.032.063-.081.016-.021l-.09.109c-.233.274-.491.524-.741.782a.487.487,0,0,0,.689.689Z" fill="#1a1311" stroke="#000" stroke-width="0.5"/>
    <path id="パス_105" data-name="パス 105" d="M1206.441,1068.515l.063.046c.013.01.005,0,.009.005a1.957,1.957,0,0,1,.187.162c.144.132.28.273.412.418.252.278.486.571.742.845a.49.49,0,0,0,.688,0,.5.5,0,0,0,0-.689,9.372,9.372,0,0,0-1.729-1.706.492.492,0,0,0-.666.174.5.5,0,0,0,.175.667C1206.362,1068.462,1206.4,1068.488,1206.441,1068.515Z" fill="#1a1311" stroke="#000" stroke-width="0.5"/>
    <path id="パス_106" data-name="パス 106" d="M1204.951,1073.7a.5.5,0,0,0,.666.175,29.113,29.113,0,0,0,5.109-3.044.5.5,0,0,0,.175-.666.49.49,0,0,0-.666-.175,29.149,29.149,0,0,1-5.109,3.044A.491.491,0,0,0,1204.951,1073.7Z" fill="#1a1311" stroke="#000" stroke-width="0.5"/>
    <path id="パス_107" data-name="パス 107" d="M1216.48,1067.112a.5.5,0,0,0-.6.34l-.013.031c-.018.04-.037.08-.057.119-.044.087-.092.171-.143.253s-.1.159-.156.236l-.085.116v0l-.042.052a6.91,6.91,0,0,1-.791.824.49.49,0,0,0,0,.689.5.5,0,0,0,.688,0,5.523,5.523,0,0,0,1.539-2.063.487.487,0,0,0-.34-.6Z" fill="#1a1311" stroke="#000" stroke-width="0.5"/>
    <path id="パス_108" data-name="パス 108" d="M1217.567,1073.308a7.11,7.11,0,0,1-3.228-1.93,6.438,6.438,0,0,1-2.114-3.078.445.445,0,0,0-.1-.209q.008-.981.014-1.963c1.622.047,3.245.091,4.869.092a.487.487,0,0,0,0-.973c-1.623,0-3.244-.045-4.865-.093,0-.669.005-1.338.008-2.007,1.29.011,2.58.032,3.87.032a.487.487,0,0,0,0-.974c-1.289,0-2.577-.021-3.866-.032,0-.851.01-1.7.011-2.553,1.541.013,3.083.015,4.624-.03.625-.019.628-.993,0-.974-1.679.05-3.358.045-5.037.028a.566.566,0,0,0-.137,0q-.648-.006-1.3-.016a.38.38,0,0,0-.066-.2,4.256,4.256,0,0,1-.351-.578c-.054-.1-.1-.212-.152-.319-.022-.051-.044-.1-.067-.153.019.042.018.043,0,0l-.04-.1c-.187-.454-.36-.917-.587-1.353a.492.492,0,0,0-.666-.175.5.5,0,0,0-.175.667c.054.1.1.207.153.312.023.05.045.1.067.151l.015.035.017.04c.091.219.177.44.269.66a7.7,7.7,0,0,0,.5,1q-1.341-.016-2.682-.02a.487.487,0,0,0,0,.974c1.547,0,3.093.026,4.64.044,0,.851-.008,1.7-.011,2.553-1.463-.013-2.927-.017-4.391-.036a.487.487,0,0,0,0,.974c1.462.019,2.925.022,4.387.036,0,.663,0,1.326-.008,1.989-1.677-.049-3.354-.1-5.032-.1a.487.487,0,0,0,0,.974c1.677,0,3.352.05,5.028.1q-.029,4.14-.072,8.281c-.629-.11-1.259-.222-1.891-.314-.613-.089-.878.849-.259.939.837.121,1.67.265,2.5.416a.5.5,0,0,0,.616-.47q.024-2.313.042-4.626a10.9,10.9,0,0,0,1.551,1.739,8.085,8.085,0,0,0,3.658,2.18C1217.92,1074.367,1218.182,1073.428,1217.567,1073.308Z" fill="#1a1311" stroke="#000" stroke-width="0.5"/>
    <path id="パス_109" data-name="パス 109" d="M1222.349,1059.9a22.04,22.04,0,0,1,3.857-.146c.4-.013.8-.007,1.2-.008-.4.688-.81,1.371-1.251,2.035-1.076,1.619-2.372,3.085-3.345,4.774a.487.487,0,0,0,.841.491,8.579,8.579,0,0,1,2.784-2.538c1.044-.621,2.529-1.262,3.716-.646a3.731,3.731,0,0,1,1.6,2.272c-.489.26-.978.522-1.439.822-1.675,1.087-3.583,2.883-3.534,5.063.07,3.116,4.621,3.132,6.794,3.021a20.031,20.031,0,0,0,4.542-.682.487.487,0,0,0-.259-.939,17.839,17.839,0,0,1-3.379.583,15.446,15.446,0,0,1-4.23-.088c-.905-.171-2.165-.511-2.443-1.529a2.612,2.612,0,0,1,.276-1.71,6.663,6.663,0,0,1,2.313-2.6,16.987,16.987,0,0,1,1.614-.994,11.694,11.694,0,0,1,.274,3.547c-.05.625.924.621.974,0a12.376,12.376,0,0,0-.361-4,27.5,27.5,0,0,1,5.656-1.941c.61-.143.352-1.082-.259-.939a28.5,28.5,0,0,0-5.667,1.949,4.446,4.446,0,0,0-2.247-2.8,4.946,4.946,0,0,0-4.191.632c-.049.027-.095.062-.144.09.328-.442.651-.888.956-1.347.544-.82,1.045-1.667,1.535-2.52.592.015,1.184.037,1.777.076,2.446.165,4.9.2,7.35.2a.487.487,0,0,0,0-.973c-2.538,0-5.073-.049-7.6-.217-.326-.021-.652-.023-.977-.036.351-.616.7-1.233,1.067-1.841a.487.487,0,0,0-.841-.491c-.453.756-.887,1.525-1.324,2.292q-1.033-.009-2.067.031a21.9,21.9,0,0,0-3.818.17C1221.479,1059.093,1221.738,1060.032,1222.349,1059.9Z" fill="#1a1311" stroke="#000" stroke-width="0.5"/>
    <path id="パス_110" data-name="パス 110" d="M1248.429,1060.7c.483-.011.965-.026,1.447-.039a11.587,11.587,0,0,1-.59,2.887c-.379,1.289-.841,2.554-1.342,3.8-.833-1.129-1.66-2.263-2.476-3.384-.366-.5-1.211-.016-.841.491q1.433,1.969,2.881,3.933a32.692,32.692,0,0,1-1.556,3.219,5.153,5.153,0,0,1-1.585,2.074c-.554.3-.062,1.136.491.841a5.441,5.441,0,0,0,1.773-2.143,29.72,29.72,0,0,0,1.544-3.106c.862,1.153,1.727,2.3,2.615,3.434.387.492,1.072-.2.689-.689-.956-1.216-1.91-2.478-2.859-3.754a43.56,43.56,0,0,0,1.585-4.388,12.555,12.555,0,0,0,.647-3.24l.279-.008a4.282,4.282,0,0,0,1.329-.079c.567-.239.32-1.174-.253-.941h-.01c-.095,0-.191.012-.286.017-.3.014-.59.023-.885.033-.815.026-1.631.045-2.446.064,0-1.114.042-2.227.106-3.339a.487.487,0,1,0-.973,0c-.065,1.119-.1,2.24-.107,3.361-1.4.032-2.793.064-4.189.066a.487.487,0,0,0,0,.973C1245.087,1060.784,1246.759,1060.739,1248.429,1060.7Z" fill="#1a1311" stroke="#000" stroke-width="0.5"/>
    <path id="パス_111" data-name="パス 111" d="M1254.834,1061.008c.677,0,1.354-.005,2.031-.012.8-.009,1.589-.026,2.383-.038q0,1.852-.006,3.706c-.014,3.224.044,6.473-.133,9.7a6.938,6.938,0,0,1-2.729-.894.487.487,0,0,0-.491.84,8.483,8.483,0,0,0,3.683,1.089.493.493,0,0,0,.486-.487c.218-3.4.143-6.837.157-10.244.006-1.24.006-2.481.007-3.722.437-.008.874-.012,1.311-.021.4-.009,1.059.095,1.327-.268.312-.424-.231-.826-.631-.653l.08-.062c.256-.05-.042-.009-.132-.006l-.591.014q-.681.015-1.362.026c0-.329,0-.657,0-.986a20.89,20.89,0,0,0-.017-2.6c-.081-.612-1.056-.62-.974,0a20.7,20.7,0,0,1,.017,2.6c0,.334,0,.667,0,1-1.313.022-2.626.043-3.94.047-.256,0-.512,0-.768,0-.079,0-.158-.007-.237-.006-.189,0,.036.013.116.054l.057.075c-.341-.264-.96-.015-.773.474C1253.883,1061.094,1254.43,1061.006,1254.834,1061.008Z" fill="#1a1311" stroke="#000" stroke-width="0.5"/>
    <path id="パス_112" data-name="パス 112" d="M1255.448,1069.341a.5.5,0,0,0,.6.34.491.491,0,0,0,.34-.6c-.561-1.555-1.465-2.948-2.115-4.464a.489.489,0,0,0-.666-.175.5.5,0,0,0-.174.667C1254.047,1066.546,1254.917,1067.867,1255.448,1069.341Z" fill="#1a1311" stroke="#000" stroke-width="0.5"/>
    <path id="パス_113" data-name="パス 113" d="M1268.658,1063.574c0,.012,0,.014,0,0Z" fill="#1a1311" stroke="#000" stroke-width="0.5"/>
    <path id="パス_114" data-name="パス 114" d="M1275.5,1063.36v.027c0,.019,0,.039.005.059l0,.014C1275.513,1063.39,1275.509,1063.361,1275.5,1063.36Z" fill="#1a1311" stroke="#000" stroke-width="0.5"/>
    <path id="パス_115" data-name="パス 115" d="M1265.612,1074.682a11.424,11.424,0,0,0,2.143-.653c1.012-.375,2.009-.791,2.994-1.23s1.944-.9,2.879-1.413c.366-.2.751-.417,1.111-.66a11.265,11.265,0,0,1,.053,1.3c-.016.681-.11,1.355-.156,2.033-.013.2.005.547-.2.667-.181.106-.5.01-.675-.037a15.4,15.4,0,0,1-1.628-.621c-.585-.226-.838.715-.259.939.934.36,2.695,1.368,3.459.185a3.9,3.9,0,0,0,.32-1.742c.041-.353.08-.705.1-1.06a11.808,11.808,0,0,0-.138-2.482.471.471,0,0,0-.066-.4,9.628,9.628,0,0,0-1.824-4.059,4.506,4.506,0,0,0,.69-.677.541.541,0,0,0,.048-.081l.354-.007c.43-.009.86-.007,1.29-.012a.463.463,0,0,0-.023.191,7.156,7.156,0,0,0,1.194,3.21c.534.865,1.047,1.744,1.642,2.569a7.665,7.665,0,0,0,4.805,3.386c.613.109.875-.829.259-.939a6.745,6.745,0,0,1-4.292-3.035c-.182-.256-.349-.522-.519-.785a12.957,12.957,0,0,0,4.047-2.866c.433-.454-.255-1.143-.688-.689a12.253,12.253,0,0,1-3.883,2.73l-.436-.71a6.509,6.509,0,0,1-1.155-2.871.5.5,0,0,0-.058-.2c.561,0,1.121-.015,1.682-.016.623,0,1.246,0,1.868.007.2,0,.391.005.586.012.36.014.235.1,0-.115v-.017a.521.521,0,0,0,.343.151.433.433,0,0,0,.323.121c.783-.02.6-1.573.618-2.063q.043-1.212.058-2.426a.493.493,0,0,0-.487-.487l-5.885.049c.16-.128.316-.257.465-.382a4.311,4.311,0,0,0,1.585-2.105.493.493,0,0,0-.469-.617c-1.925-.021-3.848-.135-5.765.013.143-.165.286-.329.427-.494.405-.474-.28-1.166-.688-.689-1.663,1.944-3.435,4.013-5.873,4.984a.5.5,0,0,0-.34.6.49.49,0,0,0,.6.34,10.308,10.308,0,0,0,1.781-.93.249.249,0,0,0-.006.026c0,.621-.1,1.239-.144,1.858a4.02,4.02,0,0,0,.16,1.721c-.085.341.152.75.559.586-.149.06.15,0,.258-.006.236-.007.472-.01.708-.013.716-.011,1.433-.016,2.15-.023.519-.005,1.038-.019,1.557-.03-.039.032-.081.06-.121.091a.525.525,0,0,0-.374.271,10.554,10.554,0,0,1-1.268.676,9.514,9.514,0,0,1-3.868.9.487.487,0,0,0,0,.973,10.661,10.661,0,0,0,4.265-.993,11.786,11.786,0,0,0,1.222-.638,7.919,7.919,0,0,1,.69,1,6.841,6.841,0,0,1-1.239.909c-.76.478-1.548.914-2.348,1.322a24.13,24.13,0,0,1-2.463,1.115,5.022,5.022,0,0,1-1.757.438c-.627-.022-.626.951,0,.974a5.412,5.412,0,0,0,2.016-.473,26.261,26.261,0,0,0,2.608-1.168c.83-.421,1.647-.872,2.436-1.367a10.37,10.37,0,0,0,1.2-.822,9.187,9.187,0,0,1,.512,1.688,8.564,8.564,0,0,1-1.53.97c-.909.5-1.847.943-2.792,1.366s-1.89.812-2.855,1.167a11.155,11.155,0,0,1-2.05.618C1264.736,1073.84,1265,1074.779,1265.612,1074.682Zm9.63-11.557.05.014a.5.5,0,0,1,.052.052A.5.5,0,0,0,1275.242,1063.125Zm3.993.549q-1.865,0-3.728.03a.414.414,0,0,0,.028-.144.439.439,0,0,0-.022-.1c0,.011,0,.015,0,.029a.318.318,0,0,0,0-.043c-.005-.018-.006-.038-.012-.054l0,.007c-.005-.02,0-.039,0-.039,0-.087-.006-.173-.008-.26,0-.283,0-.566,0-.849.005-.464.014-.928.018-1.393l5.977-.049c-.008.448-.016.9-.029,1.345s-.026.879-.05,1.318c0,.076-.009.152-.014.228-.165-.018-.337-.009-.487-.012C1280.354,1063.675,1279.8,1063.675,1279.235,1063.674Zm-8.244-5.84c.019,0,.037,0,.056,0a35.311,35.311,0,0,1,5.889-.1,5.474,5.474,0,0,1-1.054,1.078,9.636,9.636,0,0,1-.846.633c-.1.069-.208.136-.316.2-.051.03-.316.151-.127.078a.5.5,0,0,0-.221.174c-1.873.016-3.747.035-5.621.046A19.338,19.338,0,0,0,1270.991,1057.834Zm.445,5.941c-.73.007-1.461.012-2.191.024-.154,0-.347-.014-.541-.018-.016-.055-.03-.112-.041-.169,0-.026-.008-.051-.013-.077l.008.039c0-.014-.007-.038-.008-.049-.007-.071-.012-.142-.016-.214a7.728,7.728,0,0,1,.025-.927c.036-.489.1-.979.119-1.47,1.922-.012,3.844-.031,5.765-.047-.005.526-.016,1.052-.02,1.579,0,.281-.006.563,0,.844a1.307,1.307,0,0,0,.077.425C1273.547,1063.737,1272.492,1063.764,1271.436,1063.775Z" fill="#1a1311" stroke="#000" stroke-width="0.5"/>
    <path id="パス_116" data-name="パス 116" d="M1292.141,1073.179a17.638,17.638,0,0,0,5.114,1.027,18.958,18.958,0,0,0,6.511-.177.487.487,0,0,0-.259-.939,16.037,16.037,0,0,1-4.924.249,26,26,0,0,1-5.109-.742,3.882,3.882,0,0,1-1.425-.581,2.144,2.144,0,0,1-.543-2.6,10.42,10.42,0,0,1,4.138-4.763,17.837,17.837,0,0,1,3.523-1.583,15.7,15.7,0,0,1,4.252-1.089c.622-.041.627-1.015,0-.974a15.48,15.48,0,0,0-4.121.984,27.06,27.06,0,0,0-3.106,1.246.439.439,0,0,0-.124-.316c-.015-.023-.031-.045-.045-.069-.04-.075-.083-.148-.122-.224-.106-.209-.2-.422-.3-.636-.278-.616-.54-1.24-.8-1.863-.482-1.148-.912-2.349-1.5-3.446-.3-.552-1.139-.06-.841.491.587,1.088,1.012,2.277,1.49,3.415.274.65.546,1.3.837,1.945a3.413,3.413,0,0,0,.575,1.044.526.526,0,0,0,.1.061,11.922,11.922,0,0,0-4.615,4.887,3.811,3.811,0,0,0-.368,2.928A3.032,3.032,0,0,0,1292.141,1073.179Z" fill="#1a1311" stroke="#000" stroke-width="0.5"/>
    <path id="パス_117" data-name="パス 117" d="M1325.609,1069.184a10.543,10.543,0,0,1-2.944,3.051,8.8,8.8,0,0,1-2.714,1.147,6.207,6.207,0,0,1-3.709.076c-2.2-1.028-2.069-4.56-2.092-6.543-.038-3.115.29-6.22.3-9.334a.487.487,0,0,0-.974,0c-.009,2.842-.281,5.675-.3,8.516-.016,2.135-.09,4.615.957,6.555.936,1.735,2.523,2.118,4.374,1.945a10.19,10.19,0,0,0,5.026-1.777,12.124,12.124,0,0,0,2.918-3.145C1326.8,1069.155,1325.959,1068.667,1325.609,1069.184Z" fill="#1a1311" stroke="#000" stroke-width="0.5"/>
    <path id="パス_118" data-name="パス 118" d="M1342.218,1061.307c.474-.022,1.347.095,1.564-.444.2-.489-.435-.739-.779-.466l.062-.081c.068-.043.2-.05.053-.037-.1.01-.208.016-.313.023-.359.023-.718.037-1.077.052-1.074.043-2.149.074-3.224.1l-.3.008c.055-.161.114-.32.168-.481a18.663,18.663,0,0,0,.84-2.926c.1-.613-.842-.877-.939-.259a20.067,20.067,0,0,1-1.032,3.691c-1.564.042-3.129.081-4.694.083a.487.487,0,0,0,0,.973c1.443,0,2.886-.033,4.329-.072-.245.646-.491,1.286-.716,1.915-.968,2.7-1.977,5.391-2.955,8.091a4.928,4.928,0,0,0-.584,1.992c.085.618,1.023.355.939-.259a.664.664,0,0,1,.008.161.473.473,0,0,1,.037-.094,2.415,2.415,0,0,0,.111-.337c.13-.386.27-.769.409-1.152.419-1.159.848-2.315,1.273-3.473.84-2.283,1.673-4.569,2.465-6.87l1.114-.03C1340.06,1061.388,1341.139,1061.356,1342.218,1061.307Z" fill="#1a1311" stroke="#000" stroke-width="0.5"/>
    <path id="パス_119" data-name="パス 119" d="M1333.572,1073.374c-.011.041,0,.04,0,0Z" fill="#1a1311" stroke="#000" stroke-width="0.5"/>
    <path id="パス_120" data-name="パス 120" d="M1342.572,1064.355a19.3,19.3,0,0,1,3.438-.543,10.215,10.215,0,0,1,2.608.125c-.108.12-.216.239-.324.365-.4.474.281,1.166.689.689a5.394,5.394,0,0,1,.831-.883.494.494,0,0,0-.117-.889,9.512,9.512,0,0,0-3.687-.381,20.9,20.9,0,0,0-3.7.578C1341.7,1063.565,1341.963,1064.505,1342.572,1064.355Z" fill="#1a1311" stroke="#000" stroke-width="0.5"/>
    <path id="パス_121" data-name="パス 121" d="M1350.248,1073.09a7.108,7.108,0,0,1-2.79.324,18.666,18.666,0,0,1-2.314-.186c-1.451-.22-3.831-.711-4.062-2.494-.08-.613-1.055-.621-.974,0,.293,2.257,2.6,3.061,4.566,3.4a19.423,19.423,0,0,0,2.593.25,8.15,8.15,0,0,0,3.24-.353C1351.082,1073.8,1350.832,1072.858,1350.248,1073.09Z" fill="#1a1311" stroke="#000" stroke-width="0.5"/>
    <path id="パス_122" data-name="パス 122" d="M952.576,1092.313c-.521,0-1.041-.013-1.562-.022v-.005q0-1.418,0-2.833a.5.5,0,0,0-.487-.487c-1.134,0-2.268.005-3.4.007v-1.536a.487.487,0,0,0-.974,0v1.538c-.828,0-1.656,0-2.484.005a.487.487,0,0,0,0,.973c.828,0,1.656,0,2.484-.005v2.217c-1.238-.037-2.477-.068-3.716-.069a.487.487,0,0,0,0,.973c1.239,0,2.478.033,3.716.07v2.162c-.9-.021-1.8-.041-2.7-.017a.487.487,0,0,0,0,.974c.9-.024,1.8-.006,2.7.014v1.887c-.537,0-1.074,0-1.611,0a3.168,3.168,0,0,0-1.01.035.5.5,0,0,0-.214.813.5.5,0,0,0,.351.145.323.323,0,0,0,.111-.017.182.182,0,0,1-.044.01c.046,0,.1,0,.141,0l.524-.007q.843-.009,1.685-.011h.067v2.134q-1.17-.008-2.34-.017-.512,0-1.025-.01c-.093,0-.574-.05-.294.009-.612-.128-.873.811-.259.939a7.516,7.516,0,0,0,1.423.035l2.495.018v1.361a.487.487,0,0,0,.974,0v-1.356c1.739.011,3.477.026,5.216.021a.487.487,0,0,0,0-.974c-1.739.005-3.478-.01-5.216-.02v-2.139c.93,0,1.86-.006,2.79,0,.224,0,.447,0,.671.009.072,0,.145.006.218.007.184,0-.051-.015-.136-.057.56.276,1.054-.564.491-.841a2.223,2.223,0,0,0-.913-.088c-.583-.008-1.166-.009-1.749-.01-.457,0-.915,0-1.372.005v-1.863c.141,0,.282.007.423.009.7.009,1.4.02,2.1.011.367,0,.987.074,1.208-.3a.464.464,0,0,0,.065-.239.636.636,0,0,0,.048-.186,18.948,18.948,0,0,0,.061-2.327c.517.009,1.035.021,1.552.022A.487.487,0,0,0,952.576,1092.313ZM944,1098.326l-.014-.009.015.007Zm3.122-8.379c.972,0,1.944-.006,2.916-.006q0,1.168,0,2.337c-.973-.024-1.946-.054-2.919-.085Zm2.887,5.384c-.232.009-.464.01-.7.011-.693,0-1.385-.008-2.078-.019l-.114,0v-2.154c.976.031,1.952.061,2.929.085C950.061,1093.946,950.064,1094.645,950.008,1095.331Z" fill="#1a1311" stroke="#000" stroke-width="0.5"/>
    <path id="パス_123" data-name="パス 123" d="M943.73,1099.15h-.013C943.657,1099.147,943.667,1099.163,943.73,1099.15Z" fill="#1a1311" stroke="#000" stroke-width="0.5"/>
    <path id="パス_124" data-name="パス 124" d="M934.409,1106.627c0-.011,0-.021,0-.036-.03.073-.026.1-.013.091A.39.39,0,0,1,934.409,1106.627Z" fill="#1a1311" stroke="#000" stroke-width="0.5"/>
    <path id="パス_125" data-name="パス 125" d="M935.379,1092.627A20.91,20.91,0,0,0,937.1,1088c.139-.611-.8-.871-.939-.259a30.335,30.335,0,0,1-3.719,8.217.487.487,0,0,0,.841.491c.448-.779.9-1.563,1.328-2.356-.015,2.163-.06,4.326-.1,6.488q-.036,2.117-.075,4.233-.012.682-.025,1.364a2.617,2.617,0,0,0-.007.386c0,.012,0,.015,0,.025a.616.616,0,0,1,.064-.123.461.461,0,0,0-.065.159c0,.031-.005.049-.012.055a.5.5,0,0,0,.918.277c.19-.282.08-.936.085-1.247q.027-1.422.052-2.844.063-3.627.119-7.255c.012-.865.027-1.731.028-2.6A.431.431,0,0,0,935.379,1092.627Z" fill="#1a1311" stroke="#000" stroke-width="0.5"/>
    <path id="パス_126" data-name="パス 126" d="M951.707,1105.719a36.542,36.542,0,0,1-5.568-.093,8.129,8.129,0,0,1-3.784-1.848,17.9,17.9,0,0,1-1.978-1.927c.8-2.074,1.233-4.366,1.924-6.45a.492.492,0,0,0-.47-.617c-.932,0-1.849.167-2.774.241a24.563,24.563,0,0,0,1.3-2.327,13.433,13.433,0,0,1,1.378-3.022c.221-.284.129-.888-.344-.832a29.185,29.185,0,0,1-3.168.208.487.487,0,0,0,0,.974c.755-.009,1.506-.057,2.256-.123a20.834,20.834,0,0,0-.831,1.969c-.479,1.219-1.286,2.25-1.843,3.429a.492.492,0,0,0,.42.732c.984.011,1.952-.173,2.929-.243-.5,1.692-.871,3.549-1.481,5.265-.039-.048-.085-.091-.123-.139a8.711,8.711,0,0,1-1.64-2.715c-.182-.6-1.123-.342-.939.259a9.36,9.36,0,0,0,1.681,2.878c.2.255.4.505.614.752a8.226,8.226,0,0,1-2.666,3.478c-.5.364-.017,1.209.492.841a9.011,9.011,0,0,0,2.854-3.559,17.941,17.941,0,0,0,1.866,1.739,9.018,9.018,0,0,0,3.809,1.928,33.181,33.181,0,0,0,6.081.176A.487.487,0,0,0,951.707,1105.719Z" fill="#1a1311" stroke="#000" stroke-width="0.5"/>
    <path id="パス_127" data-name="パス 127" d="M973.737,1088.762c-2.592-.1-5.21.024-7.8.037.016-.478.1-.956.1-1.434a.487.487,0,0,0-.974,0c0,.481-.086.961-.1,1.441-2.509.018-5.019.047-7.528.029a.493.493,0,0,0-.487.486c-.017,2.271-.1,4.545-.248,6.811-.111,1.754-.25,3.513-.511,5.252a9.458,9.458,0,0,1-.987,3.634c-.338.53.5,1.019.841.492a9.662,9.662,0,0,0,1.058-3.693c.273-1.753.429-3.523.547-5.293q.223-3.351.262-6.716c2.674.013,5.349-.021,8.023-.035,2.594-.013,5.214-.135,7.807-.037C974.363,1089.76,974.362,1088.786,973.737,1088.762Z" fill="#1a1311" stroke="#000" stroke-width="0.5"/>
    <path id="パス_128" data-name="パス 128" d="M973.655,1094.517a2.6,2.6,0,0,0-1.1-.116c-.152,0-.3,0-.454-.007.012-.763.026-1.527.027-2.29a.494.494,0,0,0-.487-.487c-1.725,0-3.45.012-5.175.018,0-.337.005-.673.006-1.009a.487.487,0,0,0-.974,0c0,.337,0,.675-.006,1.012-.9,0-1.8,0-2.7.009-.287,0-.574.006-.861.012a5.233,5.233,0,0,0-1.582.092c-.591.2-.337,1.14.259.939a5.066,5.066,0,0,1,1.49-.06c.385-.007.77-.01,1.155-.013.745-.006,1.49-.008,2.235-.011q0,.879-.009,1.758c-1.076.015-2.153.031-3.229.055a23.936,23.936,0,0,0-3.017.1.488.488,0,0,0-.357.47h0a.5.5,0,0,0,.631.449l-.015.019c-.25.038.154,0,.221,0,.212-.007.425-.013.637-.018.634-.018,1.267-.032,1.9-.046q1.613-.036,3.224-.056c-.005.755-.005,1.51-.012,2.265-1.69.08-3.385.1-5.076.108a.487.487,0,0,0,0,.974c1.634-.008,3.269-.032,4.9-.093.055,0,.11,0,.166,0q-.015,1.632-.028,3.262a.5.5,0,0,0-.654.023,8.823,8.823,0,0,1-2.725,1.458,20.285,20.285,0,0,1-3.075.881.491.491,0,0,0-.34.6.5.5,0,0,0,.6.34,21.361,21.361,0,0,0,3.185-.919,9.852,9.852,0,0,0,3-1.64q-.009,1-.017,2.007-.006.687-.011,1.376a6.876,6.876,0,0,1-2.247-.314c-.586-.223-.84.718-.259.939a9.388,9.388,0,0,0,2.99.36.493.493,0,0,0,.486-.487q.027-3.439.05-6.88a15.97,15.97,0,0,0,2.677,3.991,20.6,20.6,0,0,0,1.81,1.76c.318.275.643.539.975.8a7.757,7.757,0,0,1,.976.731l.011.012a.5.5,0,0,0,.688,0h0a.5.5,0,0,0,0-.689l-.009-.007c-.036-.037-.1-.124-.052-.043-.019-.018-.043-.033-.062-.051a.479.479,0,0,0-.1-.079c-.232-.188-.5-.356-.725-.529q-.5-.381-.973-.79a20.478,20.478,0,0,1-1.774-1.711,15.052,15.052,0,0,1-2.727-4.128.419.419,0,0,0-.714-.1l0-.174c1.2,0,2.39.035,3.59.026a4.293,4.293,0,0,0,1.338-.106.482.482,0,0,0,.705-.419c.005-.909.021-1.817.038-2.725l.113,0c.248.005.5.01.745.021.192.007.479.115.218-.031l0-.017a.483.483,0,0,0,.668-.153l0,0A.491.491,0,0,0,973.655,1094.517Zm-7.2-1.393c0-.174,0-.348,0-.522h.2q2.242-.008,4.485-.009,0,.892-.021,1.785c-.22,0-.44-.009-.66-.011-1.275-.015-2.551-.031-3.826-.022-.064,0-.128,0-.193,0C966.449,1093.939,966.453,1093.531,966.455,1093.124Zm4.628,4.455-.008,0a.012.012,0,0,1-.01.006.494.494,0,0,0-.207.356c.026-.234.092-.324.145-.357a1.259,1.259,0,0,0-.152.022c-.2.022-.4.024-.6.028-.549.012-1.1,0-1.647-.017-.726-.02-1.459-.067-2.186-.045q.008-1.128.016-2.256l.1,0c1.177-.01,2.355.005,3.533.017.347,0,.7.011,1.042.016Q971.093,1096.466,971.083,1097.579Z" fill="#1a1311" stroke="#000" stroke-width="0.5"/>
    <path id="パス_129" data-name="パス 129" d="M971,1097.588a.131.131,0,0,1,.019,0,.136.136,0,0,0,.043,0l.01-.006C971.083,1097.573,971.049,1097.56,971,1097.588Z" fill="#1a1311" stroke="#000" stroke-width="0.5"/>
    <path id="パス_130" data-name="パス 130" d="M962.015,1101.695a.49.49,0,0,0,.689,0,.5.5,0,0,0,0-.688c-.347-.387-.773-.7-1.1-1.1a2.1,2.1,0,0,1-.2-.323.487.487,0,0,0-.841.492A7.65,7.65,0,0,0,962.015,1101.695Z" fill="#1a1311" stroke="#000" stroke-width="0.5"/>
    <path id="パス_131" data-name="パス 131" d="M972.088,1099.92c-.379.362-.733.749-1.1,1.121-.182.185-.368.365-.562.537-.1.088-.2.173-.3.256l-.011.009-.064.048c-.059.043-.118.085-.179.127a.487.487,0,0,0,.492.84,19.865,19.865,0,0,0,2.417-2.25.486.486,0,0,0-.688-.688Z" fill="#1a1311" stroke="#000" stroke-width="0.5"/>
    <path id="パス_132" data-name="パス 132" d="M979.4,1090.872c-.048-.006-.076,0,0,0Z" fill="#1a1311" stroke="#000" stroke-width="0.5"/>
    <path id="パス_133" data-name="パス 133" d="M982.274,1094.565c.551-.007,1.1-.014,1.653-.024.245,0,.712.061.929-.088a.544.544,0,0,0,.173-.187.416.416,0,0,0,.354-.452c-.085-1.829-.061-3.667-.048-5.5a.493.493,0,0,0-.487-.486c-2.055-.007-4.132.05-6.184-.082a.452.452,0,0,0-.424.664.443.443,0,0,0-.135.33v17.971a.487.487,0,0,0,.974,0v-12.122C980.144,1094.59,981.209,1094.577,982.274,1094.565Zm1.524-.995q-.823.014-1.646.022c-1.024.012-2.049.024-3.073.025v-1.857a.484.484,0,0,0,.108.06,2.257,2.257,0,0,0,.657.029c.409,0,.818-.009,1.227-.015.942-.015,1.884-.035,2.827-.029.155,0,.311,0,.467.01.007.581.015,1.162.039,1.742h-.056C984.164,1093.563,983.981,1093.567,983.8,1093.57Zm.607.036c-.013.007-.029.01-.041.018v-.011a.151.151,0,0,1,.041-.014Zm-.041.847v0a.433.433,0,0,0,.113.052Zm-.005-5.649c-.005.677-.01,1.354-.01,2.031-.066,0-.13,0-.19,0-.407-.008-.815-.005-1.222,0-.957.009-1.913.031-2.869.04-.169,0-.338,0-.507,0-.051,0-.1,0-.154,0H979.4a.251.251,0,0,1,.044.009.43.43,0,0,0-.367.036v-2.177C980.833,1088.832,982.6,1088.806,984.359,1088.8Z" fill="#1a1311" stroke="#000" stroke-width="0.5"/>
    <path id="パス_134" data-name="パス 134" d="M995.289,1088.195a.493.493,0,0,0-.487-.486l-6.21.039a.493.493,0,0,0-.487.486c.055,1.882.03,3.768.024,5.65a.5.5,0,0,0,.487.487c1.919.013,3.845.025,5.763.133.039,1.53.084,3.06.112,4.583.043,2.35.136,4.691.131,7.041a3.011,3.011,0,0,1-1.871-.415c-.5-.377-.986.468-.491.841a4.034,4.034,0,0,0,2.984.485.491.491,0,0,0,.357-.47c.019-2.5-.09-4.985-.136-7.482C995.4,1095.467,995.232,1091.815,995.289,1088.195Zm-3.936,2.367c-.468.011-.936.023-1.4.028-.154,0-.309,0-.464,0-.049,0-.1-.006-.148,0h-.007a.425.425,0,0,0-.222,0q0-.935-.023-1.87l5.229-.033q-.009.91,0,1.821C993.324,1090.511,992.338,1090.538,991.353,1090.562Zm-2.249,2.84q0-.936.008-1.874l0,0a2.515,2.515,0,0,0,.765.035c.469,0,.938-.017,1.406-.028,1.011-.024,2.022-.053,3.033-.058q.014,1.024.035,2.051C992.608,1093.432,990.854,1093.413,989.1,1093.4Z" fill="#1a1311" stroke="#000" stroke-width="0.5"/>
    <path id="パス_135" data-name="パス 135" d="M984.629,1096.536h0C984.6,1096.513,984.539,1096.478,984.629,1096.536Z" fill="#1a1311" stroke="#000" stroke-width="0.5"/>
    <path id="パス_136" data-name="パス 136" d="M991.4,1104.36c-.132-.051-.263-.1-.394-.155l-.1-.043-.049-.021c-.089-.038-.178-.076-.266-.116a13,13,0,0,1-1.238-.633,5.935,5.935,0,0,1-1.929-1.67l.435,0c1.514.01,3.063-.07,4.575.04.625.046.622-.928,0-.973-1.511-.111-3.061-.03-4.575-.041l-.921-.005a6.844,6.844,0,0,0,.474-2.457c1.045,0,2.089,0,3.133.019.313.005.626.01.938.021.092,0,.183.009.274.012.2.005.031,0-.076-.048.568.251,1.064-.588.492-.841a3.183,3.183,0,0,0-1.165-.109c-.686-.015-1.372-.02-2.058-.025a19.121,19.121,0,0,0,1.368-1.519.487.487,0,0,0,.049-.375.487.487,0,0,0-.6-.34.574.574,0,0,0-.286.219c.01-.013.018-.024,0-.005l-.04.05-.09.111c-.065.076-.13.152-.2.226-.128.144-.261.284-.395.423-.27.279-.544.553-.8.841a.543.543,0,0,0-.136.364c-.477,0-.955,0-1.433,0a.52.52,0,0,0-.058-.19,4.362,4.362,0,0,0-.8-1.084,2.654,2.654,0,0,0-1.226-.734.487.487,0,1,0-.259.939,1.381,1.381,0,0,1,.14.038l.049.017a2.491,2.491,0,0,1,.24.129c.04.026.08.053.118.081.018.013.035.027.054.039l-.014-.009c.079.065.155.135.228.208s.139.143.2.219c.031.036.06.072.09.109l.041.055c.041.058.073.121.111.18-.655,0-1.31-.006-1.965,0a7.7,7.7,0,0,0-1.324.028c-.615.111-.355,1.049.259.939-.264.047.077.012.165.011l.705,0q1.128,0,2.256,0c.348,0,.7.006,1.043.006a6.471,6.471,0,0,1-.5,2.459c-1.361-.01-2.723-.021-4.085-.022a.487.487,0,0,0,0,.974c1.212,0,2.424.011,3.636.019-.156.294-.32.579-.492.844-.711,1.1-1.777,2.4-3.129,2.674-.613.124-.354,1.063.259.939,1.57-.319,2.81-1.761,3.652-3.031a9.169,9.169,0,0,0,.643-1.159,6.471,6.471,0,0,0,2.389,2.225,15.541,15.541,0,0,0,2.333,1.095.491.491,0,0,0,.6-.34A.5.5,0,0,0,991.4,1104.36Z" fill="#1a1311" stroke="#000" stroke-width="0.5"/>
    <path id="パス_137" data-name="パス 137" d="M1018.694,1101.075a3.708,3.708,0,0,0-1.445-.1q-1.593-.029-3.186-.047l-1.734-.02c0-.56.008-1.121.005-1.681,1.058,0,2.116.012,3.174.008a8.857,8.857,0,0,0,1.4-.036.386.386,0,0,0,.346-.35.456.456,0,0,0,.081-.259c0-2.1.036-4.211.07-6.316a.494.494,0,0,0-.487-.487l-4.684-.048c-.01-.67-.012-1.339-.019-2.009,1.9-.072,3.793-.138,5.69-.141a.487.487,0,0,0,0-.974c-1.9,0-3.8.07-5.7.141,0-.428-.011-.856-.011-1.284a.487.487,0,0,0-.974,0c0,.439.009.879.012,1.319-1.834.07-3.668.138-5.5.15a.487.487,0,0,0,0,.974c1.838-.013,3.674-.081,5.511-.151.006.655.008,1.31.018,1.965l-3.124-.031-1.265-.013a.492.492,0,0,0-.486.487q.023,1.326.037,2.651c.008.709.015,1.418.017,2.127a4.146,4.146,0,0,0,.108,1.816.468.468,0,0,0,.23.192c.012.015.015.032.029.046.24.257.851.179,1.165.186.757.018,1.514.025,2.271.031.372,0,.745,0,1.118,0,0,.558,0,1.115-.005,1.673q-2.317-.027-4.635-.054c-.6-.007-1.2-.016-1.8-.019a.487.487,0,0,0,0,.974q3.214.013,6.429.062c-.005.639,0,1.278-.016,1.917a.487.487,0,0,0,.974,0c.014-.634.01-1.269.016-1.9l4.306.064c.418.007.836.013,1.254.023.124,0,.254.017.378.009a.4.4,0,0,1,.084.006,1.159,1.159,0,0,1-.14-.062C1018.76,1102.2,1019.253,1101.361,1018.694,1101.075Zm-2.955-2.813q-1.1.006-2.2,0c-.4,0-.808-.008-1.212-.009-.007-.784-.013-1.567-.025-2.351,1.217.014,2.435.031,3.65.1a.409.409,0,0,0,.444-.315c-.01.856-.026,1.711-.028,2.567C1016.156,1098.259,1015.948,1098.261,1015.739,1098.262Zm-.085-5.512.772.008c-.014.886-.018,1.772-.03,2.658a.471.471,0,0,0-.447-.385c-1.219-.069-2.442-.084-3.664-.1q-.018-1.109-.036-2.217Zm-4.378-.045q.016,1.107.035,2.214l-.234,0c-.854-.014-1.709-.026-2.563-.046-.277-.006-.555-.013-.832-.024-.088,0-.177-.009-.265-.013h-.022c0-.062,0-.124,0-.186q-.012-.99-.029-1.98Zm-3.881,2.141a.464.464,0,0,1,.1.034.5.5,0,0,0-.1-.029Zm1.086,3.382c-.3-.005-.594-.01-.89-.02l-.121-.006a.565.565,0,0,0-.058-.1c0-.145,0-.29,0-.435q0-.474,0-.948,0-.447-.008-.9c.3.036.64.01.9.017.858.021,1.716.034,2.574.048l.445.006c.012.785.018,1.571.025,2.356C1010.393,1098.244,1009.437,1098.245,1008.481,1098.228Z" fill="#1a1311" stroke="#000" stroke-width="0.5"/>
    <path id="パス_138" data-name="パス 138" d="M1018.343,1101.978c.094.035.08.012,0,0Z" fill="#1a1311" stroke="#000" stroke-width="0.5"/>
    <path id="パス_139" data-name="パス 139" d="M1002.54,1090.948c-.121-.16-.238-.323-.353-.488-.373-.539-.713-1.1-1.06-1.655-.144-.23-.3-.519-.614-.514a.484.484,0,0,0-.339.832l.014.02q.074.113.144.228c.154.247.306.5.462.743a16.41,16.41,0,0,0,1.332,1.865,4.529,4.529,0,0,0,.859.806.49.49,0,0,0,.666-.174.5.5,0,0,0-.175-.666l-.077-.056c.079.057.019.014-.019-.018-.06-.051-.117-.1-.173-.157-.129-.124-.249-.256-.366-.392-.06-.07-.118-.141-.176-.213l-.081-.1C1002.637,1091.074,1002.555,1090.969,1002.54,1090.948Zm-2.355-1.817.009.006h-.006C1000.193,1089.14,1000.184,1089.13,1000.185,1089.131Z" fill="#1a1311" stroke="#000" stroke-width="0.5"/>
    <path id="パス_140" data-name="パス 140" d="M1018.137,1105.1c-2.148.944-4.84.849-7.136.727-2.785-.149-5.169-1.257-7.658-2.427a4.97,4.97,0,0,0,.4-1.631c.136-1.651.254-3.3.371-4.958a.5.5,0,0,0-.487-.486c-1.5-.118-3.019-.233-4.527-.205a.487.487,0,0,0,0,.974c1.334-.025,2.675.066,4.007.168-.095,1.33-.191,2.66-.3,3.99a3.879,3.879,0,0,1-.965,2.655,5.812,5.812,0,0,1-2.767,1.47.487.487,0,0,0,.259.939,6.872,6.872,0,0,0,3.109-1.633,4.217,4.217,0,0,0,.383-.451,33.57,33.57,0,0,0,4.9,2.067,14.358,14.358,0,0,0,3.271.5c2.493.134,5.3.163,7.628-.859C1019.2,1105.687,1018.706,1104.848,1018.137,1105.1Z" fill="#1a1311" stroke="#000" stroke-width="0.5"/>
    <path id="パス_141" data-name="パス 141" d="M1032.113,1089.065c-4.34-.176-8.044,3.426-9.348,7.334a7.445,7.445,0,0,0,.319,6c.877,1.551,2.5,2.71,4.22,1.659,1.741-1.065,2.7-3.2,3.424-5.021a21.93,21.93,0,0,0,1.686-8.849.443.443,0,0,0-.028-.118,7.457,7.457,0,0,1,6.513,5.83,7.636,7.636,0,0,1-1.786,5.988,9.645,9.645,0,0,1-1.844,1.592c-.493.346-1.47,1.166-2.125,1.022-.611-.134-.872.8-.259.939,1.409.31,3.072-1.194,4.065-2.027a9.06,9.06,0,0,0,2.983-5.737C1040.435,1093.265,1036.405,1089.24,1032.113,1089.065Zm-1.6,7.669a18.192,18.192,0,0,1-2.222,4.954c-.772,1.118-2.124,2.514-3.466,1.373a5.494,5.494,0,0,1-1.441-5.217c.67-3.478,3.443-6.843,6.971-7.646a6.292,6.292,0,0,1,1.1-.141.467.467,0,0,0-.022.134A19.621,19.621,0,0,1,1030.518,1096.734Z" fill="#1a1311" stroke="#000" stroke-width="0.5"/>
    <path id="パス_142" data-name="パス 142" d="M1060.722,1105.655c-1.911-.016-3.822-.017-5.732-.018-.446,0-.892,0-1.337,0,.008-2.233.068-4.464.141-6.695,2.3-.041,4.632-.147,6.923.028.625.048.622-.926,0-.973-1.777-.136-3.583-.062-5.363-.045-.51.005-1.02.019-1.529.026q.083-2.47.156-4.941c2.1,0,4.2.026,6.292.013.365,0,1.362.147,1.569-.283a.513.513,0,0,0-.606-.708l-.059,0-.464.011c-.466.007-.932.006-1.4.006-1.369,0-2.737-.009-4.106-.014-.4,0-.8-.007-1.2-.011.04-1.539.068-3.078.07-4.617a.487.487,0,0,0-.974,0c0,1.536-.029,3.072-.069,4.607-1.775-.022-3.559-.033-5.316.12a9.546,9.546,0,0,0,1.141-3.712c.034-.626-.94-.625-.973,0a9.743,9.743,0,0,1-1.393,3.975c-.687,1.27-1.48,2.479-2.164,3.751-.3.551.543,1.043.841.491.67-1.244,1.434-2.434,2.111-3.674a.4.4,0,0,0,.367.147c1.772-.159,3.573-.119,5.355-.109q-.074,2.481-.158,4.962c-1.319.02-2.639.034-3.959.067a6.886,6.886,0,0,0-1.526.064.49.49,0,0,0-.291.715.523.523,0,0,0,.434.243.447.447,0,0,0,.077-.01c-.138.036,0,0,.077,0,.129,0,.258-.009.387-.013.442-.014.884-.024,1.326-.034,1.148-.026,2.3-.045,3.445-.063-.073,2.226-.133,4.451-.141,6.678q-4.324,0-8.65.008a.487.487,0,0,0,0,.974c3.482,0,6.963-.012,10.444-.011,1.89,0,3.78,0,5.671.014.621,0,1.242.008,1.863.02a4.862,4.862,0,0,0,.6.014.567.567,0,0,1,.138,0,.646.646,0,0,1-.2-.119v-.019a.48.48,0,0,0,.686.021l0,0a.489.489,0,0,0,0-.689C1062.709,1105.417,1061.342,1105.66,1060.722,1105.655Zm.355-13.477a.434.434,0,0,0-.076.1A.333.333,0,0,1,1061.077,1092.178Zm-13.173,6.2a.462.462,0,0,0-.031-.057l.041.032Zm-.28-.249.035.027a.513.513,0,0,0-.151-.043Z" fill="#1a1311" stroke="#000" stroke-width="0.5"/>
    <path id="パス_143" data-name="パス 143" d="M1062.748,1106.658c.06.021.067.009,0,0Z" fill="#1a1311" stroke="#000" stroke-width="0.5"/>
    <path id="パス_144" data-name="パス 144" d="M1071.118,1090.727a.491.491,0,0,0-.175-.666,12.449,12.449,0,0,1-1.716-1.114q-.82-.588-1.618-1.205a.487.487,0,0,0-.589.764q.846.656,1.715,1.282a12.291,12.291,0,0,0,1.717,1.113A.5.5,0,0,0,1071.118,1090.727Z" fill="#1a1311" stroke="#000" stroke-width="0.5"/>
    <path id="パス_145" data-name="パス 145" d="M1067.606,1095.279c.114.079.227.158.34.239l.186.135.074.056.023.017.006.005a6.579,6.579,0,0,1,.669.6.491.491,0,0,0,.688,0,.5.5,0,0,0,0-.689,9.046,9.046,0,0,0-1.419-1.153c-.233-.163-.469-.324-.7-.493l-.093-.069c-.008-.006-.1-.078-.061-.046s-.063-.05-.06-.048l-.072-.058c-.12-.1-.236-.2-.349-.307a.487.487,0,1,0-.689.689A12.593,12.593,0,0,0,1067.606,1095.279Z" fill="#1a1311" stroke="#000" stroke-width="0.5"/>
    <path id="パス_146" data-name="パス 146" d="M1069.7,1099.511a40.883,40.883,0,0,0-3.672,6.348.49.49,0,0,0,.34.6.5.5,0,0,0,.6-.34,39.691,39.691,0,0,1,3.574-6.116C1070.873,1099.471,1070.03,1098.981,1069.7,1099.511Z" fill="#1a1311" stroke="#000" stroke-width="0.5"/>
    <path id="パス_147" data-name="パス 147" d="M1085.465,1093.925a12.465,12.465,0,0,0-1.854,0l-4.189.051-.694.008c-.069-1.553-.141-3.106-.152-4.662a.449.449,0,0,0-.107-.289,21.288,21.288,0,0,1,4.548-.238c.625.041.623-.933,0-.974-3.751-.245-7.57.723-11.145,1.757a.487.487,0,0,0,.259.939,54.274,54.274,0,0,1,5.5-1.35.466.466,0,0,0-.031.155c.012,1.56.084,3.117.153,4.675-2.111.027-4.222.055-6.333.056a.487.487,0,0,0,0,.974c2.124,0,4.249-.03,6.373-.057.05,1.209.095,2.418.1,3.628,0,.015.007.025.008.039l-3.59.146-1.294.053a.5.5,0,0,0-.487.487c.08,2.407.176,4.842.018,7.247-.036.551.715.613.922.193,1.828,0,3.657-.021,5.486-.044.9-.011,1.793-.023,2.689-.041.389-.008.791,0,1.181-.043a.5.5,0,0,0,.687.231h0a.405.405,0,0,0,.2-.558l.022.008c.041.272.013-.174.012-.264q0-.453,0-.906,0-1.272.011-2.544.009-1.849.021-3.7a.491.491,0,0,0-.486-.487l-4.43.18c0-1.214-.047-2.427-.1-3.639l.5-.007,4.126-.049,1.351-.016c.14,0,.281.005.421,0,.068,0,.3.02.04-.017C1085.819,1094.95,1086.084,1094.012,1085.465,1093.925Zm-2.7,11.757c-.008,0-.015,0-.023,0l.023,0Zm.039-6.273q-.011,1.647-.02,3.294-.006,1.3-.011,2.6c0,.12,0,.243-.008.366-.086,0-.263.017-.315.019-.3.009-.594.015-.891.021q-1.362.026-2.726.041-2.64.033-5.282.042c.089-1.995.032-4.005-.035-6l8.484-.346Z" fill="#1a1311" stroke="#000" stroke-width="0.5"/>
    <path id="パス_148" data-name="パス 148" d="M1096.88,1089.3a11.254,11.254,0,0,0-7.744,8.324c-.479,2.625-.149,7.2,3.648,6.52,2.192-.393,3.412-2.836,4.143-4.7a25.242,25.242,0,0,0,1.505-9.107.444.444,0,0,0-.1-.28,4.82,4.82,0,0,1,2.644.56,8.017,8.017,0,0,1,3.551,5.134,7.769,7.769,0,0,1-.863,6.468,9.859,9.859,0,0,1-5.417,3.591.487.487,0,0,0,.259.939,11.156,11.156,0,0,0,5.611-3.518,8.089,8.089,0,0,0,1.649-6.1C1105.264,1092.666,1101.875,1087.963,1096.88,1089.3Zm.578,1.039a26.464,26.464,0,0,1-1,7.484,10.374,10.374,0,0,1-2.433,4.586c-.989.938-2.724,1.251-3.546-.055a5.975,5.975,0,0,1-.513-3.7,10.282,10.282,0,0,1,5.515-7.749,7.481,7.481,0,0,1,2.014-.738A.478.478,0,0,0,1097.458,1090.336Z" fill="#1a1311" stroke="#000" stroke-width="0.5"/>
    <path id="パス_149" data-name="パス 149" d="M1125.076,1097.144c.007,0,.025,0,.027,0h0S1125.1,1097.139,1125.076,1097.144Z" fill="#1a1311" stroke="#000" stroke-width="0.5"/>
    <path id="パス_150" data-name="パス 150" d="M1125.089,1103.52a.484.484,0,0,0,.88-.264c-.056-1.536.163-3.066.219-4.6.046-1.272.057-2.545.052-3.817a.5.5,0,0,0-.149-.346.457.457,0,0,0,.081-.25c0-.919-.038-1.836-.05-2.754.473-.02.947-.042,1.42-.061.234-.009.482-.034.721-.027a.42.42,0,0,0,.247-.017h0c.342-.127.541-.709.117-.89a1.944,1.944,0,0,0-.833-.049q-.764.028-1.526.062c-1.187.05-2.374.1-3.56.16-.124.006-.261.005-.4.007a7.262,7.262,0,0,0,.321-1.648c1.475-.281,2.959-.516,4.428-.83.613-.131.353-1.07-.259-.939-1.579.337-3.176.58-4.761.891a.491.491,0,0,0-.357.47,7.67,7.67,0,0,1-1.55,4.225c-.356.518.487,1.005.841.492a11.192,11.192,0,0,0,.942-1.636c-.02.007.09-.02.167-.025l.494-.027q.764-.037,1.526-.072c.349-.016.7-.029,1.045-.044.012.9.048,1.807.049,2.712a.468.468,0,0,0,.026.121c-2.954.072-5.909.141-8.864.18,0-1.078.039-2.156.042-3.234.515-.018,1.029-.033,1.544-.053.624-.025.627-1,0-.974-1.846.072-3.692.134-5.539.141a3.693,3.693,0,0,0-.109-1.33c1.719-.372,3.459-.634,5.2-.9a.491.491,0,0,0,.34-.6.5.5,0,0,0-.6-.34c-1.911.291-3.828.571-5.714,1.007a.494.494,0,0,0-.291.716,3.532,3.532,0,0,1-.082,2.629c-.285.912-.7,1.775-1.064,2.655a.491.491,0,0,0,.34.6.5.5,0,0,0,.6-.341,23.96,23.96,0,0,0,1.217-3.122c1.063,0,2.125-.024,3.187-.056,0,1.071-.038,2.143-.042,3.214-.311,0-.621.007-.932.006-.112,0-.224,0-.336,0a.493.493,0,0,0-.78.38c-.015.864-.015,1.728-.027,2.592a.554.554,0,0,0,0,.385c-.021,1.676-.051,3.351-.051,5.027a.445.445,0,0,0,.406.457c.021.017.032.038.057.053a3.1,3.1,0,0,0,1.345.088q1.406.011,2.812.009c2.1,0,4.194,0,6.29-.032C1124.38,1103.516,1124.753,1103.554,1125.089,1103.52Zm-3.172-11.821.009-.018a.494.494,0,0,0,.075-.006Zm3.149,8.16h-.005a1.813,1.813,0,0,0-.233.008c-.275.007-.55.011-.825.015q-1.284.021-2.567.031-2.852.029-5.7.039h-1c-.1,0-.582-.045-.314.009a.5.5,0,0,0-.159,0q.008-.876.018-1.753c2.512-.025,5.02-.154,7.533-.111.929.016,1.86.043,2.789.033a3.811,3.811,0,0,0,.622-.047c-.006.191,0,.383-.008.575-.015.394-.04.788-.068,1.181A.484.484,0,0,0,1125.066,1099.859Zm-10.044-4.322c.94-.006,1.879-.023,2.818-.04q3.2-.057,6.4-.135l1.018-.024c0,.586-.014,1.172-.024,1.758a.516.516,0,0,0-.132.049h0a.548.548,0,0,0-.253.25v-.051a.407.407,0,0,1,.226-.2.115.115,0,0,1-.041,0,2.145,2.145,0,0,0-.349.011c-.346.006-.691,0-1.037,0-.876-.01-1.752-.03-2.628-.043-2.245-.031-4.488.1-6.733.123.008-.557.008-1.115.017-1.672C1114.554,1095.562,1114.808,1095.539,1115.022,1095.537Zm6.361,7.034q-2.954.015-5.906,0-.521,0-1.041-.01l-.2,0c0-.552.013-1.1.016-1.654a7.369,7.369,0,0,0,1.121.02q1.314,0,2.627-.011c1.978-.013,3.956-.027,5.934-.058a8.915,8.915,0,0,0,1.137.012c-.04.552-.065,1.1-.072,1.658l-.07,0c-.29.01-.58.015-.87.019C1123.165,1102.562,1122.274,1102.567,1121.383,1102.571Z" fill="#1a1311" stroke="#000" stroke-width="0.5"/>
    <path id="パス_151" data-name="パス 151" d="M1115.961,1104.264a12.487,12.487,0,0,1-4.812,2.415c-.612.132-.353,1.071.259.939a13.124,13.124,0,0,0,5.044-2.513.5.5,0,0,0,.175-.666A.49.49,0,0,0,1115.961,1104.264Z" fill="#1a1311" stroke="#000" stroke-width="0.5"/>
    <path id="パス_152" data-name="パス 152" d="M1128.655,1106.1a16.068,16.068,0,0,1-4.666-1.69c-.536-.328-1.026.514-.492.841a16.929,16.929,0,0,0,4.9,1.788C1129.005,1107.186,1129.265,1106.247,1128.655,1106.1Z" fill="#1a1311" stroke="#000" stroke-width="0.5"/>
    <path id="パス_153" data-name="パス 153" d="M1135.5,1103.859c-.119.193-.22.393-.322.593-.609-1.911-.353-4.213-.246-6.12a66.941,66.941,0,0,1,1.313-9.461c.123-.612-.815-.874-.939-.259a70,70,0,0,0-1.36,9.932c-.133,2.382-.39,5.19.79,7.368a.493.493,0,0,0,.89-.117,8.86,8.86,0,0,1,.715-1.445C1136.668,1103.816,1135.826,1103.326,1135.5,1103.859Z" fill="#1a1311" stroke="#000" stroke-width="0.5"/>
    <path id="パス_154" data-name="パス 154" d="M1148.917,1092.785a3.7,3.7,0,0,0,1.079-.96.5.5,0,0,0-.215-.813c-3.014-1.158-6.543-.566-9.645-.131-.618.087-.355,1.025.259.939a42.655,42.655,0,0,1,4.523-.453,13.161,13.161,0,0,1,3.816.347,2.26,2.26,0,0,1-.308.231A.487.487,0,0,0,1148.917,1092.785Z" fill="#1a1311" stroke="#000" stroke-width="0.5"/>
    <path id="パス_155" data-name="パス 155" d="M1149.7,1103.055c-3.107.508-7.264.717-9.527-1.9-.41-.475-1.1.216-.689.688,2.508,2.9,7.03,2.718,10.475,2.154C1150.578,1103.894,1150.316,1102.955,1149.7,1103.055Z" fill="#1a1311" stroke="#000" stroke-width="0.5"/>
    <path id="パス_156" data-name="パス 156" d="M1163.455,1090.429c-1.185.009-2.364.1-3.542.208.006-.023.015-.043.02-.066.041-.225.064-.454.085-.682a10.77,10.77,0,0,0,.054-1.321c-.011-.318-.064-.6-.4-.731a.489.489,0,0,0-.6.341.5.5,0,0,0,.018.275v.013c0-.009,0-.009,0,0,0,.042.007.083.008.124.005.175,0,.35-.006.525-.008.206-.02.412-.036.617-.008.1-.016.195-.026.293,0,.043-.009.086-.014.129l0,.029c-.009.067-.019.133-.034.2l0,.011a.411.411,0,0,0-.066.231.445.445,0,0,0,.022.095c-1.485.138-2.97.275-4.463.288a.487.487,0,0,0,0,.973c2.177-.018,4.338-.3,6.506-.463a.518.518,0,0,0-.036.121,27.96,27.96,0,0,1-1.6,6.955c-1.059-1.147-2.118-2.295-3.074-3.531a.491.491,0,0,0-.689,0,.5.5,0,0,0,0,.689c1.049,1.356,2.224,2.6,3.388,3.861-.8,2.039-1.85,4.343-3.724,5.52-.53.332-.041,1.175.491.84,1.953-1.226,3.088-3.456,3.953-5.564a36.087,36.087,0,0,1,2.338,2.781c.369.5,1.214.013.841-.491a41.162,41.162,0,0,0-2.789-3.293,29.241,29.241,0,0,0,1.841-7.767.46.46,0,0,0-.019-.17c.52-.03,1.039-.063,1.561-.067A.487.487,0,0,0,1163.455,1090.429Zm-4.242-1.782c.009.009.014.019.023.027C1159.227,1088.666,1159.222,1088.656,1159.213,1088.647Zm-.111-.162a.256.256,0,0,0,.009.025l-.009-.018Zm.074,1.718-.035.023C1159.154,1090.218,1159.163,1090.21,1159.176,1090.2Zm-.178.158.005-.005,0,.006Z" fill="#1a1311" stroke="#000" stroke-width="0.5"/>
    <path id="パス_157" data-name="パス 157" d="M1173.89,1092.313c-.742,0-1.483.023-2.225.036.052-1.4.094-2.791.1-4.187a.487.487,0,0,0-.974,0c-.009,1.4-.051,2.8-.1,4.2-1.929.042-3.858.092-5.787.093a.487.487,0,0,0,0,.974c1.917,0,3.833-.051,5.749-.093-.173,4.21-.418,8.419-.292,12.633-1.206-.536-2.482-.907-3.733-1.322-.6-.2-.852.742-.259.939a27.27,27.27,0,0,1,4.252,1.575.492.492,0,0,0,.733-.421c-.185-4.477.09-8.947.273-13.42.755-.013,1.509-.036,2.263-.036A.487.487,0,0,0,1173.89,1092.313Z" fill="#1a1311" stroke="#000" stroke-width="0.5"/>
    <path id="パス_158" data-name="パス 158" d="M1168.137,1100.612a.489.489,0,0,0,.666-.175.5.5,0,0,0-.175-.666l-.076-.055h0c-.039-.034-.08-.065-.119-.1q-.142-.123-.274-.258t-.277-.3c-.045-.053-.09-.107-.134-.161l-.067-.084-.014-.018-.017-.023a15.058,15.058,0,0,1-1.165-1.868.492.492,0,0,0-.666-.175.5.5,0,0,0-.175.667,14.31,14.31,0,0,0,1.219,1.938A5.889,5.889,0,0,0,1168.137,1100.612Z" fill="#1a1311" stroke="#000" stroke-width="0.5"/>
    <path id="パス_159" data-name="パス 159" d="M1194.165,1090.156a7.292,7.292,0,0,0-3.231-.3c-.556.035-1.11.1-1.663.166-.016-.573-.027-1.146-.029-1.718a.487.487,0,0,0-.974,0c0,.61.019,1.223.04,1.838l-1.3.176c-3.388.459-6.818.48-10.2.995-.617.094-.355,1.032.259.939,3.273-.5,6.588-.511,9.863-.949.472-.063.944-.129,1.416-.192a36.207,36.207,0,0,1-.071,5.147,3.172,3.172,0,0,0-1.988-1.659c-2.707-.8-5.7,2.454-4.923,5.1.805,2.742,4.512,2.178,6.28.624-.046.219-.1.429-.156.616-.692,2.251-2.521,5.024-5.188,4.85-.625-.041-.623.933,0,.974,2.938.192,5.039-2.579,5.955-5.056a8.924,8.924,0,0,0,.535-3.124,11.261,11.261,0,0,0,.542-3.475c.051-1.371.011-2.742-.029-4.113.43-.052.859-.106,1.291-.141a7.227,7.227,0,0,1,3.316.238C1194.484,1091.337,1194.736,1090.4,1194.165,1090.156Zm-7.467,9.708a3.641,3.641,0,0,1-3.508.563c-2.522-1.206.2-5.109,2.346-4.971,1.63.106,2.2,1.491,2.266,2.958A3.313,3.313,0,0,1,1186.7,1099.864Z" fill="#1a1311" stroke="#000" stroke-width="0.5"/>
    <path id="パス_160" data-name="パス 160" d="M1212.459,1095.769c-2.649-.948-5.214-.27-7.741.72-.314.122-.627.26-.94.4q2.568-2.09,5.237-4.041c1.062-.775,2.132-1.538,3.192-2.315.32-.234,1.516-.844,1.449-1.366a.5.5,0,0,0-.487-.487c-3.6-.037-7.354-.242-10.856.757a.487.487,0,0,0,.259.939,22.748,22.748,0,0,1,5.6-.727c.9-.026,1.8-.027,2.7-.019l.9.012q-.39.287-.779.571c-1.065.771-2.134,1.537-3.191,2.318-2.888,2.133-5.716,4.4-8.4,6.786-.407.362.136,1.086.59.764a25.769,25.769,0,0,1,3.487-1.989,17.049,17.049,0,0,1,5.32-1.785c2.832-.34,7.249,1.35,7.029,4.818-.226,3.557-4.247,5.472-7.394,5.366-1.834-.061-5.839-.989-4.362-3.649.716-1.29,2.407-1.229,3.619-.782,1.658.613,2.771,2.213,3.819,3.553.386.494,1.071-.2.689-.688-1.131-1.446-2.313-3.04-4.075-3.737a4.333,4.333,0,0,0-4.062.222,3.076,3.076,0,0,0-1.006,3.67,4.773,4.773,0,0,0,3.355,2.116c3.453.8,7.518-.24,9.478-3.372a5.015,5.015,0,0,0,.462-4.892A6.72,6.72,0,0,0,1212.459,1095.769Zm.275-6.834c.022-.026.03-.028,0,0Z" fill="#1a1311" stroke="#000" stroke-width="0.5"/>
    <path id="パス_161" data-name="パス 161" d="M1223.124,1087.452a.487.487,0,1,0-.492.841c.89.534,1.826.984,2.754,1.449a.487.487,0,1,0,.491-.841C1224.95,1088.437,1224.014,1087.986,1223.124,1087.452Z" fill="#1a1311" stroke="#000" stroke-width="0.5"/>
    <path id="パス_162" data-name="パス 162" d="M1221.377,1092.267c-.156-.015-.09.087.076,0C1221.428,1092.267,1221.4,1092.269,1221.377,1092.267Z" fill="#1a1311" stroke="#000" stroke-width="0.5"/>
    <path id="パス_163" data-name="パス 163" d="M1222.126,1092.269l1.8.016c1.341.01,2.684.026,4.025-.013a.487.487,0,0,0,0-.974c-1.408.042-2.818.023-4.226.011l-1.809-.015c-.276,0-.765-.079-.976.147-.427.458.26,1.148.689.689a.663.663,0,0,1-.175.137h.087C1221.735,1092.266,1221.931,1092.267,1222.126,1092.269Z" fill="#1a1311" stroke="#000" stroke-width="0.5"/>
    <path id="パス_164" data-name="パス 164" d="M1221.863,1094.922c-.624.03-.627,1,0,.974,1.641-.081,3.286-.144,4.928-.145a.487.487,0,0,0,0-.974C1225.149,1094.778,1223.5,1094.842,1221.863,1094.922Z" fill="#1a1311" stroke="#000" stroke-width="0.5"/>
    <path id="パス_165" data-name="パス 165" d="M1227.065,1098.128a12.074,12.074,0,0,0-3.051-.122c-.461.022-.921.052-1.381.081-.161.01-.321.021-.482.027l-.165,0c-.059,0-.2-.027.007.01a.5.5,0,0,0-.6.34.491.491,0,0,0,.34.6,3.359,3.359,0,0,0,.783,0c.456-.028.912-.059,1.368-.082.527-.026,1.055-.043,1.583-.035.25,0,.5.013.748.033a3.771,3.771,0,0,1,.591.083C1227.418,1099.2,1227.679,1098.259,1227.065,1098.128Z" fill="#1a1311" stroke="#000" stroke-width="0.5"/>
    <path id="パス_166" data-name="パス 166" d="M1226.664,1100.879c-1.2.031-2.4.057-3.592.12a3.694,3.694,0,0,0-.449.032.461.461,0,0,0-.522.465v4.2a.492.492,0,0,0,.487.487c1.175-.039,2.364-.062,3.532-.2.26-.03.638-.07.786-.325a.432.432,0,0,0,.227-.4c0-1.3.01-2.6.018-3.9A.493.493,0,0,0,1226.664,1100.879Zm-1.6,4.218c-.662.042-1.325.071-1.987.1v-3.221l.049,0c.317-.016.633-.028.95-.039q1.05-.038,2.1-.065h0c-.007,1.046-.014,2.092-.015,3.138l-.057.009-.108.011C1225.685,1105.057,1225.373,1105.078,1225.062,1105.1Z" fill="#1a1311" stroke="#000" stroke-width="0.5"/>
    <path id="パス_167" data-name="パス 167" d="M1238.986,1087.843c-2.794.127-5.592.246-8.389.26-.087-.559-.983-.546-.959.059.239,6.042.073,12.246-2.012,17.987-.214.59.726.844.939.259,2.007-5.527,2.261-11.5,2.074-17.332,2.616-.014,5.233-.12,7.846-.238q-.207,7.59-.4,15.18c-.014.531-.066,1.087-.07,1.631-.842-.17-1.7-.211-2.54-.419a.487.487,0,0,0-.259.939c1.05.26,2.14.249,3.177.572a.491.491,0,0,0,.616-.47,16.287,16.287,0,0,1,.038-1.78q.053-2.156.111-4.31.126-4.818.257-9.637.03-1.107.061-2.214A.491.491,0,0,0,1238.986,1087.843Z" fill="#1a1311" stroke="#000" stroke-width="0.5"/>
    <path id="パス_168" data-name="パス 168" d="M1236.554,1097.241c.271-.014.546-.044.817-.041a.487.487,0,0,0,0-.974c-.693-.007-1.4.073-2.088.111l-.192.009a.472.472,0,0,0,.013-.068c0-1.068,0-2.136,0-3.2.4-.014.8-.028,1.2-.046.139-.006.315-.01.481-.032h.005c.025,0,.023,0,0,0a.7.7,0,0,0,.258-.062.49.49,0,0,0,.1-.764.558.558,0,0,0-.357-.145.457.457,0,0,0-.048.009h0c-.042,0-.084.005-.125.007-.14.008-.279.014-.419.02-.364.016-.729.028-1.094.041,0-.346,0-.693,0-1.039a.487.487,0,0,0-.974,0c0,.354,0,.709,0,1.064-.61.019-1.221.043-1.832.043a.487.487,0,0,0,0,.974c.611,0,1.222-.025,1.832-.044,0,1.06,0,2.12,0,3.18a.486.486,0,0,0,.024.114c-.736.039-1.472.08-2.208.109a6.063,6.063,0,0,1-.952.015.49.49,0,0,0-.487.487.5.5,0,0,0,.487.487,4.991,4.991,0,0,0,.764-.009c.5-.017,1.006-.041,1.509-.066Q1234.911,1097.334,1236.554,1097.241Zm.119-4.26-.033-.02a.529.529,0,0,0,.132.031Z" fill="#1a1311" stroke="#000" stroke-width="0.5"/>
    <path id="パス_169" data-name="パス 169" d="M1235.54,1103.861c.348-.011.7-.1.725-.524a.529.529,0,0,0-.01-.057c0-.016.009-.028.009-.045,0-1.311.1-2.626.163-3.934a.492.492,0,0,0-.487-.487c-.871.014-1.744.033-2.615.024a.489.489,0,0,0-.919.12.52.52,0,0,0,0,.71c.037,1.162.131,2.322.126,3.485a.419.419,0,0,0-.035.184.553.553,0,0,0,.036.155v.033a.483.483,0,0,0,.853.3c.459,0,.918.018,1.376.03C1235.023,1103.861,1235.282,1103.869,1235.54,1103.861Zm-2.033-1.01c-.011-1.014-.083-2.026-.12-3.039q1.02.008,2.039-.015c-.056,1.03-.112,2.061-.126,3.092-.238,0-.477-.006-.715-.013C1234.226,1102.867,1233.867,1102.855,1233.507,1102.851Z" fill="#1a1311" stroke="#000" stroke-width="0.5"/>
    <path id="パス_170" data-name="パス 170" d="M1252.392,1087.437c0,.628.01,1.256.018,1.884h-.01c-2.737.128-5.477.233-8.217.237a.487.487,0,0,0,0,.974c2.444,0,4.888-.093,7.329-.2-.081.08-.156.166-.24.243a19.931,19.931,0,0,1-1.63,1.314c-1.323.977-2.7,1.889-4.112,2.733a17.907,17.907,0,0,1-1.738.947c-.569.259-.075,1.1.492.841a27.619,27.619,0,0,0,3.694-2.181,32.577,32.577,0,0,0,3.93-2.918c.165-.149.347-.315.515-.5.017,1.1.033,2.208.031,3.312a.487.487,0,0,0,.974,0c0-.967-.013-1.934-.027-2.9a31.68,31.68,0,0,0,8.8,5.183c.568.251,1.064-.588.491-.841-1.546-.684-3.071-1.423-4.551-2.242a20.087,20.087,0,0,1-4.336-3.044.372.372,0,0,0-.042-.027c2.75-.076,5.5-.017,8.249-.012a.487.487,0,0,0,0-.974c-2.879-.005-5.751-.07-8.627.023-.007-.618-.019-1.236-.017-1.855A.487.487,0,0,0,1252.392,1087.437Z" fill="#1a1311" stroke="#000" stroke-width="0.5"/>
    <path id="パス_171" data-name="パス 171" d="M1256.992,1099.8c.087.027.068,0,0,0Z" fill="#1a1311" stroke="#000" stroke-width="0.5"/>
    <path id="パス_172" data-name="パス 172" d="M1262.864,1104.94a7.2,7.2,0,0,0-2.016-.015c-.608.009-1.215.006-1.823.011-.092,0-.185.006-.277.007.045-.9.049-1.809.075-2.71q.075-2.519.149-5.037.018-.593.035-1.185a.493.493,0,0,0-.487-.487q-5-.017-9.989-.022a.418.418,0,0,0-.08.016.491.491,0,0,0-.842.326c0,3.14-.141,6.28-.145,9.42l0,.013-1.125.035c-.588.016-1.176.033-1.763.044-.191,0-.382.008-.572.008-.094,0-.345-.05-.129.01a.487.487,0,0,0-.259.939,7.139,7.139,0,0,0,1.937-.006c1.445-.038,2.89-.084,4.335-.129,2.894-.09,5.788-.2,8.683-.26.447-.009.893-.006,1.34-.009.579,0,1.157-.015,1.736-.023.252,0,.876-.031.955-.007A.487.487,0,0,0,1262.864,1104.94Zm-14.426.307c0-1.814.044-3.627.084-5.44l.009,0c1.741,0,3.481-.008,5.222-.012q1.135,0,2.273,0c.249,0,.5,0,.746,0,.067,0,.136.006.2,0a.093.093,0,0,1,.017,0l-.039-.013c.585.225.839-.716.259-.939a3.336,3.336,0,0,0-1.047-.03q-1.154,0-2.307,0c-1.774,0-3.547.012-5.321.012.016-.786.031-1.573.036-2.36q4.724,0,9.446.022-.083,2.816-.167,5.631a.476.476,0,0,0-.27-.1c-.07,0-.14,0-.21,0-.007,0-.011,0-.018,0-2.747.01-5.495,0-8.243,0a.487.487,0,0,0,0,.974c2.823,0,5.648.016,8.471,0a.483.483,0,0,0,.247-.071q-.019.652-.039,1.3c-.007.244-.015.489-.022.734-.645.017-1.29.03-1.935.05Q1252.136,1105.13,1248.438,1105.247Z" fill="#1a1311" stroke="#000" stroke-width="0.5"/>
    <path id="パス_173" data-name="パス 173" d="M1272.155,1088.255c-1.245-.016-2.49-.011-3.735-.013-.557,0-1.114,0-1.671-.008-.182,0-.365-.005-.548-.011l-.13-.006a.5.5,0,0,0-.568.714c.173.324.666.267.974.272.559.011,1.119.011,1.678.013l.628,0c-.023.072-.045.146-.07.218-.138.388-.3.767-.466,1.142-.438.98-.923,1.939-1.431,2.885-.524.976-1.075,1.941-1.673,2.875a9.737,9.737,0,0,1-1.448,1.915c-.459.429.23,1.116.688.688a10.48,10.48,0,0,0,1.545-2.024c.641-.994,1.228-2.024,1.785-3.067.532-1,1.041-2.007,1.49-3.042a10,10,0,0,0,.6-1.587c.785,0,1.57,0,2.354.008A.487.487,0,0,0,1272.155,1088.255Z" fill="#1a1311" stroke="#000" stroke-width="0.5"/>
    <path id="パス_174" data-name="パス 174" d="M1271.708,1095.175q-1.037,0-2.074.025c-.476.011-.952.024-1.426.057a2.721,2.721,0,0,0-.857.143l-.018.006a.592.592,0,0,0-.061.017.44.44,0,0,0-.065.054.339.339,0,0,0-.037.031.392.392,0,0,0-.092.122l-.008.018a.418.418,0,0,0-.032.159c0,.013-.007.023-.007.037,0,1.752,0,3.505,0,5.258,0,.759,0,1.517-.015,2.275,0,.249-.008.5-.016.745a.454.454,0,0,0,0,.581.513.513,0,0,0,.76.2h.011c.323.01.647.013.97.015.733.005,1.466.006,2.2-.012a1.627,1.627,0,0,0,.742-.1.443.443,0,0,0,.225-.457.423.423,0,0,0,.224-.4c-.05-2.414.04-4.839.061-7.253,0-.348.006-.7.009-1.045A.494.494,0,0,0,1271.708,1095.175Zm-1.674,8.774c-.683.005-1.365,0-2.048-.01,0-.075-.005-.151,0-.208.015-.768.017-1.537.02-2.306.006-1.725,0-3.45,0-5.175.125-.011.25-.022.375-.03.475-.027.95-.04,1.426-.05s.941-.013,1.412-.016q-.029,3.383-.057,6.764c0,.336-.014.675-.008,1.011l-.177.007C1270.661,1103.944,1270.348,1103.947,1270.034,1103.949Z" fill="#1a1311" stroke="#000" stroke-width="0.5"/>
    <path id="パス_175" data-name="パス 175" d="M1284.765,1088.4c-3.286.005-6.569.147-9.856.145a.487.487,0,0,0,0,.973c.611,0,1.222-.018,1.833-.026.009,2.025.085,4.135-.027,6.216-.5.016-.991.036-1.487.051-.443.013-.891.046-1.334.032a.487.487,0,0,0,0,.974c.913.028,1.834-.021,2.751-.065a14.8,14.8,0,0,1-2.591,7.739c-.373.5.472.99.841.491a15.646,15.646,0,0,0,2.725-8.273c1.223-.041,2.445-.093,3.667-.144q-.058,5.537-.068,11.075a.487.487,0,0,0,.974,0q0-5.557.069-11.113c.237-.012.475-.016.712-.028.353-.019,1.159.069,1.428-.229a.489.489,0,0,0,.125-.474v0a.508.508,0,0,0-.755-.254c.037-.027.076-.055.1-.073-.064,0-.131.012-.192.016-.258.019-.517.032-.775.045-.211.011-.422.018-.633.028q.034-3.047.076-6.094c.805-.013,1.609-.035,2.415-.036A.487.487,0,0,0,1284.765,1088.4Zm-1.048,7.127,0,0v0Zm-2.417.019-.78.033c-.945.037-1.89.065-2.835.1.106-2.078.039-4.18.031-6.2,1.22-.021,2.44-.029,3.66-.054Q1281.329,1092.485,1281.3,1095.546Z" fill="#1a1311" stroke="#000" stroke-width="0.5"/>
    <path id="パス_176" data-name="パス 176" d="M1283.9,1095.413a.111.111,0,0,0-.018,0s0,0,0,0Z" fill="#1a1311" stroke="#000" stroke-width="0.5"/>
    <path id="パス_177" data-name="パス 177" d="M1283.923,1095.411c.057.005.031,0,0,0Z" fill="#1a1311" stroke="#000" stroke-width="0.5"/>
    <path id="パス_178" data-name="パス 178" d="M1283.874,1095.415h.011C1283.9,1095.4,1283.894,1095.4,1283.874,1095.415Z" fill="#1a1311" stroke="#000" stroke-width="0.5"/>
    <path id="パス_179" data-name="パス 179" d="M1283.921,1095.411h0Z" fill="#1a1311" stroke="#000" stroke-width="0.5"/>
    <path id="パス_180" data-name="パス 180" d="M1283.9,1095.413l.017,0Z" fill="#1a1311" stroke="#000" stroke-width="0.5"/>
    <path id="パス_181" data-name="パス 181" d="M1288.823,1093.287a.5.5,0,0,0,.486-.487c.039-.427.069-.855.11-1.281.013-.135.029-.27.044-.405,1.749.021,3.5.014,5.247,0a9.514,9.514,0,0,1-1.447,2.45,6.677,6.677,0,0,1-3.555,2.1c-.609.146-.351,1.085.259.939a7.571,7.571,0,0,0,3.944-2.306,10.4,10.4,0,0,0,1.709-2.846.62.62,0,0,0,.045-.347c.851-.009,1.7-.012,2.551-.019a.5.5,0,0,0-.025.121c0,.869-.139,1.732-.109,2.6a2.507,2.507,0,0,0,.856,2.132,3.538,3.538,0,0,0,1.79.336,17.659,17.659,0,0,0,2.108-.124c.448-.049.9-.1,1.34-.177a.466.466,0,0,0,.34-.34c.053-.373.1-.747.14-1.121.043-.411.171-1.185-.47-1.187a.47.47,0,0,0-.451.609c0-.005-.006-.008-.006-.013-.006-.054-.008-.062-.005-.023a.365.365,0,0,0,0,.074c0,.072-.006.144-.011.217-.014.179-.033.357-.054.536-.013.118-.029.236-.044.355l-.065.009-.072.01-.368.046c-.636.075-1.275.133-1.915.151-.321.008-.643.008-.963-.016a2.748,2.748,0,0,1-.683-.124.4.4,0,0,1-.045-.016l0,0c-.037-.022-.073-.042-.109-.065.117.076-.024-.031-.057-.072.013.017-.07-.118-.087-.151a2.542,2.542,0,0,1-.187-.935c-.046-.906.1-1.806.1-2.71a.485.485,0,0,0-.025-.126c1.923-.013,3.846-.01,5.768.039a4.672,4.672,0,0,1-.032,2.276c-.206.593.734.848.939.259a6.528,6.528,0,0,0-.022-3.146.489.489,0,0,0-.469-.357c-2.6-.075-5.2-.061-7.8-.037,0-.04.007-.08.009-.122.007-.162.012-.324.016-.486q.016-.559.023-1.119a.734.734,0,0,0-.146-.573.5.5,0,0,0-.59-.076.482.482,0,0,0-.225.295.571.571,0,0,0-.005.165c0-.026-.008-.045-.009-.019s0,.03,0,.045c0,.049,0,.1,0,.145,0,.155,0,.309-.007.464-.006.35-.014.7-.027,1.05,0,.063-.005.127-.009.19v.009c0,.014-.006.026-.006.04-2.322.023-4.643.045-6.964.018a.465.465,0,0,0-.345-.419.494.494,0,0,0-.6.341c-.174.9-.224,1.823-.307,2.738A.489.489,0,0,0,1288.823,1093.287Zm8.459-3.545,0,0-.005,0Zm.174.174a.31.31,0,0,1,.015.035.478.478,0,0,0-.036-.057Zm-.125-1.337h0l.011-.009Zm-.59-.076-.012-.021.017.021Zm.05,1.239h.006l-.017.01Zm.722.373a.8.8,0,0,0-.029-.135.524.524,0,0,1,.032.135Zm-.019-1.7a.5.5,0,0,0,.031-.066l-.02.054Zm-.85-.08-.028-.048a.2.2,0,0,0,0-.047A.472.472,0,0,0,1296.644,1088.336Z" fill="#1a1311" stroke="#000" stroke-width="0.5"/>
    <path id="パス_182" data-name="パス 182" d="M1306.018,1101.931c0,1.224-.039,2.448-.08,3.671-.69,0-1.38,0-2.068-.027-.884-.03-2.308.166-2.835-.7a6.365,6.365,0,0,1-.434-3.613,16.765,16.765,0,0,1,.3-2.23.493.493,0,0,0-.47-.616c-1.591.016-3.188.009-4.785.009.087-.3.169-.607.236-.908a7.09,7.09,0,0,0,.236-1.959c-.039-.623-1.013-.627-.973,0a6.581,6.581,0,0,1-.261,1.951c-.076.31-.181.612-.277.917-1.836.006-3.671.029-5.5.123-.623.032-.627,1.006,0,.974,1.714-.088,3.435-.112,5.156-.12-.144.365-.287.73-.46,1.082a8.434,8.434,0,0,1-5.115,4.749.487.487,0,0,0,.259.939c3.189-.849,5.289-3.733,6.382-6.774,1.505,0,3.008,0,4.508-.007-.373,1.944-.651,4.467.427,6.1.659.995,1.787.975,2.871,1.035s2.183.073,3.274.064a.5.5,0,0,0,.487-.486c.049-1.388.087-2.777.09-4.165A.487.487,0,0,0,1306.018,1101.931Z" fill="#1a1311" stroke="#000" stroke-width="0.5"/>
  </g>
</svg>
