<svg xmlns="http://www.w3.org/2000/svg" width="14.76" height="18.541" viewBox="0 0 14.76 18.541">
  <g id="グループ_188" data-name="グループ 188" transform="translate(0)">
    <g id="グループ_186" data-name="グループ 186" transform="translate(0)">
      <path id="パス_456" data-name="パス 456" d="M229.062,456.48a132.494,132.494,0,0,1-6.122,16.373c-.532,1.131,1.15,2.123,1.686.985A136.55,136.55,0,0,0,230.946,457c.382-1.2-1.5-1.714-1.883-.519Z" transform="translate(-222.838 -455.801)" fill="#1a1311"/>
      <path id="パス_457" data-name="パス 457" d="M227.635,457.083c1.736,4.8,3.718,9.517,5.542,14.285.167.433.332.865.49,1.3.062.168.236.912.182.388.128,1.239,2.082,1.251,1.953,0a6.924,6.924,0,0,0-.54-1.677c-.428-1.131-.868-2.257-1.307-3.383-1.08-2.769-2.171-5.535-3.247-8.306-.4-1.04-.811-2.078-1.192-3.127-.423-1.172-2.31-.667-1.882.519Z" transform="translate(-221.049 -455.765)" fill="#1a1311"/>
      <path id="パス_458" data-name="パス 458" d="M225.862,465.756a52.063,52.063,0,0,1,7.307-.445.977.977,0,0,0,0-1.953,54.849,54.849,0,0,0-7.825.515.982.982,0,0,0-.682,1.2,1,1,0,0,0,1.2.682Z" transform="translate(-222.16 -452.948)" fill="#1a1311"/>
    </g>
  </g>
</svg>
