<svg id="グループ_187" data-name="グループ 187" xmlns="http://www.w3.org/2000/svg" width="16.538" height="20.908" viewBox="0 0 16.538 20.908">
  <path id="パス_1248" data-name="パス 1248" d="M199.871,472.388a6.73,6.73,0,0,1-3.89-.982,5.6,5.6,0,0,1-2.049-3.321,13.737,13.737,0,0,1-.227-4.751,6.979,6.979,0,0,1,1.405-3.855,6.469,6.469,0,0,1,3.824-1.967,6.824,6.824,0,0,1,4.056.3,5.824,5.824,0,0,1,2.243,3.047,11.475,11.475,0,0,1,.952,5.6,6.392,6.392,0,0,1-6.314,5.931.977.977,0,0,0,0,1.952,8.236,8.236,0,0,0,8-6.293,12.054,12.054,0,0,0-.284-6.406,10.68,10.68,0,0,0-2.7-4.869c-2.562-2.254-7.357-1.58-9.956.269-3.174,2.257-3.6,6.621-3.126,10.2a7.339,7.339,0,0,0,8.065,7.1.977.977,0,0,0,0-1.952Z" transform="translate(-191.642 -455.348)" fill="#1a1311"/>
  <path id="パス_1249" data-name="パス 1249" d="M197.375,465.378a10.608,10.608,0,0,0,2,3.707,27.226,27.226,0,0,1,2.423,3.371.976.976,0,1,0,1.686-.985,28.282,28.282,0,0,0-2.357-3.286,17.543,17.543,0,0,1-1.154-1.668,5.461,5.461,0,0,1-.714-1.659.977.977,0,1,0-1.883.519Z" transform="translate(-189.489 -452.027)" fill="#1a1311"/>
</svg>
